{
	"asset":{
		"generator":"Khronos glTF Blender I/O v5.1.20",
		"version":"2.0"
	},
	"scene":0,
	"scenes":[
		{
			"name":"Scene",
			"nodes":[
				0,
				1,
				2,
				3,
				4,
				5,
				6,
				7,
				8,
				9,
				10,
				11,
				12,
				13,
				14,
				15,
				16,
				17,
				18,
				19,
				20,
				21,
				22,
				23,
				24,
				25,
				26,
				27,
				28,
				29,
				30,
				31,
				32,
				33,
				34,
				35,
				36,
				37,
				38,
				39,
				40,
				41,
				42,
				43,
				44,
				45,
				46,
				47,
				48,
				49,
				50,
				51,
				52,
				53,
				54,
				55,
				56,
				57,
				58,
				59,
				60,
				61,
				62,
				63,
				64,
				65,
				66,
				67,
				68,
				69,
				70,
				71,
				72,
				73,
				74,
				75,
				76,
				77,
				78,
				79,
				80,
				81,
				82,
				83,
				84,
				85,
				86,
				87,
				88,
				89,
				90,
				91,
				92,
				93,
				94,
				95,
				96,
				97,
				98,
				99,
				100,
				101,
				102,
				103,
				104,
				105,
				106,
				107,
				108,
				109,
				110,
				111,
				112,
				113,
				114,
				115,
				116,
				117,
				118,
				119,
				120,
				121,
				122,
				123,
				124,
				125,
				126,
				127,
				128,
				129,
				130,
				131,
				132,
				133,
				134,
				135,
				136,
				137,
				138,
				139,
				140,
				141,
				142,
				143,
				144,
				145,
				146,
				147,
				148,
				149,
				150,
				151,
				152,
				153,
				154,
				155,
				156,
				157,
				158,
				159,
				160,
				161,
				162,
				163,
				164,
				165,
				166,
				167,
				168,
				169,
				170,
				171,
				172,
				173,
				174,
				175,
				176,
				177,
				178,
				179,
				180,
				181,
				182,
				183,
				184,
				185,
				186,
				187,
				188,
				189,
				190,
				191,
				192,
				193,
				194,
				195,
				196,
				197,
				198,
				199,
				200,
				201,
				202,
				203,
				204,
				205,
				206,
				207,
				208,
				209,
				210,
				211,
				212,
				213,
				214,
				215,
				216,
				217,
				218,
				219,
				220,
				221,
				222,
				223,
				224,
				225,
				226,
				227,
				228,
				229,
				230,
				231,
				232,
				233,
				234,
				235,
				236,
				237,
				238,
				239,
				240,
				241,
				242,
				243,
				244,
				245,
				246,
				247,
				248,
				249,
				250,
				251,
				252,
				253,
				254,
				255,
				256,
				257,
				258,
				259,
				260,
				261,
				262,
				263,
				264,
				265,
				266,
				267,
				268,
				269,
				270,
				271,
				272,
				273,
				274,
				275,
				276,
				277,
				278,
				279,
				280,
				281,
				282,
				283,
				284,
				285,
				286,
				287,
				288,
				289,
				290,
				291,
				292,
				293,
				294,
				295,
				296,
				297,
				298,
				299,
				300,
				301,
				302,
				303,
				304,
				305,
				306,
				307,
				308,
				309,
				310,
				311,
				312,
				313,
				314,
				315,
				316,
				317,
				318,
				319,
				320,
				321,
				322,
				323,
				324,
				325,
				326,
				327,
				328,
				329,
				330,
				331,
				332,
				333,
				334,
				335,
				336,
				337,
				338,
				339,
				340,
				341,
				342,
				343,
				344,
				345,
				346,
				347,
				348,
				349,
				350,
				351,
				352,
				353,
				354,
				355,
				356,
				357,
				358,
				359,
				360,
				361,
				362,
				363,
				364,
				365,
				366,
				367,
				368,
				369,
				370,
				371,
				372,
				373,
				374,
				375,
				376,
				377,
				378,
				379,
				380,
				381,
				382,
				383,
				384,
				385,
				386,
				387,
				388,
				389,
				390,
				391,
				392,
				393,
				394,
				395,
				396,
				397,
				398,
				399,
				400
			]
		}
	],
	"nodes":[
		{
			"mesh":0,
			"name":"District_kitdemo_9_9_Ground"
		},
		{
			"extras":{
				"proxy_for":"District_kitdemo_9_9_Ground"
			},
			"mesh":1,
			"name":"District_kitdemo_9_9_Ground-colonly"
		},
		{
			"mesh":2,
			"name":"KitDemo_MedianBump_dual"
		},
		{
			"extras":{
				"proxy_for":"KitDemo_MedianBump_dual"
			},
			"mesh":3,
			"name":"KitDemo_MedianBump_dual-colonly"
		},
		{
			"mesh":4,
			"name":"KitDemo_MedianBump_median"
		},
		{
			"extras":{
				"proxy_for":"KitDemo_MedianBump_median"
			},
			"mesh":5,
			"name":"KitDemo_MedianBump_median-colonly"
		},
		{
			"mesh":6,
			"name":"KitDemo_Vis_plain"
		},
		{
			"mesh":7,
			"name":"KitDemo_Vis_dual_e"
		},
		{
			"mesh":8,
			"name":"KitDemo_Vis_dual_w"
		},
		{
			"mesh":9,
			"name":"KitDemo_Vis_median"
		},
		{
			"mesh":10,
			"name":"KitDemo_Vis_cross"
		},
		{
			"extras":{
				"lane_offset":0.0,
				"loop":false,
				"end_behavior":"CHAIN",
				"next_routes":"District_kitdemo_9_9__c1_dual_e_s0_F0_S,District_kitdemo_9_9__c1_dual_e_s0_F0_L,District_kitdemo_9_9__c1_dual_e_s0_F0_R",
				"next_weights":"0.600,0.200,0.200"
			},
			"name":"lane_District_kitdemo_9_9__dual_e_s0_F0_0",
			"translation":[
				-140,
				0.30000001192092896,
				-6.75
			]
		},
		{
			"name":"lane_District_kitdemo_9_9__dual_e_s0_F0_1",
			"translation":[
				-4.5,
				0.30000001192092896,
				-6.75
			]
		},
		{
			"extras":{
				"lane_offset":0.0,
				"loop":false,
				"end_behavior":"DESPAWN"
			},
			"name":"lane_District_kitdemo_9_9__dual_e_s1_F0_0",
			"translation":[
				4.5,
				0.30000001192092896,
				-6.75
			]
		},
		{
			"name":"lane_District_kitdemo_9_9__dual_e_s1_F0_1",
			"translation":[
				140,
				0.30000001192092896,
				-6.75
			]
		},
		{
			"extras":{
				"lane_offset":0.0,
				"loop":false,
				"end_behavior":"CHAIN",
				"next_routes":"District_kitdemo_9_9__c4_dual_w_s0_F0_S,District_kitdemo_9_9__c4_dual_w_s0_F0_R,District_kitdemo_9_9__c4_dual_w_s0_F0_L",
				"next_weights":"0.600,0.200,0.200"
			},
			"name":"lane_District_kitdemo_9_9__dual_w_s0_F0_0",
			"translation":[
				140,
				0.30000001192092896,
				6.75
			]
		},
		{
			"name":"lane_District_kitdemo_9_9__dual_w_s0_F0_1",
			"translation":[
				4.5,
				0.30000001192092896,
				6.75
			]
		},
		{
			"extras":{
				"lane_offset":0.0,
				"loop":false,
				"end_behavior":"DESPAWN"
			},
			"name":"lane_District_kitdemo_9_9__dual_w_s1_F0_0",
			"translation":[
				-4.5,
				0.30000001192092896,
				6.75
			]
		},
		{
			"name":"lane_District_kitdemo_9_9__dual_w_s1_F0_1",
			"translation":[
				-140,
				0.30000001192092896,
				6.75
			]
		},
		{
			"extras":{
				"lane_offset":0.0,
				"loop":false,
				"end_behavior":"CHAIN",
				"next_routes":"District_kitdemo_9_9__c7_median_s0_F0_S,District_kitdemo_9_9__c7_median_s0_F0_L,District_kitdemo_9_9__c7_median_s0_F0_R",
				"next_weights":"0.600,0.200,0.200"
			},
			"name":"lane_District_kitdemo_9_9__median_s0_F0_0",
			"translation":[
				-140,
				0.30000001192092896,
				56.5
			]
		},
		{
			"name":"lane_District_kitdemo_9_9__median_s0_F0_1",
			"translation":[
				-6.25,
				0.30000001192092896,
				56.5
			]
		},
		{
			"extras":{
				"lane_offset":0.0,
				"loop":false,
				"end_behavior":"DESPAWN"
			},
			"name":"lane_District_kitdemo_9_9__median_s0_R0_0",
			"translation":[
				-6.25,
				0.30000001192092896,
				63.5
			]
		},
		{
			"name":"lane_District_kitdemo_9_9__median_s0_R0_1",
			"translation":[
				-140,
				0.30000001192092896,
				63.5
			]
		},
		{
			"extras":{
				"lane_offset":0.0,
				"loop":false,
				"end_behavior":"DESPAWN"
			},
			"name":"lane_District_kitdemo_9_9__median_s1_F0_0",
			"translation":[
				6.25,
				0.30000001192092896,
				56.5
			]
		},
		{
			"name":"lane_District_kitdemo_9_9__median_s1_F0_1",
			"translation":[
				140,
				0.30000001192092896,
				56.5
			]
		},
		{
			"extras":{
				"lane_offset":0.0,
				"loop":false,
				"end_behavior":"CHAIN",
				"next_routes":"District_kitdemo_9_9__c7_median_s1_R0_S,District_kitdemo_9_9__c7_median_s1_R0_R,District_kitdemo_9_9__c7_median_s1_R0_L",
				"next_weights":"0.600,0.200,0.200"
			},
			"name":"lane_District_kitdemo_9_9__median_s1_R0_0",
			"translation":[
				140,
				0.30000001192092896,
				63.5
			]
		},
		{
			"name":"lane_District_kitdemo_9_9__median_s1_R0_1",
			"translation":[
				6.25,
				0.30000001192092896,
				63.5
			]
		},
		{
			"extras":{
				"lane_offset":0.0,
				"loop":false,
				"end_behavior":"CHAIN",
				"next_routes":"District_kitdemo_9_9__c10_plain_s0_F0_S,District_kitdemo_9_9__c10_plain_s0_F0_L,District_kitdemo_9_9__c10_plain_s0_F0_R",
				"next_weights":"0.600,0.200,0.200"
			},
			"name":"lane_District_kitdemo_9_9__plain_s0_F0_0",
			"translation":[
				-140,
				0.30000001192092896,
				-61.75
			]
		},
		{
			"name":"lane_District_kitdemo_9_9__plain_s0_F0_1",
			"translation":[
				-4.5,
				0.30000001192092896,
				-61.75
			]
		},
		{
			"extras":{
				"lane_offset":0.0,
				"loop":false,
				"end_behavior":"DESPAWN"
			},
			"name":"lane_District_kitdemo_9_9__plain_s0_R0_0",
			"translation":[
				-4.5,
				0.30000001192092896,
				-58.25
			]
		},
		{
			"name":"lane_District_kitdemo_9_9__plain_s0_R0_1",
			"translation":[
				-140,
				0.30000001192092896,
				-58.25
			]
		},
		{
			"extras":{
				"lane_offset":0.0,
				"loop":false,
				"end_behavior":"DESPAWN"
			},
			"name":"lane_District_kitdemo_9_9__plain_s1_F0_0",
			"translation":[
				4.5,
				0.30000001192092896,
				-61.75
			]
		},
		{
			"name":"lane_District_kitdemo_9_9__plain_s1_F0_1",
			"translation":[
				140,
				0.30000001192092896,
				-61.75
			]
		},
		{
			"extras":{
				"lane_offset":0.0,
				"loop":false,
				"end_behavior":"CHAIN",
				"next_routes":"District_kitdemo_9_9__c10_plain_s1_R0_S,District_kitdemo_9_9__c10_plain_s1_R0_R,District_kitdemo_9_9__c10_plain_s1_R0_L",
				"next_weights":"0.600,0.200,0.200"
			},
			"name":"lane_District_kitdemo_9_9__plain_s1_R0_0",
			"translation":[
				140,
				0.30000001192092896,
				-58.25
			]
		},
		{
			"name":"lane_District_kitdemo_9_9__plain_s1_R0_1",
			"translation":[
				4.5,
				0.30000001192092896,
				-58.25
			]
		},
		{
			"extras":{
				"lane_offset":0.0,
				"loop":false,
				"end_behavior":"CHAIN",
				"next_routes":"District_kitdemo_9_9__c10_xa_F0_R,District_kitdemo_9_9__c10_xa_F0_L,District_kitdemo_9_9__c10_xa_F0_S",
				"next_weights":"0.200,0.200,0.600"
			},
			"name":"lane_District_kitdemo_9_9__xa_F0_0",
			"translation":[
				1.75,
				0.30000001192092896,
				-90
			]
		},
		{
			"name":"lane_District_kitdemo_9_9__xa_F0_1",
			"translation":[
				1.75,
				0.30000001192092896,
				-64.5
			]
		},
		{
			"extras":{
				"lane_offset":0.0,
				"loop":false,
				"end_behavior":"DESPAWN"
			},
			"name":"lane_District_kitdemo_9_9__xa_R0_0",
			"translation":[
				-1.75,
				0.30000001192092896,
				-64.5
			]
		},
		{
			"name":"lane_District_kitdemo_9_9__xa_R0_1",
			"translation":[
				-1.75,
				0.30000001192092896,
				-90
			]
		},
		{
			"extras":{
				"lane_offset":0.0,
				"loop":false,
				"end_behavior":"CHAIN",
				"next_routes":"District_kitdemo_9_9__c1_xb_F0_L,District_kitdemo_9_9__c1_xb_F0_S",
				"next_weights":"0.250,0.750"
			},
			"name":"lane_District_kitdemo_9_9__xb_F0_0",
			"translation":[
				1.75,
				0.30000001192092896,
				-55.5
			]
		},
		{
			"name":"lane_District_kitdemo_9_9__xb_F0_1",
			"translation":[
				1.75,
				0.30000001192092896,
				-9.5
			]
		},
		{
			"extras":{
				"lane_offset":0.0,
				"loop":false,
				"end_behavior":"CHAIN",
				"next_routes":"District_kitdemo_9_9__c10_xb_R0_L,District_kitdemo_9_9__c10_xb_R0_R,District_kitdemo_9_9__c10_xb_R0_S",
				"next_weights":"0.200,0.200,0.600"
			},
			"name":"lane_District_kitdemo_9_9__xb_R0_0",
			"translation":[
				-1.75,
				0.30000001192092896,
				-9.5
			]
		},
		{
			"name":"lane_District_kitdemo_9_9__xb_R0_1",
			"translation":[
				-1.75,
				0.30000001192092896,
				-55.5
			]
		},
		{
			"extras":{
				"lane_offset":0.0,
				"loop":false,
				"end_behavior":"CHAIN",
				"next_routes":"District_kitdemo_9_9__c4_xc_F0_R,District_kitdemo_9_9__c4_xc_F0_S",
				"next_weights":"0.250,0.750"
			},
			"name":"lane_District_kitdemo_9_9__xc_F0_0",
			"translation":[
				1.75,
				0.30000001192092896,
				-0.5
			]
		},
		{
			"name":"lane_District_kitdemo_9_9__xc_F0_1",
			"translation":[
				1.75,
				0.30000001192092896,
				0.5
			]
		},
		{
			"extras":{
				"lane_offset":0.0,
				"loop":false,
				"end_behavior":"CHAIN",
				"next_routes":"District_kitdemo_9_9__c1_xc_R0_R,District_kitdemo_9_9__c1_xc_R0_S",
				"next_weights":"0.250,0.750"
			},
			"name":"lane_District_kitdemo_9_9__xc_R0_0",
			"translation":[
				-1.75,
				0.30000001192092896,
				0.5
			]
		},
		{
			"name":"lane_District_kitdemo_9_9__xc_R0_1",
			"translation":[
				-1.75,
				0.30000001192092896,
				-0.5
			]
		},
		{
			"extras":{
				"lane_offset":0.0,
				"loop":false,
				"end_behavior":"CHAIN",
				"next_routes":"District_kitdemo_9_9__c7_xd_F0_R,District_kitdemo_9_9__c7_xd_F0_L,District_kitdemo_9_9__c7_xd_F0_S",
				"next_weights":"0.200,0.200,0.600"
			},
			"name":"lane_District_kitdemo_9_9__xd_F0_0",
			"translation":[
				1.75,
				0.30000001192092896,
				9.5
			]
		},
		{
			"name":"lane_District_kitdemo_9_9__xd_F0_1",
			"translation":[
				1.75,
				0.30000001192092896,
				53.75
			]
		},
		{
			"extras":{
				"lane_offset":0.0,
				"loop":false,
				"end_behavior":"CHAIN",
				"next_routes":"District_kitdemo_9_9__c4_xd_R0_L,District_kitdemo_9_9__c4_xd_R0_S",
				"next_weights":"0.250,0.750"
			},
			"name":"lane_District_kitdemo_9_9__xd_R0_0",
			"translation":[
				-1.75,
				0.30000001192092896,
				53.75
			]
		},
		{
			"name":"lane_District_kitdemo_9_9__xd_R0_1",
			"translation":[
				-1.75,
				0.30000001192092896,
				9.5
			]
		},
		{
			"extras":{
				"lane_offset":0.0,
				"loop":false,
				"end_behavior":"DESPAWN"
			},
			"name":"lane_District_kitdemo_9_9__xe_F0_0",
			"translation":[
				1.75,
				0.30000001192092896,
				66.25
			]
		},
		{
			"name":"lane_District_kitdemo_9_9__xe_F0_1",
			"translation":[
				1.75,
				0.30000001192092896,
				90
			]
		},
		{
			"extras":{
				"lane_offset":0.0,
				"loop":false,
				"end_behavior":"CHAIN",
				"next_routes":"District_kitdemo_9_9__c7_xe_R0_L,District_kitdemo_9_9__c7_xe_R0_R,District_kitdemo_9_9__c7_xe_R0_S",
				"next_weights":"0.200,0.200,0.600"
			},
			"name":"lane_District_kitdemo_9_9__xe_R0_0",
			"translation":[
				-1.75,
				0.30000001192092896,
				90
			]
		},
		{
			"name":"lane_District_kitdemo_9_9__xe_R0_1",
			"translation":[
				-1.75,
				0.30000001192092896,
				66.25
			]
		},
		{
			"extras":{
				"lane_offset":0.0,
				"loop":false,
				"end_behavior":"CHAIN",
				"next_routes":"District_kitdemo_9_9__dual_e_s1_F0",
				"turn":"S",
				"approach":"W"
			},
			"name":"lane_District_kitdemo_9_9__c1_dual_e_s0_F0_S_0",
			"translation":[
				-4.5,
				0.30000001192092896,
				-6.75
			]
		},
		{
			"name":"lane_District_kitdemo_9_9__c1_dual_e_s0_F0_S_1",
			"translation":[
				-3.375,
				0.30000001192092896,
				-6.75
			]
		},
		{
			"name":"lane_District_kitdemo_9_9__c1_dual_e_s0_F0_S_2",
			"translation":[
				-2.25,
				0.30000001192092896,
				-6.75
			]
		},
		{
			"name":"lane_District_kitdemo_9_9__c1_dual_e_s0_F0_S_3",
			"translation":[
				-1.125,
				0.30000001192092896,
				-6.75
			]
		},
		{
			"name":"lane_District_kitdemo_9_9__c1_dual_e_s0_F0_S_4",
			"translation":[
				0,
				0.30000001192092896,
				-6.75
			]
		},
		{
			"name":"lane_District_kitdemo_9_9__c1_dual_e_s0_F0_S_5",
			"translation":[
				1.125,
				0.30000001192092896,
				-6.75
			]
		},
		{
			"name":"lane_District_kitdemo_9_9__c1_dual_e_s0_F0_S_6",
			"translation":[
				2.25,
				0.30000001192092896,
				-6.75
			]
		},
		{
			"name":"lane_District_kitdemo_9_9__c1_dual_e_s0_F0_S_7",
			"translation":[
				3.375,
				0.30000001192092896,
				-6.75
			]
		},
		{
			"name":"lane_District_kitdemo_9_9__c1_dual_e_s0_F0_S_8",
			"translation":[
				4.5,
				0.30000001192092896,
				-6.75
			]
		},
		{
			"extras":{
				"lane_offset":0.0,
				"loop":false,
				"end_behavior":"CHAIN",
				"next_routes":"District_kitdemo_9_9__xb_R0",
				"turn":"L",
				"approach":"W"
			},
			"name":"lane_District_kitdemo_9_9__c1_dual_e_s0_F0_L_0",
			"translation":[
				-4.5,
				0.30000001192092896,
				-6.75
			]
		},
		{
			"name":"lane_District_kitdemo_9_9__c1_dual_e_s0_F0_L_1",
			"translation":[
				-4.00963830947876,
				0.30000001192092896,
				-6.814992904663086
			]
		},
		{
			"name":"lane_District_kitdemo_9_9__c1_dual_e_s0_F0_L_2",
			"translation":[
				-3.523409605026245,
				0.30000001192092896,
				-6.997386455535889
			]
		},
		{
			"name":"lane_District_kitdemo_9_9__c1_dual_e_s0_F0_L_3",
			"translation":[
				-3.060192346572876,
				0.30000001192092896,
				-7.2783026695251465
			]
		},
		{
			"name":"lane_District_kitdemo_9_9__c1_dual_e_s0_F0_L_4",
			"translation":[
				-2.638864040374756,
				0.30000001192092896,
				-7.638864040374756
			]
		},
		{
			"name":"lane_District_kitdemo_9_9__c1_dual_e_s0_F0_L_5",
			"translation":[
				-2.2783029079437256,
				0.30000001192092896,
				-8.060192108154297
			]
		},
		{
			"name":"lane_District_kitdemo_9_9__c1_dual_e_s0_F0_L_6",
			"translation":[
				-1.9973865747451782,
				0.30000001192092896,
				-8.523409843444824
			]
		},
		{
			"name":"lane_District_kitdemo_9_9__c1_dual_e_s0_F0_L_7",
			"translation":[
				-1.814992904663086,
				0.30000001192092896,
				-9.009637832641602
			]
		},
		{
			"name":"lane_District_kitdemo_9_9__c1_dual_e_s0_F0_L_8",
			"translation":[
				-1.75,
				0.30000001192092896,
				-9.5
			]
		},
		{
			"extras":{
				"lane_offset":0.0,
				"loop":false,
				"end_behavior":"CHAIN",
				"next_routes":"District_kitdemo_9_9__xc_F0",
				"turn":"R",
				"approach":"W"
			},
			"name":"lane_District_kitdemo_9_9__c1_dual_e_s0_F0_R_0",
			"translation":[
				-4.5,
				0.30000001192092896,
				-6.75
			]
		},
		{
			"name":"lane_District_kitdemo_9_9__c1_dual_e_s0_F0_R_1",
			"translation":[
				-3.3855412006378174,
				0.30000001192092896,
				-6.602288722991943
			]
		},
		{
			"name":"lane_District_kitdemo_9_9__c1_dual_e_s0_F0_R_2",
			"translation":[
				-2.2804763317108154,
				0.30000001192092896,
				-6.187757968902588
			]
		},
		{
			"name":"lane_District_kitdemo_9_9__c1_dual_e_s0_F0_R_3",
			"translation":[
				-1.2277097702026367,
				0.30000001192092896,
				-5.549311637878418
			]
		},
		{
			"name":"lane_District_kitdemo_9_9__c1_dual_e_s0_F0_R_4",
			"translation":[
				-0.2701456546783447,
				0.30000001192092896,
				-4.729854583740234
			]
		},
		{
			"name":"lane_District_kitdemo_9_9__c1_dual_e_s0_F0_R_5",
			"translation":[
				0.549311637878418,
				0.30000001192092896,
				-3.7722902297973633
			]
		},
		{
			"name":"lane_District_kitdemo_9_9__c1_dual_e_s0_F0_R_6",
			"translation":[
				1.1877578496932983,
				0.30000001192092896,
				-2.7195236682891846
			]
		},
		{
			"name":"lane_District_kitdemo_9_9__c1_dual_e_s0_F0_R_7",
			"translation":[
				1.6022887229919434,
				0.30000001192092896,
				-1.6144587993621826
			]
		},
		{
			"name":"lane_District_kitdemo_9_9__c1_dual_e_s0_F0_R_8",
			"translation":[
				1.75,
				0.30000001192092896,
				-0.5
			]
		},
		{
			"extras":{
				"lane_offset":0.0,
				"loop":false,
				"end_behavior":"CHAIN",
				"next_routes":"District_kitdemo_9_9__dual_e_s1_F0",
				"turn":"L",
				"approach":"N"
			},
			"name":"lane_District_kitdemo_9_9__c1_xb_F0_L_0",
			"translation":[
				1.75,
				0.30000001192092896,
				-9.5
			]
		},
		{
			"name":"lane_District_kitdemo_9_9__c1_xb_F0_L_1",
			"translation":[
				1.814992904663086,
				0.30000001192092896,
				-9.009637832641602
			]
		},
		{
			"name":"lane_District_kitdemo_9_9__c1_xb_F0_L_2",
			"translation":[
				1.9973865747451782,
				0.30000001192092896,
				-8.523409843444824
			]
		},
		{
			"name":"lane_District_kitdemo_9_9__c1_xb_F0_L_3",
			"translation":[
				2.2783029079437256,
				0.30000001192092896,
				-8.060192108154297
			]
		},
		{
			"name":"lane_District_kitdemo_9_9__c1_xb_F0_L_4",
			"translation":[
				2.638864040374756,
				0.30000001192092896,
				-7.638864040374756
			]
		},
		{
			"name":"lane_District_kitdemo_9_9__c1_xb_F0_L_5",
			"translation":[
				3.060192346572876,
				0.30000001192092896,
				-7.2783026695251465
			]
		},
		{
			"name":"lane_District_kitdemo_9_9__c1_xb_F0_L_6",
			"translation":[
				3.523409605026245,
				0.30000001192092896,
				-6.997386455535889
			]
		},
		{
			"name":"lane_District_kitdemo_9_9__c1_xb_F0_L_7",
			"translation":[
				4.00963830947876,
				0.30000001192092896,
				-6.814992904663086
			]
		},
		{
			"name":"lane_District_kitdemo_9_9__c1_xb_F0_L_8",
			"translation":[
				4.5,
				0.30000001192092896,
				-6.75
			]
		},
		{
			"extras":{
				"lane_offset":0.0,
				"loop":false,
				"end_behavior":"CHAIN",
				"next_routes":"District_kitdemo_9_9__xc_F0",
				"turn":"S",
				"approach":"N"
			},
			"name":"lane_District_kitdemo_9_9__c1_xb_F0_S_0",
			"translation":[
				1.75,
				0.30000001192092896,
				-9.5
			]
		},
		{
			"name":"lane_District_kitdemo_9_9__c1_xb_F0_S_1",
			"translation":[
				1.75,
				0.30000001192092896,
				-8.375
			]
		},
		{
			"name":"lane_District_kitdemo_9_9__c1_xb_F0_S_2",
			"translation":[
				1.75,
				0.30000001192092896,
				-7.25
			]
		},
		{
			"name":"lane_District_kitdemo_9_9__c1_xb_F0_S_3",
			"translation":[
				1.75,
				0.30000001192092896,
				-6.125
			]
		},
		{
			"name":"lane_District_kitdemo_9_9__c1_xb_F0_S_4",
			"translation":[
				1.75,
				0.30000001192092896,
				-5
			]
		},
		{
			"name":"lane_District_kitdemo_9_9__c1_xb_F0_S_5",
			"translation":[
				1.75,
				0.30000001192092896,
				-3.875
			]
		},
		{
			"name":"lane_District_kitdemo_9_9__c1_xb_F0_S_6",
			"translation":[
				1.75,
				0.30000001192092896,
				-2.75
			]
		},
		{
			"name":"lane_District_kitdemo_9_9__c1_xb_F0_S_7",
			"translation":[
				1.75,
				0.30000001192092896,
				-1.625
			]
		},
		{
			"name":"lane_District_kitdemo_9_9__c1_xb_F0_S_8",
			"translation":[
				1.75,
				0.30000001192092896,
				-0.5
			]
		},
		{
			"extras":{
				"lane_offset":0.0,
				"loop":false,
				"end_behavior":"CHAIN",
				"next_routes":"District_kitdemo_9_9__dual_e_s1_F0",
				"turn":"R",
				"approach":"S"
			},
			"name":"lane_District_kitdemo_9_9__c1_xc_R0_R_0",
			"translation":[
				-1.75,
				0.30000001192092896,
				-0.5
			]
		},
		{
			"name":"lane_District_kitdemo_9_9__c1_xc_R0_R_1",
			"translation":[
				-1.6022887229919434,
				0.30000001192092896,
				-1.6144587993621826
			]
		},
		{
			"name":"lane_District_kitdemo_9_9__c1_xc_R0_R_2",
			"translation":[
				-1.1877578496932983,
				0.30000001192092896,
				-2.7195236682891846
			]
		},
		{
			"name":"lane_District_kitdemo_9_9__c1_xc_R0_R_3",
			"translation":[
				-0.549311637878418,
				0.30000001192092896,
				-3.7722902297973633
			]
		},
		{
			"name":"lane_District_kitdemo_9_9__c1_xc_R0_R_4",
			"translation":[
				0.2701456546783447,
				0.30000001192092896,
				-4.729854583740234
			]
		},
		{
			"name":"lane_District_kitdemo_9_9__c1_xc_R0_R_5",
			"translation":[
				1.2277097702026367,
				0.30000001192092896,
				-5.549311637878418
			]
		},
		{
			"name":"lane_District_kitdemo_9_9__c1_xc_R0_R_6",
			"translation":[
				2.2804763317108154,
				0.30000001192092896,
				-6.187757968902588
			]
		},
		{
			"name":"lane_District_kitdemo_9_9__c1_xc_R0_R_7",
			"translation":[
				3.3855412006378174,
				0.30000001192092896,
				-6.602288722991943
			]
		},
		{
			"name":"lane_District_kitdemo_9_9__c1_xc_R0_R_8",
			"translation":[
				4.5,
				0.30000001192092896,
				-6.75
			]
		},
		{
			"extras":{
				"lane_offset":0.0,
				"loop":false,
				"end_behavior":"CHAIN",
				"next_routes":"District_kitdemo_9_9__xb_R0",
				"turn":"S",
				"approach":"S"
			},
			"name":"lane_District_kitdemo_9_9__c1_xc_R0_S_0",
			"translation":[
				-1.75,
				0.30000001192092896,
				-0.5
			]
		},
		{
			"name":"lane_District_kitdemo_9_9__c1_xc_R0_S_1",
			"translation":[
				-1.75,
				0.30000001192092896,
				-1.625
			]
		},
		{
			"name":"lane_District_kitdemo_9_9__c1_xc_R0_S_2",
			"translation":[
				-1.75,
				0.30000001192092896,
				-2.75
			]
		},
		{
			"name":"lane_District_kitdemo_9_9__c1_xc_R0_S_3",
			"translation":[
				-1.75,
				0.30000001192092896,
				-3.875
			]
		},
		{
			"name":"lane_District_kitdemo_9_9__c1_xc_R0_S_4",
			"translation":[
				-1.75,
				0.30000001192092896,
				-5
			]
		},
		{
			"name":"lane_District_kitdemo_9_9__c1_xc_R0_S_5",
			"translation":[
				-1.75,
				0.30000001192092896,
				-6.125
			]
		},
		{
			"name":"lane_District_kitdemo_9_9__c1_xc_R0_S_6",
			"translation":[
				-1.75,
				0.30000001192092896,
				-7.25
			]
		},
		{
			"name":"lane_District_kitdemo_9_9__c1_xc_R0_S_7",
			"translation":[
				-1.75,
				0.30000001192092896,
				-8.375
			]
		},
		{
			"name":"lane_District_kitdemo_9_9__c1_xc_R0_S_8",
			"translation":[
				-1.75,
				0.30000001192092896,
				-9.5
			]
		},
		{
			"extras":{
				"lane_offset":0.0,
				"loop":false,
				"end_behavior":"CHAIN",
				"next_routes":"District_kitdemo_9_9__dual_w_s1_F0",
				"turn":"S",
				"approach":"E"
			},
			"name":"lane_District_kitdemo_9_9__c4_dual_w_s0_F0_S_0",
			"translation":[
				4.5,
				0.30000001192092896,
				6.75
			]
		},
		{
			"name":"lane_District_kitdemo_9_9__c4_dual_w_s0_F0_S_1",
			"translation":[
				3.375,
				0.30000001192092896,
				6.75
			]
		},
		{
			"name":"lane_District_kitdemo_9_9__c4_dual_w_s0_F0_S_2",
			"translation":[
				2.25,
				0.30000001192092896,
				6.75
			]
		},
		{
			"name":"lane_District_kitdemo_9_9__c4_dual_w_s0_F0_S_3",
			"translation":[
				1.125,
				0.30000001192092896,
				6.75
			]
		},
		{
			"name":"lane_District_kitdemo_9_9__c4_dual_w_s0_F0_S_4",
			"translation":[
				0,
				0.30000001192092896,
				6.75
			]
		},
		{
			"name":"lane_District_kitdemo_9_9__c4_dual_w_s0_F0_S_5",
			"translation":[
				-1.125,
				0.30000001192092896,
				6.75
			]
		},
		{
			"name":"lane_District_kitdemo_9_9__c4_dual_w_s0_F0_S_6",
			"translation":[
				-2.25,
				0.30000001192092896,
				6.75
			]
		},
		{
			"name":"lane_District_kitdemo_9_9__c4_dual_w_s0_F0_S_7",
			"translation":[
				-3.375,
				0.30000001192092896,
				6.75
			]
		},
		{
			"name":"lane_District_kitdemo_9_9__c4_dual_w_s0_F0_S_8",
			"translation":[
				-4.5,
				0.30000001192092896,
				6.75
			]
		},
		{
			"extras":{
				"lane_offset":0.0,
				"loop":false,
				"end_behavior":"CHAIN",
				"next_routes":"District_kitdemo_9_9__xc_R0",
				"turn":"R",
				"approach":"E"
			},
			"name":"lane_District_kitdemo_9_9__c4_dual_w_s0_F0_R_0",
			"translation":[
				4.5,
				0.30000001192092896,
				6.75
			]
		},
		{
			"name":"lane_District_kitdemo_9_9__c4_dual_w_s0_F0_R_1",
			"translation":[
				3.3855412006378174,
				0.30000001192092896,
				6.602288722991943
			]
		},
		{
			"name":"lane_District_kitdemo_9_9__c4_dual_w_s0_F0_R_2",
			"translation":[
				2.2804763317108154,
				0.30000001192092896,
				6.187757968902588
			]
		},
		{
			"name":"lane_District_kitdemo_9_9__c4_dual_w_s0_F0_R_3",
			"translation":[
				1.2277097702026367,
				0.30000001192092896,
				5.549311637878418
			]
		},
		{
			"name":"lane_District_kitdemo_9_9__c4_dual_w_s0_F0_R_4",
			"translation":[
				0.2701456546783447,
				0.30000001192092896,
				4.729854583740234
			]
		},
		{
			"name":"lane_District_kitdemo_9_9__c4_dual_w_s0_F0_R_5",
			"translation":[
				-0.549311637878418,
				0.30000001192092896,
				3.7722902297973633
			]
		},
		{
			"name":"lane_District_kitdemo_9_9__c4_dual_w_s0_F0_R_6",
			"translation":[
				-1.1877578496932983,
				0.30000001192092896,
				2.7195236682891846
			]
		},
		{
			"name":"lane_District_kitdemo_9_9__c4_dual_w_s0_F0_R_7",
			"translation":[
				-1.6022887229919434,
				0.30000001192092896,
				1.6144587993621826
			]
		},
		{
			"name":"lane_District_kitdemo_9_9__c4_dual_w_s0_F0_R_8",
			"translation":[
				-1.75,
				0.30000001192092896,
				0.5
			]
		},
		{
			"extras":{
				"lane_offset":0.0,
				"loop":false,
				"end_behavior":"CHAIN",
				"next_routes":"District_kitdemo_9_9__xd_F0",
				"turn":"L",
				"approach":"E"
			},
			"name":"lane_District_kitdemo_9_9__c4_dual_w_s0_F0_L_0",
			"translation":[
				4.5,
				0.30000001192092896,
				6.75
			]
		},
		{
			"name":"lane_District_kitdemo_9_9__c4_dual_w_s0_F0_L_1",
			"translation":[
				4.00963830947876,
				0.30000001192092896,
				6.814992904663086
			]
		},
		{
			"name":"lane_District_kitdemo_9_9__c4_dual_w_s0_F0_L_2",
			"translation":[
				3.523409605026245,
				0.30000001192092896,
				6.997386455535889
			]
		},
		{
			"name":"lane_District_kitdemo_9_9__c4_dual_w_s0_F0_L_3",
			"translation":[
				3.060192346572876,
				0.30000001192092896,
				7.2783026695251465
			]
		},
		{
			"name":"lane_District_kitdemo_9_9__c4_dual_w_s0_F0_L_4",
			"translation":[
				2.638864040374756,
				0.30000001192092896,
				7.638864040374756
			]
		},
		{
			"name":"lane_District_kitdemo_9_9__c4_dual_w_s0_F0_L_5",
			"translation":[
				2.2783029079437256,
				0.30000001192092896,
				8.060192108154297
			]
		},
		{
			"name":"lane_District_kitdemo_9_9__c4_dual_w_s0_F0_L_6",
			"translation":[
				1.9973865747451782,
				0.30000001192092896,
				8.523409843444824
			]
		},
		{
			"name":"lane_District_kitdemo_9_9__c4_dual_w_s0_F0_L_7",
			"translation":[
				1.814992904663086,
				0.30000001192092896,
				9.009637832641602
			]
		},
		{
			"name":"lane_District_kitdemo_9_9__c4_dual_w_s0_F0_L_8",
			"translation":[
				1.75,
				0.30000001192092896,
				9.5
			]
		},
		{
			"extras":{
				"lane_offset":0.0,
				"loop":false,
				"end_behavior":"CHAIN",
				"next_routes":"District_kitdemo_9_9__dual_w_s1_F0",
				"turn":"R",
				"approach":"N"
			},
			"name":"lane_District_kitdemo_9_9__c4_xc_F0_R_0",
			"translation":[
				1.75,
				0.30000001192092896,
				0.5
			]
		},
		{
			"name":"lane_District_kitdemo_9_9__c4_xc_F0_R_1",
			"translation":[
				1.6022887229919434,
				0.30000001192092896,
				1.6144587993621826
			]
		},
		{
			"name":"lane_District_kitdemo_9_9__c4_xc_F0_R_2",
			"translation":[
				1.1877578496932983,
				0.30000001192092896,
				2.7195236682891846
			]
		},
		{
			"name":"lane_District_kitdemo_9_9__c4_xc_F0_R_3",
			"translation":[
				0.549311637878418,
				0.30000001192092896,
				3.7722902297973633
			]
		},
		{
			"name":"lane_District_kitdemo_9_9__c4_xc_F0_R_4",
			"translation":[
				-0.2701456546783447,
				0.30000001192092896,
				4.729854583740234
			]
		},
		{
			"name":"lane_District_kitdemo_9_9__c4_xc_F0_R_5",
			"translation":[
				-1.2277097702026367,
				0.30000001192092896,
				5.549311637878418
			]
		},
		{
			"name":"lane_District_kitdemo_9_9__c4_xc_F0_R_6",
			"translation":[
				-2.2804763317108154,
				0.30000001192092896,
				6.187757968902588
			]
		},
		{
			"name":"lane_District_kitdemo_9_9__c4_xc_F0_R_7",
			"translation":[
				-3.3855412006378174,
				0.30000001192092896,
				6.602288722991943
			]
		},
		{
			"name":"lane_District_kitdemo_9_9__c4_xc_F0_R_8",
			"translation":[
				-4.5,
				0.30000001192092896,
				6.75
			]
		},
		{
			"extras":{
				"lane_offset":0.0,
				"loop":false,
				"end_behavior":"CHAIN",
				"next_routes":"District_kitdemo_9_9__xd_F0",
				"turn":"S",
				"approach":"N"
			},
			"name":"lane_District_kitdemo_9_9__c4_xc_F0_S_0",
			"translation":[
				1.75,
				0.30000001192092896,
				0.5
			]
		},
		{
			"name":"lane_District_kitdemo_9_9__c4_xc_F0_S_1",
			"translation":[
				1.75,
				0.30000001192092896,
				1.625
			]
		},
		{
			"name":"lane_District_kitdemo_9_9__c4_xc_F0_S_2",
			"translation":[
				1.75,
				0.30000001192092896,
				2.75
			]
		},
		{
			"name":"lane_District_kitdemo_9_9__c4_xc_F0_S_3",
			"translation":[
				1.75,
				0.30000001192092896,
				3.875
			]
		},
		{
			"name":"lane_District_kitdemo_9_9__c4_xc_F0_S_4",
			"translation":[
				1.75,
				0.30000001192092896,
				5
			]
		},
		{
			"name":"lane_District_kitdemo_9_9__c4_xc_F0_S_5",
			"translation":[
				1.75,
				0.30000001192092896,
				6.125
			]
		},
		{
			"name":"lane_District_kitdemo_9_9__c4_xc_F0_S_6",
			"translation":[
				1.75,
				0.30000001192092896,
				7.25
			]
		},
		{
			"name":"lane_District_kitdemo_9_9__c4_xc_F0_S_7",
			"translation":[
				1.75,
				0.30000001192092896,
				8.375
			]
		},
		{
			"name":"lane_District_kitdemo_9_9__c4_xc_F0_S_8",
			"translation":[
				1.75,
				0.30000001192092896,
				9.5
			]
		},
		{
			"extras":{
				"lane_offset":0.0,
				"loop":false,
				"end_behavior":"CHAIN",
				"next_routes":"District_kitdemo_9_9__dual_w_s1_F0",
				"turn":"L",
				"approach":"S"
			},
			"name":"lane_District_kitdemo_9_9__c4_xd_R0_L_0",
			"translation":[
				-1.75,
				0.30000001192092896,
				9.5
			]
		},
		{
			"name":"lane_District_kitdemo_9_9__c4_xd_R0_L_1",
			"translation":[
				-1.814992904663086,
				0.30000001192092896,
				9.009637832641602
			]
		},
		{
			"name":"lane_District_kitdemo_9_9__c4_xd_R0_L_2",
			"translation":[
				-1.9973865747451782,
				0.30000001192092896,
				8.523409843444824
			]
		},
		{
			"name":"lane_District_kitdemo_9_9__c4_xd_R0_L_3",
			"translation":[
				-2.2783029079437256,
				0.30000001192092896,
				8.060192108154297
			]
		},
		{
			"name":"lane_District_kitdemo_9_9__c4_xd_R0_L_4",
			"translation":[
				-2.638864040374756,
				0.30000001192092896,
				7.638864040374756
			]
		},
		{
			"name":"lane_District_kitdemo_9_9__c4_xd_R0_L_5",
			"translation":[
				-3.060192346572876,
				0.30000001192092896,
				7.2783026695251465
			]
		},
		{
			"name":"lane_District_kitdemo_9_9__c4_xd_R0_L_6",
			"translation":[
				-3.523409605026245,
				0.30000001192092896,
				6.997386455535889
			]
		},
		{
			"name":"lane_District_kitdemo_9_9__c4_xd_R0_L_7",
			"translation":[
				-4.00963830947876,
				0.30000001192092896,
				6.814992904663086
			]
		},
		{
			"name":"lane_District_kitdemo_9_9__c4_xd_R0_L_8",
			"translation":[
				-4.5,
				0.30000001192092896,
				6.75
			]
		},
		{
			"extras":{
				"lane_offset":0.0,
				"loop":false,
				"end_behavior":"CHAIN",
				"next_routes":"District_kitdemo_9_9__xc_R0",
				"turn":"S",
				"approach":"S"
			},
			"name":"lane_District_kitdemo_9_9__c4_xd_R0_S_0",
			"translation":[
				-1.75,
				0.30000001192092896,
				9.5
			]
		},
		{
			"name":"lane_District_kitdemo_9_9__c4_xd_R0_S_1",
			"translation":[
				-1.75,
				0.30000001192092896,
				8.375
			]
		},
		{
			"name":"lane_District_kitdemo_9_9__c4_xd_R0_S_2",
			"translation":[
				-1.75,
				0.30000001192092896,
				7.25
			]
		},
		{
			"name":"lane_District_kitdemo_9_9__c4_xd_R0_S_3",
			"translation":[
				-1.75,
				0.30000001192092896,
				6.125
			]
		},
		{
			"name":"lane_District_kitdemo_9_9__c4_xd_R0_S_4",
			"translation":[
				-1.75,
				0.30000001192092896,
				5
			]
		},
		{
			"name":"lane_District_kitdemo_9_9__c4_xd_R0_S_5",
			"translation":[
				-1.75,
				0.30000001192092896,
				3.875
			]
		},
		{
			"name":"lane_District_kitdemo_9_9__c4_xd_R0_S_6",
			"translation":[
				-1.75,
				0.30000001192092896,
				2.75
			]
		},
		{
			"name":"lane_District_kitdemo_9_9__c4_xd_R0_S_7",
			"translation":[
				-1.75,
				0.30000001192092896,
				1.625
			]
		},
		{
			"name":"lane_District_kitdemo_9_9__c4_xd_R0_S_8",
			"translation":[
				-1.75,
				0.30000001192092896,
				0.5
			]
		},
		{
			"extras":{
				"lane_offset":0.0,
				"loop":false,
				"end_behavior":"CHAIN",
				"next_routes":"District_kitdemo_9_9__median_s1_F0",
				"turn":"S",
				"approach":"W"
			},
			"name":"lane_District_kitdemo_9_9__c7_median_s0_F0_S_0",
			"translation":[
				-6.25,
				0.30000001192092896,
				56.5
			]
		},
		{
			"name":"lane_District_kitdemo_9_9__c7_median_s0_F0_S_1",
			"translation":[
				-4.6875,
				0.30000001192092896,
				56.5
			]
		},
		{
			"name":"lane_District_kitdemo_9_9__c7_median_s0_F0_S_2",
			"translation":[
				-3.125,
				0.30000001192092896,
				56.5
			]
		},
		{
			"name":"lane_District_kitdemo_9_9__c7_median_s0_F0_S_3",
			"translation":[
				-1.5625,
				0.30000001192092896,
				56.5
			]
		},
		{
			"name":"lane_District_kitdemo_9_9__c7_median_s0_F0_S_4",
			"translation":[
				0,
				0.30000001192092896,
				56.5
			]
		},
		{
			"name":"lane_District_kitdemo_9_9__c7_median_s0_F0_S_5",
			"translation":[
				1.5625,
				0.30000001192092896,
				56.5
			]
		},
		{
			"name":"lane_District_kitdemo_9_9__c7_median_s0_F0_S_6",
			"translation":[
				3.125,
				0.30000001192092896,
				56.5
			]
		},
		{
			"name":"lane_District_kitdemo_9_9__c7_median_s0_F0_S_7",
			"translation":[
				4.6875,
				0.30000001192092896,
				56.5
			]
		},
		{
			"name":"lane_District_kitdemo_9_9__c7_median_s0_F0_S_8",
			"translation":[
				6.25,
				0.30000001192092896,
				56.5
			]
		},
		{
			"extras":{
				"lane_offset":0.0,
				"loop":false,
				"end_behavior":"CHAIN",
				"next_routes":"District_kitdemo_9_9__xd_R0",
				"turn":"L",
				"approach":"W"
			},
			"name":"lane_District_kitdemo_9_9__c7_median_s0_F0_L_0",
			"translation":[
				-6.25,
				0.30000001192092896,
				56.5
			]
		},
		{
			"name":"lane_District_kitdemo_9_9__c7_median_s0_F0_L_1",
			"translation":[
				-5.5519256591796875,
				0.30000001192092896,
				56.45393753051758
			]
		},
		{
			"name":"lane_District_kitdemo_9_9__c7_median_s0_F0_L_2",
			"translation":[
				-4.805253028869629,
				0.30000001192092896,
				56.31752014160156
			]
		},
		{
			"name":"lane_District_kitdemo_9_9__c7_median_s0_F0_L_3",
			"translation":[
				-4.053648948669434,
				0.30000001192092896,
				56.0933952331543
			]
		},
		{
			"name":"lane_District_kitdemo_9_9__c7_median_s0_F0_L_4",
			"translation":[
				-3.34078049659729,
				0.30000001192092896,
				55.784217834472656
			]
		},
		{
			"name":"lane_District_kitdemo_9_9__c7_median_s0_F0_L_5",
			"translation":[
				-2.7103145122528076,
				0.30000001192092896,
				55.39263916015625
			]
		},
		{
			"name":"lane_District_kitdemo_9_9__c7_median_s0_F0_L_6",
			"translation":[
				-2.2059175968170166,
				0.30000001192092896,
				54.92131042480469
			]
		},
		{
			"name":"lane_District_kitdemo_9_9__c7_median_s0_F0_L_7",
			"translation":[
				-1.8712571859359741,
				0.30000001192092896,
				54.37287902832031
			]
		},
		{
			"name":"lane_District_kitdemo_9_9__c7_median_s0_F0_L_8",
			"translation":[
				-1.75,
				0.30000001192092896,
				53.75
			]
		},
		{
			"extras":{
				"lane_offset":0.0,
				"loop":false,
				"end_behavior":"CHAIN",
				"next_routes":"District_kitdemo_9_9__xe_F0",
				"turn":"R",
				"approach":"W"
			},
			"name":"lane_District_kitdemo_9_9__c7_median_s0_F0_R_0",
			"translation":[
				-6.25,
				0.30000001192092896,
				56.5
			]
		},
		{
			"name":"lane_District_kitdemo_9_9__c7_median_s0_F0_R_1",
			"translation":[
				-4.69924259185791,
				0.30000001192092896,
				56.746517181396484
			]
		},
		{
			"name":"lane_District_kitdemo_9_9__c7_median_s0_F0_R_2",
			"translation":[
				-3.22643780708313,
				0.30000001192092896,
				57.4322509765625
			]
		},
		{
			"name":"lane_District_kitdemo_9_9__c7_median_s0_F0_R_3",
			"translation":[
				-1.8712893724441528,
				0.30000001192092896,
				58.47648620605469
			]
		},
		{
			"name":"lane_District_kitdemo_9_9__c7_median_s0_F0_R_4",
			"translation":[
				-0.6735002398490906,
				0.30000001192092896,
				59.798500061035156
			]
		},
		{
			"name":"lane_District_kitdemo_9_9__c7_median_s0_F0_R_5",
			"translation":[
				0.3272264003753662,
				0.30000001192092896,
				61.31757736206055
			]
		},
		{
			"name":"lane_District_kitdemo_9_9__c7_median_s0_F0_R_6",
			"translation":[
				1.0911874771118164,
				0.30000001192092896,
				62.952999114990234
			]
		},
		{
			"name":"lane_District_kitdemo_9_9__c7_median_s0_F0_R_7",
			"translation":[
				1.5786796808242798,
				0.30000001192092896,
				64.6240463256836
			]
		},
		{
			"name":"lane_District_kitdemo_9_9__c7_median_s0_F0_R_8",
			"translation":[
				1.75,
				0.30000001192092896,
				66.25
			]
		},
		{
			"extras":{
				"lane_offset":0.0,
				"loop":false,
				"end_behavior":"CHAIN",
				"next_routes":"District_kitdemo_9_9__median_s0_R0",
				"turn":"S",
				"approach":"E"
			},
			"name":"lane_District_kitdemo_9_9__c7_median_s1_R0_S_0",
			"translation":[
				6.25,
				0.30000001192092896,
				63.5
			]
		},
		{
			"name":"lane_District_kitdemo_9_9__c7_median_s1_R0_S_1",
			"translation":[
				4.6875,
				0.30000001192092896,
				63.5
			]
		},
		{
			"name":"lane_District_kitdemo_9_9__c7_median_s1_R0_S_2",
			"translation":[
				3.125,
				0.30000001192092896,
				63.5
			]
		},
		{
			"name":"lane_District_kitdemo_9_9__c7_median_s1_R0_S_3",
			"translation":[
				1.5625,
				0.30000001192092896,
				63.5
			]
		},
		{
			"name":"lane_District_kitdemo_9_9__c7_median_s1_R0_S_4",
			"translation":[
				0,
				0.30000001192092896,
				63.5
			]
		},
		{
			"name":"lane_District_kitdemo_9_9__c7_median_s1_R0_S_5",
			"translation":[
				-1.5625,
				0.30000001192092896,
				63.5
			]
		},
		{
			"name":"lane_District_kitdemo_9_9__c7_median_s1_R0_S_6",
			"translation":[
				-3.125,
				0.30000001192092896,
				63.5
			]
		},
		{
			"name":"lane_District_kitdemo_9_9__c7_median_s1_R0_S_7",
			"translation":[
				-4.6875,
				0.30000001192092896,
				63.5
			]
		},
		{
			"name":"lane_District_kitdemo_9_9__c7_median_s1_R0_S_8",
			"translation":[
				-6.25,
				0.30000001192092896,
				63.5
			]
		},
		{
			"extras":{
				"lane_offset":0.0,
				"loop":false,
				"end_behavior":"CHAIN",
				"next_routes":"District_kitdemo_9_9__xd_R0",
				"turn":"R",
				"approach":"E"
			},
			"name":"lane_District_kitdemo_9_9__c7_median_s1_R0_R_0",
			"translation":[
				6.25,
				0.30000001192092896,
				63.5
			]
		},
		{
			"name":"lane_District_kitdemo_9_9__c7_median_s1_R0_R_1",
			"translation":[
				4.69924259185791,
				0.30000001192092896,
				63.253482818603516
			]
		},
		{
			"name":"lane_District_kitdemo_9_9__c7_median_s1_R0_R_2",
			"translation":[
				3.22643780708313,
				0.30000001192092896,
				62.5677490234375
			]
		},
		{
			"name":"lane_District_kitdemo_9_9__c7_median_s1_R0_R_3",
			"translation":[
				1.8712893724441528,
				0.30000001192092896,
				61.52351379394531
			]
		},
		{
			"name":"lane_District_kitdemo_9_9__c7_median_s1_R0_R_4",
			"translation":[
				0.6735002398490906,
				0.30000001192092896,
				60.201499938964844
			]
		},
		{
			"name":"lane_District_kitdemo_9_9__c7_median_s1_R0_R_5",
			"translation":[
				-0.3272264003753662,
				0.30000001192092896,
				58.68242263793945
			]
		},
		{
			"name":"lane_District_kitdemo_9_9__c7_median_s1_R0_R_6",
			"translation":[
				-1.0911874771118164,
				0.30000001192092896,
				57.047000885009766
			]
		},
		{
			"name":"lane_District_kitdemo_9_9__c7_median_s1_R0_R_7",
			"translation":[
				-1.5786796808242798,
				0.30000001192092896,
				55.375953674316406
			]
		},
		{
			"name":"lane_District_kitdemo_9_9__c7_median_s1_R0_R_8",
			"translation":[
				-1.75,
				0.30000001192092896,
				53.75
			]
		},
		{
			"extras":{
				"lane_offset":0.0,
				"loop":false,
				"end_behavior":"CHAIN",
				"next_routes":"District_kitdemo_9_9__xe_F0",
				"turn":"L",
				"approach":"E"
			},
			"name":"lane_District_kitdemo_9_9__c7_median_s1_R0_L_0",
			"translation":[
				6.25,
				0.30000001192092896,
				63.5
			]
		},
		{
			"name":"lane_District_kitdemo_9_9__c7_median_s1_R0_L_1",
			"translation":[
				5.5519256591796875,
				0.30000001192092896,
				63.54606246948242
			]
		},
		{
			"name":"lane_District_kitdemo_9_9__c7_median_s1_R0_L_2",
			"translation":[
				4.805253028869629,
				0.30000001192092896,
				63.68247985839844
			]
		},
		{
			"name":"lane_District_kitdemo_9_9__c7_median_s1_R0_L_3",
			"translation":[
				4.053648948669434,
				0.30000001192092896,
				63.9066047668457
			]
		},
		{
			"name":"lane_District_kitdemo_9_9__c7_median_s1_R0_L_4",
			"translation":[
				3.34078049659729,
				0.30000001192092896,
				64.21578216552734
			]
		},
		{
			"name":"lane_District_kitdemo_9_9__c7_median_s1_R0_L_5",
			"translation":[
				2.7103145122528076,
				0.30000001192092896,
				64.60736083984375
			]
		},
		{
			"name":"lane_District_kitdemo_9_9__c7_median_s1_R0_L_6",
			"translation":[
				2.2059175968170166,
				0.30000001192092896,
				65.07868957519531
			]
		},
		{
			"name":"lane_District_kitdemo_9_9__c7_median_s1_R0_L_7",
			"translation":[
				1.8712571859359741,
				0.30000001192092896,
				65.62712097167969
			]
		},
		{
			"name":"lane_District_kitdemo_9_9__c7_median_s1_R0_L_8",
			"translation":[
				1.75,
				0.30000001192092896,
				66.25
			]
		},
		{
			"extras":{
				"lane_offset":0.0,
				"loop":false,
				"end_behavior":"CHAIN",
				"next_routes":"District_kitdemo_9_9__median_s0_R0",
				"turn":"R",
				"approach":"N"
			},
			"name":"lane_District_kitdemo_9_9__c7_xd_F0_R_0",
			"translation":[
				1.75,
				0.30000001192092896,
				53.75
			]
		},
		{
			"name":"lane_District_kitdemo_9_9__c7_xd_F0_R_1",
			"translation":[
				1.5786796808242798,
				0.30000001192092896,
				55.375953674316406
			]
		},
		{
			"name":"lane_District_kitdemo_9_9__c7_xd_F0_R_2",
			"translation":[
				1.0911874771118164,
				0.30000001192092896,
				57.047000885009766
			]
		},
		{
			"name":"lane_District_kitdemo_9_9__c7_xd_F0_R_3",
			"translation":[
				0.3272264003753662,
				0.30000001192092896,
				58.68242263793945
			]
		},
		{
			"name":"lane_District_kitdemo_9_9__c7_xd_F0_R_4",
			"translation":[
				-0.6735002398490906,
				0.30000001192092896,
				60.201499938964844
			]
		},
		{
			"name":"lane_District_kitdemo_9_9__c7_xd_F0_R_5",
			"translation":[
				-1.8712893724441528,
				0.30000001192092896,
				61.52351379394531
			]
		},
		{
			"name":"lane_District_kitdemo_9_9__c7_xd_F0_R_6",
			"translation":[
				-3.22643780708313,
				0.30000001192092896,
				62.5677490234375
			]
		},
		{
			"name":"lane_District_kitdemo_9_9__c7_xd_F0_R_7",
			"translation":[
				-4.69924259185791,
				0.30000001192092896,
				63.253482818603516
			]
		},
		{
			"name":"lane_District_kitdemo_9_9__c7_xd_F0_R_8",
			"translation":[
				-6.25,
				0.30000001192092896,
				63.5
			]
		},
		{
			"extras":{
				"lane_offset":0.0,
				"loop":false,
				"end_behavior":"CHAIN",
				"next_routes":"District_kitdemo_9_9__median_s1_F0",
				"turn":"L",
				"approach":"N"
			},
			"name":"lane_District_kitdemo_9_9__c7_xd_F0_L_0",
			"translation":[
				1.75,
				0.30000001192092896,
				53.75
			]
		},
		{
			"name":"lane_District_kitdemo_9_9__c7_xd_F0_L_1",
			"translation":[
				1.8712571859359741,
				0.30000001192092896,
				54.37287902832031
			]
		},
		{
			"name":"lane_District_kitdemo_9_9__c7_xd_F0_L_2",
			"translation":[
				2.2059175968170166,
				0.30000001192092896,
				54.92131042480469
			]
		},
		{
			"name":"lane_District_kitdemo_9_9__c7_xd_F0_L_3",
			"translation":[
				2.7103145122528076,
				0.30000001192092896,
				55.39263916015625
			]
		},
		{
			"name":"lane_District_kitdemo_9_9__c7_xd_F0_L_4",
			"translation":[
				3.34078049659729,
				0.30000001192092896,
				55.784217834472656
			]
		},
		{
			"name":"lane_District_kitdemo_9_9__c7_xd_F0_L_5",
			"translation":[
				4.053648948669434,
				0.30000001192092896,
				56.0933952331543
			]
		},
		{
			"name":"lane_District_kitdemo_9_9__c7_xd_F0_L_6",
			"translation":[
				4.805253028869629,
				0.30000001192092896,
				56.31752014160156
			]
		},
		{
			"name":"lane_District_kitdemo_9_9__c7_xd_F0_L_7",
			"translation":[
				5.5519256591796875,
				0.30000001192092896,
				56.45393753051758
			]
		},
		{
			"name":"lane_District_kitdemo_9_9__c7_xd_F0_L_8",
			"translation":[
				6.25,
				0.30000001192092896,
				56.5
			]
		},
		{
			"extras":{
				"lane_offset":0.0,
				"loop":false,
				"end_behavior":"CHAIN",
				"next_routes":"District_kitdemo_9_9__xe_F0",
				"turn":"S",
				"approach":"N"
			},
			"name":"lane_District_kitdemo_9_9__c7_xd_F0_S_0",
			"translation":[
				1.75,
				0.30000001192092896,
				53.75
			]
		},
		{
			"name":"lane_District_kitdemo_9_9__c7_xd_F0_S_1",
			"translation":[
				1.75,
				0.30000001192092896,
				55.3125
			]
		},
		{
			"name":"lane_District_kitdemo_9_9__c7_xd_F0_S_2",
			"translation":[
				1.75,
				0.30000001192092896,
				56.875
			]
		},
		{
			"name":"lane_District_kitdemo_9_9__c7_xd_F0_S_3",
			"translation":[
				1.75,
				0.30000001192092896,
				58.4375
			]
		},
		{
			"name":"lane_District_kitdemo_9_9__c7_xd_F0_S_4",
			"translation":[
				1.75,
				0.30000001192092896,
				60
			]
		},
		{
			"name":"lane_District_kitdemo_9_9__c7_xd_F0_S_5",
			"translation":[
				1.75,
				0.30000001192092896,
				61.5625
			]
		},
		{
			"name":"lane_District_kitdemo_9_9__c7_xd_F0_S_6",
			"translation":[
				1.75,
				0.30000001192092896,
				63.125
			]
		},
		{
			"name":"lane_District_kitdemo_9_9__c7_xd_F0_S_7",
			"translation":[
				1.75,
				0.30000001192092896,
				64.6875
			]
		},
		{
			"name":"lane_District_kitdemo_9_9__c7_xd_F0_S_8",
			"translation":[
				1.75,
				0.30000001192092896,
				66.25
			]
		},
		{
			"extras":{
				"lane_offset":0.0,
				"loop":false,
				"end_behavior":"CHAIN",
				"next_routes":"District_kitdemo_9_9__median_s0_R0",
				"turn":"L",
				"approach":"S"
			},
			"name":"lane_District_kitdemo_9_9__c7_xe_R0_L_0",
			"translation":[
				-1.75,
				0.30000001192092896,
				66.25
			]
		},
		{
			"name":"lane_District_kitdemo_9_9__c7_xe_R0_L_1",
			"translation":[
				-1.8712571859359741,
				0.30000001192092896,
				65.62712097167969
			]
		},
		{
			"name":"lane_District_kitdemo_9_9__c7_xe_R0_L_2",
			"translation":[
				-2.2059175968170166,
				0.30000001192092896,
				65.07868957519531
			]
		},
		{
			"name":"lane_District_kitdemo_9_9__c7_xe_R0_L_3",
			"translation":[
				-2.7103145122528076,
				0.30000001192092896,
				64.60736083984375
			]
		},
		{
			"name":"lane_District_kitdemo_9_9__c7_xe_R0_L_4",
			"translation":[
				-3.34078049659729,
				0.30000001192092896,
				64.21578216552734
			]
		},
		{
			"name":"lane_District_kitdemo_9_9__c7_xe_R0_L_5",
			"translation":[
				-4.053648948669434,
				0.30000001192092896,
				63.9066047668457
			]
		},
		{
			"name":"lane_District_kitdemo_9_9__c7_xe_R0_L_6",
			"translation":[
				-4.805253028869629,
				0.30000001192092896,
				63.68247985839844
			]
		},
		{
			"name":"lane_District_kitdemo_9_9__c7_xe_R0_L_7",
			"translation":[
				-5.5519256591796875,
				0.30000001192092896,
				63.54606246948242
			]
		},
		{
			"name":"lane_District_kitdemo_9_9__c7_xe_R0_L_8",
			"translation":[
				-6.25,
				0.30000001192092896,
				63.5
			]
		},
		{
			"extras":{
				"lane_offset":0.0,
				"loop":false,
				"end_behavior":"CHAIN",
				"next_routes":"District_kitdemo_9_9__median_s1_F0",
				"turn":"R",
				"approach":"S"
			},
			"name":"lane_District_kitdemo_9_9__c7_xe_R0_R_0",
			"translation":[
				-1.75,
				0.30000001192092896,
				66.25
			]
		},
		{
			"name":"lane_District_kitdemo_9_9__c7_xe_R0_R_1",
			"translation":[
				-1.5786796808242798,
				0.30000001192092896,
				64.6240463256836
			]
		},
		{
			"name":"lane_District_kitdemo_9_9__c7_xe_R0_R_2",
			"translation":[
				-1.0911874771118164,
				0.30000001192092896,
				62.952999114990234
			]
		},
		{
			"name":"lane_District_kitdemo_9_9__c7_xe_R0_R_3",
			"translation":[
				-0.3272264003753662,
				0.30000001192092896,
				61.31757736206055
			]
		},
		{
			"name":"lane_District_kitdemo_9_9__c7_xe_R0_R_4",
			"translation":[
				0.6735002398490906,
				0.30000001192092896,
				59.798500061035156
			]
		},
		{
			"name":"lane_District_kitdemo_9_9__c7_xe_R0_R_5",
			"translation":[
				1.8712893724441528,
				0.30000001192092896,
				58.47648620605469
			]
		},
		{
			"name":"lane_District_kitdemo_9_9__c7_xe_R0_R_6",
			"translation":[
				3.22643780708313,
				0.30000001192092896,
				57.4322509765625
			]
		},
		{
			"name":"lane_District_kitdemo_9_9__c7_xe_R0_R_7",
			"translation":[
				4.69924259185791,
				0.30000001192092896,
				56.746517181396484
			]
		},
		{
			"name":"lane_District_kitdemo_9_9__c7_xe_R0_R_8",
			"translation":[
				6.25,
				0.30000001192092896,
				56.5
			]
		},
		{
			"extras":{
				"lane_offset":0.0,
				"loop":false,
				"end_behavior":"CHAIN",
				"next_routes":"District_kitdemo_9_9__xd_R0",
				"turn":"S",
				"approach":"S"
			},
			"name":"lane_District_kitdemo_9_9__c7_xe_R0_S_0",
			"translation":[
				-1.75,
				0.30000001192092896,
				66.25
			]
		},
		{
			"name":"lane_District_kitdemo_9_9__c7_xe_R0_S_1",
			"translation":[
				-1.75,
				0.30000001192092896,
				64.6875
			]
		},
		{
			"name":"lane_District_kitdemo_9_9__c7_xe_R0_S_2",
			"translation":[
				-1.75,
				0.30000001192092896,
				63.125
			]
		},
		{
			"name":"lane_District_kitdemo_9_9__c7_xe_R0_S_3",
			"translation":[
				-1.75,
				0.30000001192092896,
				61.5625
			]
		},
		{
			"name":"lane_District_kitdemo_9_9__c7_xe_R0_S_4",
			"translation":[
				-1.75,
				0.30000001192092896,
				60
			]
		},
		{
			"name":"lane_District_kitdemo_9_9__c7_xe_R0_S_5",
			"translation":[
				-1.75,
				0.30000001192092896,
				58.4375
			]
		},
		{
			"name":"lane_District_kitdemo_9_9__c7_xe_R0_S_6",
			"translation":[
				-1.75,
				0.30000001192092896,
				56.875
			]
		},
		{
			"name":"lane_District_kitdemo_9_9__c7_xe_R0_S_7",
			"translation":[
				-1.75,
				0.30000001192092896,
				55.3125
			]
		},
		{
			"name":"lane_District_kitdemo_9_9__c7_xe_R0_S_8",
			"translation":[
				-1.75,
				0.30000001192092896,
				53.75
			]
		},
		{
			"extras":{
				"lane_offset":0.0,
				"loop":false,
				"end_behavior":"CHAIN",
				"next_routes":"District_kitdemo_9_9__plain_s1_F0",
				"turn":"S",
				"approach":"W"
			},
			"name":"lane_District_kitdemo_9_9__c10_plain_s0_F0_S_0",
			"translation":[
				-4.5,
				0.30000001192092896,
				-61.75
			]
		},
		{
			"name":"lane_District_kitdemo_9_9__c10_plain_s0_F0_S_1",
			"translation":[
				-3.375,
				0.30000001192092896,
				-61.75
			]
		},
		{
			"name":"lane_District_kitdemo_9_9__c10_plain_s0_F0_S_2",
			"translation":[
				-2.25,
				0.30000001192092896,
				-61.75
			]
		},
		{
			"name":"lane_District_kitdemo_9_9__c10_plain_s0_F0_S_3",
			"translation":[
				-1.125,
				0.30000001192092896,
				-61.75
			]
		},
		{
			"name":"lane_District_kitdemo_9_9__c10_plain_s0_F0_S_4",
			"translation":[
				0,
				0.30000001192092896,
				-61.75
			]
		},
		{
			"name":"lane_District_kitdemo_9_9__c10_plain_s0_F0_S_5",
			"translation":[
				1.125,
				0.30000001192092896,
				-61.75
			]
		},
		{
			"name":"lane_District_kitdemo_9_9__c10_plain_s0_F0_S_6",
			"translation":[
				2.25,
				0.30000001192092896,
				-61.75
			]
		},
		{
			"name":"lane_District_kitdemo_9_9__c10_plain_s0_F0_S_7",
			"translation":[
				3.375,
				0.30000001192092896,
				-61.75
			]
		},
		{
			"name":"lane_District_kitdemo_9_9__c10_plain_s0_F0_S_8",
			"translation":[
				4.5,
				0.30000001192092896,
				-61.75
			]
		},
		{
			"extras":{
				"lane_offset":0.0,
				"loop":false,
				"end_behavior":"CHAIN",
				"next_routes":"District_kitdemo_9_9__xa_R0",
				"turn":"L",
				"approach":"W"
			},
			"name":"lane_District_kitdemo_9_9__c10_plain_s0_F0_L_0",
			"translation":[
				-4.5,
				0.30000001192092896,
				-61.75
			]
		},
		{
			"name":"lane_District_kitdemo_9_9__c10_plain_s0_F0_L_1",
			"translation":[
				-4.00963830947876,
				0.30000001192092896,
				-61.81499481201172
			]
		},
		{
			"name":"lane_District_kitdemo_9_9__c10_plain_s0_F0_L_2",
			"translation":[
				-3.523409605026245,
				0.30000001192092896,
				-61.99738693237305
			]
		},
		{
			"name":"lane_District_kitdemo_9_9__c10_plain_s0_F0_L_3",
			"translation":[
				-3.060192346572876,
				0.30000001192092896,
				-62.27830123901367
			]
		},
		{
			"name":"lane_District_kitdemo_9_9__c10_plain_s0_F0_L_4",
			"translation":[
				-2.638864040374756,
				0.30000001192092896,
				-62.63886260986328
			]
		},
		{
			"name":"lane_District_kitdemo_9_9__c10_plain_s0_F0_L_5",
			"translation":[
				-2.2783029079437256,
				0.30000001192092896,
				-63.0601921081543
			]
		},
		{
			"name":"lane_District_kitdemo_9_9__c10_plain_s0_F0_L_6",
			"translation":[
				-1.9973865747451782,
				0.30000001192092896,
				-63.52341079711914
			]
		},
		{
			"name":"lane_District_kitdemo_9_9__c10_plain_s0_F0_L_7",
			"translation":[
				-1.814992904663086,
				0.30000001192092896,
				-64.00963592529297
			]
		},
		{
			"name":"lane_District_kitdemo_9_9__c10_plain_s0_F0_L_8",
			"translation":[
				-1.75,
				0.30000001192092896,
				-64.5
			]
		},
		{
			"extras":{
				"lane_offset":0.0,
				"loop":false,
				"end_behavior":"CHAIN",
				"next_routes":"District_kitdemo_9_9__xb_F0",
				"turn":"R",
				"approach":"W"
			},
			"name":"lane_District_kitdemo_9_9__c10_plain_s0_F0_R_0",
			"translation":[
				-4.5,
				0.30000001192092896,
				-61.75
			]
		},
		{
			"name":"lane_District_kitdemo_9_9__c10_plain_s0_F0_R_1",
			"translation":[
				-3.3855412006378174,
				0.30000001192092896,
				-61.60228729248047
			]
		},
		{
			"name":"lane_District_kitdemo_9_9__c10_plain_s0_F0_R_2",
			"translation":[
				-2.2804763317108154,
				0.30000001192092896,
				-61.18775939941406
			]
		},
		{
			"name":"lane_District_kitdemo_9_9__c10_plain_s0_F0_R_3",
			"translation":[
				-1.2277097702026367,
				0.30000001192092896,
				-60.549312591552734
			]
		},
		{
			"name":"lane_District_kitdemo_9_9__c10_plain_s0_F0_R_4",
			"translation":[
				-0.2701456546783447,
				0.30000001192092896,
				-59.729854583740234
			]
		},
		{
			"name":"lane_District_kitdemo_9_9__c10_plain_s0_F0_R_5",
			"translation":[
				0.549311637878418,
				0.30000001192092896,
				-58.77228927612305
			]
		},
		{
			"name":"lane_District_kitdemo_9_9__c10_plain_s0_F0_R_6",
			"translation":[
				1.1877578496932983,
				0.30000001192092896,
				-57.71952438354492
			]
		},
		{
			"name":"lane_District_kitdemo_9_9__c10_plain_s0_F0_R_7",
			"translation":[
				1.6022887229919434,
				0.30000001192092896,
				-56.61445999145508
			]
		},
		{
			"name":"lane_District_kitdemo_9_9__c10_plain_s0_F0_R_8",
			"translation":[
				1.75,
				0.30000001192092896,
				-55.5
			]
		},
		{
			"extras":{
				"lane_offset":0.0,
				"loop":false,
				"end_behavior":"CHAIN",
				"next_routes":"District_kitdemo_9_9__plain_s0_R0",
				"turn":"S",
				"approach":"E"
			},
			"name":"lane_District_kitdemo_9_9__c10_plain_s1_R0_S_0",
			"translation":[
				4.5,
				0.30000001192092896,
				-58.25
			]
		},
		{
			"name":"lane_District_kitdemo_9_9__c10_plain_s1_R0_S_1",
			"translation":[
				3.375,
				0.30000001192092896,
				-58.25
			]
		},
		{
			"name":"lane_District_kitdemo_9_9__c10_plain_s1_R0_S_2",
			"translation":[
				2.25,
				0.30000001192092896,
				-58.25
			]
		},
		{
			"name":"lane_District_kitdemo_9_9__c10_plain_s1_R0_S_3",
			"translation":[
				1.125,
				0.30000001192092896,
				-58.25
			]
		},
		{
			"name":"lane_District_kitdemo_9_9__c10_plain_s1_R0_S_4",
			"translation":[
				0,
				0.30000001192092896,
				-58.25
			]
		},
		{
			"name":"lane_District_kitdemo_9_9__c10_plain_s1_R0_S_5",
			"translation":[
				-1.125,
				0.30000001192092896,
				-58.25
			]
		},
		{
			"name":"lane_District_kitdemo_9_9__c10_plain_s1_R0_S_6",
			"translation":[
				-2.25,
				0.30000001192092896,
				-58.25
			]
		},
		{
			"name":"lane_District_kitdemo_9_9__c10_plain_s1_R0_S_7",
			"translation":[
				-3.375,
				0.30000001192092896,
				-58.25
			]
		},
		{
			"name":"lane_District_kitdemo_9_9__c10_plain_s1_R0_S_8",
			"translation":[
				-4.5,
				0.30000001192092896,
				-58.25
			]
		},
		{
			"extras":{
				"lane_offset":0.0,
				"loop":false,
				"end_behavior":"CHAIN",
				"next_routes":"District_kitdemo_9_9__xa_R0",
				"turn":"R",
				"approach":"E"
			},
			"name":"lane_District_kitdemo_9_9__c10_plain_s1_R0_R_0",
			"translation":[
				4.5,
				0.30000001192092896,
				-58.25
			]
		},
		{
			"name":"lane_District_kitdemo_9_9__c10_plain_s1_R0_R_1",
			"translation":[
				3.3855412006378174,
				0.30000001192092896,
				-58.39771270751953
			]
		},
		{
			"name":"lane_District_kitdemo_9_9__c10_plain_s1_R0_R_2",
			"translation":[
				2.2804763317108154,
				0.30000001192092896,
				-58.81224060058594
			]
		},
		{
			"name":"lane_District_kitdemo_9_9__c10_plain_s1_R0_R_3",
			"translation":[
				1.2277097702026367,
				0.30000001192092896,
				-59.450687408447266
			]
		},
		{
			"name":"lane_District_kitdemo_9_9__c10_plain_s1_R0_R_4",
			"translation":[
				0.2701456546783447,
				0.30000001192092896,
				-60.270145416259766
			]
		},
		{
			"name":"lane_District_kitdemo_9_9__c10_plain_s1_R0_R_5",
			"translation":[
				-0.549311637878418,
				0.30000001192092896,
				-61.22771072387695
			]
		},
		{
			"name":"lane_District_kitdemo_9_9__c10_plain_s1_R0_R_6",
			"translation":[
				-1.1877578496932983,
				0.30000001192092896,
				-62.28047561645508
			]
		},
		{
			"name":"lane_District_kitdemo_9_9__c10_plain_s1_R0_R_7",
			"translation":[
				-1.6022887229919434,
				0.30000001192092896,
				-63.38554000854492
			]
		},
		{
			"name":"lane_District_kitdemo_9_9__c10_plain_s1_R0_R_8",
			"translation":[
				-1.75,
				0.30000001192092896,
				-64.5
			]
		},
		{
			"extras":{
				"lane_offset":0.0,
				"loop":false,
				"end_behavior":"CHAIN",
				"next_routes":"District_kitdemo_9_9__xb_F0",
				"turn":"L",
				"approach":"E"
			},
			"name":"lane_District_kitdemo_9_9__c10_plain_s1_R0_L_0",
			"translation":[
				4.5,
				0.30000001192092896,
				-58.25
			]
		},
		{
			"name":"lane_District_kitdemo_9_9__c10_plain_s1_R0_L_1",
			"translation":[
				4.00963830947876,
				0.30000001192092896,
				-58.18500518798828
			]
		},
		{
			"name":"lane_District_kitdemo_9_9__c10_plain_s1_R0_L_2",
			"translation":[
				3.523409605026245,
				0.30000001192092896,
				-58.00261306762695
			]
		},
		{
			"name":"lane_District_kitdemo_9_9__c10_plain_s1_R0_L_3",
			"translation":[
				3.060192346572876,
				0.30000001192092896,
				-57.72169876098633
			]
		},
		{
			"name":"lane_District_kitdemo_9_9__c10_plain_s1_R0_L_4",
			"translation":[
				2.638864040374756,
				0.30000001192092896,
				-57.36113739013672
			]
		},
		{
			"name":"lane_District_kitdemo_9_9__c10_plain_s1_R0_L_5",
			"translation":[
				2.2783029079437256,
				0.30000001192092896,
				-56.9398078918457
			]
		},
		{
			"name":"lane_District_kitdemo_9_9__c10_plain_s1_R0_L_6",
			"translation":[
				1.9973865747451782,
				0.30000001192092896,
				-56.47658920288086
			]
		},
		{
			"name":"lane_District_kitdemo_9_9__c10_plain_s1_R0_L_7",
			"translation":[
				1.814992904663086,
				0.30000001192092896,
				-55.990360260009766
			]
		},
		{
			"name":"lane_District_kitdemo_9_9__c10_plain_s1_R0_L_8",
			"translation":[
				1.75,
				0.30000001192092896,
				-55.5
			]
		},
		{
			"extras":{
				"lane_offset":0.0,
				"loop":false,
				"end_behavior":"CHAIN",
				"next_routes":"District_kitdemo_9_9__plain_s0_R0",
				"turn":"R",
				"approach":"N"
			},
			"name":"lane_District_kitdemo_9_9__c10_xa_F0_R_0",
			"translation":[
				1.75,
				0.30000001192092896,
				-64.5
			]
		},
		{
			"name":"lane_District_kitdemo_9_9__c10_xa_F0_R_1",
			"translation":[
				1.6022887229919434,
				0.30000001192092896,
				-63.38554000854492
			]
		},
		{
			"name":"lane_District_kitdemo_9_9__c10_xa_F0_R_2",
			"translation":[
				1.1877578496932983,
				0.30000001192092896,
				-62.28047561645508
			]
		},
		{
			"name":"lane_District_kitdemo_9_9__c10_xa_F0_R_3",
			"translation":[
				0.549311637878418,
				0.30000001192092896,
				-61.22771072387695
			]
		},
		{
			"name":"lane_District_kitdemo_9_9__c10_xa_F0_R_4",
			"translation":[
				-0.2701456546783447,
				0.30000001192092896,
				-60.270145416259766
			]
		},
		{
			"name":"lane_District_kitdemo_9_9__c10_xa_F0_R_5",
			"translation":[
				-1.2277097702026367,
				0.30000001192092896,
				-59.450687408447266
			]
		},
		{
			"name":"lane_District_kitdemo_9_9__c10_xa_F0_R_6",
			"translation":[
				-2.2804763317108154,
				0.30000001192092896,
				-58.81224060058594
			]
		},
		{
			"name":"lane_District_kitdemo_9_9__c10_xa_F0_R_7",
			"translation":[
				-3.3855412006378174,
				0.30000001192092896,
				-58.39771270751953
			]
		},
		{
			"name":"lane_District_kitdemo_9_9__c10_xa_F0_R_8",
			"translation":[
				-4.5,
				0.30000001192092896,
				-58.25
			]
		},
		{
			"extras":{
				"lane_offset":0.0,
				"loop":false,
				"end_behavior":"CHAIN",
				"next_routes":"District_kitdemo_9_9__plain_s1_F0",
				"turn":"L",
				"approach":"N"
			},
			"name":"lane_District_kitdemo_9_9__c10_xa_F0_L_0",
			"translation":[
				1.75,
				0.30000001192092896,
				-64.5
			]
		},
		{
			"name":"lane_District_kitdemo_9_9__c10_xa_F0_L_1",
			"translation":[
				1.814992904663086,
				0.30000001192092896,
				-64.00963592529297
			]
		},
		{
			"name":"lane_District_kitdemo_9_9__c10_xa_F0_L_2",
			"translation":[
				1.9973865747451782,
				0.30000001192092896,
				-63.52341079711914
			]
		},
		{
			"name":"lane_District_kitdemo_9_9__c10_xa_F0_L_3",
			"translation":[
				2.2783029079437256,
				0.30000001192092896,
				-63.0601921081543
			]
		},
		{
			"name":"lane_District_kitdemo_9_9__c10_xa_F0_L_4",
			"translation":[
				2.638864040374756,
				0.30000001192092896,
				-62.63886260986328
			]
		},
		{
			"name":"lane_District_kitdemo_9_9__c10_xa_F0_L_5",
			"translation":[
				3.060192346572876,
				0.30000001192092896,
				-62.27830123901367
			]
		},
		{
			"name":"lane_District_kitdemo_9_9__c10_xa_F0_L_6",
			"translation":[
				3.523409605026245,
				0.30000001192092896,
				-61.99738693237305
			]
		},
		{
			"name":"lane_District_kitdemo_9_9__c10_xa_F0_L_7",
			"translation":[
				4.00963830947876,
				0.30000001192092896,
				-61.81499481201172
			]
		},
		{
			"name":"lane_District_kitdemo_9_9__c10_xa_F0_L_8",
			"translation":[
				4.5,
				0.30000001192092896,
				-61.75
			]
		},
		{
			"extras":{
				"lane_offset":0.0,
				"loop":false,
				"end_behavior":"CHAIN",
				"next_routes":"District_kitdemo_9_9__xb_F0",
				"turn":"S",
				"approach":"N"
			},
			"name":"lane_District_kitdemo_9_9__c10_xa_F0_S_0",
			"translation":[
				1.75,
				0.30000001192092896,
				-64.5
			]
		},
		{
			"name":"lane_District_kitdemo_9_9__c10_xa_F0_S_1",
			"translation":[
				1.75,
				0.30000001192092896,
				-63.375
			]
		},
		{
			"name":"lane_District_kitdemo_9_9__c10_xa_F0_S_2",
			"translation":[
				1.75,
				0.30000001192092896,
				-62.25
			]
		},
		{
			"name":"lane_District_kitdemo_9_9__c10_xa_F0_S_3",
			"translation":[
				1.75,
				0.30000001192092896,
				-61.125
			]
		},
		{
			"name":"lane_District_kitdemo_9_9__c10_xa_F0_S_4",
			"translation":[
				1.75,
				0.30000001192092896,
				-60
			]
		},
		{
			"name":"lane_District_kitdemo_9_9__c10_xa_F0_S_5",
			"translation":[
				1.75,
				0.30000001192092896,
				-58.875
			]
		},
		{
			"name":"lane_District_kitdemo_9_9__c10_xa_F0_S_6",
			"translation":[
				1.75,
				0.30000001192092896,
				-57.75
			]
		},
		{
			"name":"lane_District_kitdemo_9_9__c10_xa_F0_S_7",
			"translation":[
				1.75,
				0.30000001192092896,
				-56.625
			]
		},
		{
			"name":"lane_District_kitdemo_9_9__c10_xa_F0_S_8",
			"translation":[
				1.75,
				0.30000001192092896,
				-55.5
			]
		},
		{
			"extras":{
				"lane_offset":0.0,
				"loop":false,
				"end_behavior":"CHAIN",
				"next_routes":"District_kitdemo_9_9__plain_s0_R0",
				"turn":"L",
				"approach":"S"
			},
			"name":"lane_District_kitdemo_9_9__c10_xb_R0_L_0",
			"translation":[
				-1.75,
				0.30000001192092896,
				-55.5
			]
		},
		{
			"name":"lane_District_kitdemo_9_9__c10_xb_R0_L_1",
			"translation":[
				-1.814992904663086,
				0.30000001192092896,
				-55.990360260009766
			]
		},
		{
			"name":"lane_District_kitdemo_9_9__c10_xb_R0_L_2",
			"translation":[
				-1.9973865747451782,
				0.30000001192092896,
				-56.47658920288086
			]
		},
		{
			"name":"lane_District_kitdemo_9_9__c10_xb_R0_L_3",
			"translation":[
				-2.2783029079437256,
				0.30000001192092896,
				-56.9398078918457
			]
		},
		{
			"name":"lane_District_kitdemo_9_9__c10_xb_R0_L_4",
			"translation":[
				-2.638864040374756,
				0.30000001192092896,
				-57.36113739013672
			]
		},
		{
			"name":"lane_District_kitdemo_9_9__c10_xb_R0_L_5",
			"translation":[
				-3.060192346572876,
				0.30000001192092896,
				-57.72169876098633
			]
		},
		{
			"name":"lane_District_kitdemo_9_9__c10_xb_R0_L_6",
			"translation":[
				-3.523409605026245,
				0.30000001192092896,
				-58.00261306762695
			]
		},
		{
			"name":"lane_District_kitdemo_9_9__c10_xb_R0_L_7",
			"translation":[
				-4.00963830947876,
				0.30000001192092896,
				-58.18500518798828
			]
		},
		{
			"name":"lane_District_kitdemo_9_9__c10_xb_R0_L_8",
			"translation":[
				-4.5,
				0.30000001192092896,
				-58.25
			]
		},
		{
			"extras":{
				"lane_offset":0.0,
				"loop":false,
				"end_behavior":"CHAIN",
				"next_routes":"District_kitdemo_9_9__plain_s1_F0",
				"turn":"R",
				"approach":"S"
			},
			"name":"lane_District_kitdemo_9_9__c10_xb_R0_R_0",
			"translation":[
				-1.75,
				0.30000001192092896,
				-55.5
			]
		},
		{
			"name":"lane_District_kitdemo_9_9__c10_xb_R0_R_1",
			"translation":[
				-1.6022887229919434,
				0.30000001192092896,
				-56.61445999145508
			]
		},
		{
			"name":"lane_District_kitdemo_9_9__c10_xb_R0_R_2",
			"translation":[
				-1.1877578496932983,
				0.30000001192092896,
				-57.71952438354492
			]
		},
		{
			"name":"lane_District_kitdemo_9_9__c10_xb_R0_R_3",
			"translation":[
				-0.549311637878418,
				0.30000001192092896,
				-58.77228927612305
			]
		},
		{
			"name":"lane_District_kitdemo_9_9__c10_xb_R0_R_4",
			"translation":[
				0.2701456546783447,
				0.30000001192092896,
				-59.729854583740234
			]
		},
		{
			"name":"lane_District_kitdemo_9_9__c10_xb_R0_R_5",
			"translation":[
				1.2277097702026367,
				0.30000001192092896,
				-60.549312591552734
			]
		},
		{
			"name":"lane_District_kitdemo_9_9__c10_xb_R0_R_6",
			"translation":[
				2.2804763317108154,
				0.30000001192092896,
				-61.18775939941406
			]
		},
		{
			"name":"lane_District_kitdemo_9_9__c10_xb_R0_R_7",
			"translation":[
				3.3855412006378174,
				0.30000001192092896,
				-61.60228729248047
			]
		},
		{
			"name":"lane_District_kitdemo_9_9__c10_xb_R0_R_8",
			"translation":[
				4.5,
				0.30000001192092896,
				-61.75
			]
		},
		{
			"extras":{
				"lane_offset":0.0,
				"loop":false,
				"end_behavior":"CHAIN",
				"next_routes":"District_kitdemo_9_9__xa_R0",
				"turn":"S",
				"approach":"S"
			},
			"name":"lane_District_kitdemo_9_9__c10_xb_R0_S_0",
			"translation":[
				-1.75,
				0.30000001192092896,
				-55.5
			]
		},
		{
			"name":"lane_District_kitdemo_9_9__c10_xb_R0_S_1",
			"translation":[
				-1.75,
				0.30000001192092896,
				-56.625
			]
		},
		{
			"name":"lane_District_kitdemo_9_9__c10_xb_R0_S_2",
			"translation":[
				-1.75,
				0.30000001192092896,
				-57.75
			]
		},
		{
			"name":"lane_District_kitdemo_9_9__c10_xb_R0_S_3",
			"translation":[
				-1.75,
				0.30000001192092896,
				-58.875
			]
		},
		{
			"name":"lane_District_kitdemo_9_9__c10_xb_R0_S_4",
			"translation":[
				-1.75,
				0.30000001192092896,
				-60
			]
		},
		{
			"name":"lane_District_kitdemo_9_9__c10_xb_R0_S_5",
			"translation":[
				-1.75,
				0.30000001192092896,
				-61.125
			]
		},
		{
			"name":"lane_District_kitdemo_9_9__c10_xb_R0_S_6",
			"translation":[
				-1.75,
				0.30000001192092896,
				-62.25
			]
		},
		{
			"name":"lane_District_kitdemo_9_9__c10_xb_R0_S_7",
			"translation":[
				-1.75,
				0.30000001192092896,
				-63.375
			]
		},
		{
			"name":"lane_District_kitdemo_9_9__c10_xb_R0_S_8",
			"translation":[
				-1.75,
				0.30000001192092896,
				-64.5
			]
		},
		{
			"extras":{
				"size":[
					9.0,
					6.0,
					9.0
				]
			},
			"name":"intersection_District_kitdemo_9_9__n1",
			"translation":[
				0,
				0.30000001192092896,
				-5
			]
		},
		{
			"extras":{
				"size":[
					9.0,
					6.0,
					9.0
				]
			},
			"name":"intersection_District_kitdemo_9_9__n4",
			"translation":[
				0,
				0.30000001192092896,
				5
			]
		},
		{
			"extras":{
				"size":[
					12.5,
					6.0,
					12.5
				]
			},
			"name":"intersection_District_kitdemo_9_9__n7",
			"translation":[
				0,
				0.30000001192092896,
				60
			]
		},
		{
			"extras":{
				"size":[
					9.0,
					6.0,
					9.0
				]
			},
			"name":"intersection_District_kitdemo_9_9__n10",
			"translation":[
				0,
				0.30000001192092896,
				-60
			]
		}
	],
	"materials":[
		{
			"doubleSided":true,
			"name":"M_Concrete",
			"pbrMetallicRoughness":{
				"baseColorFactor":[
					0.8199999928474426,
					0.800000011920929,
					0.7599999904632568,
					1
				],
				"metallicFactor":0,
				"roughnessFactor":0.5
			}
		},
		{
			"doubleSided":true,
			"name":"M_Collision",
			"pbrMetallicRoughness":{
				"baseColorFactor":[
					0.8999999761581421,
					0.20000000298023224,
					0.550000011920929,
					1
				],
				"metallicFactor":0,
				"roughnessFactor":0.5
			}
		}
	],
	"meshes":[
		{
			"name":"District_kitdemo_9_9_Ground",
			"primitives":[
				{
					"attributes":{
						"POSITION":0,
						"NORMAL":1
					},
					"indices":2,
					"material":0
				}
			]
		},
		{
			"name":"District_kitdemo_9_9_Ground-colonly",
			"primitives":[
				{
					"attributes":{
						"POSITION":3,
						"NORMAL":4
					},
					"indices":2,
					"material":1
				}
			]
		},
		{
			"name":"KitDemo_MedianBump_dual",
			"primitives":[
				{
					"attributes":{
						"POSITION":5,
						"NORMAL":6
					},
					"indices":2,
					"material":0
				}
			]
		},
		{
			"name":"KitDemo_MedianBump_dual-colonly",
			"primitives":[
				{
					"attributes":{
						"POSITION":7,
						"NORMAL":8
					},
					"indices":2,
					"material":1
				}
			]
		},
		{
			"name":"KitDemo_MedianBump_median",
			"primitives":[
				{
					"attributes":{
						"POSITION":9,
						"NORMAL":10
					},
					"indices":2,
					"material":0
				}
			]
		},
		{
			"name":"KitDemo_MedianBump_median-colonly",
			"primitives":[
				{
					"attributes":{
						"POSITION":11,
						"NORMAL":12
					},
					"indices":2,
					"material":1
				}
			]
		},
		{
			"name":"KitDemo_Vis_plain_curve",
			"primitives":[
				{
					"attributes":{
						"POSITION":13,
						"NORMAL":14
					},
					"indices":15
				}
			]
		},
		{
			"name":"KitDemo_Vis_dual_e_curve",
			"primitives":[
				{
					"attributes":{
						"POSITION":16,
						"NORMAL":17
					},
					"indices":15
				}
			]
		},
		{
			"name":"KitDemo_Vis_dual_w_curve",
			"primitives":[
				{
					"attributes":{
						"POSITION":18,
						"NORMAL":19
					},
					"indices":15
				}
			]
		},
		{
			"name":"KitDemo_Vis_median_curve",
			"primitives":[
				{
					"attributes":{
						"POSITION":20,
						"NORMAL":21
					},
					"indices":15
				}
			]
		},
		{
			"name":"KitDemo_Vis_cross_curve",
			"primitives":[
				{
					"attributes":{
						"POSITION":22,
						"NORMAL":23
					},
					"indices":15
				}
			]
		}
	],
	"accessors":[
		{
			"bufferView":0,
			"componentType":5126,
			"count":24,
			"max":[
				160,
				0,
				160
			],
			"min":[
				-160,
				-0.5,
				-160
			],
			"type":"VEC3"
		},
		{
			"bufferView":1,
			"componentType":5126,
			"count":24,
			"type":"VEC3"
		},
		{
			"bufferView":2,
			"componentType":5123,
			"count":36,
			"type":"SCALAR"
		},
		{
			"bufferView":3,
			"componentType":5126,
			"count":24,
			"max":[
				160,
				0,
				160
			],
			"min":[
				-160,
				-0.5,
				-160
			],
			"type":"VEC3"
		},
		{
			"bufferView":4,
			"componentType":5126,
			"count":24,
			"type":"VEC3"
		},
		{
			"bufferView":5,
			"componentType":5126,
			"count":24,
			"max":[
				140,
				0.25,
				1.5
			],
			"min":[
				-140,
				0,
				-1.5
			],
			"type":"VEC3"
		},
		{
			"bufferView":6,
			"componentType":5126,
			"count":24,
			"type":"VEC3"
		},
		{
			"bufferView":7,
			"componentType":5126,
			"count":24,
			"max":[
				140,
				0.25,
				1.5
			],
			"min":[
				-140,
				0,
				-1.5
			],
			"type":"VEC3"
		},
		{
			"bufferView":8,
			"componentType":5126,
			"count":24,
			"type":"VEC3"
		},
		{
			"bufferView":9,
			"componentType":5126,
			"count":24,
			"max":[
				140,
				0.25,
				61.5
			],
			"min":[
				-140,
				0,
				58.5
			],
			"type":"VEC3"
		},
		{
			"bufferView":10,
			"componentType":5126,
			"count":24,
			"type":"VEC3"
		},
		{
			"bufferView":11,
			"componentType":5126,
			"count":24,
			"max":[
				140,
				0.25,
				61.5
			],
			"min":[
				-140,
				0,
				58.5
			],
			"type":"VEC3"
		},
		{
			"bufferView":12,
			"componentType":5126,
			"count":24,
			"type":"VEC3"
		},
		{
			"bufferView":13,
			"componentType":5126,
			"count":100,
			"max":[
				140,
				0.05000000447034836,
				-56.499996185302734
			],
			"min":[
				-140,
				-0.05000000447034836,
				-63.5
			],
			"type":"VEC3"
		},
		{
			"bufferView":14,
			"componentType":5126,
			"count":100,
			"type":"VEC3"
		},
		{
			"bufferView":15,
			"componentType":5123,
			"count":444,
			"type":"SCALAR"
		},
		{
			"bufferView":16,
			"componentType":5126,
			"count":100,
			"max":[
				140,
				0.05000000447034836,
				-3.999999523162842
			],
			"min":[
				-140,
				-0.05000000447034836,
				-9.5
			],
			"type":"VEC3"
		},
		{
			"bufferView":17,
			"componentType":5126,
			"count":100,
			"type":"VEC3"
		},
		{
			"bufferView":18,
			"componentType":5126,
			"count":100,
			"max":[
				140,
				0.05000000447034836,
				9.5
			],
			"min":[
				-140,
				-0.05000000447034836,
				3.999999523162842
			],
			"type":"VEC3"
		},
		{
			"bufferView":19,
			"componentType":5126,
			"count":100,
			"type":"VEC3"
		},
		{
			"bufferView":20,
			"componentType":5126,
			"count":100,
			"max":[
				140,
				0.05000000447034836,
				65.25
			],
			"min":[
				-140,
				-0.05000000447034836,
				54.749996185302734
			],
			"type":"VEC3"
		},
		{
			"bufferView":21,
			"componentType":5126,
			"count":100,
			"type":"VEC3"
		},
		{
			"bufferView":22,
			"componentType":5126,
			"count":100,
			"max":[
				3.500000238418579,
				0.05999999865889549,
				90
			],
			"min":[
				-3.500000238418579,
				-0.040000006556510925,
				-90
			],
			"type":"VEC3"
		},
		{
			"bufferView":23,
			"componentType":5126,
			"count":100,
			"type":"VEC3"
		}
	],
	"bufferViews":[
		{
			"buffer":0,
			"byteLength":288,
			"byteOffset":0,
			"target":34962
		},
		{
			"buffer":0,
			"byteLength":288,
			"byteOffset":288,
			"target":34962
		},
		{
			"buffer":0,
			"byteLength":72,
			"byteOffset":576,
			"target":34963
		},
		{
			"buffer":0,
			"byteLength":288,
			"byteOffset":648,
			"target":34962
		},
		{
			"buffer":0,
			"byteLength":288,
			"byteOffset":936,
			"target":34962
		},
		{
			"buffer":0,
			"byteLength":288,
			"byteOffset":1224,
			"target":34962
		},
		{
			"buffer":0,
			"byteLength":288,
			"byteOffset":1512,
			"target":34962
		},
		{
			"buffer":0,
			"byteLength":288,
			"byteOffset":1800,
			"target":34962
		},
		{
			"buffer":0,
			"byteLength":288,
			"byteOffset":2088,
			"target":34962
		},
		{
			"buffer":0,
			"byteLength":288,
			"byteOffset":2376,
			"target":34962
		},
		{
			"buffer":0,
			"byteLength":288,
			"byteOffset":2664,
			"target":34962
		},
		{
			"buffer":0,
			"byteLength":288,
			"byteOffset":2952,
			"target":34962
		},
		{
			"buffer":0,
			"byteLength":288,
			"byteOffset":3240,
			"target":34962
		},
		{
			"buffer":0,
			"byteLength":1200,
			"byteOffset":3528,
			"target":34962
		},
		{
			"buffer":0,
			"byteLength":1200,
			"byteOffset":4728,
			"target":34962
		},
		{
			"buffer":0,
			"byteLength":888,
			"byteOffset":5928,
			"target":34963
		},
		{
			"buffer":0,
			"byteLength":1200,
			"byteOffset":6816,
			"target":34962
		},
		{
			"buffer":0,
			"byteLength":1200,
			"byteOffset":8016,
			"target":34962
		},
		{
			"buffer":0,
			"byteLength":1200,
			"byteOffset":9216,
			"target":34962
		},
		{
			"buffer":0,
			"byteLength":1200,
			"byteOffset":10416,
			"target":34962
		},
		{
			"buffer":0,
			"byteLength":1200,
			"byteOffset":11616,
			"target":34962
		},
		{
			"buffer":0,
			"byteLength":1200,
			"byteOffset":12816,
			"target":34962
		},
		{
			"buffer":0,
			"byteLength":1200,
			"byteOffset":14016,
			"target":34962
		},
		{
			"buffer":0,
			"byteLength":1200,
			"byteOffset":15216,
			"target":34962
		}
	],
	"buffers":[
		{
			"byteLength":16416,
			"uri":"District_kitdemo_9_9.bin"
		}
	]
}
