{
	"asset":{
		"generator":"Khronos glTF Blender I/O v5.2.39",
		"version":"2.0"
	},
	"scene":0,
	"scenes":[
		{
			"extras":{
				"vrm_addon_extension":{
					"vrm0_material_gltf_property_names":[
						{
							"name":"_Color",
							"value":"_Color"
						},
						{
							"name":"_MainTex_ST",
							"value":"_MainTex_ST"
						},
						{
							"name":"_MainTex_ST_S",
							"value":"_MainTex_ST_S"
						},
						{
							"name":"_MainTex_ST_T",
							"value":"_MainTex_ST_T"
						},
						{
							"name":"_MetallicGlossMap_ST",
							"value":"_MetallicGlossMap_ST"
						},
						{
							"name":"_MetallicGlossMap_ST_S",
							"value":"_MetallicGlossMap_ST_S"
						},
						{
							"name":"_MetallicGlossMap_ST_T",
							"value":"_MetallicGlossMap_ST_T"
						},
						{
							"name":"_BumpMap_ST",
							"value":"_BumpMap_ST"
						},
						{
							"name":"_BumpMap_ST_S",
							"value":"_BumpMap_ST_S"
						},
						{
							"name":"_BumpMap_ST_T",
							"value":"_BumpMap_ST_T"
						},
						{
							"name":"_ParallaxMap_ST",
							"value":"_ParallaxMap_ST"
						},
						{
							"name":"_ParallaxMap_ST_S",
							"value":"_ParallaxMap_ST_S"
						},
						{
							"name":"_ParallaxMap_ST_T",
							"value":"_ParallaxMap_ST_T"
						},
						{
							"name":"_OcclusionMap_ST",
							"value":"_OcclusionMap_ST"
						},
						{
							"name":"_OcclusionMap_ST_S",
							"value":"_OcclusionMap_ST_S"
						},
						{
							"name":"_OcclusionMap_ST_T",
							"value":"_OcclusionMap_ST_T"
						},
						{
							"name":"_EmissionColor",
							"value":"_EmissionColor"
						},
						{
							"name":"_EmissionMap_ST",
							"value":"_EmissionMap_ST"
						},
						{
							"name":"_EmissionMap_ST_S",
							"value":"_EmissionMap_ST_S"
						},
						{
							"name":"_EmissionMap_ST_T",
							"value":"_EmissionMap_ST_T"
						},
						{
							"name":"_DetailMask_ST",
							"value":"_DetailMask_ST"
						},
						{
							"name":"_DetailMask_ST_S",
							"value":"_DetailMask_ST_S"
						},
						{
							"name":"_DetailMask_ST_T",
							"value":"_DetailMask_ST_T"
						},
						{
							"name":"_DetailAlbedoMap_ST",
							"value":"_DetailAlbedoMap_ST"
						},
						{
							"name":"_DetailAlbedoMap_ST_S",
							"value":"_DetailAlbedoMap_ST_S"
						},
						{
							"name":"_DetailAlbedoMap_ST_T",
							"value":"_DetailAlbedoMap_ST_T"
						},
						{
							"name":"_DetailNormalMap_ST",
							"value":"_DetailNormalMap_ST"
						},
						{
							"name":"_DetailNormalMap_ST_S",
							"value":"_DetailNormalMap_ST_S"
						},
						{
							"name":"_DetailNormalMap_ST_T",
							"value":"_DetailNormalMap_ST_T"
						}
					],
					"vrm0_material_mtoon0_property_names":[
						{
							"name":"_Color",
							"value":"_Color"
						},
						{
							"name":"_ShadeColor",
							"value":"_ShadeColor"
						},
						{
							"name":"_MainTex_ST",
							"value":"_MainTex_ST"
						},
						{
							"name":"_MainTex_ST_S",
							"value":"_MainTex_ST_S"
						},
						{
							"name":"_MainTex_ST_T",
							"value":"_MainTex_ST_T"
						},
						{
							"name":"_ShadeTexture_ST",
							"value":"_ShadeTexture_ST"
						},
						{
							"name":"_ShadeTexture_ST_S",
							"value":"_ShadeTexture_ST_S"
						},
						{
							"name":"_ShadeTexture_ST_T",
							"value":"_ShadeTexture_ST_T"
						},
						{
							"name":"_BumpMap_ST",
							"value":"_BumpMap_ST"
						},
						{
							"name":"_BumpMap_ST_S",
							"value":"_BumpMap_ST_S"
						},
						{
							"name":"_BumpMap_ST_T",
							"value":"_BumpMap_ST_T"
						},
						{
							"name":"_ReceiveShadowTexture_ST",
							"value":"_ReceiveShadowTexture_ST"
						},
						{
							"name":"_ReceiveShadowTexture_ST_S",
							"value":"_ReceiveShadowTexture_ST_S"
						},
						{
							"name":"_ReceiveShadowTexture_ST_T",
							"value":"_ReceiveShadowTexture_ST_T"
						},
						{
							"name":"_ShadingGradeTexture_ST",
							"value":"_ShadingGradeTexture_ST"
						},
						{
							"name":"_ShadingGradeTexture_ST_S",
							"value":"_ShadingGradeTexture_ST_S"
						},
						{
							"name":"_ShadingGradeTexture_ST_T",
							"value":"_ShadingGradeTexture_ST_T"
						},
						{
							"name":"_RimColor",
							"value":"_RimColor"
						},
						{
							"name":"_RimTexture_ST",
							"value":"_RimTexture_ST"
						},
						{
							"name":"_RimTexture_ST_S",
							"value":"_RimTexture_ST_S"
						},
						{
							"name":"_RimTexture_ST_T",
							"value":"_RimTexture_ST_T"
						},
						{
							"name":"_SphereAdd_ST",
							"value":"_SphereAdd_ST"
						},
						{
							"name":"_SphereAdd_ST_S",
							"value":"_SphereAdd_ST_S"
						},
						{
							"name":"_SphereAdd_ST_T",
							"value":"_SphereAdd_ST_T"
						},
						{
							"name":"_EmissionColor",
							"value":"_EmissionColor"
						},
						{
							"name":"_EmissionMap_ST",
							"value":"_EmissionMap_ST"
						},
						{
							"name":"_EmissionMap_ST_S",
							"value":"_EmissionMap_ST_S"
						},
						{
							"name":"_EmissionMap_ST_T",
							"value":"_EmissionMap_ST_T"
						},
						{
							"name":"_OutlineWidthTexture_ST",
							"value":"_OutlineWidthTexture_ST"
						},
						{
							"name":"_OutlineWidthTexture_ST_S",
							"value":"_OutlineWidthTexture_ST_S"
						},
						{
							"name":"_OutlineWidthTexture_ST_T",
							"value":"_OutlineWidthTexture_ST_T"
						},
						{
							"name":"_OutlineColor",
							"value":"_OutlineColor"
						},
						{
							"name":"_UvAnimMaskTexture_ST",
							"value":"_UvAnimMaskTexture_ST"
						},
						{
							"name":"_UvAnimMaskTexture_ST_S",
							"value":"_UvAnimMaskTexture_ST_S"
						},
						{
							"name":"_UvAnimMaskTexture_ST_T",
							"value":"_UvAnimMaskTexture_ST_T"
						}
					]
				},
				"rka":{}
			},
			"name":"Scene",
			"nodes":[
				0,
				1,
				2,
				3,
				4,
				5,
				6,
				7,
				8,
				9,
				10,
				11,
				12,
				13,
				14,
				15,
				16,
				17,
				18,
				19,
				20,
				21,
				22,
				23,
				24,
				25,
				26,
				27,
				28,
				29,
				30,
				31,
				32,
				33,
				34,
				35,
				36,
				37,
				38,
				39,
				40,
				41,
				42,
				43,
				44,
				45,
				46,
				47,
				48,
				49,
				50,
				51,
				52,
				53,
				54,
				55,
				56,
				57,
				58,
				59,
				60,
				61,
				62,
				63,
				64,
				65,
				66,
				67,
				68,
				69,
				70,
				71
			]
		}
	],
	"nodes":[
		{
			"mesh":0,
			"name":"District_harbor_0_0_Bldg_010_h23m"
		},
		{
			"extras":{
				"proxy_for":"District_harbor_0_0_Bldg_010_h23m"
			},
			"mesh":1,
			"name":"District_harbor_0_0_Bldg_010_h23m-colonly"
		},
		{
			"mesh":2,
			"name":"District_harbor_0_0_Bldg_015_h15m"
		},
		{
			"extras":{
				"proxy_for":"District_harbor_0_0_Bldg_015_h15m"
			},
			"mesh":3,
			"name":"District_harbor_0_0_Bldg_015_h15m-colonly"
		},
		{
			"mesh":4,
			"name":"District_harbor_0_0_Bldg_017_h15m"
		},
		{
			"extras":{
				"proxy_for":"District_harbor_0_0_Bldg_017_h15m"
			},
			"mesh":5,
			"name":"District_harbor_0_0_Bldg_017_h15m-colonly"
		},
		{
			"mesh":6,
			"name":"District_harbor_0_0_Bldg_019_h14m"
		},
		{
			"extras":{
				"proxy_for":"District_harbor_0_0_Bldg_019_h14m"
			},
			"mesh":7,
			"name":"District_harbor_0_0_Bldg_019_h14m-colonly"
		},
		{
			"mesh":8,
			"name":"District_harbor_0_0_Bldg_021_h13m"
		},
		{
			"extras":{
				"proxy_for":"District_harbor_0_0_Bldg_021_h13m"
			},
			"mesh":9,
			"name":"District_harbor_0_0_Bldg_021_h13m-colonly"
		},
		{
			"mesh":10,
			"name":"District_harbor_0_0_Bldg_022_h12m"
		},
		{
			"extras":{
				"proxy_for":"District_harbor_0_0_Bldg_022_h12m"
			},
			"mesh":11,
			"name":"District_harbor_0_0_Bldg_022_h12m-colonly"
		},
		{
			"mesh":12,
			"name":"District_harbor_0_0_Bldg_040_h6m"
		},
		{
			"extras":{
				"proxy_for":"District_harbor_0_0_Bldg_040_h6m"
			},
			"mesh":13,
			"name":"District_harbor_0_0_Bldg_040_h6m-colonly"
		},
		{
			"mesh":14,
			"name":"District_harbor_0_0_Bldg_041_h5m"
		},
		{
			"extras":{
				"proxy_for":"District_harbor_0_0_Bldg_041_h5m"
			},
			"mesh":15,
			"name":"District_harbor_0_0_Bldg_041_h5m-colonly"
		},
		{
			"mesh":16,
			"name":"District_harbor_0_0_Bldg_042_h5m"
		},
		{
			"extras":{
				"proxy_for":"District_harbor_0_0_Bldg_042_h5m"
			},
			"mesh":17,
			"name":"District_harbor_0_0_Bldg_042_h5m-colonly"
		},
		{
			"mesh":18,
			"name":"District_harbor_0_0_Bldg_044_h5m"
		},
		{
			"extras":{
				"proxy_for":"District_harbor_0_0_Bldg_044_h5m"
			},
			"mesh":19,
			"name":"District_harbor_0_0_Bldg_044_h5m-colonly"
		},
		{
			"mesh":20,
			"name":"District_harbor_0_0_Bldg_046_h5m"
		},
		{
			"extras":{
				"proxy_for":"District_harbor_0_0_Bldg_046_h5m"
			},
			"mesh":21,
			"name":"District_harbor_0_0_Bldg_046_h5m-colonly"
		},
		{
			"mesh":22,
			"name":"District_harbor_0_0_Bldg_048_h5m"
		},
		{
			"extras":{
				"proxy_for":"District_harbor_0_0_Bldg_048_h5m"
			},
			"mesh":23,
			"name":"District_harbor_0_0_Bldg_048_h5m-colonly"
		},
		{
			"mesh":24,
			"name":"District_harbor_0_0_Bldg_053_h4m"
		},
		{
			"extras":{
				"proxy_for":"District_harbor_0_0_Bldg_053_h4m"
			},
			"mesh":25,
			"name":"District_harbor_0_0_Bldg_053_h4m-colonly"
		},
		{
			"mesh":26,
			"name":"District_harbor_0_0_Bldg_056_h4m"
		},
		{
			"extras":{
				"proxy_for":"District_harbor_0_0_Bldg_056_h4m"
			},
			"mesh":27,
			"name":"District_harbor_0_0_Bldg_056_h4m-colonly"
		},
		{
			"mesh":28,
			"name":"District_harbor_0_0_Bldg_059_h4m"
		},
		{
			"extras":{
				"proxy_for":"District_harbor_0_0_Bldg_059_h4m"
			},
			"mesh":29,
			"name":"District_harbor_0_0_Bldg_059_h4m-colonly"
		},
		{
			"mesh":30,
			"name":"District_harbor_0_0_Bldg_061_h4m"
		},
		{
			"extras":{
				"proxy_for":"District_harbor_0_0_Bldg_061_h4m"
			},
			"mesh":31,
			"name":"District_harbor_0_0_Bldg_061_h4m-colonly"
		},
		{
			"mesh":32,
			"name":"District_harbor_0_0_Bldg_065_h4m"
		},
		{
			"extras":{
				"proxy_for":"District_harbor_0_0_Bldg_065_h4m"
			},
			"mesh":33,
			"name":"District_harbor_0_0_Bldg_065_h4m-colonly"
		},
		{
			"mesh":34,
			"name":"District_harbor_0_0_Bldg_069_h3m"
		},
		{
			"extras":{
				"proxy_for":"District_harbor_0_0_Bldg_069_h3m"
			},
			"mesh":35,
			"name":"District_harbor_0_0_Bldg_069_h3m-colonly"
		},
		{
			"mesh":36,
			"name":"District_harbor_0_0_Bldg_074_h3m"
		},
		{
			"extras":{
				"proxy_for":"District_harbor_0_0_Bldg_074_h3m"
			},
			"mesh":37,
			"name":"District_harbor_0_0_Bldg_074_h3m-colonly"
		},
		{
			"mesh":38,
			"name":"District_harbor_0_0_Bldg_090_h2m"
		},
		{
			"extras":{
				"proxy_for":"District_harbor_0_0_Bldg_090_h2m"
			},
			"mesh":39,
			"name":"District_harbor_0_0_Bldg_090_h2m-colonly"
		},
		{
			"mesh":40,
			"name":"District_harbor_0_0_Bldg_094_h2m"
		},
		{
			"extras":{
				"proxy_for":"District_harbor_0_0_Bldg_094_h2m"
			},
			"mesh":41,
			"name":"District_harbor_0_0_Bldg_094_h2m-colonly"
		},
		{
			"mesh":42,
			"name":"District_harbor_0_0_Bldg_096_h2m"
		},
		{
			"extras":{
				"proxy_for":"District_harbor_0_0_Bldg_096_h2m"
			},
			"mesh":43,
			"name":"District_harbor_0_0_Bldg_096_h2m-colonly"
		},
		{
			"mesh":44,
			"name":"District_harbor_0_0_Bldg_099_h2m"
		},
		{
			"extras":{
				"proxy_for":"District_harbor_0_0_Bldg_099_h2m"
			},
			"mesh":45,
			"name":"District_harbor_0_0_Bldg_099_h2m-colonly"
		},
		{
			"mesh":46,
			"name":"District_harbor_0_0_Bldg_101_h1m"
		},
		{
			"extras":{
				"proxy_for":"District_harbor_0_0_Bldg_101_h1m"
			},
			"mesh":47,
			"name":"District_harbor_0_0_Bldg_101_h1m-colonly"
		},
		{
			"mesh":48,
			"name":"District_harbor_0_0_Bldg_104_h1m"
		},
		{
			"extras":{
				"proxy_for":"District_harbor_0_0_Bldg_104_h1m"
			},
			"mesh":49,
			"name":"District_harbor_0_0_Bldg_104_h1m-colonly"
		},
		{
			"mesh":50,
			"name":"District_harbor_0_0_Bldg_107_h1m"
		},
		{
			"extras":{
				"proxy_for":"District_harbor_0_0_Bldg_107_h1m"
			},
			"mesh":51,
			"name":"District_harbor_0_0_Bldg_107_h1m-colonly"
		},
		{
			"mesh":52,
			"name":"District_harbor_0_0_Bldg_109_h1m"
		},
		{
			"extras":{
				"proxy_for":"District_harbor_0_0_Bldg_109_h1m"
			},
			"mesh":53,
			"name":"District_harbor_0_0_Bldg_109_h1m-colonly"
		},
		{
			"mesh":54,
			"name":"District_harbor_0_0_Bldg_110_h1m"
		},
		{
			"extras":{
				"proxy_for":"District_harbor_0_0_Bldg_110_h1m"
			},
			"mesh":55,
			"name":"District_harbor_0_0_Bldg_110_h1m-colonly"
		},
		{
			"mesh":56,
			"name":"District_harbor_0_0_Bridge_002_h12m"
		},
		{
			"extras":{
				"proxy_for":"District_harbor_0_0_Bridge_002_h12m"
			},
			"mesh":57,
			"name":"District_harbor_0_0_Bridge_002_h12m-colonly"
		},
		{
			"mesh":58,
			"name":"District_harbor_0_0_Landmark_000_h118m"
		},
		{
			"extras":{
				"proxy_for":"District_harbor_0_0_Landmark_000_h118m"
			},
			"mesh":59,
			"name":"District_harbor_0_0_Landmark_000_h118m-colonly"
		},
		{
			"mesh":60,
			"name":"District_harbor_0_0_Landmark_002_h118m"
		},
		{
			"extras":{
				"proxy_for":"District_harbor_0_0_Landmark_002_h118m"
			},
			"mesh":61,
			"name":"District_harbor_0_0_Landmark_002_h118m-colonly"
		},
		{
			"mesh":62,
			"name":"District_harbor_0_0_Road"
		},
		{
			"mesh":63,
			"name":"District_harbor_0_0_Terrain-col"
		},
		{
			"extras":{
				"lane_offset":-1.75
			},
			"name":"lane_seam_0_0_0_1_0_entry_lo_0",
			"translation":[
				0,
				0.6000000238418579,
				-252
			]
		},
		{
			"name":"lane_seam_0_0_0_1_0_entry_lo_1",
			"translation":[
				0,
				0.6000000238418579,
				-226.8000030517578
			]
		},
		{
			"extras":{
				"lane_offset":-1.75,
				"end_behavior":"CHAIN",
				"next_routes":"seam_0_0_0_1_0_entry_hi"
			},
			"name":"lane_seam_0_0_0_1_0_exit_lo_0",
			"translation":[
				0,
				0.6000000238418579,
				-226.8000030517578
			]
		},
		{
			"name":"lane_seam_0_0_0_1_0_exit_lo_1",
			"translation":[
				0,
				0.6000000238418579,
				-252
			]
		},
		{
			"extras":{
				"lane_offset":-1.75
			},
			"name":"lane_seam_0_0_1_0_0_entry_lo_0",
			"translation":[
				252,
				0.6000000238418579,
				0
			]
		},
		{
			"name":"lane_seam_0_0_1_0_0_entry_lo_1",
			"translation":[
				226.8000030517578,
				0.6000000238418579,
				0
			]
		},
		{
			"extras":{
				"lane_offset":-1.75,
				"end_behavior":"CHAIN",
				"next_routes":"seam_0_0_1_0_0_entry_hi"
			},
			"name":"lane_seam_0_0_1_0_0_exit_lo_0",
			"translation":[
				226.8000030517578,
				0.6000000238418579,
				0
			]
		},
		{
			"name":"lane_seam_0_0_1_0_0_exit_lo_1",
			"translation":[
				252,
				0.6000000238418579,
				0
			]
		}
	],
	"materials":[
		{
			"doubleSided":true,
			"extras":{
				"vrm_addon_extension":{
					"mtoon1":{}
				}
			},
			"name":"M_Collision",
			"pbrMetallicRoughness":{
				"baseColorFactor":[
					0.8999999761581421,
					0.20000000298023224,
					0.550000011920929,
					1
				],
				"metallicFactor":0,
				"roughnessFactor":0.5
			}
		},
		{
			"doubleSided":true,
			"extras":{
				"vrm_addon_extension":{
					"mtoon1":{}
				}
			},
			"name":"M_Asphalt",
			"pbrMetallicRoughness":{
				"baseColorFactor":[
					0.2800000011920929,
					0.30000001192092896,
					0.33000001311302185,
					1
				],
				"metallicFactor":0,
				"roughnessFactor":0.5
			}
		},
		{
			"doubleSided":true,
			"extras":{
				"vrm_addon_extension":{
					"mtoon1":{}
				}
			},
			"name":"M_Dirt",
			"pbrMetallicRoughness":{
				"baseColorFactor":[
					0.4000000059604645,
					0.3400000035762787,
					0.25999999046325684,
					1
				],
				"metallicFactor":0,
				"roughnessFactor":0.5
			}
		}
	],
	"meshes":[
		{
			"name":"District_harbor_0_0_Bldg_010_h23m",
			"primitives":[
				{
					"attributes":{
						"POSITION":0,
						"NORMAL":1
					},
					"indices":2
				}
			]
		},
		{
			"name":"District_harbor_0_0_Bldg_010_h23m.001",
			"primitives":[
				{
					"attributes":{
						"POSITION":3,
						"NORMAL":4
					},
					"indices":2,
					"material":0
				}
			]
		},
		{
			"name":"District_harbor_0_0_Bldg_015_h15m",
			"primitives":[
				{
					"attributes":{
						"POSITION":5,
						"NORMAL":6
					},
					"indices":7
				}
			]
		},
		{
			"name":"District_harbor_0_0_Bldg_015_h15m.001",
			"primitives":[
				{
					"attributes":{
						"POSITION":8,
						"NORMAL":9
					},
					"indices":7,
					"material":0
				}
			]
		},
		{
			"name":"District_harbor_0_0_Bldg_017_h15m",
			"primitives":[
				{
					"attributes":{
						"POSITION":10,
						"NORMAL":11
					},
					"indices":12
				}
			]
		},
		{
			"name":"District_harbor_0_0_Bldg_017_h15m.001",
			"primitives":[
				{
					"attributes":{
						"POSITION":13,
						"NORMAL":14
					},
					"indices":12,
					"material":0
				}
			]
		},
		{
			"name":"District_harbor_0_0_Bldg_019_h14m",
			"primitives":[
				{
					"attributes":{
						"POSITION":15,
						"NORMAL":16
					},
					"indices":17
				}
			]
		},
		{
			"name":"District_harbor_0_0_Bldg_019_h14m.001",
			"primitives":[
				{
					"attributes":{
						"POSITION":18,
						"NORMAL":19
					},
					"indices":17,
					"material":0
				}
			]
		},
		{
			"name":"District_harbor_0_0_Bldg_021_h13m",
			"primitives":[
				{
					"attributes":{
						"POSITION":20,
						"NORMAL":21
					},
					"indices":22
				}
			]
		},
		{
			"name":"District_harbor_0_0_Bldg_021_h13m.001",
			"primitives":[
				{
					"attributes":{
						"POSITION":23,
						"NORMAL":24
					},
					"indices":22,
					"material":0
				}
			]
		},
		{
			"name":"District_harbor_0_0_Bldg_022_h12m",
			"primitives":[
				{
					"attributes":{
						"POSITION":25,
						"NORMAL":26
					},
					"indices":27
				}
			]
		},
		{
			"name":"District_harbor_0_0_Bldg_022_h12m.001",
			"primitives":[
				{
					"attributes":{
						"POSITION":28,
						"NORMAL":29
					},
					"indices":27,
					"material":0
				}
			]
		},
		{
			"name":"District_harbor_0_0_Bldg_040_h6m",
			"primitives":[
				{
					"attributes":{
						"POSITION":30,
						"NORMAL":31
					},
					"indices":32
				}
			]
		},
		{
			"name":"District_harbor_0_0_Bldg_040_h6m.001",
			"primitives":[
				{
					"attributes":{
						"POSITION":33,
						"NORMAL":34
					},
					"indices":32,
					"material":0
				}
			]
		},
		{
			"name":"District_harbor_0_0_Bldg_041_h5m",
			"primitives":[
				{
					"attributes":{
						"POSITION":35,
						"NORMAL":36
					},
					"indices":37
				}
			]
		},
		{
			"name":"District_harbor_0_0_Bldg_041_h5m.001",
			"primitives":[
				{
					"attributes":{
						"POSITION":38,
						"NORMAL":39
					},
					"indices":37,
					"material":0
				}
			]
		},
		{
			"name":"District_harbor_0_0_Bldg_042_h5m",
			"primitives":[
				{
					"attributes":{
						"POSITION":40,
						"NORMAL":41
					},
					"indices":42
				}
			]
		},
		{
			"name":"District_harbor_0_0_Bldg_042_h5m.001",
			"primitives":[
				{
					"attributes":{
						"POSITION":43,
						"NORMAL":44
					},
					"indices":42,
					"material":0
				}
			]
		},
		{
			"name":"District_harbor_0_0_Bldg_044_h5m",
			"primitives":[
				{
					"attributes":{
						"POSITION":45,
						"NORMAL":46
					},
					"indices":47
				}
			]
		},
		{
			"name":"District_harbor_0_0_Bldg_044_h5m.001",
			"primitives":[
				{
					"attributes":{
						"POSITION":48,
						"NORMAL":49
					},
					"indices":47,
					"material":0
				}
			]
		},
		{
			"name":"District_harbor_0_0_Bldg_046_h5m",
			"primitives":[
				{
					"attributes":{
						"POSITION":50,
						"NORMAL":51
					},
					"indices":32
				}
			]
		},
		{
			"name":"District_harbor_0_0_Bldg_046_h5m.001",
			"primitives":[
				{
					"attributes":{
						"POSITION":52,
						"NORMAL":53
					},
					"indices":32,
					"material":0
				}
			]
		},
		{
			"name":"District_harbor_0_0_Bldg_048_h5m",
			"primitives":[
				{
					"attributes":{
						"POSITION":54,
						"NORMAL":55
					},
					"indices":56
				}
			]
		},
		{
			"name":"District_harbor_0_0_Bldg_048_h5m.001",
			"primitives":[
				{
					"attributes":{
						"POSITION":57,
						"NORMAL":58
					},
					"indices":56,
					"material":0
				}
			]
		},
		{
			"name":"District_harbor_0_0_Bldg_053_h4m",
			"primitives":[
				{
					"attributes":{
						"POSITION":59,
						"NORMAL":60
					},
					"indices":61
				}
			]
		},
		{
			"name":"District_harbor_0_0_Bldg_053_h4m.001",
			"primitives":[
				{
					"attributes":{
						"POSITION":62,
						"NORMAL":63
					},
					"indices":61,
					"material":0
				}
			]
		},
		{
			"name":"District_harbor_0_0_Bldg_056_h4m",
			"primitives":[
				{
					"attributes":{
						"POSITION":64,
						"NORMAL":65
					},
					"indices":32
				}
			]
		},
		{
			"name":"District_harbor_0_0_Bldg_056_h4m.001",
			"primitives":[
				{
					"attributes":{
						"POSITION":66,
						"NORMAL":67
					},
					"indices":32,
					"material":0
				}
			]
		},
		{
			"name":"District_harbor_0_0_Bldg_059_h4m",
			"primitives":[
				{
					"attributes":{
						"POSITION":68,
						"NORMAL":69
					},
					"indices":70
				}
			]
		},
		{
			"name":"District_harbor_0_0_Bldg_059_h4m.001",
			"primitives":[
				{
					"attributes":{
						"POSITION":71,
						"NORMAL":72
					},
					"indices":70,
					"material":0
				}
			]
		},
		{
			"name":"District_harbor_0_0_Bldg_061_h4m",
			"primitives":[
				{
					"attributes":{
						"POSITION":73,
						"NORMAL":74
					},
					"indices":47
				}
			]
		},
		{
			"name":"District_harbor_0_0_Bldg_061_h4m.001",
			"primitives":[
				{
					"attributes":{
						"POSITION":75,
						"NORMAL":76
					},
					"indices":47,
					"material":0
				}
			]
		},
		{
			"name":"District_harbor_0_0_Bldg_065_h4m",
			"primitives":[
				{
					"attributes":{
						"POSITION":77,
						"NORMAL":78
					},
					"indices":37
				}
			]
		},
		{
			"name":"District_harbor_0_0_Bldg_065_h4m.001",
			"primitives":[
				{
					"attributes":{
						"POSITION":79,
						"NORMAL":80
					},
					"indices":37,
					"material":0
				}
			]
		},
		{
			"name":"District_harbor_0_0_Bldg_069_h3m",
			"primitives":[
				{
					"attributes":{
						"POSITION":81,
						"NORMAL":82
					},
					"indices":83
				}
			]
		},
		{
			"name":"District_harbor_0_0_Bldg_069_h3m.001",
			"primitives":[
				{
					"attributes":{
						"POSITION":84,
						"NORMAL":85
					},
					"indices":83,
					"material":0
				}
			]
		},
		{
			"name":"District_harbor_0_0_Bldg_074_h3m",
			"primitives":[
				{
					"attributes":{
						"POSITION":86,
						"NORMAL":87
					},
					"indices":88
				}
			]
		},
		{
			"name":"District_harbor_0_0_Bldg_074_h3m.001",
			"primitives":[
				{
					"attributes":{
						"POSITION":89,
						"NORMAL":90
					},
					"indices":88,
					"material":0
				}
			]
		},
		{
			"name":"District_harbor_0_0_Bldg_090_h2m",
			"primitives":[
				{
					"attributes":{
						"POSITION":91,
						"NORMAL":92
					},
					"indices":47
				}
			]
		},
		{
			"name":"District_harbor_0_0_Bldg_090_h2m.001",
			"primitives":[
				{
					"attributes":{
						"POSITION":93,
						"NORMAL":94
					},
					"indices":47,
					"material":0
				}
			]
		},
		{
			"name":"District_harbor_0_0_Bldg_094_h2m",
			"primitives":[
				{
					"attributes":{
						"POSITION":95,
						"NORMAL":96
					},
					"indices":97
				}
			]
		},
		{
			"name":"District_harbor_0_0_Bldg_094_h2m.001",
			"primitives":[
				{
					"attributes":{
						"POSITION":98,
						"NORMAL":99
					},
					"indices":97,
					"material":0
				}
			]
		},
		{
			"name":"District_harbor_0_0_Bldg_096_h2m",
			"primitives":[
				{
					"attributes":{
						"POSITION":100,
						"NORMAL":101
					},
					"indices":47
				}
			]
		},
		{
			"name":"District_harbor_0_0_Bldg_096_h2m.001",
			"primitives":[
				{
					"attributes":{
						"POSITION":102,
						"NORMAL":103
					},
					"indices":47,
					"material":0
				}
			]
		},
		{
			"name":"District_harbor_0_0_Bldg_099_h2m",
			"primitives":[
				{
					"attributes":{
						"POSITION":104,
						"NORMAL":105
					},
					"indices":106
				}
			]
		},
		{
			"name":"District_harbor_0_0_Bldg_099_h2m.001",
			"primitives":[
				{
					"attributes":{
						"POSITION":107,
						"NORMAL":108
					},
					"indices":106,
					"material":0
				}
			]
		},
		{
			"name":"District_harbor_0_0_Bldg_101_h1m",
			"primitives":[
				{
					"attributes":{
						"POSITION":109,
						"NORMAL":110
					},
					"indices":88
				}
			]
		},
		{
			"name":"District_harbor_0_0_Bldg_101_h1m.001",
			"primitives":[
				{
					"attributes":{
						"POSITION":111,
						"NORMAL":112
					},
					"indices":88,
					"material":0
				}
			]
		},
		{
			"name":"District_harbor_0_0_Bldg_104_h1m",
			"primitives":[
				{
					"attributes":{
						"POSITION":113,
						"NORMAL":114
					},
					"indices":115
				}
			]
		},
		{
			"name":"District_harbor_0_0_Bldg_104_h1m.001",
			"primitives":[
				{
					"attributes":{
						"POSITION":116,
						"NORMAL":117
					},
					"indices":115,
					"material":0
				}
			]
		},
		{
			"name":"District_harbor_0_0_Bldg_107_h1m",
			"primitives":[
				{
					"attributes":{
						"POSITION":118,
						"NORMAL":119
					},
					"indices":120
				}
			]
		},
		{
			"name":"District_harbor_0_0_Bldg_107_h1m.001",
			"primitives":[
				{
					"attributes":{
						"POSITION":121,
						"NORMAL":122
					},
					"indices":120,
					"material":0
				}
			]
		},
		{
			"name":"District_harbor_0_0_Bldg_109_h1m",
			"primitives":[
				{
					"attributes":{
						"POSITION":123,
						"NORMAL":124
					},
					"indices":125
				}
			]
		},
		{
			"name":"District_harbor_0_0_Bldg_109_h1m.001",
			"primitives":[
				{
					"attributes":{
						"POSITION":126,
						"NORMAL":127
					},
					"indices":125,
					"material":0
				}
			]
		},
		{
			"name":"District_harbor_0_0_Bldg_110_h1m",
			"primitives":[
				{
					"attributes":{
						"POSITION":128,
						"NORMAL":129
					},
					"indices":130
				}
			]
		},
		{
			"name":"District_harbor_0_0_Bldg_110_h1m.001",
			"primitives":[
				{
					"attributes":{
						"POSITION":131,
						"NORMAL":132
					},
					"indices":130,
					"material":0
				}
			]
		},
		{
			"name":"District_harbor_0_0_Bridge_002_h12m",
			"primitives":[
				{
					"attributes":{
						"POSITION":133,
						"NORMAL":134
					},
					"indices":135
				}
			]
		},
		{
			"name":"District_harbor_0_0_Bridge_002_h12m.001",
			"primitives":[
				{
					"attributes":{
						"POSITION":136,
						"NORMAL":137
					},
					"indices":135,
					"material":0
				}
			]
		},
		{
			"name":"District_harbor_0_0_Landmark_000_h118m",
			"primitives":[
				{
					"attributes":{
						"POSITION":138,
						"NORMAL":139
					},
					"indices":140
				}
			]
		},
		{
			"name":"District_harbor_0_0_Landmark_000_h118m.001",
			"primitives":[
				{
					"attributes":{
						"POSITION":141,
						"NORMAL":142
					},
					"indices":140,
					"material":0
				}
			]
		},
		{
			"name":"District_harbor_0_0_Landmark_002_h118m",
			"primitives":[
				{
					"attributes":{
						"POSITION":143,
						"NORMAL":144
					},
					"indices":145
				}
			]
		},
		{
			"name":"District_harbor_0_0_Landmark_002_h118m.001",
			"primitives":[
				{
					"attributes":{
						"POSITION":146,
						"NORMAL":147
					},
					"indices":145,
					"material":0
				}
			]
		},
		{
			"name":"District_harbor_0_0_Road_000",
			"primitives":[
				{
					"attributes":{
						"POSITION":148,
						"NORMAL":149
					},
					"indices":150,
					"material":1
				}
			]
		},
		{
			"name":"District_harbor_0_0_Terrain-col",
			"primitives":[
				{
					"attributes":{
						"POSITION":151,
						"NORMAL":152
					},
					"indices":153,
					"material":2
				}
			]
		}
	],
	"accessors":[
		{
			"bufferView":0,
			"componentType":5126,
			"count":229,
			"max":[
				-18.958078384399414,
				23.03070831298828,
				39.20659255981445
			],
			"min":[
				-46.688720703125,
				0,
				3.7731709480285645
			],
			"type":"VEC3"
		},
		{
			"bufferView":1,
			"componentType":5126,
			"count":229,
			"type":"VEC3"
		},
		{
			"bufferView":2,
			"componentType":5123,
			"count":408,
			"type":"SCALAR"
		},
		{
			"bufferView":3,
			"componentType":5126,
			"count":229,
			"max":[
				-18.958078384399414,
				23.03070831298828,
				39.20659255981445
			],
			"min":[
				-46.688720703125,
				0,
				3.7731709480285645
			],
			"type":"VEC3"
		},
		{
			"bufferView":4,
			"componentType":5126,
			"count":229,
			"type":"VEC3"
		},
		{
			"bufferView":5,
			"componentType":5126,
			"count":1696,
			"max":[
				173.10507202148438,
				15.766256332397461,
				130.74661254882812
			],
			"min":[
				47.539405822753906,
				0.41394099593162537,
				-1.4074550867080688
			],
			"type":"VEC3"
		},
		{
			"bufferView":6,
			"componentType":5126,
			"count":1696,
			"type":"VEC3"
		},
		{
			"bufferView":7,
			"componentType":5123,
			"count":2982,
			"type":"SCALAR"
		},
		{
			"bufferView":8,
			"componentType":5126,
			"count":1696,
			"max":[
				173.10507202148438,
				15.766256332397461,
				130.74661254882812
			],
			"min":[
				47.539405822753906,
				0.41394099593162537,
				-1.4074550867080688
			],
			"type":"VEC3"
		},
		{
			"bufferView":9,
			"componentType":5126,
			"count":1696,
			"type":"VEC3"
		},
		{
			"bufferView":10,
			"componentType":5126,
			"count":405,
			"max":[
				-154.29209899902344,
				14.959230422973633,
				108.60399627685547
			],
			"min":[
				-183.37460327148438,
				0.05491799861192703,
				78.75431823730469
			],
			"type":"VEC3"
		},
		{
			"bufferView":11,
			"componentType":5126,
			"count":405,
			"type":"VEC3"
		},
		{
			"bufferView":12,
			"componentType":5123,
			"count":774,
			"type":"SCALAR"
		},
		{
			"bufferView":13,
			"componentType":5126,
			"count":405,
			"max":[
				-154.29209899902344,
				14.959230422973633,
				108.60399627685547
			],
			"min":[
				-183.37460327148438,
				0.05491799861192703,
				78.75431823730469
			],
			"type":"VEC3"
		},
		{
			"bufferView":14,
			"componentType":5126,
			"count":405,
			"type":"VEC3"
		},
		{
			"bufferView":15,
			"componentType":5126,
			"count":260,
			"max":[
				-77.0319595336914,
				13.7305326461792,
				89.1835708618164
			],
			"min":[
				-180.48867797851562,
				-0.0197369996458292,
				-46.236270904541016
			],
			"type":"VEC3"
		},
		{
			"bufferView":16,
			"componentType":5126,
			"count":260,
			"type":"VEC3"
		},
		{
			"bufferView":17,
			"componentType":5123,
			"count":438,
			"type":"SCALAR"
		},
		{
			"bufferView":18,
			"componentType":5126,
			"count":260,
			"max":[
				-77.0319595336914,
				13.7305326461792,
				89.1835708618164
			],
			"min":[
				-180.48867797851562,
				-0.0197369996458292,
				-46.236270904541016
			],
			"type":"VEC3"
		},
		{
			"bufferView":19,
			"componentType":5126,
			"count":260,
			"type":"VEC3"
		},
		{
			"bufferView":20,
			"componentType":5126,
			"count":336,
			"max":[
				-52.48984146118164,
				13.86851692199707,
				-135.92608642578125
			],
			"min":[
				-61.1790885925293,
				1.0713169574737549,
				-153.83935546875
			],
			"type":"VEC3"
		},
		{
			"bufferView":21,
			"componentType":5126,
			"count":336,
			"type":"VEC3"
		},
		{
			"bufferView":22,
			"componentType":5123,
			"count":384,
			"type":"SCALAR"
		},
		{
			"bufferView":23,
			"componentType":5126,
			"count":336,
			"max":[
				-52.48984146118164,
				13.86851692199707,
				-135.92608642578125
			],
			"min":[
				-61.1790885925293,
				1.0713169574737549,
				-153.83935546875
			],
			"type":"VEC3"
		},
		{
			"bufferView":24,
			"componentType":5126,
			"count":336,
			"type":"VEC3"
		},
		{
			"bufferView":25,
			"componentType":5126,
			"count":508,
			"max":[
				-185.86737060546875,
				13.749309539794922,
				-47.54411697387695
			],
			"min":[
				-202.4198760986328,
				1.306710958480835,
				-59.652339935302734
			],
			"type":"VEC3"
		},
		{
			"bufferView":26,
			"componentType":5126,
			"count":508,
			"type":"VEC3"
		},
		{
			"bufferView":27,
			"componentType":5123,
			"count":558,
			"type":"SCALAR"
		},
		{
			"bufferView":28,
			"componentType":5126,
			"count":508,
			"max":[
				-185.86737060546875,
				13.749309539794922,
				-47.54411697387695
			],
			"min":[
				-202.4198760986328,
				1.306710958480835,
				-59.652339935302734
			],
			"type":"VEC3"
		},
		{
			"bufferView":29,
			"componentType":5126,
			"count":508,
			"type":"VEC3"
		},
		{
			"bufferView":30,
			"componentType":5126,
			"count":24,
			"max":[
				223.8541717529297,
				5.277829170227051,
				-53.763206481933594
			],
			"min":[
				206.3073272705078,
				-0.24161699414253235,
				-68.71727752685547
			],
			"type":"VEC3"
		},
		{
			"bufferView":31,
			"componentType":5126,
			"count":24,
			"type":"VEC3"
		},
		{
			"bufferView":32,
			"componentType":5123,
			"count":36,
			"type":"SCALAR"
		},
		{
			"bufferView":33,
			"componentType":5126,
			"count":24,
			"max":[
				223.8541717529297,
				5.277829170227051,
				-53.763206481933594
			],
			"min":[
				206.3073272705078,
				-0.24161699414253235,
				-68.71727752685547
			],
			"type":"VEC3"
		},
		{
			"bufferView":34,
			"componentType":5126,
			"count":24,
			"type":"VEC3"
		},
		{
			"bufferView":35,
			"componentType":5126,
			"count":24,
			"max":[
				-113.03475189208984,
				6.698238849639893,
				160.2869110107422
			],
			"min":[
				-122.43013763427734,
				1.2278120517730713,
				148.9148712158203
			],
			"type":"VEC3"
		},
		{
			"bufferView":36,
			"componentType":5126,
			"count":24,
			"type":"VEC3"
		},
		{
			"bufferView":37,
			"componentType":5123,
			"count":36,
			"type":"SCALAR"
		},
		{
			"bufferView":38,
			"componentType":5126,
			"count":24,
			"max":[
				-113.03475189208984,
				6.698238849639893,
				160.2869110107422
			],
			"min":[
				-122.43013763427734,
				1.2278120517730713,
				148.9148712158203
			],
			"type":"VEC3"
		},
		{
			"bufferView":39,
			"componentType":5126,
			"count":24,
			"type":"VEC3"
		},
		{
			"bufferView":40,
			"componentType":5126,
			"count":36,
			"max":[
				-183.51966857910156,
				5.521255970001221,
				111.49375915527344
			],
			"min":[
				-212.5184326171875,
				0.24500499665737152,
				85.8866195678711
			],
			"type":"VEC3"
		},
		{
			"bufferView":41,
			"componentType":5126,
			"count":36,
			"type":"VEC3"
		},
		{
			"bufferView":42,
			"componentType":5123,
			"count":60,
			"type":"SCALAR"
		},
		{
			"bufferView":43,
			"componentType":5126,
			"count":36,
			"max":[
				-183.51966857910156,
				5.521255970001221,
				111.49375915527344
			],
			"min":[
				-212.5184326171875,
				0.24500499665737152,
				85.8866195678711
			],
			"type":"VEC3"
		},
		{
			"bufferView":44,
			"componentType":5126,
			"count":36,
			"type":"VEC3"
		},
		{
			"bufferView":45,
			"componentType":5126,
			"count":24,
			"max":[
				29.722742080688477,
				6.608365058898926,
				181.3699493408203
			],
			"min":[
				24.73305320739746,
				1.546265959739685,
				176.38092041015625
			],
			"type":"VEC3"
		},
		{
			"bufferView":46,
			"componentType":5126,
			"count":24,
			"type":"VEC3"
		},
		{
			"bufferView":47,
			"componentType":5123,
			"count":36,
			"type":"SCALAR"
		},
		{
			"bufferView":48,
			"componentType":5126,
			"count":24,
			"max":[
				29.722742080688477,
				6.608365058898926,
				181.3699493408203
			],
			"min":[
				24.73305320739746,
				1.546265959739685,
				176.38092041015625
			],
			"type":"VEC3"
		},
		{
			"bufferView":49,
			"componentType":5126,
			"count":24,
			"type":"VEC3"
		},
		{
			"bufferView":50,
			"componentType":5126,
			"count":24,
			"max":[
				-11.008212089538574,
				5.460220813751221,
				184.3851776123047
			],
			"min":[
				-18.59625244140625,
				0.45536598563194275,
				177.11993408203125
			],
			"type":"VEC3"
		},
		{
			"bufferView":51,
			"componentType":5126,
			"count":24,
			"type":"VEC3"
		},
		{
			"bufferView":52,
			"componentType":5126,
			"count":24,
			"max":[
				-11.008212089538574,
				5.460220813751221,
				184.3851776123047
			],
			"min":[
				-18.59625244140625,
				0.45536598563194275,
				177.11993408203125
			],
			"type":"VEC3"
		},
		{
			"bufferView":53,
			"componentType":5126,
			"count":24,
			"type":"VEC3"
		},
		{
			"bufferView":54,
			"componentType":5126,
			"count":177,
			"max":[
				-61.803199768066406,
				5.484713077545166,
				142.66773986816406
			],
			"min":[
				-81.52153778076172,
				0.5347020030021667,
				126.08663940429688
			],
			"type":"VEC3"
		},
		{
			"bufferView":55,
			"componentType":5126,
			"count":177,
			"type":"VEC3"
		},
		{
			"bufferView":56,
			"componentType":5123,
			"count":258,
			"type":"SCALAR"
		},
		{
			"bufferView":57,
			"componentType":5126,
			"count":177,
			"max":[
				-61.803199768066406,
				5.484713077545166,
				142.66773986816406
			],
			"min":[
				-81.52153778076172,
				0.5347020030021667,
				126.08663940429688
			],
			"type":"VEC3"
		},
		{
			"bufferView":58,
			"componentType":5126,
			"count":177,
			"type":"VEC3"
		},
		{
			"bufferView":59,
			"componentType":5126,
			"count":26,
			"max":[
				-74.79813385009766,
				5.881145000457764,
				217.58615112304688
			],
			"min":[
				-82.78438568115234,
				1.4573800563812256,
				208.80784606933594
			],
			"type":"VEC3"
		},
		{
			"bufferView":60,
			"componentType":5126,
			"count":26,
			"type":"VEC3"
		},
		{
			"bufferView":61,
			"componentType":5123,
			"count":36,
			"type":"SCALAR"
		},
		{
			"bufferView":62,
			"componentType":5126,
			"count":26,
			"max":[
				-74.79813385009766,
				5.881145000457764,
				217.58615112304688
			],
			"min":[
				-82.78438568115234,
				1.4573800563812256,
				208.80784606933594
			],
			"type":"VEC3"
		},
		{
			"bufferView":63,
			"componentType":5126,
			"count":26,
			"type":"VEC3"
		},
		{
			"bufferView":64,
			"componentType":5126,
			"count":24,
			"max":[
				-81.51937103271484,
				4.600502014160156,
				146.36753845214844
			],
			"min":[
				-93.32301330566406,
				0.4619710147380829,
				136.99420166015625
			],
			"type":"VEC3"
		},
		{
			"bufferView":65,
			"componentType":5126,
			"count":24,
			"type":"VEC3"
		},
		{
			"bufferView":66,
			"componentType":5126,
			"count":24,
			"max":[
				-81.51937103271484,
				4.600502014160156,
				146.36753845214844
			],
			"min":[
				-93.32301330566406,
				0.4619710147380829,
				136.99420166015625
			],
			"type":"VEC3"
		},
		{
			"bufferView":67,
			"componentType":5126,
			"count":24,
			"type":"VEC3"
		},
		{
			"bufferView":68,
			"componentType":5126,
			"count":56,
			"max":[
				-209.34896850585938,
				4.127099990844727,
				103.0592041015625
			],
			"min":[
				-225.627685546875,
				0.2768929898738861,
				92.0374984741211
			],
			"type":"VEC3"
		},
		{
			"bufferView":69,
			"componentType":5126,
			"count":56,
			"type":"VEC3"
		},
		{
			"bufferView":70,
			"componentType":5123,
			"count":84,
			"type":"SCALAR"
		},
		{
			"bufferView":71,
			"componentType":5126,
			"count":56,
			"max":[
				-209.34896850585938,
				4.127099990844727,
				103.0592041015625
			],
			"min":[
				-225.627685546875,
				0.2768929898738861,
				92.0374984741211
			],
			"type":"VEC3"
		},
		{
			"bufferView":72,
			"componentType":5126,
			"count":56,
			"type":"VEC3"
		},
		{
			"bufferView":73,
			"componentType":5126,
			"count":24,
			"max":[
				147.88125610351562,
				4.619369029998779,
				133.91835021972656
			],
			"min":[
				133.39295959472656,
				0.9127010107040405,
				120.70182037353516
			],
			"type":"VEC3"
		},
		{
			"bufferView":74,
			"componentType":5126,
			"count":24,
			"type":"VEC3"
		},
		{
			"bufferView":75,
			"componentType":5126,
			"count":24,
			"max":[
				147.88125610351562,
				4.619369029998779,
				133.91835021972656
			],
			"min":[
				133.39295959472656,
				0.9127010107040405,
				120.70182037353516
			],
			"type":"VEC3"
		},
		{
			"bufferView":76,
			"componentType":5126,
			"count":24,
			"type":"VEC3"
		},
		{
			"bufferView":77,
			"componentType":5126,
			"count":24,
			"max":[
				-83.056396484375,
				5.075751781463623,
				204.0256805419922
			],
			"min":[
				-89.02840423583984,
				1.5421110391616821,
				197.90838623046875
			],
			"type":"VEC3"
		},
		{
			"bufferView":78,
			"componentType":5126,
			"count":24,
			"type":"VEC3"
		},
		{
			"bufferView":79,
			"componentType":5126,
			"count":24,
			"max":[
				-83.056396484375,
				5.075751781463623,
				204.0256805419922
			],
			"min":[
				-89.02840423583984,
				1.5421110391616821,
				197.90838623046875
			],
			"type":"VEC3"
		},
		{
			"bufferView":80,
			"componentType":5126,
			"count":24,
			"type":"VEC3"
		},
		{
			"bufferView":81,
			"componentType":5126,
			"count":24,
			"max":[
				47.51696014404297,
				3.538935899734497,
				202.7775421142578
			],
			"min":[
				34.07427215576172,
				0.1295669972896576,
				191.3180694580078
			],
			"type":"VEC3"
		},
		{
			"bufferView":82,
			"componentType":5126,
			"count":24,
			"type":"VEC3"
		},
		{
			"bufferView":83,
			"componentType":5123,
			"count":36,
			"type":"SCALAR"
		},
		{
			"bufferView":84,
			"componentType":5126,
			"count":24,
			"max":[
				47.51696014404297,
				3.538935899734497,
				202.7775421142578
			],
			"min":[
				34.07427215576172,
				0.1295669972896576,
				191.3180694580078
			],
			"type":"VEC3"
		},
		{
			"bufferView":85,
			"componentType":5126,
			"count":24,
			"type":"VEC3"
		},
		{
			"bufferView":86,
			"componentType":5126,
			"count":24,
			"max":[
				-30.19968605041504,
				4.722377777099609,
				-216.24935913085938
			],
			"min":[
				-41.645606994628906,
				1.7659310102462769,
				-226.56739807128906
			],
			"type":"VEC3"
		},
		{
			"bufferView":87,
			"componentType":5126,
			"count":24,
			"type":"VEC3"
		},
		{
			"bufferView":88,
			"componentType":5123,
			"count":36,
			"type":"SCALAR"
		},
		{
			"bufferView":89,
			"componentType":5126,
			"count":24,
			"max":[
				-30.19968605041504,
				4.722377777099609,
				-216.24935913085938
			],
			"min":[
				-41.645606994628906,
				1.7659310102462769,
				-226.56739807128906
			],
			"type":"VEC3"
		},
		{
			"bufferView":90,
			"componentType":5126,
			"count":24,
			"type":"VEC3"
		},
		{
			"bufferView":91,
			"componentType":5126,
			"count":24,
			"max":[
				42.82989501953125,
				3.226505994796753,
				38.176265716552734
			],
			"min":[
				33.643310546875,
				0.9371150135993958,
				30.22133445739746
			],
			"type":"VEC3"
		},
		{
			"bufferView":92,
			"componentType":5126,
			"count":24,
			"type":"VEC3"
		},
		{
			"bufferView":93,
			"componentType":5126,
			"count":24,
			"max":[
				42.82989501953125,
				3.226505994796753,
				38.176265716552734
			],
			"min":[
				33.643310546875,
				0.9371150135993958,
				30.22133445739746
			],
			"type":"VEC3"
		},
		{
			"bufferView":94,
			"componentType":5126,
			"count":24,
			"type":"VEC3"
		},
		{
			"bufferView":95,
			"componentType":5126,
			"count":144,
			"max":[
				-206.04800415039062,
				2.6547350883483887,
				-38.962425231933594
			],
			"min":[
				-218.83192443847656,
				0.6201559901237488,
				-46.23658752441406
			],
			"type":"VEC3"
		},
		{
			"bufferView":96,
			"componentType":5126,
			"count":144,
			"type":"VEC3"
		},
		{
			"bufferView":97,
			"componentType":5123,
			"count":204,
			"type":"SCALAR"
		},
		{
			"bufferView":98,
			"componentType":5126,
			"count":144,
			"max":[
				-206.04800415039062,
				2.6547350883483887,
				-38.962425231933594
			],
			"min":[
				-218.83192443847656,
				0.6201559901237488,
				-46.23658752441406
			],
			"type":"VEC3"
		},
		{
			"bufferView":99,
			"componentType":5126,
			"count":144,
			"type":"VEC3"
		},
		{
			"bufferView":100,
			"componentType":5126,
			"count":24,
			"max":[
				-53.262245178222656,
				3.1040000915527344,
				-132.5536346435547
			],
			"min":[
				-71.01699829101562,
				1.1975239515304565,
				-147.3257598876953
			],
			"type":"VEC3"
		},
		{
			"bufferView":101,
			"componentType":5126,
			"count":24,
			"type":"VEC3"
		},
		{
			"bufferView":102,
			"componentType":5126,
			"count":24,
			"max":[
				-53.262245178222656,
				3.1040000915527344,
				-132.5536346435547
			],
			"min":[
				-71.01699829101562,
				1.1975239515304565,
				-147.3257598876953
			],
			"type":"VEC3"
		},
		{
			"bufferView":103,
			"componentType":5126,
			"count":24,
			"type":"VEC3"
		},
		{
			"bufferView":104,
			"componentType":5126,
			"count":24,
			"max":[
				-178.735107421875,
				3.01973295211792,
				-48.260066986083984
			],
			"min":[
				-198.16812133789062,
				1.3166699409484863,
				-64.07067108154297
			],
			"type":"VEC3"
		},
		{
			"bufferView":105,
			"componentType":5126,
			"count":24,
			"type":"VEC3"
		},
		{
			"bufferView":106,
			"componentType":5123,
			"count":36,
			"type":"SCALAR"
		},
		{
			"bufferView":107,
			"componentType":5126,
			"count":24,
			"max":[
				-178.735107421875,
				3.01973295211792,
				-48.260066986083984
			],
			"min":[
				-198.16812133789062,
				1.3166699409484863,
				-64.07067108154297
			],
			"type":"VEC3"
		},
		{
			"bufferView":108,
			"componentType":5126,
			"count":24,
			"type":"VEC3"
		},
		{
			"bufferView":109,
			"componentType":5126,
			"count":24,
			"max":[
				-21.398588180541992,
				1.5994399785995483,
				-43.80923080444336
			],
			"min":[
				-30.792469024658203,
				0.18515600264072418,
				-53.201515197753906
			],
			"type":"VEC3"
		},
		{
			"bufferView":110,
			"componentType":5126,
			"count":24,
			"type":"VEC3"
		},
		{
			"bufferView":111,
			"componentType":5126,
			"count":24,
			"max":[
				-21.398588180541992,
				1.5994399785995483,
				-43.80923080444336
			],
			"min":[
				-30.792469024658203,
				0.18515600264072418,
				-53.201515197753906
			],
			"type":"VEC3"
		},
		{
			"bufferView":112,
			"componentType":5126,
			"count":24,
			"type":"VEC3"
		},
		{
			"bufferView":113,
			"componentType":5126,
			"count":26,
			"max":[
				-148.03968811035156,
				3.410278081893921,
				-208.09703063964844
			],
			"min":[
				-160.7177734375,
				2.1136960983276367,
				-223.5955352783203
			],
			"type":"VEC3"
		},
		{
			"bufferView":114,
			"componentType":5126,
			"count":26,
			"type":"VEC3"
		},
		{
			"bufferView":115,
			"componentType":5123,
			"count":36,
			"type":"SCALAR"
		},
		{
			"bufferView":116,
			"componentType":5126,
			"count":26,
			"max":[
				-148.03968811035156,
				3.410278081893921,
				-208.09703063964844
			],
			"min":[
				-160.7177734375,
				2.1136960983276367,
				-223.5955352783203
			],
			"type":"VEC3"
		},
		{
			"bufferView":117,
			"componentType":5126,
			"count":26,
			"type":"VEC3"
		},
		{
			"bufferView":118,
			"componentType":5126,
			"count":56,
			"max":[
				-222.30995178222656,
				1.8583589792251587,
				-46.73912811279297
			],
			"min":[
				-224.4217529296875,
				0.9980159997940063,
				-50.98207092285156
			],
			"type":"VEC3"
		},
		{
			"bufferView":119,
			"componentType":5126,
			"count":56,
			"type":"VEC3"
		},
		{
			"bufferView":120,
			"componentType":5123,
			"count":84,
			"type":"SCALAR"
		},
		{
			"bufferView":121,
			"componentType":5126,
			"count":56,
			"max":[
				-222.30995178222656,
				1.8583589792251587,
				-46.73912811279297
			],
			"min":[
				-224.4217529296875,
				0.9980159997940063,
				-50.98207092285156
			],
			"type":"VEC3"
		},
		{
			"bufferView":122,
			"componentType":5126,
			"count":56,
			"type":"VEC3"
		},
		{
			"bufferView":123,
			"componentType":5126,
			"count":24,
			"max":[
				-224.29617309570312,
				1.8019720315933228,
				-50.902095794677734
			],
			"min":[
				-225.43319702148438,
				1.0304080247879028,
				-52.63519287109375
			],
			"type":"VEC3"
		},
		{
			"bufferView":124,
			"componentType":5126,
			"count":24,
			"type":"VEC3"
		},
		{
			"bufferView":125,
			"componentType":5123,
			"count":36,
			"type":"SCALAR"
		},
		{
			"bufferView":126,
			"componentType":5126,
			"count":24,
			"max":[
				-224.29617309570312,
				1.8019720315933228,
				-50.902095794677734
			],
			"min":[
				-225.43319702148438,
				1.0304080247879028,
				-52.63519287109375
			],
			"type":"VEC3"
		},
		{
			"bufferView":127,
			"componentType":5126,
			"count":24,
			"type":"VEC3"
		},
		{
			"bufferView":128,
			"componentType":5126,
			"count":26,
			"max":[
				-222.08056640625,
				1.5190889835357666,
				-44.33952331542969
			],
			"min":[
				-224.12420654296875,
				0.908456027507782,
				-46.416778564453125
			],
			"type":"VEC3"
		},
		{
			"bufferView":129,
			"componentType":5126,
			"count":26,
			"type":"VEC3"
		},
		{
			"bufferView":130,
			"componentType":5123,
			"count":36,
			"type":"SCALAR"
		},
		{
			"bufferView":131,
			"componentType":5126,
			"count":26,
			"max":[
				-222.08056640625,
				1.5190889835357666,
				-44.33952331542969
			],
			"min":[
				-224.12420654296875,
				0.908456027507782,
				-46.416778564453125
			],
			"type":"VEC3"
		},
		{
			"bufferView":132,
			"componentType":5126,
			"count":26,
			"type":"VEC3"
		},
		{
			"bufferView":133,
			"componentType":5126,
			"count":419,
			"max":[
				-157.14637756347656,
				11.909646987915039,
				53.234798431396484
			],
			"min":[
				-201.2503204345703,
				0.19098499417304993,
				-25.483739852905273
			],
			"type":"VEC3"
		},
		{
			"bufferView":134,
			"componentType":5126,
			"count":419,
			"type":"VEC3"
		},
		{
			"bufferView":135,
			"componentType":5123,
			"count":534,
			"type":"SCALAR"
		},
		{
			"bufferView":136,
			"componentType":5126,
			"count":419,
			"max":[
				-157.14637756347656,
				11.909646987915039,
				53.234798431396484
			],
			"min":[
				-201.2503204345703,
				0.19098499417304993,
				-25.483739852905273
			],
			"type":"VEC3"
		},
		{
			"bufferView":137,
			"componentType":5126,
			"count":419,
			"type":"VEC3"
		},
		{
			"bufferView":138,
			"componentType":5126,
			"count":893,
			"max":[
				179.87916564941406,
				118.3283462524414,
				-67.69547271728516
			],
			"min":[
				56.73058319091797,
				0.11707299947738647,
				-188.0179901123047
			],
			"type":"VEC3"
		},
		{
			"bufferView":139,
			"componentType":5126,
			"count":893,
			"type":"VEC3"
		},
		{
			"bufferView":140,
			"componentType":5123,
			"count":1608,
			"type":"SCALAR"
		},
		{
			"bufferView":141,
			"componentType":5126,
			"count":893,
			"max":[
				179.87916564941406,
				118.3283462524414,
				-67.69547271728516
			],
			"min":[
				56.73058319091797,
				0.11707299947738647,
				-188.0179901123047
			],
			"type":"VEC3"
		},
		{
			"bufferView":142,
			"componentType":5126,
			"count":893,
			"type":"VEC3"
		},
		{
			"bufferView":143,
			"componentType":5126,
			"count":1294,
			"max":[
				81.01443481445312,
				117.86886596679688,
				18.440771102905273
			],
			"min":[
				-37.19317626953125,
				0.12578999996185303,
				-98.35010528564453
			],
			"type":"VEC3"
		},
		{
			"bufferView":144,
			"componentType":5126,
			"count":1294,
			"type":"VEC3"
		},
		{
			"bufferView":145,
			"componentType":5123,
			"count":2316,
			"type":"SCALAR"
		},
		{
			"bufferView":146,
			"componentType":5126,
			"count":1294,
			"max":[
				81.01443481445312,
				117.86886596679688,
				18.440771102905273
			],
			"min":[
				-37.19317626953125,
				0.12578999996185303,
				-98.35010528564453
			],
			"type":"VEC3"
		},
		{
			"bufferView":147,
			"componentType":5126,
			"count":1294,
			"type":"VEC3"
		},
		{
			"bufferView":148,
			"componentType":5126,
			"count":7632,
			"max":[
				568.6296997070312,
				2,
				445.9453430175781
			],
			"min":[
				-325.3749084472656,
				-1.116019368171692,
				-580.4313354492188
			],
			"type":"VEC3"
		},
		{
			"bufferView":149,
			"componentType":5126,
			"count":7632,
			"type":"VEC3"
		},
		{
			"bufferView":150,
			"componentType":5123,
			"count":19656,
			"type":"SCALAR"
		},
		{
			"bufferView":151,
			"componentType":5126,
			"count":8961,
			"max":[
				252,
				2.9692487716674805,
				252
			],
			"min":[
				-252,
				-2.572695732116699,
				-252
			],
			"type":"VEC3"
		},
		{
			"bufferView":152,
			"componentType":5126,
			"count":8961,
			"type":"VEC3"
		},
		{
			"bufferView":153,
			"componentType":5123,
			"count":8961,
			"type":"SCALAR"
		}
	],
	"bufferViews":[
		{
			"buffer":0,
			"byteLength":2748,
			"byteOffset":0,
			"target":34962
		},
		{
			"buffer":0,
			"byteLength":2748,
			"byteOffset":2748,
			"target":34962
		},
		{
			"buffer":0,
			"byteLength":816,
			"byteOffset":5496,
			"target":34963
		},
		{
			"buffer":0,
			"byteLength":2748,
			"byteOffset":6312,
			"target":34962
		},
		{
			"buffer":0,
			"byteLength":2748,
			"byteOffset":9060,
			"target":34962
		},
		{
			"buffer":0,
			"byteLength":20352,
			"byteOffset":11808,
			"target":34962
		},
		{
			"buffer":0,
			"byteLength":20352,
			"byteOffset":32160,
			"target":34962
		},
		{
			"buffer":0,
			"byteLength":5964,
			"byteOffset":52512,
			"target":34963
		},
		{
			"buffer":0,
			"byteLength":20352,
			"byteOffset":58476,
			"target":34962
		},
		{
			"buffer":0,
			"byteLength":20352,
			"byteOffset":78828,
			"target":34962
		},
		{
			"buffer":0,
			"byteLength":4860,
			"byteOffset":99180,
			"target":34962
		},
		{
			"buffer":0,
			"byteLength":4860,
			"byteOffset":104040,
			"target":34962
		},
		{
			"buffer":0,
			"byteLength":1548,
			"byteOffset":108900,
			"target":34963
		},
		{
			"buffer":0,
			"byteLength":4860,
			"byteOffset":110448,
			"target":34962
		},
		{
			"buffer":0,
			"byteLength":4860,
			"byteOffset":115308,
			"target":34962
		},
		{
			"buffer":0,
			"byteLength":3120,
			"byteOffset":120168,
			"target":34962
		},
		{
			"buffer":0,
			"byteLength":3120,
			"byteOffset":123288,
			"target":34962
		},
		{
			"buffer":0,
			"byteLength":876,
			"byteOffset":126408,
			"target":34963
		},
		{
			"buffer":0,
			"byteLength":3120,
			"byteOffset":127284,
			"target":34962
		},
		{
			"buffer":0,
			"byteLength":3120,
			"byteOffset":130404,
			"target":34962
		},
		{
			"buffer":0,
			"byteLength":4032,
			"byteOffset":133524,
			"target":34962
		},
		{
			"buffer":0,
			"byteLength":4032,
			"byteOffset":137556,
			"target":34962
		},
		{
			"buffer":0,
			"byteLength":768,
			"byteOffset":141588,
			"target":34963
		},
		{
			"buffer":0,
			"byteLength":4032,
			"byteOffset":142356,
			"target":34962
		},
		{
			"buffer":0,
			"byteLength":4032,
			"byteOffset":146388,
			"target":34962
		},
		{
			"buffer":0,
			"byteLength":6096,
			"byteOffset":150420,
			"target":34962
		},
		{
			"buffer":0,
			"byteLength":6096,
			"byteOffset":156516,
			"target":34962
		},
		{
			"buffer":0,
			"byteLength":1116,
			"byteOffset":162612,
			"target":34963
		},
		{
			"buffer":0,
			"byteLength":6096,
			"byteOffset":163728,
			"target":34962
		},
		{
			"buffer":0,
			"byteLength":6096,
			"byteOffset":169824,
			"target":34962
		},
		{
			"buffer":0,
			"byteLength":288,
			"byteOffset":175920,
			"target":34962
		},
		{
			"buffer":0,
			"byteLength":288,
			"byteOffset":176208,
			"target":34962
		},
		{
			"buffer":0,
			"byteLength":72,
			"byteOffset":176496,
			"target":34963
		},
		{
			"buffer":0,
			"byteLength":288,
			"byteOffset":176568,
			"target":34962
		},
		{
			"buffer":0,
			"byteLength":288,
			"byteOffset":176856,
			"target":34962
		},
		{
			"buffer":0,
			"byteLength":288,
			"byteOffset":177144,
			"target":34962
		},
		{
			"buffer":0,
			"byteLength":288,
			"byteOffset":177432,
			"target":34962
		},
		{
			"buffer":0,
			"byteLength":72,
			"byteOffset":177720,
			"target":34963
		},
		{
			"buffer":0,
			"byteLength":288,
			"byteOffset":177792,
			"target":34962
		},
		{
			"buffer":0,
			"byteLength":288,
			"byteOffset":178080,
			"target":34962
		},
		{
			"buffer":0,
			"byteLength":432,
			"byteOffset":178368,
			"target":34962
		},
		{
			"buffer":0,
			"byteLength":432,
			"byteOffset":178800,
			"target":34962
		},
		{
			"buffer":0,
			"byteLength":120,
			"byteOffset":179232,
			"target":34963
		},
		{
			"buffer":0,
			"byteLength":432,
			"byteOffset":179352,
			"target":34962
		},
		{
			"buffer":0,
			"byteLength":432,
			"byteOffset":179784,
			"target":34962
		},
		{
			"buffer":0,
			"byteLength":288,
			"byteOffset":180216,
			"target":34962
		},
		{
			"buffer":0,
			"byteLength":288,
			"byteOffset":180504,
			"target":34962
		},
		{
			"buffer":0,
			"byteLength":72,
			"byteOffset":180792,
			"target":34963
		},
		{
			"buffer":0,
			"byteLength":288,
			"byteOffset":180864,
			"target":34962
		},
		{
			"buffer":0,
			"byteLength":288,
			"byteOffset":181152,
			"target":34962
		},
		{
			"buffer":0,
			"byteLength":288,
			"byteOffset":181440,
			"target":34962
		},
		{
			"buffer":0,
			"byteLength":288,
			"byteOffset":181728,
			"target":34962
		},
		{
			"buffer":0,
			"byteLength":288,
			"byteOffset":182016,
			"target":34962
		},
		{
			"buffer":0,
			"byteLength":288,
			"byteOffset":182304,
			"target":34962
		},
		{
			"buffer":0,
			"byteLength":2124,
			"byteOffset":182592,
			"target":34962
		},
		{
			"buffer":0,
			"byteLength":2124,
			"byteOffset":184716,
			"target":34962
		},
		{
			"buffer":0,
			"byteLength":516,
			"byteOffset":186840,
			"target":34963
		},
		{
			"buffer":0,
			"byteLength":2124,
			"byteOffset":187356,
			"target":34962
		},
		{
			"buffer":0,
			"byteLength":2124,
			"byteOffset":189480,
			"target":34962
		},
		{
			"buffer":0,
			"byteLength":312,
			"byteOffset":191604,
			"target":34962
		},
		{
			"buffer":0,
			"byteLength":312,
			"byteOffset":191916,
			"target":34962
		},
		{
			"buffer":0,
			"byteLength":72,
			"byteOffset":192228,
			"target":34963
		},
		{
			"buffer":0,
			"byteLength":312,
			"byteOffset":192300,
			"target":34962
		},
		{
			"buffer":0,
			"byteLength":312,
			"byteOffset":192612,
			"target":34962
		},
		{
			"buffer":0,
			"byteLength":288,
			"byteOffset":192924,
			"target":34962
		},
		{
			"buffer":0,
			"byteLength":288,
			"byteOffset":193212,
			"target":34962
		},
		{
			"buffer":0,
			"byteLength":288,
			"byteOffset":193500,
			"target":34962
		},
		{
			"buffer":0,
			"byteLength":288,
			"byteOffset":193788,
			"target":34962
		},
		{
			"buffer":0,
			"byteLength":672,
			"byteOffset":194076,
			"target":34962
		},
		{
			"buffer":0,
			"byteLength":672,
			"byteOffset":194748,
			"target":34962
		},
		{
			"buffer":0,
			"byteLength":168,
			"byteOffset":195420,
			"target":34963
		},
		{
			"buffer":0,
			"byteLength":672,
			"byteOffset":195588,
			"target":34962
		},
		{
			"buffer":0,
			"byteLength":672,
			"byteOffset":196260,
			"target":34962
		},
		{
			"buffer":0,
			"byteLength":288,
			"byteOffset":196932,
			"target":34962
		},
		{
			"buffer":0,
			"byteLength":288,
			"byteOffset":197220,
			"target":34962
		},
		{
			"buffer":0,
			"byteLength":288,
			"byteOffset":197508,
			"target":34962
		},
		{
			"buffer":0,
			"byteLength":288,
			"byteOffset":197796,
			"target":34962
		},
		{
			"buffer":0,
			"byteLength":288,
			"byteOffset":198084,
			"target":34962
		},
		{
			"buffer":0,
			"byteLength":288,
			"byteOffset":198372,
			"target":34962
		},
		{
			"buffer":0,
			"byteLength":288,
			"byteOffset":198660,
			"target":34962
		},
		{
			"buffer":0,
			"byteLength":288,
			"byteOffset":198948,
			"target":34962
		},
		{
			"buffer":0,
			"byteLength":288,
			"byteOffset":199236,
			"target":34962
		},
		{
			"buffer":0,
			"byteLength":288,
			"byteOffset":199524,
			"target":34962
		},
		{
			"buffer":0,
			"byteLength":72,
			"byteOffset":199812,
			"target":34963
		},
		{
			"buffer":0,
			"byteLength":288,
			"byteOffset":199884,
			"target":34962
		},
		{
			"buffer":0,
			"byteLength":288,
			"byteOffset":200172,
			"target":34962
		},
		{
			"buffer":0,
			"byteLength":288,
			"byteOffset":200460,
			"target":34962
		},
		{
			"buffer":0,
			"byteLength":288,
			"byteOffset":200748,
			"target":34962
		},
		{
			"buffer":0,
			"byteLength":72,
			"byteOffset":201036,
			"target":34963
		},
		{
			"buffer":0,
			"byteLength":288,
			"byteOffset":201108,
			"target":34962
		},
		{
			"buffer":0,
			"byteLength":288,
			"byteOffset":201396,
			"target":34962
		},
		{
			"buffer":0,
			"byteLength":288,
			"byteOffset":201684,
			"target":34962
		},
		{
			"buffer":0,
			"byteLength":288,
			"byteOffset":201972,
			"target":34962
		},
		{
			"buffer":0,
			"byteLength":288,
			"byteOffset":202260,
			"target":34962
		},
		{
			"buffer":0,
			"byteLength":288,
			"byteOffset":202548,
			"target":34962
		},
		{
			"buffer":0,
			"byteLength":1728,
			"byteOffset":202836,
			"target":34962
		},
		{
			"buffer":0,
			"byteLength":1728,
			"byteOffset":204564,
			"target":34962
		},
		{
			"buffer":0,
			"byteLength":408,
			"byteOffset":206292,
			"target":34963
		},
		{
			"buffer":0,
			"byteLength":1728,
			"byteOffset":206700,
			"target":34962
		},
		{
			"buffer":0,
			"byteLength":1728,
			"byteOffset":208428,
			"target":34962
		},
		{
			"buffer":0,
			"byteLength":288,
			"byteOffset":210156,
			"target":34962
		},
		{
			"buffer":0,
			"byteLength":288,
			"byteOffset":210444,
			"target":34962
		},
		{
			"buffer":0,
			"byteLength":288,
			"byteOffset":210732,
			"target":34962
		},
		{
			"buffer":0,
			"byteLength":288,
			"byteOffset":211020,
			"target":34962
		},
		{
			"buffer":0,
			"byteLength":288,
			"byteOffset":211308,
			"target":34962
		},
		{
			"buffer":0,
			"byteLength":288,
			"byteOffset":211596,
			"target":34962
		},
		{
			"buffer":0,
			"byteLength":72,
			"byteOffset":211884,
			"target":34963
		},
		{
			"buffer":0,
			"byteLength":288,
			"byteOffset":211956,
			"target":34962
		},
		{
			"buffer":0,
			"byteLength":288,
			"byteOffset":212244,
			"target":34962
		},
		{
			"buffer":0,
			"byteLength":288,
			"byteOffset":212532,
			"target":34962
		},
		{
			"buffer":0,
			"byteLength":288,
			"byteOffset":212820,
			"target":34962
		},
		{
			"buffer":0,
			"byteLength":288,
			"byteOffset":213108,
			"target":34962
		},
		{
			"buffer":0,
			"byteLength":288,
			"byteOffset":213396,
			"target":34962
		},
		{
			"buffer":0,
			"byteLength":312,
			"byteOffset":213684,
			"target":34962
		},
		{
			"buffer":0,
			"byteLength":312,
			"byteOffset":213996,
			"target":34962
		},
		{
			"buffer":0,
			"byteLength":72,
			"byteOffset":214308,
			"target":34963
		},
		{
			"buffer":0,
			"byteLength":312,
			"byteOffset":214380,
			"target":34962
		},
		{
			"buffer":0,
			"byteLength":312,
			"byteOffset":214692,
			"target":34962
		},
		{
			"buffer":0,
			"byteLength":672,
			"byteOffset":215004,
			"target":34962
		},
		{
			"buffer":0,
			"byteLength":672,
			"byteOffset":215676,
			"target":34962
		},
		{
			"buffer":0,
			"byteLength":168,
			"byteOffset":216348,
			"target":34963
		},
		{
			"buffer":0,
			"byteLength":672,
			"byteOffset":216516,
			"target":34962
		},
		{
			"buffer":0,
			"byteLength":672,
			"byteOffset":217188,
			"target":34962
		},
		{
			"buffer":0,
			"byteLength":288,
			"byteOffset":217860,
			"target":34962
		},
		{
			"buffer":0,
			"byteLength":288,
			"byteOffset":218148,
			"target":34962
		},
		{
			"buffer":0,
			"byteLength":72,
			"byteOffset":218436,
			"target":34963
		},
		{
			"buffer":0,
			"byteLength":288,
			"byteOffset":218508,
			"target":34962
		},
		{
			"buffer":0,
			"byteLength":288,
			"byteOffset":218796,
			"target":34962
		},
		{
			"buffer":0,
			"byteLength":312,
			"byteOffset":219084,
			"target":34962
		},
		{
			"buffer":0,
			"byteLength":312,
			"byteOffset":219396,
			"target":34962
		},
		{
			"buffer":0,
			"byteLength":72,
			"byteOffset":219708,
			"target":34963
		},
		{
			"buffer":0,
			"byteLength":312,
			"byteOffset":219780,
			"target":34962
		},
		{
			"buffer":0,
			"byteLength":312,
			"byteOffset":220092,
			"target":34962
		},
		{
			"buffer":0,
			"byteLength":5028,
			"byteOffset":220404,
			"target":34962
		},
		{
			"buffer":0,
			"byteLength":5028,
			"byteOffset":225432,
			"target":34962
		},
		{
			"buffer":0,
			"byteLength":1068,
			"byteOffset":230460,
			"target":34963
		},
		{
			"buffer":0,
			"byteLength":5028,
			"byteOffset":231528,
			"target":34962
		},
		{
			"buffer":0,
			"byteLength":5028,
			"byteOffset":236556,
			"target":34962
		},
		{
			"buffer":0,
			"byteLength":10716,
			"byteOffset":241584,
			"target":34962
		},
		{
			"buffer":0,
			"byteLength":10716,
			"byteOffset":252300,
			"target":34962
		},
		{
			"buffer":0,
			"byteLength":3216,
			"byteOffset":263016,
			"target":34963
		},
		{
			"buffer":0,
			"byteLength":10716,
			"byteOffset":266232,
			"target":34962
		},
		{
			"buffer":0,
			"byteLength":10716,
			"byteOffset":276948,
			"target":34962
		},
		{
			"buffer":0,
			"byteLength":15528,
			"byteOffset":287664,
			"target":34962
		},
		{
			"buffer":0,
			"byteLength":15528,
			"byteOffset":303192,
			"target":34962
		},
		{
			"buffer":0,
			"byteLength":4632,
			"byteOffset":318720,
			"target":34963
		},
		{
			"buffer":0,
			"byteLength":15528,
			"byteOffset":323352,
			"target":34962
		},
		{
			"buffer":0,
			"byteLength":15528,
			"byteOffset":338880,
			"target":34962
		},
		{
			"buffer":0,
			"byteLength":91584,
			"byteOffset":354408,
			"target":34962
		},
		{
			"buffer":0,
			"byteLength":91584,
			"byteOffset":445992,
			"target":34962
		},
		{
			"buffer":0,
			"byteLength":39312,
			"byteOffset":537576,
			"target":34963
		},
		{
			"buffer":0,
			"byteLength":107532,
			"byteOffset":576888,
			"target":34962
		},
		{
			"buffer":0,
			"byteLength":107532,
			"byteOffset":684420,
			"target":34962
		},
		{
			"buffer":0,
			"byteLength":17922,
			"byteOffset":791952,
			"target":34963
		}
	],
	"buffers":[
		{
			"byteLength":809876,
			"uri":"Piece_0_0.bin"
		}
	]
}
