{
	"asset":{
		"generator":"Khronos glTF Blender I/O v5.2.39",
		"version":"2.0"
	},
	"scene":0,
	"scenes":[
		{
			"extras":{
				"vrm_addon_extension":{
					"vrm0_material_gltf_property_names":[
						{
							"name":"_Color",
							"value":"_Color"
						},
						{
							"name":"_MainTex_ST",
							"value":"_MainTex_ST"
						},
						{
							"name":"_MainTex_ST_S",
							"value":"_MainTex_ST_S"
						},
						{
							"name":"_MainTex_ST_T",
							"value":"_MainTex_ST_T"
						},
						{
							"name":"_MetallicGlossMap_ST",
							"value":"_MetallicGlossMap_ST"
						},
						{
							"name":"_MetallicGlossMap_ST_S",
							"value":"_MetallicGlossMap_ST_S"
						},
						{
							"name":"_MetallicGlossMap_ST_T",
							"value":"_MetallicGlossMap_ST_T"
						},
						{
							"name":"_BumpMap_ST",
							"value":"_BumpMap_ST"
						},
						{
							"name":"_BumpMap_ST_S",
							"value":"_BumpMap_ST_S"
						},
						{
							"name":"_BumpMap_ST_T",
							"value":"_BumpMap_ST_T"
						},
						{
							"name":"_ParallaxMap_ST",
							"value":"_ParallaxMap_ST"
						},
						{
							"name":"_ParallaxMap_ST_S",
							"value":"_ParallaxMap_ST_S"
						},
						{
							"name":"_ParallaxMap_ST_T",
							"value":"_ParallaxMap_ST_T"
						},
						{
							"name":"_OcclusionMap_ST",
							"value":"_OcclusionMap_ST"
						},
						{
							"name":"_OcclusionMap_ST_S",
							"value":"_OcclusionMap_ST_S"
						},
						{
							"name":"_OcclusionMap_ST_T",
							"value":"_OcclusionMap_ST_T"
						},
						{
							"name":"_EmissionColor",
							"value":"_EmissionColor"
						},
						{
							"name":"_EmissionMap_ST",
							"value":"_EmissionMap_ST"
						},
						{
							"name":"_EmissionMap_ST_S",
							"value":"_EmissionMap_ST_S"
						},
						{
							"name":"_EmissionMap_ST_T",
							"value":"_EmissionMap_ST_T"
						},
						{
							"name":"_DetailMask_ST",
							"value":"_DetailMask_ST"
						},
						{
							"name":"_DetailMask_ST_S",
							"value":"_DetailMask_ST_S"
						},
						{
							"name":"_DetailMask_ST_T",
							"value":"_DetailMask_ST_T"
						},
						{
							"name":"_DetailAlbedoMap_ST",
							"value":"_DetailAlbedoMap_ST"
						},
						{
							"name":"_DetailAlbedoMap_ST_S",
							"value":"_DetailAlbedoMap_ST_S"
						},
						{
							"name":"_DetailAlbedoMap_ST_T",
							"value":"_DetailAlbedoMap_ST_T"
						},
						{
							"name":"_DetailNormalMap_ST",
							"value":"_DetailNormalMap_ST"
						},
						{
							"name":"_DetailNormalMap_ST_S",
							"value":"_DetailNormalMap_ST_S"
						},
						{
							"name":"_DetailNormalMap_ST_T",
							"value":"_DetailNormalMap_ST_T"
						}
					],
					"vrm0_material_mtoon0_property_names":[
						{
							"name":"_Color",
							"value":"_Color"
						},
						{
							"name":"_ShadeColor",
							"value":"_ShadeColor"
						},
						{
							"name":"_MainTex_ST",
							"value":"_MainTex_ST"
						},
						{
							"name":"_MainTex_ST_S",
							"value":"_MainTex_ST_S"
						},
						{
							"name":"_MainTex_ST_T",
							"value":"_MainTex_ST_T"
						},
						{
							"name":"_ShadeTexture_ST",
							"value":"_ShadeTexture_ST"
						},
						{
							"name":"_ShadeTexture_ST_S",
							"value":"_ShadeTexture_ST_S"
						},
						{
							"name":"_ShadeTexture_ST_T",
							"value":"_ShadeTexture_ST_T"
						},
						{
							"name":"_BumpMap_ST",
							"value":"_BumpMap_ST"
						},
						{
							"name":"_BumpMap_ST_S",
							"value":"_BumpMap_ST_S"
						},
						{
							"name":"_BumpMap_ST_T",
							"value":"_BumpMap_ST_T"
						},
						{
							"name":"_ReceiveShadowTexture_ST",
							"value":"_ReceiveShadowTexture_ST"
						},
						{
							"name":"_ReceiveShadowTexture_ST_S",
							"value":"_ReceiveShadowTexture_ST_S"
						},
						{
							"name":"_ReceiveShadowTexture_ST_T",
							"value":"_ReceiveShadowTexture_ST_T"
						},
						{
							"name":"_ShadingGradeTexture_ST",
							"value":"_ShadingGradeTexture_ST"
						},
						{
							"name":"_ShadingGradeTexture_ST_S",
							"value":"_ShadingGradeTexture_ST_S"
						},
						{
							"name":"_ShadingGradeTexture_ST_T",
							"value":"_ShadingGradeTexture_ST_T"
						},
						{
							"name":"_RimColor",
							"value":"_RimColor"
						},
						{
							"name":"_RimTexture_ST",
							"value":"_RimTexture_ST"
						},
						{
							"name":"_RimTexture_ST_S",
							"value":"_RimTexture_ST_S"
						},
						{
							"name":"_RimTexture_ST_T",
							"value":"_RimTexture_ST_T"
						},
						{
							"name":"_SphereAdd_ST",
							"value":"_SphereAdd_ST"
						},
						{
							"name":"_SphereAdd_ST_S",
							"value":"_SphereAdd_ST_S"
						},
						{
							"name":"_SphereAdd_ST_T",
							"value":"_SphereAdd_ST_T"
						},
						{
							"name":"_EmissionColor",
							"value":"_EmissionColor"
						},
						{
							"name":"_EmissionMap_ST",
							"value":"_EmissionMap_ST"
						},
						{
							"name":"_EmissionMap_ST_S",
							"value":"_EmissionMap_ST_S"
						},
						{
							"name":"_EmissionMap_ST_T",
							"value":"_EmissionMap_ST_T"
						},
						{
							"name":"_OutlineWidthTexture_ST",
							"value":"_OutlineWidthTexture_ST"
						},
						{
							"name":"_OutlineWidthTexture_ST_S",
							"value":"_OutlineWidthTexture_ST_S"
						},
						{
							"name":"_OutlineWidthTexture_ST_T",
							"value":"_OutlineWidthTexture_ST_T"
						},
						{
							"name":"_OutlineColor",
							"value":"_OutlineColor"
						},
						{
							"name":"_UvAnimMaskTexture_ST",
							"value":"_UvAnimMaskTexture_ST"
						},
						{
							"name":"_UvAnimMaskTexture_ST_S",
							"value":"_UvAnimMaskTexture_ST_S"
						},
						{
							"name":"_UvAnimMaskTexture_ST_T",
							"value":"_UvAnimMaskTexture_ST_T"
						}
					]
				},
				"rka":{}
			},
			"name":"Scene",
			"nodes":[
				0,
				1,
				2,
				3,
				4,
				5,
				6,
				7,
				8,
				9,
				10,
				11,
				12,
				13,
				14,
				15,
				16,
				17,
				18
			]
		}
	],
	"nodes":[
		{
			"extras":{
				"proxy_for":"District_mtn_1_4_GroundSafety"
			},
			"mesh":0,
			"name":"District_mtn_1_4_GroundSafety-colonly"
		},
		{
			"mesh":1,
			"name":"District_mtn_1_4_Road"
		},
		{
			"mesh":2,
			"name":"District_mtn_1_4_Terrain-col"
		},
		{
			"extras":{
				"lane_offset":-1.75
			},
			"name":"lane_seam_0_4_1_4_0_entry_hi_0",
			"translation":[
				-252,
				40.599998474121094,
				0
			]
		},
		{
			"name":"lane_seam_0_4_1_4_0_entry_hi_1",
			"translation":[
				-226.8000030517578,
				40.599998474121094,
				0
			]
		},
		{
			"extras":{
				"lane_offset":-1.75,
				"end_behavior":"CHAIN",
				"next_routes":"seam_0_4_1_4_0_entry_lo"
			},
			"name":"lane_seam_0_4_1_4_0_exit_hi_0",
			"translation":[
				-226.8000030517578,
				40.599998474121094,
				0
			]
		},
		{
			"name":"lane_seam_0_4_1_4_0_exit_hi_1",
			"translation":[
				-252,
				40.599998474121094,
				0
			]
		},
		{
			"extras":{
				"lane_offset":-1.75
			},
			"name":"lane_seam_1_3_1_4_0_entry_hi_0",
			"translation":[
				0,
				40.599998474121094,
				252
			]
		},
		{
			"name":"lane_seam_1_3_1_4_0_entry_hi_1",
			"translation":[
				0,
				40.599998474121094,
				226.8000030517578
			]
		},
		{
			"extras":{
				"lane_offset":-1.75,
				"end_behavior":"CHAIN",
				"next_routes":"seam_1_3_1_4_0_entry_lo"
			},
			"name":"lane_seam_1_3_1_4_0_exit_hi_0",
			"translation":[
				0,
				40.599998474121094,
				226.8000030517578
			]
		},
		{
			"name":"lane_seam_1_3_1_4_0_exit_hi_1",
			"translation":[
				0,
				40.599998474121094,
				252
			]
		},
		{
			"extras":{
				"lane_offset":-1.75
			},
			"name":"lane_seam_1_4_1_5_0_entry_lo_0",
			"translation":[
				0,
				40.599998474121094,
				-252
			]
		},
		{
			"name":"lane_seam_1_4_1_5_0_entry_lo_1",
			"translation":[
				0,
				40.599998474121094,
				-226.8000030517578
			]
		},
		{
			"extras":{
				"lane_offset":-1.75,
				"end_behavior":"CHAIN",
				"next_routes":"seam_1_4_1_5_0_entry_hi"
			},
			"name":"lane_seam_1_4_1_5_0_exit_lo_0",
			"translation":[
				0,
				40.599998474121094,
				-226.8000030517578
			]
		},
		{
			"name":"lane_seam_1_4_1_5_0_exit_lo_1",
			"translation":[
				0,
				40.599998474121094,
				-252
			]
		},
		{
			"extras":{
				"lane_offset":-1.75
			},
			"name":"lane_seam_1_4_2_4_0_entry_lo_0",
			"translation":[
				252,
				40.599998474121094,
				0
			]
		},
		{
			"name":"lane_seam_1_4_2_4_0_entry_lo_1",
			"translation":[
				226.8000030517578,
				40.599998474121094,
				0
			]
		},
		{
			"extras":{
				"lane_offset":-1.75,
				"end_behavior":"CHAIN",
				"next_routes":"seam_1_4_2_4_0_entry_hi"
			},
			"name":"lane_seam_1_4_2_4_0_exit_lo_0",
			"translation":[
				226.8000030517578,
				40.599998474121094,
				0
			]
		},
		{
			"name":"lane_seam_1_4_2_4_0_exit_lo_1",
			"translation":[
				252,
				40.599998474121094,
				0
			]
		}
	],
	"materials":[
		{
			"doubleSided":true,
			"extras":{
				"vrm_addon_extension":{
					"mtoon1":{}
				}
			},
			"name":"M_Collision",
			"pbrMetallicRoughness":{
				"baseColorFactor":[
					0.8999999761581421,
					0.20000000298023224,
					0.550000011920929,
					1
				],
				"metallicFactor":0,
				"roughnessFactor":0.5
			}
		},
		{
			"doubleSided":true,
			"extras":{
				"vrm_addon_extension":{
					"mtoon1":{}
				}
			},
			"name":"M_Asphalt",
			"pbrMetallicRoughness":{
				"baseColorFactor":[
					0.2800000011920929,
					0.30000001192092896,
					0.33000001311302185,
					1
				],
				"metallicFactor":0,
				"roughnessFactor":0.5
			}
		},
		{
			"doubleSided":true,
			"extras":{
				"vrm_addon_extension":{
					"mtoon1":{}
				}
			},
			"name":"M_Dirt",
			"pbrMetallicRoughness":{
				"baseColorFactor":[
					0.4000000059604645,
					0.3400000035762787,
					0.25999999046325684,
					1
				],
				"metallicFactor":0,
				"roughnessFactor":0.5
			}
		}
	],
	"meshes":[
		{
			"name":"District_mtn_1_4_GroundSafety-colonly",
			"primitives":[
				{
					"attributes":{
						"POSITION":0,
						"NORMAL":1
					},
					"indices":2,
					"material":0
				}
			]
		},
		{
			"name":"District_mtn_1_4_Road_000",
			"primitives":[
				{
					"attributes":{
						"POSITION":3,
						"NORMAL":4
					},
					"indices":5,
					"material":1
				}
			]
		},
		{
			"name":"District_mtn_1_4_Terrain-col",
			"primitives":[
				{
					"attributes":{
						"POSITION":6,
						"NORMAL":7
					},
					"indices":8,
					"material":2
				}
			]
		}
	],
	"accessors":[
		{
			"bufferView":0,
			"componentType":5126,
			"count":24,
			"max":[
				252,
				39.20000076293945,
				252
			],
			"min":[
				-252,
				39,
				-252
			],
			"type":"VEC3"
		},
		{
			"bufferView":1,
			"componentType":5126,
			"count":24,
			"type":"VEC3"
		},
		{
			"bufferView":2,
			"componentType":5123,
			"count":36,
			"type":"SCALAR"
		},
		{
			"bufferView":3,
			"componentType":5126,
			"count":7192,
			"max":[
				225.56187438964844,
				17.856666564941406,
				307.1540832519531
			],
			"min":[
				-372.2121276855469,
				-18.299999237060547,
				-450.52642822265625
			],
			"type":"VEC3"
		},
		{
			"bufferView":4,
			"componentType":5126,
			"count":7192,
			"type":"VEC3"
		},
		{
			"bufferView":5,
			"componentType":5123,
			"count":13932,
			"type":"SCALAR"
		},
		{
			"bufferView":6,
			"componentType":5126,
			"count":49128,
			"max":[
				153.897705078125,
				27.191999435424805,
				252
			],
			"min":[
				-252,
				-18,
				-252
			],
			"type":"VEC3"
		},
		{
			"bufferView":7,
			"componentType":5126,
			"count":49128,
			"type":"VEC3"
		},
		{
			"bufferView":8,
			"componentType":5123,
			"count":49128,
			"type":"SCALAR"
		}
	],
	"bufferViews":[
		{
			"buffer":0,
			"byteLength":288,
			"byteOffset":0,
			"target":34962
		},
		{
			"buffer":0,
			"byteLength":288,
			"byteOffset":288,
			"target":34962
		},
		{
			"buffer":0,
			"byteLength":72,
			"byteOffset":576,
			"target":34963
		},
		{
			"buffer":0,
			"byteLength":86304,
			"byteOffset":648,
			"target":34962
		},
		{
			"buffer":0,
			"byteLength":86304,
			"byteOffset":86952,
			"target":34962
		},
		{
			"buffer":0,
			"byteLength":27864,
			"byteOffset":173256,
			"target":34963
		},
		{
			"buffer":0,
			"byteLength":589536,
			"byteOffset":201120,
			"target":34962
		},
		{
			"buffer":0,
			"byteLength":589536,
			"byteOffset":790656,
			"target":34962
		},
		{
			"buffer":0,
			"byteLength":98256,
			"byteOffset":1380192,
			"target":34963
		}
	],
	"buffers":[
		{
			"byteLength":1478448,
			"uri":"Piece_1_4.bin"
		}
	]
}
