{
	"asset":{
		"generator":"Khronos glTF Blender I/O v5.2.39",
		"version":"2.0"
	},
	"scene":0,
	"scenes":[
		{
			"extras":{
				"vrm_addon_extension":{
					"vrm0_material_gltf_property_names":[
						{
							"name":"_Color",
							"value":"_Color"
						},
						{
							"name":"_MainTex_ST",
							"value":"_MainTex_ST"
						},
						{
							"name":"_MainTex_ST_S",
							"value":"_MainTex_ST_S"
						},
						{
							"name":"_MainTex_ST_T",
							"value":"_MainTex_ST_T"
						},
						{
							"name":"_MetallicGlossMap_ST",
							"value":"_MetallicGlossMap_ST"
						},
						{
							"name":"_MetallicGlossMap_ST_S",
							"value":"_MetallicGlossMap_ST_S"
						},
						{
							"name":"_MetallicGlossMap_ST_T",
							"value":"_MetallicGlossMap_ST_T"
						},
						{
							"name":"_BumpMap_ST",
							"value":"_BumpMap_ST"
						},
						{
							"name":"_BumpMap_ST_S",
							"value":"_BumpMap_ST_S"
						},
						{
							"name":"_BumpMap_ST_T",
							"value":"_BumpMap_ST_T"
						},
						{
							"name":"_ParallaxMap_ST",
							"value":"_ParallaxMap_ST"
						},
						{
							"name":"_ParallaxMap_ST_S",
							"value":"_ParallaxMap_ST_S"
						},
						{
							"name":"_ParallaxMap_ST_T",
							"value":"_ParallaxMap_ST_T"
						},
						{
							"name":"_OcclusionMap_ST",
							"value":"_OcclusionMap_ST"
						},
						{
							"name":"_OcclusionMap_ST_S",
							"value":"_OcclusionMap_ST_S"
						},
						{
							"name":"_OcclusionMap_ST_T",
							"value":"_OcclusionMap_ST_T"
						},
						{
							"name":"_EmissionColor",
							"value":"_EmissionColor"
						},
						{
							"name":"_EmissionMap_ST",
							"value":"_EmissionMap_ST"
						},
						{
							"name":"_EmissionMap_ST_S",
							"value":"_EmissionMap_ST_S"
						},
						{
							"name":"_EmissionMap_ST_T",
							"value":"_EmissionMap_ST_T"
						},
						{
							"name":"_DetailMask_ST",
							"value":"_DetailMask_ST"
						},
						{
							"name":"_DetailMask_ST_S",
							"value":"_DetailMask_ST_S"
						},
						{
							"name":"_DetailMask_ST_T",
							"value":"_DetailMask_ST_T"
						},
						{
							"name":"_DetailAlbedoMap_ST",
							"value":"_DetailAlbedoMap_ST"
						},
						{
							"name":"_DetailAlbedoMap_ST_S",
							"value":"_DetailAlbedoMap_ST_S"
						},
						{
							"name":"_DetailAlbedoMap_ST_T",
							"value":"_DetailAlbedoMap_ST_T"
						},
						{
							"name":"_DetailNormalMap_ST",
							"value":"_DetailNormalMap_ST"
						},
						{
							"name":"_DetailNormalMap_ST_S",
							"value":"_DetailNormalMap_ST_S"
						},
						{
							"name":"_DetailNormalMap_ST_T",
							"value":"_DetailNormalMap_ST_T"
						}
					],
					"vrm0_material_mtoon0_property_names":[
						{
							"name":"_Color",
							"value":"_Color"
						},
						{
							"name":"_ShadeColor",
							"value":"_ShadeColor"
						},
						{
							"name":"_MainTex_ST",
							"value":"_MainTex_ST"
						},
						{
							"name":"_MainTex_ST_S",
							"value":"_MainTex_ST_S"
						},
						{
							"name":"_MainTex_ST_T",
							"value":"_MainTex_ST_T"
						},
						{
							"name":"_ShadeTexture_ST",
							"value":"_ShadeTexture_ST"
						},
						{
							"name":"_ShadeTexture_ST_S",
							"value":"_ShadeTexture_ST_S"
						},
						{
							"name":"_ShadeTexture_ST_T",
							"value":"_ShadeTexture_ST_T"
						},
						{
							"name":"_BumpMap_ST",
							"value":"_BumpMap_ST"
						},
						{
							"name":"_BumpMap_ST_S",
							"value":"_BumpMap_ST_S"
						},
						{
							"name":"_BumpMap_ST_T",
							"value":"_BumpMap_ST_T"
						},
						{
							"name":"_ReceiveShadowTexture_ST",
							"value":"_ReceiveShadowTexture_ST"
						},
						{
							"name":"_ReceiveShadowTexture_ST_S",
							"value":"_ReceiveShadowTexture_ST_S"
						},
						{
							"name":"_ReceiveShadowTexture_ST_T",
							"value":"_ReceiveShadowTexture_ST_T"
						},
						{
							"name":"_ShadingGradeTexture_ST",
							"value":"_ShadingGradeTexture_ST"
						},
						{
							"name":"_ShadingGradeTexture_ST_S",
							"value":"_ShadingGradeTexture_ST_S"
						},
						{
							"name":"_ShadingGradeTexture_ST_T",
							"value":"_ShadingGradeTexture_ST_T"
						},
						{
							"name":"_RimColor",
							"value":"_RimColor"
						},
						{
							"name":"_RimTexture_ST",
							"value":"_RimTexture_ST"
						},
						{
							"name":"_RimTexture_ST_S",
							"value":"_RimTexture_ST_S"
						},
						{
							"name":"_RimTexture_ST_T",
							"value":"_RimTexture_ST_T"
						},
						{
							"name":"_SphereAdd_ST",
							"value":"_SphereAdd_ST"
						},
						{
							"name":"_SphereAdd_ST_S",
							"value":"_SphereAdd_ST_S"
						},
						{
							"name":"_SphereAdd_ST_T",
							"value":"_SphereAdd_ST_T"
						},
						{
							"name":"_EmissionColor",
							"value":"_EmissionColor"
						},
						{
							"name":"_EmissionMap_ST",
							"value":"_EmissionMap_ST"
						},
						{
							"name":"_EmissionMap_ST_S",
							"value":"_EmissionMap_ST_S"
						},
						{
							"name":"_EmissionMap_ST_T",
							"value":"_EmissionMap_ST_T"
						},
						{
							"name":"_OutlineWidthTexture_ST",
							"value":"_OutlineWidthTexture_ST"
						},
						{
							"name":"_OutlineWidthTexture_ST_S",
							"value":"_OutlineWidthTexture_ST_S"
						},
						{
							"name":"_OutlineWidthTexture_ST_T",
							"value":"_OutlineWidthTexture_ST_T"
						},
						{
							"name":"_OutlineColor",
							"value":"_OutlineColor"
						},
						{
							"name":"_UvAnimMaskTexture_ST",
							"value":"_UvAnimMaskTexture_ST"
						},
						{
							"name":"_UvAnimMaskTexture_ST_S",
							"value":"_UvAnimMaskTexture_ST_S"
						},
						{
							"name":"_UvAnimMaskTexture_ST_T",
							"value":"_UvAnimMaskTexture_ST_T"
						}
					]
				},
				"rka":{}
			},
			"name":"Scene",
			"nodes":[
				0,
				1,
				2,
				3,
				4,
				5,
				6,
				7,
				8,
				9,
				10,
				11,
				12,
				13,
				14,
				15,
				16,
				17,
				18,
				19,
				20,
				21,
				22,
				23,
				24,
				25,
				26,
				27,
				28,
				29,
				30,
				31,
				32,
				33,
				34,
				35,
				36,
				37,
				38,
				39,
				40,
				41,
				42,
				43,
				44,
				45,
				46,
				47,
				48,
				49,
				50,
				51,
				52,
				53,
				54,
				55,
				56,
				57,
				58,
				59,
				60,
				61,
				62,
				63
			]
		}
	],
	"nodes":[
		{
			"mesh":0,
			"name":"District_snow_0_5_Bldg_003_h9m"
		},
		{
			"extras":{
				"proxy_for":"District_snow_0_5_Bldg_003_h9m"
			},
			"mesh":1,
			"name":"District_snow_0_5_Bldg_003_h9m-colonly"
		},
		{
			"mesh":2,
			"name":"District_snow_0_5_Bldg_005_h6m"
		},
		{
			"extras":{
				"proxy_for":"District_snow_0_5_Bldg_005_h6m"
			},
			"mesh":3,
			"name":"District_snow_0_5_Bldg_005_h6m-colonly"
		},
		{
			"mesh":4,
			"name":"District_snow_0_5_Bldg_006_h6m"
		},
		{
			"extras":{
				"proxy_for":"District_snow_0_5_Bldg_006_h6m"
			},
			"mesh":5,
			"name":"District_snow_0_5_Bldg_006_h6m-colonly"
		},
		{
			"mesh":6,
			"name":"District_snow_0_5_Bldg_007_h6m"
		},
		{
			"extras":{
				"proxy_for":"District_snow_0_5_Bldg_007_h6m"
			},
			"mesh":7,
			"name":"District_snow_0_5_Bldg_007_h6m-colonly"
		},
		{
			"mesh":8,
			"name":"District_snow_0_5_Bldg_008_h5m"
		},
		{
			"extras":{
				"proxy_for":"District_snow_0_5_Bldg_008_h5m"
			},
			"mesh":9,
			"name":"District_snow_0_5_Bldg_008_h5m-colonly"
		},
		{
			"mesh":10,
			"name":"District_snow_0_5_Bldg_009_h5m"
		},
		{
			"extras":{
				"proxy_for":"District_snow_0_5_Bldg_009_h5m"
			},
			"mesh":11,
			"name":"District_snow_0_5_Bldg_009_h5m-colonly"
		},
		{
			"mesh":12,
			"name":"District_snow_0_5_Bldg_010_h5m"
		},
		{
			"extras":{
				"proxy_for":"District_snow_0_5_Bldg_010_h5m"
			},
			"mesh":13,
			"name":"District_snow_0_5_Bldg_010_h5m-colonly"
		},
		{
			"mesh":14,
			"name":"District_snow_0_5_Bldg_011_h5m"
		},
		{
			"extras":{
				"proxy_for":"District_snow_0_5_Bldg_011_h5m"
			},
			"mesh":15,
			"name":"District_snow_0_5_Bldg_011_h5m-colonly"
		},
		{
			"mesh":16,
			"name":"District_snow_0_5_Bldg_013_h4m"
		},
		{
			"extras":{
				"proxy_for":"District_snow_0_5_Bldg_013_h4m"
			},
			"mesh":17,
			"name":"District_snow_0_5_Bldg_013_h4m-colonly"
		},
		{
			"mesh":18,
			"name":"District_snow_0_5_Bldg_014_h4m"
		},
		{
			"extras":{
				"proxy_for":"District_snow_0_5_Bldg_014_h4m"
			},
			"mesh":19,
			"name":"District_snow_0_5_Bldg_014_h4m-colonly"
		},
		{
			"mesh":20,
			"name":"District_snow_0_5_Bldg_015_h4m"
		},
		{
			"extras":{
				"proxy_for":"District_snow_0_5_Bldg_015_h4m"
			},
			"mesh":21,
			"name":"District_snow_0_5_Bldg_015_h4m-colonly"
		},
		{
			"mesh":22,
			"name":"District_snow_0_5_Bldg_016_h3m"
		},
		{
			"extras":{
				"proxy_for":"District_snow_0_5_Bldg_016_h3m"
			},
			"mesh":23,
			"name":"District_snow_0_5_Bldg_016_h3m-colonly"
		},
		{
			"mesh":24,
			"name":"District_snow_0_5_Bldg_018_h3m"
		},
		{
			"extras":{
				"proxy_for":"District_snow_0_5_Bldg_018_h3m"
			},
			"mesh":25,
			"name":"District_snow_0_5_Bldg_018_h3m-colonly"
		},
		{
			"mesh":26,
			"name":"District_snow_0_5_Bldg_019_h3m"
		},
		{
			"extras":{
				"proxy_for":"District_snow_0_5_Bldg_019_h3m"
			},
			"mesh":27,
			"name":"District_snow_0_5_Bldg_019_h3m-colonly"
		},
		{
			"mesh":28,
			"name":"District_snow_0_5_Bldg_020_h3m"
		},
		{
			"extras":{
				"proxy_for":"District_snow_0_5_Bldg_020_h3m"
			},
			"mesh":29,
			"name":"District_snow_0_5_Bldg_020_h3m-colonly"
		},
		{
			"mesh":30,
			"name":"District_snow_0_5_Bldg_021_h3m"
		},
		{
			"extras":{
				"proxy_for":"District_snow_0_5_Bldg_021_h3m"
			},
			"mesh":31,
			"name":"District_snow_0_5_Bldg_021_h3m-colonly"
		},
		{
			"mesh":32,
			"name":"District_snow_0_5_Bldg_022_h3m"
		},
		{
			"extras":{
				"proxy_for":"District_snow_0_5_Bldg_022_h3m"
			},
			"mesh":33,
			"name":"District_snow_0_5_Bldg_022_h3m-colonly"
		},
		{
			"mesh":34,
			"name":"District_snow_0_5_Bldg_023_h3m"
		},
		{
			"extras":{
				"proxy_for":"District_snow_0_5_Bldg_023_h3m"
			},
			"mesh":35,
			"name":"District_snow_0_5_Bldg_023_h3m-colonly"
		},
		{
			"mesh":36,
			"name":"District_snow_0_5_Bldg_024_h3m"
		},
		{
			"extras":{
				"proxy_for":"District_snow_0_5_Bldg_024_h3m"
			},
			"mesh":37,
			"name":"District_snow_0_5_Bldg_024_h3m-colonly"
		},
		{
			"mesh":38,
			"name":"District_snow_0_5_Bldg_025_h3m"
		},
		{
			"extras":{
				"proxy_for":"District_snow_0_5_Bldg_025_h3m"
			},
			"mesh":39,
			"name":"District_snow_0_5_Bldg_025_h3m-colonly"
		},
		{
			"mesh":40,
			"name":"District_snow_0_5_Bldg_026_h3m"
		},
		{
			"extras":{
				"proxy_for":"District_snow_0_5_Bldg_026_h3m"
			},
			"mesh":41,
			"name":"District_snow_0_5_Bldg_026_h3m-colonly"
		},
		{
			"mesh":42,
			"name":"District_snow_0_5_Bldg_027_h3m"
		},
		{
			"extras":{
				"proxy_for":"District_snow_0_5_Bldg_027_h3m"
			},
			"mesh":43,
			"name":"District_snow_0_5_Bldg_027_h3m-colonly"
		},
		{
			"mesh":44,
			"name":"District_snow_0_5_Bldg_028_h3m"
		},
		{
			"extras":{
				"proxy_for":"District_snow_0_5_Bldg_028_h3m"
			},
			"mesh":45,
			"name":"District_snow_0_5_Bldg_028_h3m-colonly"
		},
		{
			"mesh":46,
			"name":"District_snow_0_5_Bldg_029_h3m"
		},
		{
			"extras":{
				"proxy_for":"District_snow_0_5_Bldg_029_h3m"
			},
			"mesh":47,
			"name":"District_snow_0_5_Bldg_029_h3m-colonly"
		},
		{
			"mesh":48,
			"name":"District_snow_0_5_Landmark_000_h55m"
		},
		{
			"extras":{
				"proxy_for":"District_snow_0_5_Landmark_000_h55m"
			},
			"mesh":49,
			"name":"District_snow_0_5_Landmark_000_h55m-colonly"
		},
		{
			"mesh":50,
			"name":"District_snow_0_5_Landmark_001_h18m"
		},
		{
			"extras":{
				"proxy_for":"District_snow_0_5_Landmark_001_h18m"
			},
			"mesh":51,
			"name":"District_snow_0_5_Landmark_001_h18m-colonly"
		},
		{
			"mesh":52,
			"name":"District_snow_0_5_Landmark_002_h10m"
		},
		{
			"extras":{
				"proxy_for":"District_snow_0_5_Landmark_002_h10m"
			},
			"mesh":53,
			"name":"District_snow_0_5_Landmark_002_h10m-colonly"
		},
		{
			"mesh":54,
			"name":"District_snow_0_5_Road"
		},
		{
			"mesh":55,
			"name":"District_snow_0_5_Terrain-col"
		},
		{
			"extras":{
				"lane_offset":-1.75
			},
			"name":"lane_seam_0_4_0_5_0_entry_hi_0",
			"translation":[
				0,
				90.5999984741211,
				252
			]
		},
		{
			"name":"lane_seam_0_4_0_5_0_entry_hi_1",
			"translation":[
				0,
				90.5999984741211,
				226.8000030517578
			]
		},
		{
			"extras":{
				"lane_offset":-1.75,
				"end_behavior":"CHAIN",
				"next_routes":"seam_0_4_0_5_0_entry_lo"
			},
			"name":"lane_seam_0_4_0_5_0_exit_hi_0",
			"translation":[
				0,
				90.5999984741211,
				226.8000030517578
			]
		},
		{
			"name":"lane_seam_0_4_0_5_0_exit_hi_1",
			"translation":[
				0,
				90.5999984741211,
				252
			]
		},
		{
			"extras":{
				"lane_offset":-1.75
			},
			"name":"lane_seam_0_5_1_5_0_entry_lo_0",
			"translation":[
				252,
				90.5999984741211,
				0
			]
		},
		{
			"name":"lane_seam_0_5_1_5_0_entry_lo_1",
			"translation":[
				226.8000030517578,
				90.5999984741211,
				0
			]
		},
		{
			"extras":{
				"lane_offset":-1.75,
				"end_behavior":"CHAIN",
				"next_routes":"seam_0_5_1_5_0_entry_hi"
			},
			"name":"lane_seam_0_5_1_5_0_exit_lo_0",
			"translation":[
				226.8000030517578,
				90.5999984741211,
				0
			]
		},
		{
			"name":"lane_seam_0_5_1_5_0_exit_lo_1",
			"translation":[
				252,
				90.5999984741211,
				0
			]
		}
	],
	"materials":[
		{
			"doubleSided":true,
			"extras":{
				"vrm_addon_extension":{
					"mtoon1":{}
				}
			},
			"name":"M_Collision",
			"pbrMetallicRoughness":{
				"baseColorFactor":[
					0.8999999761581421,
					0.20000000298023224,
					0.550000011920929,
					1
				],
				"metallicFactor":0,
				"roughnessFactor":0.5
			}
		},
		{
			"doubleSided":true,
			"extras":{
				"vrm_addon_extension":{
					"mtoon1":{}
				}
			},
			"name":"M_Asphalt",
			"pbrMetallicRoughness":{
				"baseColorFactor":[
					0.2800000011920929,
					0.30000001192092896,
					0.33000001311302185,
					1
				],
				"metallicFactor":0,
				"roughnessFactor":0.5
			}
		},
		{
			"doubleSided":true,
			"extras":{
				"vrm_addon_extension":{
					"mtoon1":{}
				}
			},
			"name":"M_Dirt",
			"pbrMetallicRoughness":{
				"baseColorFactor":[
					0.4000000059604645,
					0.3400000035762787,
					0.25999999046325684,
					1
				],
				"metallicFactor":0,
				"roughnessFactor":0.5
			}
		}
	],
	"meshes":[
		{
			"name":"District_snow_0_5_Bldg_003_h9m",
			"primitives":[
				{
					"attributes":{
						"POSITION":0,
						"NORMAL":1
					},
					"indices":2
				}
			]
		},
		{
			"name":"District_snow_0_5_Bldg_003_h9m.001",
			"primitives":[
				{
					"attributes":{
						"POSITION":3,
						"NORMAL":4
					},
					"indices":2,
					"material":0
				}
			]
		},
		{
			"name":"District_snow_0_5_Bldg_005_h6m",
			"primitives":[
				{
					"attributes":{
						"POSITION":5,
						"NORMAL":6
					},
					"indices":7
				}
			]
		},
		{
			"name":"District_snow_0_5_Bldg_005_h6m.001",
			"primitives":[
				{
					"attributes":{
						"POSITION":8,
						"NORMAL":9
					},
					"indices":7,
					"material":0
				}
			]
		},
		{
			"name":"District_snow_0_5_Bldg_006_h6m",
			"primitives":[
				{
					"attributes":{
						"POSITION":10,
						"NORMAL":11
					},
					"indices":12
				}
			]
		},
		{
			"name":"District_snow_0_5_Bldg_006_h6m.001",
			"primitives":[
				{
					"attributes":{
						"POSITION":13,
						"NORMAL":14
					},
					"indices":12,
					"material":0
				}
			]
		},
		{
			"name":"District_snow_0_5_Bldg_007_h6m",
			"primitives":[
				{
					"attributes":{
						"POSITION":15,
						"NORMAL":16
					},
					"indices":17
				}
			]
		},
		{
			"name":"District_snow_0_5_Bldg_007_h6m.001",
			"primitives":[
				{
					"attributes":{
						"POSITION":18,
						"NORMAL":19
					},
					"indices":17,
					"material":0
				}
			]
		},
		{
			"name":"District_snow_0_5_Bldg_008_h5m",
			"primitives":[
				{
					"attributes":{
						"POSITION":20,
						"NORMAL":21
					},
					"indices":22
				}
			]
		},
		{
			"name":"District_snow_0_5_Bldg_008_h5m.001",
			"primitives":[
				{
					"attributes":{
						"POSITION":23,
						"NORMAL":24
					},
					"indices":22,
					"material":0
				}
			]
		},
		{
			"name":"District_snow_0_5_Bldg_009_h5m",
			"primitives":[
				{
					"attributes":{
						"POSITION":25,
						"NORMAL":26
					},
					"indices":27
				}
			]
		},
		{
			"name":"District_snow_0_5_Bldg_009_h5m.001",
			"primitives":[
				{
					"attributes":{
						"POSITION":28,
						"NORMAL":29
					},
					"indices":27,
					"material":0
				}
			]
		},
		{
			"name":"District_snow_0_5_Bldg_010_h5m",
			"primitives":[
				{
					"attributes":{
						"POSITION":30,
						"NORMAL":31
					},
					"indices":32
				}
			]
		},
		{
			"name":"District_snow_0_5_Bldg_010_h5m.001",
			"primitives":[
				{
					"attributes":{
						"POSITION":33,
						"NORMAL":34
					},
					"indices":32,
					"material":0
				}
			]
		},
		{
			"name":"District_snow_0_5_Bldg_011_h5m",
			"primitives":[
				{
					"attributes":{
						"POSITION":35,
						"NORMAL":36
					},
					"indices":37
				}
			]
		},
		{
			"name":"District_snow_0_5_Bldg_011_h5m.001",
			"primitives":[
				{
					"attributes":{
						"POSITION":38,
						"NORMAL":39
					},
					"indices":37,
					"material":0
				}
			]
		},
		{
			"name":"District_snow_0_5_Bldg_013_h4m",
			"primitives":[
				{
					"attributes":{
						"POSITION":40,
						"NORMAL":41
					},
					"indices":42
				}
			]
		},
		{
			"name":"District_snow_0_5_Bldg_013_h4m.001",
			"primitives":[
				{
					"attributes":{
						"POSITION":43,
						"NORMAL":44
					},
					"indices":42,
					"material":0
				}
			]
		},
		{
			"name":"District_snow_0_5_Bldg_014_h4m",
			"primitives":[
				{
					"attributes":{
						"POSITION":45,
						"NORMAL":46
					},
					"indices":2
				}
			]
		},
		{
			"name":"District_snow_0_5_Bldg_014_h4m.001",
			"primitives":[
				{
					"attributes":{
						"POSITION":47,
						"NORMAL":48
					},
					"indices":2,
					"material":0
				}
			]
		},
		{
			"name":"District_snow_0_5_Bldg_015_h4m",
			"primitives":[
				{
					"attributes":{
						"POSITION":49,
						"NORMAL":50
					},
					"indices":51
				}
			]
		},
		{
			"name":"District_snow_0_5_Bldg_015_h4m.001",
			"primitives":[
				{
					"attributes":{
						"POSITION":52,
						"NORMAL":53
					},
					"indices":51,
					"material":0
				}
			]
		},
		{
			"name":"District_snow_0_5_Bldg_016_h3m",
			"primitives":[
				{
					"attributes":{
						"POSITION":54,
						"NORMAL":55
					},
					"indices":56
				}
			]
		},
		{
			"name":"District_snow_0_5_Bldg_016_h3m.001",
			"primitives":[
				{
					"attributes":{
						"POSITION":57,
						"NORMAL":58
					},
					"indices":56,
					"material":0
				}
			]
		},
		{
			"name":"District_snow_0_5_Bldg_018_h3m",
			"primitives":[
				{
					"attributes":{
						"POSITION":59,
						"NORMAL":60
					},
					"indices":61
				}
			]
		},
		{
			"name":"District_snow_0_5_Bldg_018_h3m.001",
			"primitives":[
				{
					"attributes":{
						"POSITION":62,
						"NORMAL":63
					},
					"indices":61,
					"material":0
				}
			]
		},
		{
			"name":"District_snow_0_5_Bldg_019_h3m",
			"primitives":[
				{
					"attributes":{
						"POSITION":64,
						"NORMAL":65
					},
					"indices":66
				}
			]
		},
		{
			"name":"District_snow_0_5_Bldg_019_h3m.001",
			"primitives":[
				{
					"attributes":{
						"POSITION":67,
						"NORMAL":68
					},
					"indices":66,
					"material":0
				}
			]
		},
		{
			"name":"District_snow_0_5_Bldg_020_h3m",
			"primitives":[
				{
					"attributes":{
						"POSITION":69,
						"NORMAL":70
					},
					"indices":71
				}
			]
		},
		{
			"name":"District_snow_0_5_Bldg_020_h3m.001",
			"primitives":[
				{
					"attributes":{
						"POSITION":72,
						"NORMAL":73
					},
					"indices":71,
					"material":0
				}
			]
		},
		{
			"name":"District_snow_0_5_Bldg_021_h3m",
			"primitives":[
				{
					"attributes":{
						"POSITION":74,
						"NORMAL":75
					},
					"indices":2
				}
			]
		},
		{
			"name":"District_snow_0_5_Bldg_021_h3m.001",
			"primitives":[
				{
					"attributes":{
						"POSITION":76,
						"NORMAL":77
					},
					"indices":2,
					"material":0
				}
			]
		},
		{
			"name":"District_snow_0_5_Bldg_022_h3m",
			"primitives":[
				{
					"attributes":{
						"POSITION":78,
						"NORMAL":79
					},
					"indices":2
				}
			]
		},
		{
			"name":"District_snow_0_5_Bldg_022_h3m.001",
			"primitives":[
				{
					"attributes":{
						"POSITION":80,
						"NORMAL":81
					},
					"indices":2,
					"material":0
				}
			]
		},
		{
			"name":"District_snow_0_5_Bldg_023_h3m",
			"primitives":[
				{
					"attributes":{
						"POSITION":82,
						"NORMAL":83
					},
					"indices":27
				}
			]
		},
		{
			"name":"District_snow_0_5_Bldg_023_h3m.001",
			"primitives":[
				{
					"attributes":{
						"POSITION":84,
						"NORMAL":85
					},
					"indices":27,
					"material":0
				}
			]
		},
		{
			"name":"District_snow_0_5_Bldg_024_h3m",
			"primitives":[
				{
					"attributes":{
						"POSITION":86,
						"NORMAL":87
					},
					"indices":2
				}
			]
		},
		{
			"name":"District_snow_0_5_Bldg_024_h3m.001",
			"primitives":[
				{
					"attributes":{
						"POSITION":88,
						"NORMAL":89
					},
					"indices":2,
					"material":0
				}
			]
		},
		{
			"name":"District_snow_0_5_Bldg_025_h3m",
			"primitives":[
				{
					"attributes":{
						"POSITION":90,
						"NORMAL":91
					},
					"indices":2
				}
			]
		},
		{
			"name":"District_snow_0_5_Bldg_025_h3m.001",
			"primitives":[
				{
					"attributes":{
						"POSITION":92,
						"NORMAL":93
					},
					"indices":2,
					"material":0
				}
			]
		},
		{
			"name":"District_snow_0_5_Bldg_026_h3m",
			"primitives":[
				{
					"attributes":{
						"POSITION":94,
						"NORMAL":95
					},
					"indices":66
				}
			]
		},
		{
			"name":"District_snow_0_5_Bldg_026_h3m.001",
			"primitives":[
				{
					"attributes":{
						"POSITION":96,
						"NORMAL":97
					},
					"indices":66,
					"material":0
				}
			]
		},
		{
			"name":"District_snow_0_5_Bldg_027_h3m",
			"primitives":[
				{
					"attributes":{
						"POSITION":98,
						"NORMAL":99
					},
					"indices":66
				}
			]
		},
		{
			"name":"District_snow_0_5_Bldg_027_h3m.001",
			"primitives":[
				{
					"attributes":{
						"POSITION":100,
						"NORMAL":101
					},
					"indices":66,
					"material":0
				}
			]
		},
		{
			"name":"District_snow_0_5_Bldg_028_h3m",
			"primitives":[
				{
					"attributes":{
						"POSITION":102,
						"NORMAL":103
					},
					"indices":66
				}
			]
		},
		{
			"name":"District_snow_0_5_Bldg_028_h3m.001",
			"primitives":[
				{
					"attributes":{
						"POSITION":104,
						"NORMAL":105
					},
					"indices":66,
					"material":0
				}
			]
		},
		{
			"name":"District_snow_0_5_Bldg_029_h3m",
			"primitives":[
				{
					"attributes":{
						"POSITION":106,
						"NORMAL":107
					},
					"indices":108
				}
			]
		},
		{
			"name":"District_snow_0_5_Bldg_029_h3m.001",
			"primitives":[
				{
					"attributes":{
						"POSITION":109,
						"NORMAL":110
					},
					"indices":108,
					"material":0
				}
			]
		},
		{
			"name":"District_snow_0_5_Landmark_000_h55m",
			"primitives":[
				{
					"attributes":{
						"POSITION":111,
						"NORMAL":112
					},
					"indices":113
				}
			]
		},
		{
			"name":"District_snow_0_5_Landmark_000_h55m.001",
			"primitives":[
				{
					"attributes":{
						"POSITION":114,
						"NORMAL":115
					},
					"indices":113,
					"material":0
				}
			]
		},
		{
			"name":"District_snow_0_5_Landmark_001_h18m",
			"primitives":[
				{
					"attributes":{
						"POSITION":116,
						"NORMAL":117
					},
					"indices":118
				}
			]
		},
		{
			"name":"District_snow_0_5_Landmark_001_h18m.001",
			"primitives":[
				{
					"attributes":{
						"POSITION":119,
						"NORMAL":120
					},
					"indices":118,
					"material":0
				}
			]
		},
		{
			"name":"District_snow_0_5_Landmark_002_h10m",
			"primitives":[
				{
					"attributes":{
						"POSITION":121,
						"NORMAL":122
					},
					"indices":123
				}
			]
		},
		{
			"name":"District_snow_0_5_Landmark_002_h10m.001",
			"primitives":[
				{
					"attributes":{
						"POSITION":124,
						"NORMAL":125
					},
					"indices":123,
					"material":0
				}
			]
		},
		{
			"name":"District_snow_0_5_Road_000",
			"primitives":[
				{
					"attributes":{
						"POSITION":126,
						"NORMAL":127
					},
					"indices":128,
					"material":1
				}
			]
		},
		{
			"name":"District_snow_0_5_Terrain-col",
			"primitives":[
				{
					"attributes":{
						"POSITION":129,
						"NORMAL":130
					},
					"indices":131,
					"material":2
				}
			]
		}
	],
	"accessors":[
		{
			"bufferView":0,
			"componentType":5126,
			"count":24,
			"max":[
				96.0546646118164,
				-3.73580002784729,
				-89.41571044921875
			],
			"min":[
				94.31966400146484,
				-12.399700164794922,
				-91.39871215820312
			],
			"type":"VEC3"
		},
		{
			"bufferView":1,
			"componentType":5126,
			"count":24,
			"type":"VEC3"
		},
		{
			"bufferView":2,
			"componentType":5123,
			"count":36,
			"type":"SCALAR"
		},
		{
			"bufferView":3,
			"componentType":5126,
			"count":24,
			"max":[
				96.0546646118164,
				-3.73580002784729,
				-89.41571044921875
			],
			"min":[
				94.31966400146484,
				-12.399700164794922,
				-91.39871215820312
			],
			"type":"VEC3"
		},
		{
			"bufferView":4,
			"componentType":5126,
			"count":24,
			"type":"VEC3"
		},
		{
			"bufferView":5,
			"componentType":5126,
			"count":48,
			"max":[
				96.49866485595703,
				3.704200029373169,
				-21.116714477539062
			],
			"min":[
				85.75166320800781,
				-2.4058001041412354,
				-38.105712890625
			],
			"type":"VEC3"
		},
		{
			"bufferView":6,
			"componentType":5126,
			"count":48,
			"type":"VEC3"
		},
		{
			"bufferView":7,
			"componentType":5123,
			"count":84,
			"type":"SCALAR"
		},
		{
			"bufferView":8,
			"componentType":5126,
			"count":48,
			"max":[
				96.49866485595703,
				3.704200029373169,
				-21.116714477539062
			],
			"min":[
				85.75166320800781,
				-2.4058001041412354,
				-38.105712890625
			],
			"type":"VEC3"
		},
		{
			"bufferView":9,
			"componentType":5126,
			"count":48,
			"type":"VEC3"
		},
		{
			"bufferView":10,
			"componentType":5126,
			"count":24,
			"max":[
				20.25166130065918,
				5.634200096130371,
				163.13328552246094
			],
			"min":[
				11.75166130065918,
				-0.46720001101493835,
				152.63328552246094
			],
			"type":"VEC3"
		},
		{
			"bufferView":11,
			"componentType":5126,
			"count":24,
			"type":"VEC3"
		},
		{
			"bufferView":12,
			"componentType":5123,
			"count":36,
			"type":"SCALAR"
		},
		{
			"bufferView":13,
			"componentType":5126,
			"count":24,
			"max":[
				20.25166130065918,
				5.634200096130371,
				163.13328552246094
			],
			"min":[
				11.75166130065918,
				-0.46720001101493835,
				152.63328552246094
			],
			"type":"VEC3"
		},
		{
			"bufferView":14,
			"componentType":5126,
			"count":24,
			"type":"VEC3"
		},
		{
			"bufferView":15,
			"componentType":5126,
			"count":48,
			"max":[
				-160.98634338378906,
				-10.655799865722656,
				-88.855712890625
			],
			"min":[
				-169.98634338378906,
				-16.439300537109375,
				-99.855712890625
			],
			"type":"VEC3"
		},
		{
			"bufferView":16,
			"componentType":5126,
			"count":48,
			"type":"VEC3"
		},
		{
			"bufferView":17,
			"componentType":5123,
			"count":84,
			"type":"SCALAR"
		},
		{
			"bufferView":18,
			"componentType":5126,
			"count":48,
			"max":[
				-160.98634338378906,
				-10.655799865722656,
				-88.855712890625
			],
			"min":[
				-169.98634338378906,
				-16.439300537109375,
				-99.855712890625
			],
			"type":"VEC3"
		},
		{
			"bufferView":19,
			"componentType":5126,
			"count":48,
			"type":"VEC3"
		},
		{
			"bufferView":20,
			"componentType":5126,
			"count":36,
			"max":[
				-81.1473388671875,
				4.934199810028076,
				108.5462875366211
			],
			"min":[
				-96.08734130859375,
				-0.37720000743865967,
				81.45528411865234
			],
			"type":"VEC3"
		},
		{
			"bufferView":21,
			"componentType":5126,
			"count":36,
			"type":"VEC3"
		},
		{
			"bufferView":22,
			"componentType":5123,
			"count":60,
			"type":"SCALAR"
		},
		{
			"bufferView":23,
			"componentType":5126,
			"count":36,
			"max":[
				-81.1473388671875,
				4.934199810028076,
				108.5462875366211
			],
			"min":[
				-96.08734130859375,
				-0.37720000743865967,
				81.45528411865234
			],
			"type":"VEC3"
		},
		{
			"bufferView":24,
			"componentType":5126,
			"count":36,
			"type":"VEC3"
		},
		{
			"bufferView":25,
			"componentType":5126,
			"count":24,
			"max":[
				-186.2483367919922,
				-3.9058001041412354,
				178.123291015625
			],
			"min":[
				-190.9983367919922,
				-8.867500305175781,
				171.373291015625
			],
			"type":"VEC3"
		},
		{
			"bufferView":26,
			"componentType":5126,
			"count":24,
			"type":"VEC3"
		},
		{
			"bufferView":27,
			"componentType":5123,
			"count":36,
			"type":"SCALAR"
		},
		{
			"bufferView":28,
			"componentType":5126,
			"count":24,
			"max":[
				-186.2483367919922,
				-3.9058001041412354,
				178.123291015625
			],
			"min":[
				-190.9983367919922,
				-8.867500305175781,
				171.373291015625
			],
			"type":"VEC3"
		},
		{
			"bufferView":29,
			"componentType":5126,
			"count":24,
			"type":"VEC3"
		},
		{
			"bufferView":30,
			"componentType":5126,
			"count":24,
			"max":[
				48.00166320800781,
				2.4042000770568848,
				170.88328552246094
			],
			"min":[
				38.50166320800781,
				-2.2363998889923096,
				152.63328552246094
			],
			"type":"VEC3"
		},
		{
			"bufferView":31,
			"componentType":5126,
			"count":24,
			"type":"VEC3"
		},
		{
			"bufferView":32,
			"componentType":5123,
			"count":36,
			"type":"SCALAR"
		},
		{
			"bufferView":33,
			"componentType":5126,
			"count":24,
			"max":[
				48.00166320800781,
				2.4042000770568848,
				170.88328552246094
			],
			"min":[
				38.50166320800781,
				-2.2363998889923096,
				152.63328552246094
			],
			"type":"VEC3"
		},
		{
			"bufferView":34,
			"componentType":5126,
			"count":24,
			"type":"VEC3"
		},
		{
			"bufferView":35,
			"componentType":5126,
			"count":48,
			"max":[
				28.50166130065918,
				3.4042000770568848,
				93.38328552246094
			],
			"min":[
				20.75166130065918,
				-1.1058000326156616,
				74.63328552246094
			],
			"type":"VEC3"
		},
		{
			"bufferView":36,
			"componentType":5126,
			"count":48,
			"type":"VEC3"
		},
		{
			"bufferView":37,
			"componentType":5123,
			"count":84,
			"type":"SCALAR"
		},
		{
			"bufferView":38,
			"componentType":5126,
			"count":48,
			"max":[
				28.50166130065918,
				3.4042000770568848,
				93.38328552246094
			],
			"min":[
				20.75166130065918,
				-1.1058000326156616,
				74.63328552246094
			],
			"type":"VEC3"
		},
		{
			"bufferView":39,
			"componentType":5126,
			"count":48,
			"type":"VEC3"
		},
		{
			"bufferView":40,
			"componentType":5126,
			"count":24,
			"max":[
				11.25166130065918,
				3.3642001152038574,
				85.63328552246094
			],
			"min":[
				5.501661777496338,
				-0.505299985408783,
				75.88328552246094
			],
			"type":"VEC3"
		},
		{
			"bufferView":41,
			"componentType":5126,
			"count":24,
			"type":"VEC3"
		},
		{
			"bufferView":42,
			"componentType":5123,
			"count":36,
			"type":"SCALAR"
		},
		{
			"bufferView":43,
			"componentType":5126,
			"count":24,
			"max":[
				11.25166130065918,
				3.3642001152038574,
				85.63328552246094
			],
			"min":[
				5.501661777496338,
				-0.505299985408783,
				75.88328552246094
			],
			"type":"VEC3"
		},
		{
			"bufferView":44,
			"componentType":5126,
			"count":24,
			"type":"VEC3"
		},
		{
			"bufferView":45,
			"componentType":5126,
			"count":24,
			"max":[
				-51.58033752441406,
				3.7841999530792236,
				25.941286087036133
			],
			"min":[
				-58.05133819580078,
				0,
				17.05728530883789
			],
			"type":"VEC3"
		},
		{
			"bufferView":46,
			"componentType":5126,
			"count":24,
			"type":"VEC3"
		},
		{
			"bufferView":47,
			"componentType":5126,
			"count":24,
			"max":[
				-51.58033752441406,
				3.7841999530792236,
				25.941286087036133
			],
			"min":[
				-58.05133819580078,
				0,
				17.05728530883789
			],
			"type":"VEC3"
		},
		{
			"bufferView":48,
			"componentType":5126,
			"count":24,
			"type":"VEC3"
		},
		{
			"bufferView":49,
			"componentType":5126,
			"count":108,
			"max":[
				-191.2483367919922,
				-8.085800170898438,
				-91.36971282958984
			],
			"min":[
				-215.7483367919922,
				-11.618800163269043,
				-113.36971282958984
			],
			"type":"VEC3"
		},
		{
			"bufferView":50,
			"componentType":5126,
			"count":108,
			"type":"VEC3"
		},
		{
			"bufferView":51,
			"componentType":5123,
			"count":204,
			"type":"SCALAR"
		},
		{
			"bufferView":52,
			"componentType":5126,
			"count":108,
			"max":[
				-191.2483367919922,
				-8.085800170898438,
				-91.36971282958984
			],
			"min":[
				-215.7483367919922,
				-11.618800163269043,
				-113.36971282958984
			],
			"type":"VEC3"
		},
		{
			"bufferView":53,
			"componentType":5126,
			"count":108,
			"type":"VEC3"
		},
		{
			"bufferView":54,
			"componentType":5126,
			"count":24,
			"max":[
				3.251661777496338,
				3.004199981689453,
				92.38328552246094
			],
			"min":[
				-5.248338222503662,
				-0.46560001373291016,
				86.63328552246094
			],
			"type":"VEC3"
		},
		{
			"bufferView":55,
			"componentType":5126,
			"count":24,
			"type":"VEC3"
		},
		{
			"bufferView":56,
			"componentType":5123,
			"count":36,
			"type":"SCALAR"
		},
		{
			"bufferView":57,
			"componentType":5126,
			"count":24,
			"max":[
				3.251661777496338,
				3.004199981689453,
				92.38328552246094
			],
			"min":[
				-5.248338222503662,
				-0.46560001373291016,
				86.63328552246094
			],
			"type":"VEC3"
		},
		{
			"bufferView":58,
			"componentType":5126,
			"count":24,
			"type":"VEC3"
		},
		{
			"bufferView":59,
			"componentType":5126,
			"count":24,
			"max":[
				-36.24833679199219,
				2.1842000484466553,
				194.63328552246094
			],
			"min":[
				-45.49833679199219,
				-0.9319999814033508,
				187.88328552246094
			],
			"type":"VEC3"
		},
		{
			"bufferView":60,
			"componentType":5126,
			"count":24,
			"type":"VEC3"
		},
		{
			"bufferView":61,
			"componentType":5123,
			"count":36,
			"type":"SCALAR"
		},
		{
			"bufferView":62,
			"componentType":5126,
			"count":24,
			"max":[
				-36.24833679199219,
				2.1842000484466553,
				194.63328552246094
			],
			"min":[
				-45.49833679199219,
				-0.9319999814033508,
				187.88328552246094
			],
			"type":"VEC3"
		},
		{
			"bufferView":63,
			"componentType":5126,
			"count":24,
			"type":"VEC3"
		},
		{
			"bufferView":64,
			"componentType":5126,
			"count":24,
			"max":[
				-81.75033569335938,
				2.564199924468994,
				-52.880714416503906
			],
			"min":[
				-84.77633666992188,
				-0.5475999712944031,
				-54.96171569824219
			],
			"type":"VEC3"
		},
		{
			"bufferView":65,
			"componentType":5126,
			"count":24,
			"type":"VEC3"
		},
		{
			"bufferView":66,
			"componentType":5123,
			"count":36,
			"type":"SCALAR"
		},
		{
			"bufferView":67,
			"componentType":5126,
			"count":24,
			"max":[
				-81.75033569335938,
				2.564199924468994,
				-52.880714416503906
			],
			"min":[
				-84.77633666992188,
				-0.5475999712944031,
				-54.96171569824219
			],
			"type":"VEC3"
		},
		{
			"bufferView":68,
			"componentType":5126,
			"count":24,
			"type":"VEC3"
		},
		{
			"bufferView":69,
			"componentType":5126,
			"count":48,
			"max":[
				-11.24833869934082,
				3.1642000675201416,
				46.88328552246094
			],
			"min":[
				-18.99833869934082,
				0.13429999351501465,
				33.38328552246094
			],
			"type":"VEC3"
		},
		{
			"bufferView":70,
			"componentType":5126,
			"count":48,
			"type":"VEC3"
		},
		{
			"bufferView":71,
			"componentType":5123,
			"count":84,
			"type":"SCALAR"
		},
		{
			"bufferView":72,
			"componentType":5126,
			"count":48,
			"max":[
				-11.24833869934082,
				3.1642000675201416,
				46.88328552246094
			],
			"min":[
				-18.99833869934082,
				0.13429999351501465,
				33.38328552246094
			],
			"type":"VEC3"
		},
		{
			"bufferView":73,
			"componentType":5126,
			"count":48,
			"type":"VEC3"
		},
		{
			"bufferView":74,
			"componentType":5126,
			"count":24,
			"max":[
				42.818660736083984,
				2.0218000411987305,
				101.32528686523438
			],
			"min":[
				39.07866287231445,
				-0.9782000184059143,
				100.15428924560547
			],
			"type":"VEC3"
		},
		{
			"bufferView":75,
			"componentType":5126,
			"count":24,
			"type":"VEC3"
		},
		{
			"bufferView":76,
			"componentType":5126,
			"count":24,
			"max":[
				42.818660736083984,
				2.0218000411987305,
				101.32528686523438
			],
			"min":[
				39.07866287231445,
				-0.9782000184059143,
				100.15428924560547
			],
			"type":"VEC3"
		},
		{
			"bufferView":77,
			"componentType":5126,
			"count":24,
			"type":"VEC3"
		},
		{
			"bufferView":78,
			"componentType":5126,
			"count":24,
			"max":[
				-172.0363311767578,
				-9.19789981842041,
				-11.72171401977539
			],
			"min":[
				-177.86334228515625,
				-12.19789981842041,
				-14.970714569091797
			],
			"type":"VEC3"
		},
		{
			"bufferView":79,
			"componentType":5126,
			"count":24,
			"type":"VEC3"
		},
		{
			"bufferView":80,
			"componentType":5126,
			"count":24,
			"max":[
				-172.0363311767578,
				-9.19789981842041,
				-11.72171401977539
			],
			"min":[
				-177.86334228515625,
				-12.19789981842041,
				-14.970714569091797
			],
			"type":"VEC3"
		},
		{
			"bufferView":81,
			"componentType":5126,
			"count":24,
			"type":"VEC3"
		},
		{
			"bufferView":82,
			"componentType":5126,
			"count":24,
			"max":[
				-68.7213363647461,
				2.5534000396728516,
				90.50428771972656
			],
			"min":[
				-70.87633514404297,
				-0.4465999901294708,
				85.12228393554688
			],
			"type":"VEC3"
		},
		{
			"bufferView":83,
			"componentType":5126,
			"count":24,
			"type":"VEC3"
		},
		{
			"bufferView":84,
			"componentType":5126,
			"count":24,
			"max":[
				-68.7213363647461,
				2.5534000396728516,
				90.50428771972656
			],
			"min":[
				-70.87633514404297,
				-0.4465999901294708,
				85.12228393554688
			],
			"type":"VEC3"
		},
		{
			"bufferView":85,
			"componentType":5126,
			"count":24,
			"type":"VEC3"
		},
		{
			"bufferView":86,
			"componentType":5126,
			"count":24,
			"max":[
				95.22366333007812,
				-8.653599739074707,
				-76.105712890625
			],
			"min":[
				92.36266326904297,
				-11.653599739074707,
				-81.3567123413086
			],
			"type":"VEC3"
		},
		{
			"bufferView":87,
			"componentType":5126,
			"count":24,
			"type":"VEC3"
		},
		{
			"bufferView":88,
			"componentType":5126,
			"count":24,
			"max":[
				95.22366333007812,
				-8.653599739074707,
				-76.105712890625
			],
			"min":[
				92.36266326904297,
				-11.653599739074707,
				-81.3567123413086
			],
			"type":"VEC3"
		},
		{
			"bufferView":89,
			"componentType":5126,
			"count":24,
			"type":"VEC3"
		},
		{
			"bufferView":90,
			"componentType":5126,
			"count":24,
			"max":[
				95.79666137695312,
				-9.501199722290039,
				-81.74471282958984
			],
			"min":[
				92.93566131591797,
				-12.501199722290039,
				-86.99571228027344
			],
			"type":"VEC3"
		},
		{
			"bufferView":91,
			"componentType":5126,
			"count":24,
			"type":"VEC3"
		},
		{
			"bufferView":92,
			"componentType":5126,
			"count":24,
			"max":[
				95.79666137695312,
				-9.501199722290039,
				-81.74471282958984
			],
			"min":[
				92.93566131591797,
				-12.501199722290039,
				-86.99571228027344
			],
			"type":"VEC3"
		},
		{
			"bufferView":93,
			"componentType":5126,
			"count":24,
			"type":"VEC3"
		},
		{
			"bufferView":94,
			"componentType":5126,
			"count":24,
			"max":[
				37.649662017822266,
				2.009700059890747,
				101.23128509521484
			],
			"min":[
				33.79766082763672,
				-0.9902999997138977,
				100.23928833007812
			],
			"type":"VEC3"
		},
		{
			"bufferView":95,
			"componentType":5126,
			"count":24,
			"type":"VEC3"
		},
		{
			"bufferView":96,
			"componentType":5126,
			"count":24,
			"max":[
				37.649662017822266,
				2.009700059890747,
				101.23128509521484
			],
			"min":[
				33.79766082763672,
				-0.9902999997138977,
				100.23928833007812
			],
			"type":"VEC3"
		},
		{
			"bufferView":97,
			"componentType":5126,
			"count":24,
			"type":"VEC3"
		},
		{
			"bufferView":98,
			"componentType":5126,
			"count":24,
			"max":[
				-68.65133666992188,
				2.5380001068115234,
				84.519287109375
			],
			"min":[
				-70.7453384399414,
				-0.4620000123977661,
				79.13728332519531
			],
			"type":"VEC3"
		},
		{
			"bufferView":99,
			"componentType":5126,
			"count":24,
			"type":"VEC3"
		},
		{
			"bufferView":100,
			"componentType":5126,
			"count":24,
			"max":[
				-68.65133666992188,
				2.5380001068115234,
				84.519287109375
			],
			"min":[
				-70.7453384399414,
				-0.4620000123977661,
				79.13728332519531
			],
			"type":"VEC3"
		},
		{
			"bufferView":101,
			"componentType":5126,
			"count":24,
			"type":"VEC3"
		},
		{
			"bufferView":102,
			"componentType":5126,
			"count":24,
			"max":[
				95.85466003417969,
				-9.477399826049805,
				-87.26071166992188
			],
			"min":[
				94.11965942382812,
				-12.477399826049805,
				-89.24271392822266
			],
			"type":"VEC3"
		},
		{
			"bufferView":103,
			"componentType":5126,
			"count":24,
			"type":"VEC3"
		},
		{
			"bufferView":104,
			"componentType":5126,
			"count":24,
			"max":[
				95.85466003417969,
				-9.477399826049805,
				-87.26071166992188
			],
			"min":[
				94.11965942382812,
				-12.477399826049805,
				-89.24271392822266
			],
			"type":"VEC3"
		},
		{
			"bufferView":105,
			"componentType":5126,
			"count":24,
			"type":"VEC3"
		},
		{
			"bufferView":106,
			"componentType":5126,
			"count":48,
			"max":[
				-52.24833679199219,
				2.9612998962402344,
				35.63328552246094
			],
			"min":[
				-58.74833679199219,
				-0.03869999945163727,
				27.383285522460938
			],
			"type":"VEC3"
		},
		{
			"bufferView":107,
			"componentType":5126,
			"count":48,
			"type":"VEC3"
		},
		{
			"bufferView":108,
			"componentType":5123,
			"count":84,
			"type":"SCALAR"
		},
		{
			"bufferView":109,
			"componentType":5126,
			"count":48,
			"max":[
				-52.24833679199219,
				2.9612998962402344,
				35.63328552246094
			],
			"min":[
				-58.74833679199219,
				-0.03869999945163727,
				27.383285522460938
			],
			"type":"VEC3"
		},
		{
			"bufferView":110,
			"componentType":5126,
			"count":48,
			"type":"VEC3"
		},
		{
			"bufferView":111,
			"componentType":5126,
			"count":166,
			"max":[
				-9.679431915283203,
				54.59420394897461,
				39.34828567504883
			],
			"min":[
				-54.0778694152832,
				0.003387999953702092,
				-32.54233932495117
			],
			"type":"VEC3"
		},
		{
			"bufferView":112,
			"componentType":5126,
			"count":166,
			"type":"VEC3"
		},
		{
			"bufferView":113,
			"componentType":5123,
			"count":312,
			"type":"SCALAR"
		},
		{
			"bufferView":114,
			"componentType":5126,
			"count":166,
			"max":[
				-9.679431915283203,
				54.59420394897461,
				39.34828567504883
			],
			"min":[
				-54.0778694152832,
				0.003387999953702092,
				-32.54233932495117
			],
			"type":"VEC3"
		},
		{
			"bufferView":115,
			"componentType":5126,
			"count":166,
			"type":"VEC3"
		},
		{
			"bufferView":116,
			"componentType":5126,
			"count":96,
			"max":[
				46.50166320800781,
				14.964200019836426,
				205.38328552246094
			],
			"min":[
				20.00166130065918,
				-2.606600046157837,
				111.13328552246094
			],
			"type":"VEC3"
		},
		{
			"bufferView":117,
			"componentType":5126,
			"count":96,
			"type":"VEC3"
		},
		{
			"bufferView":118,
			"componentType":5123,
			"count":180,
			"type":"SCALAR"
		},
		{
			"bufferView":119,
			"componentType":5126,
			"count":96,
			"max":[
				46.50166320800781,
				14.964200019836426,
				205.38328552246094
			],
			"min":[
				20.00166130065918,
				-2.606600046157837,
				111.13328552246094
			],
			"type":"VEC3"
		},
		{
			"bufferView":120,
			"componentType":5126,
			"count":96,
			"type":"VEC3"
		},
		{
			"bufferView":121,
			"componentType":5126,
			"count":24,
			"max":[
				191.76365661621094,
				-12.665800094604492,
				-135.59571838378906
			],
			"min":[
				171.51365661621094,
				-22.216100692749023,
				-157.59571838378906
			],
			"type":"VEC3"
		},
		{
			"bufferView":122,
			"componentType":5126,
			"count":24,
			"type":"VEC3"
		},
		{
			"bufferView":123,
			"componentType":5123,
			"count":36,
			"type":"SCALAR"
		},
		{
			"bufferView":124,
			"componentType":5126,
			"count":24,
			"max":[
				191.76365661621094,
				-12.665800094604492,
				-135.59571838378906
			],
			"min":[
				171.51365661621094,
				-22.216100692749023,
				-157.59571838378906
			],
			"type":"VEC3"
		},
		{
			"bufferView":125,
			"componentType":5126,
			"count":24,
			"type":"VEC3"
		},
		{
			"bufferView":126,
			"componentType":5126,
			"count":9284,
			"max":[
				355.49163818359375,
				5.340866565704346,
				621.6083984375
			],
			"min":[
				-421.4763488769531,
				-25.299999237060547,
				-318.3556823730469
			],
			"type":"VEC3"
		},
		{
			"bufferView":127,
			"componentType":5126,
			"count":9284,
			"type":"VEC3"
		},
		{
			"bufferView":128,
			"componentType":5123,
			"count":19500,
			"type":"SCALAR"
		},
		{
			"bufferView":129,
			"componentType":5126,
			"count":41187,
			"max":[
				252,
				8.984199523925781,
				252
			],
			"min":[
				-252,
				-27.53580093383789,
				-252
			],
			"type":"VEC3"
		},
		{
			"bufferView":130,
			"componentType":5126,
			"count":41187,
			"type":"VEC3"
		},
		{
			"bufferView":131,
			"componentType":5123,
			"count":41187,
			"type":"SCALAR"
		}
	],
	"bufferViews":[
		{
			"buffer":0,
			"byteLength":288,
			"byteOffset":0,
			"target":34962
		},
		{
			"buffer":0,
			"byteLength":288,
			"byteOffset":288,
			"target":34962
		},
		{
			"buffer":0,
			"byteLength":72,
			"byteOffset":576,
			"target":34963
		},
		{
			"buffer":0,
			"byteLength":288,
			"byteOffset":648,
			"target":34962
		},
		{
			"buffer":0,
			"byteLength":288,
			"byteOffset":936,
			"target":34962
		},
		{
			"buffer":0,
			"byteLength":576,
			"byteOffset":1224,
			"target":34962
		},
		{
			"buffer":0,
			"byteLength":576,
			"byteOffset":1800,
			"target":34962
		},
		{
			"buffer":0,
			"byteLength":168,
			"byteOffset":2376,
			"target":34963
		},
		{
			"buffer":0,
			"byteLength":576,
			"byteOffset":2544,
			"target":34962
		},
		{
			"buffer":0,
			"byteLength":576,
			"byteOffset":3120,
			"target":34962
		},
		{
			"buffer":0,
			"byteLength":288,
			"byteOffset":3696,
			"target":34962
		},
		{
			"buffer":0,
			"byteLength":288,
			"byteOffset":3984,
			"target":34962
		},
		{
			"buffer":0,
			"byteLength":72,
			"byteOffset":4272,
			"target":34963
		},
		{
			"buffer":0,
			"byteLength":288,
			"byteOffset":4344,
			"target":34962
		},
		{
			"buffer":0,
			"byteLength":288,
			"byteOffset":4632,
			"target":34962
		},
		{
			"buffer":0,
			"byteLength":576,
			"byteOffset":4920,
			"target":34962
		},
		{
			"buffer":0,
			"byteLength":576,
			"byteOffset":5496,
			"target":34962
		},
		{
			"buffer":0,
			"byteLength":168,
			"byteOffset":6072,
			"target":34963
		},
		{
			"buffer":0,
			"byteLength":576,
			"byteOffset":6240,
			"target":34962
		},
		{
			"buffer":0,
			"byteLength":576,
			"byteOffset":6816,
			"target":34962
		},
		{
			"buffer":0,
			"byteLength":432,
			"byteOffset":7392,
			"target":34962
		},
		{
			"buffer":0,
			"byteLength":432,
			"byteOffset":7824,
			"target":34962
		},
		{
			"buffer":0,
			"byteLength":120,
			"byteOffset":8256,
			"target":34963
		},
		{
			"buffer":0,
			"byteLength":432,
			"byteOffset":8376,
			"target":34962
		},
		{
			"buffer":0,
			"byteLength":432,
			"byteOffset":8808,
			"target":34962
		},
		{
			"buffer":0,
			"byteLength":288,
			"byteOffset":9240,
			"target":34962
		},
		{
			"buffer":0,
			"byteLength":288,
			"byteOffset":9528,
			"target":34962
		},
		{
			"buffer":0,
			"byteLength":72,
			"byteOffset":9816,
			"target":34963
		},
		{
			"buffer":0,
			"byteLength":288,
			"byteOffset":9888,
			"target":34962
		},
		{
			"buffer":0,
			"byteLength":288,
			"byteOffset":10176,
			"target":34962
		},
		{
			"buffer":0,
			"byteLength":288,
			"byteOffset":10464,
			"target":34962
		},
		{
			"buffer":0,
			"byteLength":288,
			"byteOffset":10752,
			"target":34962
		},
		{
			"buffer":0,
			"byteLength":72,
			"byteOffset":11040,
			"target":34963
		},
		{
			"buffer":0,
			"byteLength":288,
			"byteOffset":11112,
			"target":34962
		},
		{
			"buffer":0,
			"byteLength":288,
			"byteOffset":11400,
			"target":34962
		},
		{
			"buffer":0,
			"byteLength":576,
			"byteOffset":11688,
			"target":34962
		},
		{
			"buffer":0,
			"byteLength":576,
			"byteOffset":12264,
			"target":34962
		},
		{
			"buffer":0,
			"byteLength":168,
			"byteOffset":12840,
			"target":34963
		},
		{
			"buffer":0,
			"byteLength":576,
			"byteOffset":13008,
			"target":34962
		},
		{
			"buffer":0,
			"byteLength":576,
			"byteOffset":13584,
			"target":34962
		},
		{
			"buffer":0,
			"byteLength":288,
			"byteOffset":14160,
			"target":34962
		},
		{
			"buffer":0,
			"byteLength":288,
			"byteOffset":14448,
			"target":34962
		},
		{
			"buffer":0,
			"byteLength":72,
			"byteOffset":14736,
			"target":34963
		},
		{
			"buffer":0,
			"byteLength":288,
			"byteOffset":14808,
			"target":34962
		},
		{
			"buffer":0,
			"byteLength":288,
			"byteOffset":15096,
			"target":34962
		},
		{
			"buffer":0,
			"byteLength":288,
			"byteOffset":15384,
			"target":34962
		},
		{
			"buffer":0,
			"byteLength":288,
			"byteOffset":15672,
			"target":34962
		},
		{
			"buffer":0,
			"byteLength":288,
			"byteOffset":15960,
			"target":34962
		},
		{
			"buffer":0,
			"byteLength":288,
			"byteOffset":16248,
			"target":34962
		},
		{
			"buffer":0,
			"byteLength":1296,
			"byteOffset":16536,
			"target":34962
		},
		{
			"buffer":0,
			"byteLength":1296,
			"byteOffset":17832,
			"target":34962
		},
		{
			"buffer":0,
			"byteLength":408,
			"byteOffset":19128,
			"target":34963
		},
		{
			"buffer":0,
			"byteLength":1296,
			"byteOffset":19536,
			"target":34962
		},
		{
			"buffer":0,
			"byteLength":1296,
			"byteOffset":20832,
			"target":34962
		},
		{
			"buffer":0,
			"byteLength":288,
			"byteOffset":22128,
			"target":34962
		},
		{
			"buffer":0,
			"byteLength":288,
			"byteOffset":22416,
			"target":34962
		},
		{
			"buffer":0,
			"byteLength":72,
			"byteOffset":22704,
			"target":34963
		},
		{
			"buffer":0,
			"byteLength":288,
			"byteOffset":22776,
			"target":34962
		},
		{
			"buffer":0,
			"byteLength":288,
			"byteOffset":23064,
			"target":34962
		},
		{
			"buffer":0,
			"byteLength":288,
			"byteOffset":23352,
			"target":34962
		},
		{
			"buffer":0,
			"byteLength":288,
			"byteOffset":23640,
			"target":34962
		},
		{
			"buffer":0,
			"byteLength":72,
			"byteOffset":23928,
			"target":34963
		},
		{
			"buffer":0,
			"byteLength":288,
			"byteOffset":24000,
			"target":34962
		},
		{
			"buffer":0,
			"byteLength":288,
			"byteOffset":24288,
			"target":34962
		},
		{
			"buffer":0,
			"byteLength":288,
			"byteOffset":24576,
			"target":34962
		},
		{
			"buffer":0,
			"byteLength":288,
			"byteOffset":24864,
			"target":34962
		},
		{
			"buffer":0,
			"byteLength":72,
			"byteOffset":25152,
			"target":34963
		},
		{
			"buffer":0,
			"byteLength":288,
			"byteOffset":25224,
			"target":34962
		},
		{
			"buffer":0,
			"byteLength":288,
			"byteOffset":25512,
			"target":34962
		},
		{
			"buffer":0,
			"byteLength":576,
			"byteOffset":25800,
			"target":34962
		},
		{
			"buffer":0,
			"byteLength":576,
			"byteOffset":26376,
			"target":34962
		},
		{
			"buffer":0,
			"byteLength":168,
			"byteOffset":26952,
			"target":34963
		},
		{
			"buffer":0,
			"byteLength":576,
			"byteOffset":27120,
			"target":34962
		},
		{
			"buffer":0,
			"byteLength":576,
			"byteOffset":27696,
			"target":34962
		},
		{
			"buffer":0,
			"byteLength":288,
			"byteOffset":28272,
			"target":34962
		},
		{
			"buffer":0,
			"byteLength":288,
			"byteOffset":28560,
			"target":34962
		},
		{
			"buffer":0,
			"byteLength":288,
			"byteOffset":28848,
			"target":34962
		},
		{
			"buffer":0,
			"byteLength":288,
			"byteOffset":29136,
			"target":34962
		},
		{
			"buffer":0,
			"byteLength":288,
			"byteOffset":29424,
			"target":34962
		},
		{
			"buffer":0,
			"byteLength":288,
			"byteOffset":29712,
			"target":34962
		},
		{
			"buffer":0,
			"byteLength":288,
			"byteOffset":30000,
			"target":34962
		},
		{
			"buffer":0,
			"byteLength":288,
			"byteOffset":30288,
			"target":34962
		},
		{
			"buffer":0,
			"byteLength":288,
			"byteOffset":30576,
			"target":34962
		},
		{
			"buffer":0,
			"byteLength":288,
			"byteOffset":30864,
			"target":34962
		},
		{
			"buffer":0,
			"byteLength":288,
			"byteOffset":31152,
			"target":34962
		},
		{
			"buffer":0,
			"byteLength":288,
			"byteOffset":31440,
			"target":34962
		},
		{
			"buffer":0,
			"byteLength":288,
			"byteOffset":31728,
			"target":34962
		},
		{
			"buffer":0,
			"byteLength":288,
			"byteOffset":32016,
			"target":34962
		},
		{
			"buffer":0,
			"byteLength":288,
			"byteOffset":32304,
			"target":34962
		},
		{
			"buffer":0,
			"byteLength":288,
			"byteOffset":32592,
			"target":34962
		},
		{
			"buffer":0,
			"byteLength":288,
			"byteOffset":32880,
			"target":34962
		},
		{
			"buffer":0,
			"byteLength":288,
			"byteOffset":33168,
			"target":34962
		},
		{
			"buffer":0,
			"byteLength":288,
			"byteOffset":33456,
			"target":34962
		},
		{
			"buffer":0,
			"byteLength":288,
			"byteOffset":33744,
			"target":34962
		},
		{
			"buffer":0,
			"byteLength":288,
			"byteOffset":34032,
			"target":34962
		},
		{
			"buffer":0,
			"byteLength":288,
			"byteOffset":34320,
			"target":34962
		},
		{
			"buffer":0,
			"byteLength":288,
			"byteOffset":34608,
			"target":34962
		},
		{
			"buffer":0,
			"byteLength":288,
			"byteOffset":34896,
			"target":34962
		},
		{
			"buffer":0,
			"byteLength":288,
			"byteOffset":35184,
			"target":34962
		},
		{
			"buffer":0,
			"byteLength":288,
			"byteOffset":35472,
			"target":34962
		},
		{
			"buffer":0,
			"byteLength":288,
			"byteOffset":35760,
			"target":34962
		},
		{
			"buffer":0,
			"byteLength":288,
			"byteOffset":36048,
			"target":34962
		},
		{
			"buffer":0,
			"byteLength":288,
			"byteOffset":36336,
			"target":34962
		},
		{
			"buffer":0,
			"byteLength":288,
			"byteOffset":36624,
			"target":34962
		},
		{
			"buffer":0,
			"byteLength":288,
			"byteOffset":36912,
			"target":34962
		},
		{
			"buffer":0,
			"byteLength":288,
			"byteOffset":37200,
			"target":34962
		},
		{
			"buffer":0,
			"byteLength":576,
			"byteOffset":37488,
			"target":34962
		},
		{
			"buffer":0,
			"byteLength":576,
			"byteOffset":38064,
			"target":34962
		},
		{
			"buffer":0,
			"byteLength":168,
			"byteOffset":38640,
			"target":34963
		},
		{
			"buffer":0,
			"byteLength":576,
			"byteOffset":38808,
			"target":34962
		},
		{
			"buffer":0,
			"byteLength":576,
			"byteOffset":39384,
			"target":34962
		},
		{
			"buffer":0,
			"byteLength":1992,
			"byteOffset":39960,
			"target":34962
		},
		{
			"buffer":0,
			"byteLength":1992,
			"byteOffset":41952,
			"target":34962
		},
		{
			"buffer":0,
			"byteLength":624,
			"byteOffset":43944,
			"target":34963
		},
		{
			"buffer":0,
			"byteLength":1992,
			"byteOffset":44568,
			"target":34962
		},
		{
			"buffer":0,
			"byteLength":1992,
			"byteOffset":46560,
			"target":34962
		},
		{
			"buffer":0,
			"byteLength":1152,
			"byteOffset":48552,
			"target":34962
		},
		{
			"buffer":0,
			"byteLength":1152,
			"byteOffset":49704,
			"target":34962
		},
		{
			"buffer":0,
			"byteLength":360,
			"byteOffset":50856,
			"target":34963
		},
		{
			"buffer":0,
			"byteLength":1152,
			"byteOffset":51216,
			"target":34962
		},
		{
			"buffer":0,
			"byteLength":1152,
			"byteOffset":52368,
			"target":34962
		},
		{
			"buffer":0,
			"byteLength":288,
			"byteOffset":53520,
			"target":34962
		},
		{
			"buffer":0,
			"byteLength":288,
			"byteOffset":53808,
			"target":34962
		},
		{
			"buffer":0,
			"byteLength":72,
			"byteOffset":54096,
			"target":34963
		},
		{
			"buffer":0,
			"byteLength":288,
			"byteOffset":54168,
			"target":34962
		},
		{
			"buffer":0,
			"byteLength":288,
			"byteOffset":54456,
			"target":34962
		},
		{
			"buffer":0,
			"byteLength":111408,
			"byteOffset":54744,
			"target":34962
		},
		{
			"buffer":0,
			"byteLength":111408,
			"byteOffset":166152,
			"target":34962
		},
		{
			"buffer":0,
			"byteLength":39000,
			"byteOffset":277560,
			"target":34963
		},
		{
			"buffer":0,
			"byteLength":494244,
			"byteOffset":316560,
			"target":34962
		},
		{
			"buffer":0,
			"byteLength":494244,
			"byteOffset":810804,
			"target":34962
		},
		{
			"buffer":0,
			"byteLength":82374,
			"byteOffset":1305048,
			"target":34963
		}
	],
	"buffers":[
		{
			"byteLength":1387424,
			"uri":"Piece_0_5.bin"
		}
	]
}
