{
	"asset":{
		"generator":"Khronos glTF Blender I/O v5.2.39",
		"version":"2.0"
	},
	"scene":0,
	"scenes":[
		{
			"extras":{
				"vrm_addon_extension":{
					"vrm0_material_gltf_property_names":[
						{
							"name":"_Color",
							"value":"_Color"
						},
						{
							"name":"_MainTex_ST",
							"value":"_MainTex_ST"
						},
						{
							"name":"_MainTex_ST_S",
							"value":"_MainTex_ST_S"
						},
						{
							"name":"_MainTex_ST_T",
							"value":"_MainTex_ST_T"
						},
						{
							"name":"_MetallicGlossMap_ST",
							"value":"_MetallicGlossMap_ST"
						},
						{
							"name":"_MetallicGlossMap_ST_S",
							"value":"_MetallicGlossMap_ST_S"
						},
						{
							"name":"_MetallicGlossMap_ST_T",
							"value":"_MetallicGlossMap_ST_T"
						},
						{
							"name":"_BumpMap_ST",
							"value":"_BumpMap_ST"
						},
						{
							"name":"_BumpMap_ST_S",
							"value":"_BumpMap_ST_S"
						},
						{
							"name":"_BumpMap_ST_T",
							"value":"_BumpMap_ST_T"
						},
						{
							"name":"_ParallaxMap_ST",
							"value":"_ParallaxMap_ST"
						},
						{
							"name":"_ParallaxMap_ST_S",
							"value":"_ParallaxMap_ST_S"
						},
						{
							"name":"_ParallaxMap_ST_T",
							"value":"_ParallaxMap_ST_T"
						},
						{
							"name":"_OcclusionMap_ST",
							"value":"_OcclusionMap_ST"
						},
						{
							"name":"_OcclusionMap_ST_S",
							"value":"_OcclusionMap_ST_S"
						},
						{
							"name":"_OcclusionMap_ST_T",
							"value":"_OcclusionMap_ST_T"
						},
						{
							"name":"_EmissionColor",
							"value":"_EmissionColor"
						},
						{
							"name":"_EmissionMap_ST",
							"value":"_EmissionMap_ST"
						},
						{
							"name":"_EmissionMap_ST_S",
							"value":"_EmissionMap_ST_S"
						},
						{
							"name":"_EmissionMap_ST_T",
							"value":"_EmissionMap_ST_T"
						},
						{
							"name":"_DetailMask_ST",
							"value":"_DetailMask_ST"
						},
						{
							"name":"_DetailMask_ST_S",
							"value":"_DetailMask_ST_S"
						},
						{
							"name":"_DetailMask_ST_T",
							"value":"_DetailMask_ST_T"
						},
						{
							"name":"_DetailAlbedoMap_ST",
							"value":"_DetailAlbedoMap_ST"
						},
						{
							"name":"_DetailAlbedoMap_ST_S",
							"value":"_DetailAlbedoMap_ST_S"
						},
						{
							"name":"_DetailAlbedoMap_ST_T",
							"value":"_DetailAlbedoMap_ST_T"
						},
						{
							"name":"_DetailNormalMap_ST",
							"value":"_DetailNormalMap_ST"
						},
						{
							"name":"_DetailNormalMap_ST_S",
							"value":"_DetailNormalMap_ST_S"
						},
						{
							"name":"_DetailNormalMap_ST_T",
							"value":"_DetailNormalMap_ST_T"
						}
					],
					"vrm0_material_mtoon0_property_names":[
						{
							"name":"_Color",
							"value":"_Color"
						},
						{
							"name":"_ShadeColor",
							"value":"_ShadeColor"
						},
						{
							"name":"_MainTex_ST",
							"value":"_MainTex_ST"
						},
						{
							"name":"_MainTex_ST_S",
							"value":"_MainTex_ST_S"
						},
						{
							"name":"_MainTex_ST_T",
							"value":"_MainTex_ST_T"
						},
						{
							"name":"_ShadeTexture_ST",
							"value":"_ShadeTexture_ST"
						},
						{
							"name":"_ShadeTexture_ST_S",
							"value":"_ShadeTexture_ST_S"
						},
						{
							"name":"_ShadeTexture_ST_T",
							"value":"_ShadeTexture_ST_T"
						},
						{
							"name":"_BumpMap_ST",
							"value":"_BumpMap_ST"
						},
						{
							"name":"_BumpMap_ST_S",
							"value":"_BumpMap_ST_S"
						},
						{
							"name":"_BumpMap_ST_T",
							"value":"_BumpMap_ST_T"
						},
						{
							"name":"_ReceiveShadowTexture_ST",
							"value":"_ReceiveShadowTexture_ST"
						},
						{
							"name":"_ReceiveShadowTexture_ST_S",
							"value":"_ReceiveShadowTexture_ST_S"
						},
						{
							"name":"_ReceiveShadowTexture_ST_T",
							"value":"_ReceiveShadowTexture_ST_T"
						},
						{
							"name":"_ShadingGradeTexture_ST",
							"value":"_ShadingGradeTexture_ST"
						},
						{
							"name":"_ShadingGradeTexture_ST_S",
							"value":"_ShadingGradeTexture_ST_S"
						},
						{
							"name":"_ShadingGradeTexture_ST_T",
							"value":"_ShadingGradeTexture_ST_T"
						},
						{
							"name":"_RimColor",
							"value":"_RimColor"
						},
						{
							"name":"_RimTexture_ST",
							"value":"_RimTexture_ST"
						},
						{
							"name":"_RimTexture_ST_S",
							"value":"_RimTexture_ST_S"
						},
						{
							"name":"_RimTexture_ST_T",
							"value":"_RimTexture_ST_T"
						},
						{
							"name":"_SphereAdd_ST",
							"value":"_SphereAdd_ST"
						},
						{
							"name":"_SphereAdd_ST_S",
							"value":"_SphereAdd_ST_S"
						},
						{
							"name":"_SphereAdd_ST_T",
							"value":"_SphereAdd_ST_T"
						},
						{
							"name":"_EmissionColor",
							"value":"_EmissionColor"
						},
						{
							"name":"_EmissionMap_ST",
							"value":"_EmissionMap_ST"
						},
						{
							"name":"_EmissionMap_ST_S",
							"value":"_EmissionMap_ST_S"
						},
						{
							"name":"_EmissionMap_ST_T",
							"value":"_EmissionMap_ST_T"
						},
						{
							"name":"_OutlineWidthTexture_ST",
							"value":"_OutlineWidthTexture_ST"
						},
						{
							"name":"_OutlineWidthTexture_ST_S",
							"value":"_OutlineWidthTexture_ST_S"
						},
						{
							"name":"_OutlineWidthTexture_ST_T",
							"value":"_OutlineWidthTexture_ST_T"
						},
						{
							"name":"_OutlineColor",
							"value":"_OutlineColor"
						},
						{
							"name":"_UvAnimMaskTexture_ST",
							"value":"_UvAnimMaskTexture_ST"
						},
						{
							"name":"_UvAnimMaskTexture_ST_S",
							"value":"_UvAnimMaskTexture_ST_S"
						},
						{
							"name":"_UvAnimMaskTexture_ST_T",
							"value":"_UvAnimMaskTexture_ST_T"
						}
					]
				},
				"rka":{}
			},
			"name":"Scene",
			"nodes":[
				0,
				1,
				2,
				3,
				4,
				5,
				6,
				7,
				8,
				9,
				10,
				11,
				12,
				13,
				14,
				15,
				16,
				17,
				18,
				19,
				20,
				21,
				22,
				23,
				24,
				25,
				26,
				27,
				28,
				29,
				30,
				31,
				32,
				33,
				34,
				35,
				36,
				37,
				38,
				39,
				40,
				41,
				42,
				43,
				44,
				45,
				46,
				47,
				48,
				49,
				50,
				51,
				52,
				53,
				54,
				55,
				56,
				57,
				58,
				59,
				60,
				61,
				62,
				63,
				64,
				65,
				66,
				67,
				68,
				69,
				70,
				71,
				72,
				73,
				74,
				75,
				76,
				77,
				78,
				79,
				80,
				81
			]
		}
	],
	"nodes":[
		{
			"mesh":0,
			"name":"District_city_2_2_Bldg_009_h21m"
		},
		{
			"extras":{
				"proxy_for":"District_city_2_2_Bldg_009_h21m"
			},
			"mesh":1,
			"name":"District_city_2_2_Bldg_009_h21m-colonly"
		},
		{
			"mesh":2,
			"name":"District_city_2_2_Bldg_011_h21m"
		},
		{
			"extras":{
				"proxy_for":"District_city_2_2_Bldg_011_h21m"
			},
			"mesh":3,
			"name":"District_city_2_2_Bldg_011_h21m-colonly"
		},
		{
			"mesh":4,
			"name":"District_city_2_2_Bldg_012_h20m"
		},
		{
			"extras":{
				"proxy_for":"District_city_2_2_Bldg_012_h20m"
			},
			"mesh":5,
			"name":"District_city_2_2_Bldg_012_h20m-colonly"
		},
		{
			"mesh":6,
			"name":"District_city_2_2_Bldg_014_h18m"
		},
		{
			"extras":{
				"proxy_for":"District_city_2_2_Bldg_014_h18m"
			},
			"mesh":7,
			"name":"District_city_2_2_Bldg_014_h18m-colonly"
		},
		{
			"mesh":8,
			"name":"District_city_2_2_Bldg_015_h18m"
		},
		{
			"extras":{
				"proxy_for":"District_city_2_2_Bldg_015_h18m"
			},
			"mesh":9,
			"name":"District_city_2_2_Bldg_015_h18m-colonly"
		},
		{
			"mesh":10,
			"name":"District_city_2_2_Bldg_016_h17m"
		},
		{
			"extras":{
				"proxy_for":"District_city_2_2_Bldg_016_h17m"
			},
			"mesh":11,
			"name":"District_city_2_2_Bldg_016_h17m-colonly"
		},
		{
			"mesh":12,
			"name":"District_city_2_2_Bldg_017_h17m"
		},
		{
			"extras":{
				"proxy_for":"District_city_2_2_Bldg_017_h17m"
			},
			"mesh":13,
			"name":"District_city_2_2_Bldg_017_h17m-colonly"
		},
		{
			"mesh":14,
			"name":"District_city_2_2_Bldg_018_h17m"
		},
		{
			"extras":{
				"proxy_for":"District_city_2_2_Bldg_018_h17m"
			},
			"mesh":15,
			"name":"District_city_2_2_Bldg_018_h17m-colonly"
		},
		{
			"mesh":16,
			"name":"District_city_2_2_Bldg_019_h17m"
		},
		{
			"extras":{
				"proxy_for":"District_city_2_2_Bldg_019_h17m"
			},
			"mesh":17,
			"name":"District_city_2_2_Bldg_019_h17m-colonly"
		},
		{
			"mesh":18,
			"name":"District_city_2_2_Bldg_020_h16m"
		},
		{
			"extras":{
				"proxy_for":"District_city_2_2_Bldg_020_h16m"
			},
			"mesh":19,
			"name":"District_city_2_2_Bldg_020_h16m-colonly"
		},
		{
			"mesh":20,
			"name":"District_city_2_2_Bldg_021_h16m"
		},
		{
			"extras":{
				"proxy_for":"District_city_2_2_Bldg_021_h16m"
			},
			"mesh":21,
			"name":"District_city_2_2_Bldg_021_h16m-colonly"
		},
		{
			"mesh":22,
			"name":"District_city_2_2_Bldg_022_h16m"
		},
		{
			"extras":{
				"proxy_for":"District_city_2_2_Bldg_022_h16m"
			},
			"mesh":23,
			"name":"District_city_2_2_Bldg_022_h16m-colonly"
		},
		{
			"mesh":24,
			"name":"District_city_2_2_Bldg_023_h16m"
		},
		{
			"extras":{
				"proxy_for":"District_city_2_2_Bldg_023_h16m"
			},
			"mesh":25,
			"name":"District_city_2_2_Bldg_023_h16m-colonly"
		},
		{
			"mesh":26,
			"name":"District_city_2_2_Bldg_024_h15m"
		},
		{
			"extras":{
				"proxy_for":"District_city_2_2_Bldg_024_h15m"
			},
			"mesh":27,
			"name":"District_city_2_2_Bldg_024_h15m-colonly"
		},
		{
			"mesh":28,
			"name":"District_city_2_2_Bldg_025_h15m"
		},
		{
			"extras":{
				"proxy_for":"District_city_2_2_Bldg_025_h15m"
			},
			"mesh":29,
			"name":"District_city_2_2_Bldg_025_h15m-colonly"
		},
		{
			"mesh":30,
			"name":"District_city_2_2_Bldg_026_h13m"
		},
		{
			"extras":{
				"proxy_for":"District_city_2_2_Bldg_026_h13m"
			},
			"mesh":31,
			"name":"District_city_2_2_Bldg_026_h13m-colonly"
		},
		{
			"mesh":32,
			"name":"District_city_2_2_Bldg_027_h12m"
		},
		{
			"extras":{
				"proxy_for":"District_city_2_2_Bldg_027_h12m"
			},
			"mesh":33,
			"name":"District_city_2_2_Bldg_027_h12m-colonly"
		},
		{
			"mesh":34,
			"name":"District_city_2_2_Bldg_028_h12m"
		},
		{
			"extras":{
				"proxy_for":"District_city_2_2_Bldg_028_h12m"
			},
			"mesh":35,
			"name":"District_city_2_2_Bldg_028_h12m-colonly"
		},
		{
			"mesh":36,
			"name":"District_city_2_2_Bldg_029_h12m"
		},
		{
			"extras":{
				"proxy_for":"District_city_2_2_Bldg_029_h12m"
			},
			"mesh":37,
			"name":"District_city_2_2_Bldg_029_h12m-colonly"
		},
		{
			"mesh":38,
			"name":"District_city_2_2_Bldg_030_h12m"
		},
		{
			"extras":{
				"proxy_for":"District_city_2_2_Bldg_030_h12m"
			},
			"mesh":39,
			"name":"District_city_2_2_Bldg_030_h12m-colonly"
		},
		{
			"mesh":40,
			"name":"District_city_2_2_Bldg_031_h11m"
		},
		{
			"extras":{
				"proxy_for":"District_city_2_2_Bldg_031_h11m"
			},
			"mesh":41,
			"name":"District_city_2_2_Bldg_031_h11m-colonly"
		},
		{
			"mesh":42,
			"name":"District_city_2_2_Bldg_032_h11m"
		},
		{
			"extras":{
				"proxy_for":"District_city_2_2_Bldg_032_h11m"
			},
			"mesh":43,
			"name":"District_city_2_2_Bldg_032_h11m-colonly"
		},
		{
			"mesh":44,
			"name":"District_city_2_2_Bldg_033_h11m"
		},
		{
			"extras":{
				"proxy_for":"District_city_2_2_Bldg_033_h11m"
			},
			"mesh":45,
			"name":"District_city_2_2_Bldg_033_h11m-colonly"
		},
		{
			"mesh":46,
			"name":"District_city_2_2_Bldg_034_h9m"
		},
		{
			"extras":{
				"proxy_for":"District_city_2_2_Bldg_034_h9m"
			},
			"mesh":47,
			"name":"District_city_2_2_Bldg_034_h9m-colonly"
		},
		{
			"mesh":48,
			"name":"District_city_2_2_Bldg_035_h6m"
		},
		{
			"extras":{
				"proxy_for":"District_city_2_2_Bldg_035_h6m"
			},
			"mesh":49,
			"name":"District_city_2_2_Bldg_035_h6m-colonly"
		},
		{
			"mesh":50,
			"name":"District_city_2_2_Bldg_036_h6m"
		},
		{
			"extras":{
				"proxy_for":"District_city_2_2_Bldg_036_h6m"
			},
			"mesh":51,
			"name":"District_city_2_2_Bldg_036_h6m-colonly"
		},
		{
			"mesh":52,
			"name":"District_city_2_2_Bldg_037_h5m"
		},
		{
			"extras":{
				"proxy_for":"District_city_2_2_Bldg_037_h5m"
			},
			"mesh":53,
			"name":"District_city_2_2_Bldg_037_h5m-colonly"
		},
		{
			"mesh":54,
			"name":"District_city_2_2_Bldg_039_h3m"
		},
		{
			"extras":{
				"proxy_for":"District_city_2_2_Bldg_039_h3m"
			},
			"mesh":55,
			"name":"District_city_2_2_Bldg_039_h3m-colonly"
		},
		{
			"mesh":56,
			"name":"District_city_2_2_Bldg_040_h3m"
		},
		{
			"extras":{
				"proxy_for":"District_city_2_2_Bldg_040_h3m"
			},
			"mesh":57,
			"name":"District_city_2_2_Bldg_040_h3m-colonly"
		},
		{
			"mesh":58,
			"name":"District_city_2_2_Bridge_001_h8m"
		},
		{
			"extras":{
				"proxy_for":"District_city_2_2_Bridge_001_h8m"
			},
			"mesh":59,
			"name":"District_city_2_2_Bridge_001_h8m-colonly"
		},
		{
			"mesh":60,
			"name":"District_city_2_2_Landmark_000_h201m"
		},
		{
			"extras":{
				"proxy_for":"District_city_2_2_Landmark_000_h201m"
			},
			"mesh":61,
			"name":"District_city_2_2_Landmark_000_h201m-colonly"
		},
		{
			"mesh":62,
			"name":"District_city_2_2_Landmark_001_h177m"
		},
		{
			"extras":{
				"proxy_for":"District_city_2_2_Landmark_001_h177m"
			},
			"mesh":63,
			"name":"District_city_2_2_Landmark_001_h177m-colonly"
		},
		{
			"mesh":64,
			"name":"District_city_2_2_Road"
		},
		{
			"mesh":65,
			"name":"District_city_2_2_Terrain-col"
		},
		{
			"extras":{
				"lane_offset":-1.75
			},
			"name":"lane_seam_1_2_2_2_0_entry_hi_0",
			"translation":[
				-252,
				2.5999999046325684,
				0
			]
		},
		{
			"name":"lane_seam_1_2_2_2_0_entry_hi_1",
			"translation":[
				-226.8000030517578,
				2.5999999046325684,
				0
			]
		},
		{
			"extras":{
				"lane_offset":-1.75,
				"end_behavior":"CHAIN",
				"next_routes":"seam_1_2_2_2_0_entry_lo"
			},
			"name":"lane_seam_1_2_2_2_0_exit_hi_0",
			"translation":[
				-226.8000030517578,
				2.5999999046325684,
				0
			]
		},
		{
			"name":"lane_seam_1_2_2_2_0_exit_hi_1",
			"translation":[
				-252,
				2.5999999046325684,
				0
			]
		},
		{
			"extras":{
				"lane_offset":-1.75
			},
			"name":"lane_seam_2_1_2_2_0_entry_hi_0",
			"translation":[
				0,
				2.5999999046325684,
				252
			]
		},
		{
			"name":"lane_seam_2_1_2_2_0_entry_hi_1",
			"translation":[
				0,
				2.5999999046325684,
				226.8000030517578
			]
		},
		{
			"extras":{
				"lane_offset":-1.75,
				"end_behavior":"CHAIN",
				"next_routes":"seam_2_1_2_2_0_entry_lo"
			},
			"name":"lane_seam_2_1_2_2_0_exit_hi_0",
			"translation":[
				0,
				2.5999999046325684,
				226.8000030517578
			]
		},
		{
			"name":"lane_seam_2_1_2_2_0_exit_hi_1",
			"translation":[
				0,
				2.5999999046325684,
				252
			]
		},
		{
			"extras":{
				"lane_offset":-1.75
			},
			"name":"lane_seam_2_2_2_3_0_entry_lo_0",
			"translation":[
				0,
				2.5999999046325684,
				-252
			]
		},
		{
			"name":"lane_seam_2_2_2_3_0_entry_lo_1",
			"translation":[
				0,
				2.5999999046325684,
				-226.8000030517578
			]
		},
		{
			"extras":{
				"lane_offset":-1.75,
				"end_behavior":"CHAIN",
				"next_routes":"seam_2_2_2_3_0_entry_hi"
			},
			"name":"lane_seam_2_2_2_3_0_exit_lo_0",
			"translation":[
				0,
				2.5999999046325684,
				-226.8000030517578
			]
		},
		{
			"name":"lane_seam_2_2_2_3_0_exit_lo_1",
			"translation":[
				0,
				2.5999999046325684,
				-252
			]
		},
		{
			"extras":{
				"lane_offset":-1.75
			},
			"name":"lane_seam_2_2_3_2_0_entry_lo_0",
			"translation":[
				252,
				2.5999999046325684,
				0
			]
		},
		{
			"name":"lane_seam_2_2_3_2_0_entry_lo_1",
			"translation":[
				226.8000030517578,
				2.5999999046325684,
				0
			]
		},
		{
			"extras":{
				"lane_offset":-1.75,
				"end_behavior":"CHAIN",
				"next_routes":"seam_2_2_3_2_0_entry_hi"
			},
			"name":"lane_seam_2_2_3_2_0_exit_lo_0",
			"translation":[
				226.8000030517578,
				2.5999999046325684,
				0
			]
		},
		{
			"name":"lane_seam_2_2_3_2_0_exit_lo_1",
			"translation":[
				252,
				2.5999999046325684,
				0
			]
		}
	],
	"materials":[
		{
			"doubleSided":true,
			"extras":{
				"vrm_addon_extension":{
					"mtoon1":{}
				}
			},
			"name":"M_Collision",
			"pbrMetallicRoughness":{
				"baseColorFactor":[
					0.8999999761581421,
					0.20000000298023224,
					0.550000011920929,
					1
				],
				"metallicFactor":0,
				"roughnessFactor":0.5
			}
		},
		{
			"doubleSided":true,
			"extras":{
				"vrm_addon_extension":{
					"mtoon1":{}
				}
			},
			"name":"M_Asphalt",
			"pbrMetallicRoughness":{
				"baseColorFactor":[
					0.2800000011920929,
					0.30000001192092896,
					0.33000001311302185,
					1
				],
				"metallicFactor":0,
				"roughnessFactor":0.5
			}
		},
		{
			"doubleSided":true,
			"extras":{
				"vrm_addon_extension":{
					"mtoon1":{}
				}
			},
			"name":"M_Dirt",
			"pbrMetallicRoughness":{
				"baseColorFactor":[
					0.4000000059604645,
					0.3400000035762787,
					0.25999999046325684,
					1
				],
				"metallicFactor":0,
				"roughnessFactor":0.5
			}
		}
	],
	"meshes":[
		{
			"name":"District_city_2_2_Bldg_009_h21m",
			"primitives":[
				{
					"attributes":{
						"POSITION":0,
						"NORMAL":1
					},
					"indices":2
				}
			]
		},
		{
			"name":"District_city_2_2_Bldg_009_h21m.001",
			"primitives":[
				{
					"attributes":{
						"POSITION":3,
						"NORMAL":4
					},
					"indices":2,
					"material":0
				}
			]
		},
		{
			"name":"District_city_2_2_Bldg_011_h21m",
			"primitives":[
				{
					"attributes":{
						"POSITION":5,
						"NORMAL":6
					},
					"indices":7
				}
			]
		},
		{
			"name":"District_city_2_2_Bldg_011_h21m.001",
			"primitives":[
				{
					"attributes":{
						"POSITION":8,
						"NORMAL":9
					},
					"indices":7,
					"material":0
				}
			]
		},
		{
			"name":"District_city_2_2_Bldg_012_h20m",
			"primitives":[
				{
					"attributes":{
						"POSITION":10,
						"NORMAL":11
					},
					"indices":12
				}
			]
		},
		{
			"name":"District_city_2_2_Bldg_012_h20m.001",
			"primitives":[
				{
					"attributes":{
						"POSITION":13,
						"NORMAL":14
					},
					"indices":12,
					"material":0
				}
			]
		},
		{
			"name":"District_city_2_2_Bldg_014_h18m",
			"primitives":[
				{
					"attributes":{
						"POSITION":15,
						"NORMAL":16
					},
					"indices":17
				}
			]
		},
		{
			"name":"District_city_2_2_Bldg_014_h18m.001",
			"primitives":[
				{
					"attributes":{
						"POSITION":18,
						"NORMAL":19
					},
					"indices":17,
					"material":0
				}
			]
		},
		{
			"name":"District_city_2_2_Bldg_015_h18m",
			"primitives":[
				{
					"attributes":{
						"POSITION":20,
						"NORMAL":21
					},
					"indices":22
				}
			]
		},
		{
			"name":"District_city_2_2_Bldg_015_h18m.001",
			"primitives":[
				{
					"attributes":{
						"POSITION":23,
						"NORMAL":24
					},
					"indices":22,
					"material":0
				}
			]
		},
		{
			"name":"District_city_2_2_Bldg_016_h17m",
			"primitives":[
				{
					"attributes":{
						"POSITION":25,
						"NORMAL":26
					},
					"indices":27
				}
			]
		},
		{
			"name":"District_city_2_2_Bldg_016_h17m.001",
			"primitives":[
				{
					"attributes":{
						"POSITION":28,
						"NORMAL":29
					},
					"indices":27,
					"material":0
				}
			]
		},
		{
			"name":"District_city_2_2_Bldg_017_h17m",
			"primitives":[
				{
					"attributes":{
						"POSITION":30,
						"NORMAL":31
					},
					"indices":32
				}
			]
		},
		{
			"name":"District_city_2_2_Bldg_017_h17m.001",
			"primitives":[
				{
					"attributes":{
						"POSITION":33,
						"NORMAL":34
					},
					"indices":32,
					"material":0
				}
			]
		},
		{
			"name":"District_city_2_2_Bldg_018_h17m",
			"primitives":[
				{
					"attributes":{
						"POSITION":35,
						"NORMAL":36
					},
					"indices":37
				}
			]
		},
		{
			"name":"District_city_2_2_Bldg_018_h17m.001",
			"primitives":[
				{
					"attributes":{
						"POSITION":38,
						"NORMAL":39
					},
					"indices":37,
					"material":0
				}
			]
		},
		{
			"name":"District_city_2_2_Bldg_019_h17m",
			"primitives":[
				{
					"attributes":{
						"POSITION":40,
						"NORMAL":41
					},
					"indices":42
				}
			]
		},
		{
			"name":"District_city_2_2_Bldg_019_h17m.001",
			"primitives":[
				{
					"attributes":{
						"POSITION":43,
						"NORMAL":44
					},
					"indices":42,
					"material":0
				}
			]
		},
		{
			"name":"District_city_2_2_Bldg_020_h16m",
			"primitives":[
				{
					"attributes":{
						"POSITION":45,
						"NORMAL":46
					},
					"indices":47
				}
			]
		},
		{
			"name":"District_city_2_2_Bldg_020_h16m.001",
			"primitives":[
				{
					"attributes":{
						"POSITION":48,
						"NORMAL":49
					},
					"indices":47,
					"material":0
				}
			]
		},
		{
			"name":"District_city_2_2_Bldg_021_h16m",
			"primitives":[
				{
					"attributes":{
						"POSITION":50,
						"NORMAL":51
					},
					"indices":52
				}
			]
		},
		{
			"name":"District_city_2_2_Bldg_021_h16m.001",
			"primitives":[
				{
					"attributes":{
						"POSITION":53,
						"NORMAL":54
					},
					"indices":52,
					"material":0
				}
			]
		},
		{
			"name":"District_city_2_2_Bldg_022_h16m",
			"primitives":[
				{
					"attributes":{
						"POSITION":55,
						"NORMAL":56
					},
					"indices":57
				}
			]
		},
		{
			"name":"District_city_2_2_Bldg_022_h16m.001",
			"primitives":[
				{
					"attributes":{
						"POSITION":58,
						"NORMAL":59
					},
					"indices":57,
					"material":0
				}
			]
		},
		{
			"name":"District_city_2_2_Bldg_023_h16m",
			"primitives":[
				{
					"attributes":{
						"POSITION":60,
						"NORMAL":61
					},
					"indices":62
				}
			]
		},
		{
			"name":"District_city_2_2_Bldg_023_h16m.001",
			"primitives":[
				{
					"attributes":{
						"POSITION":63,
						"NORMAL":64
					},
					"indices":62,
					"material":0
				}
			]
		},
		{
			"name":"District_city_2_2_Bldg_024_h15m",
			"primitives":[
				{
					"attributes":{
						"POSITION":65,
						"NORMAL":66
					},
					"indices":67
				}
			]
		},
		{
			"name":"District_city_2_2_Bldg_024_h15m.001",
			"primitives":[
				{
					"attributes":{
						"POSITION":68,
						"NORMAL":69
					},
					"indices":67,
					"material":0
				}
			]
		},
		{
			"name":"District_city_2_2_Bldg_025_h15m",
			"primitives":[
				{
					"attributes":{
						"POSITION":70,
						"NORMAL":71
					},
					"indices":72
				}
			]
		},
		{
			"name":"District_city_2_2_Bldg_025_h15m.001",
			"primitives":[
				{
					"attributes":{
						"POSITION":73,
						"NORMAL":74
					},
					"indices":72,
					"material":0
				}
			]
		},
		{
			"name":"District_city_2_2_Bldg_026_h13m",
			"primitives":[
				{
					"attributes":{
						"POSITION":75,
						"NORMAL":76
					},
					"indices":7
				}
			]
		},
		{
			"name":"District_city_2_2_Bldg_026_h13m.001",
			"primitives":[
				{
					"attributes":{
						"POSITION":77,
						"NORMAL":78
					},
					"indices":7,
					"material":0
				}
			]
		},
		{
			"name":"District_city_2_2_Bldg_027_h12m",
			"primitives":[
				{
					"attributes":{
						"POSITION":79,
						"NORMAL":80
					},
					"indices":81
				}
			]
		},
		{
			"name":"District_city_2_2_Bldg_027_h12m.001",
			"primitives":[
				{
					"attributes":{
						"POSITION":82,
						"NORMAL":83
					},
					"indices":81,
					"material":0
				}
			]
		},
		{
			"name":"District_city_2_2_Bldg_028_h12m",
			"primitives":[
				{
					"attributes":{
						"POSITION":84,
						"NORMAL":85
					},
					"indices":17
				}
			]
		},
		{
			"name":"District_city_2_2_Bldg_028_h12m.001",
			"primitives":[
				{
					"attributes":{
						"POSITION":86,
						"NORMAL":87
					},
					"indices":17,
					"material":0
				}
			]
		},
		{
			"name":"District_city_2_2_Bldg_029_h12m",
			"primitives":[
				{
					"attributes":{
						"POSITION":88,
						"NORMAL":89
					},
					"indices":90
				}
			]
		},
		{
			"name":"District_city_2_2_Bldg_029_h12m.001",
			"primitives":[
				{
					"attributes":{
						"POSITION":91,
						"NORMAL":92
					},
					"indices":90,
					"material":0
				}
			]
		},
		{
			"name":"District_city_2_2_Bldg_030_h12m",
			"primitives":[
				{
					"attributes":{
						"POSITION":93,
						"NORMAL":94
					},
					"indices":67
				}
			]
		},
		{
			"name":"District_city_2_2_Bldg_030_h12m.001",
			"primitives":[
				{
					"attributes":{
						"POSITION":95,
						"NORMAL":96
					},
					"indices":67,
					"material":0
				}
			]
		},
		{
			"name":"District_city_2_2_Bldg_031_h11m",
			"primitives":[
				{
					"attributes":{
						"POSITION":97,
						"NORMAL":98
					},
					"indices":99
				}
			]
		},
		{
			"name":"District_city_2_2_Bldg_031_h11m.001",
			"primitives":[
				{
					"attributes":{
						"POSITION":100,
						"NORMAL":101
					},
					"indices":99,
					"material":0
				}
			]
		},
		{
			"name":"District_city_2_2_Bldg_032_h11m",
			"primitives":[
				{
					"attributes":{
						"POSITION":102,
						"NORMAL":103
					},
					"indices":104
				}
			]
		},
		{
			"name":"District_city_2_2_Bldg_032_h11m.001",
			"primitives":[
				{
					"attributes":{
						"POSITION":105,
						"NORMAL":106
					},
					"indices":104,
					"material":0
				}
			]
		},
		{
			"name":"District_city_2_2_Bldg_033_h11m",
			"primitives":[
				{
					"attributes":{
						"POSITION":107,
						"NORMAL":108
					},
					"indices":109
				}
			]
		},
		{
			"name":"District_city_2_2_Bldg_033_h11m.001",
			"primitives":[
				{
					"attributes":{
						"POSITION":110,
						"NORMAL":111
					},
					"indices":109,
					"material":0
				}
			]
		},
		{
			"name":"District_city_2_2_Bldg_034_h9m",
			"primitives":[
				{
					"attributes":{
						"POSITION":112,
						"NORMAL":113
					},
					"indices":67
				}
			]
		},
		{
			"name":"District_city_2_2_Bldg_034_h9m.001",
			"primitives":[
				{
					"attributes":{
						"POSITION":114,
						"NORMAL":115
					},
					"indices":67,
					"material":0
				}
			]
		},
		{
			"name":"District_city_2_2_Bldg_035_h6m",
			"primitives":[
				{
					"attributes":{
						"POSITION":116,
						"NORMAL":117
					},
					"indices":118
				}
			]
		},
		{
			"name":"District_city_2_2_Bldg_035_h6m.001",
			"primitives":[
				{
					"attributes":{
						"POSITION":119,
						"NORMAL":120
					},
					"indices":118,
					"material":0
				}
			]
		},
		{
			"name":"District_city_2_2_Bldg_036_h6m",
			"primitives":[
				{
					"attributes":{
						"POSITION":121,
						"NORMAL":122
					},
					"indices":123
				}
			]
		},
		{
			"name":"District_city_2_2_Bldg_036_h6m.001",
			"primitives":[
				{
					"attributes":{
						"POSITION":124,
						"NORMAL":125
					},
					"indices":123,
					"material":0
				}
			]
		},
		{
			"name":"District_city_2_2_Bldg_037_h5m",
			"primitives":[
				{
					"attributes":{
						"POSITION":126,
						"NORMAL":127
					},
					"indices":128
				}
			]
		},
		{
			"name":"District_city_2_2_Bldg_037_h5m.001",
			"primitives":[
				{
					"attributes":{
						"POSITION":129,
						"NORMAL":130
					},
					"indices":128,
					"material":0
				}
			]
		},
		{
			"name":"District_city_2_2_Bldg_039_h3m",
			"primitives":[
				{
					"attributes":{
						"POSITION":131,
						"NORMAL":132
					},
					"indices":52
				}
			]
		},
		{
			"name":"District_city_2_2_Bldg_039_h3m.001",
			"primitives":[
				{
					"attributes":{
						"POSITION":133,
						"NORMAL":134
					},
					"indices":52,
					"material":0
				}
			]
		},
		{
			"name":"District_city_2_2_Bldg_040_h3m",
			"primitives":[
				{
					"attributes":{
						"POSITION":135,
						"NORMAL":136
					},
					"indices":137
				}
			]
		},
		{
			"name":"District_city_2_2_Bldg_040_h3m.001",
			"primitives":[
				{
					"attributes":{
						"POSITION":138,
						"NORMAL":139
					},
					"indices":137,
					"material":0
				}
			]
		},
		{
			"name":"District_city_2_2_Bridge_001_h8m",
			"primitives":[
				{
					"attributes":{
						"POSITION":140,
						"NORMAL":141
					},
					"indices":142
				}
			]
		},
		{
			"name":"District_city_2_2_Bridge_001_h8m.001",
			"primitives":[
				{
					"attributes":{
						"POSITION":143,
						"NORMAL":144
					},
					"indices":142,
					"material":0
				}
			]
		},
		{
			"name":"District_city_2_2_Landmark_000_h201m",
			"primitives":[
				{
					"attributes":{
						"POSITION":145,
						"NORMAL":146
					},
					"indices":147
				}
			]
		},
		{
			"name":"District_city_2_2_Landmark_000_h201m.001",
			"primitives":[
				{
					"attributes":{
						"POSITION":148,
						"NORMAL":149
					},
					"indices":147,
					"material":0
				}
			]
		},
		{
			"name":"District_city_2_2_Landmark_001_h177m",
			"primitives":[
				{
					"attributes":{
						"POSITION":150,
						"NORMAL":151
					},
					"indices":152
				}
			]
		},
		{
			"name":"District_city_2_2_Landmark_001_h177m.001",
			"primitives":[
				{
					"attributes":{
						"POSITION":153,
						"NORMAL":154
					},
					"indices":152,
					"material":0
				}
			]
		},
		{
			"name":"District_city_2_2_Road_000",
			"primitives":[
				{
					"attributes":{
						"POSITION":155,
						"NORMAL":156
					},
					"indices":157,
					"material":1
				}
			]
		},
		{
			"name":"District_city_2_2_Terrain-col",
			"primitives":[
				{
					"attributes":{
						"POSITION":158,
						"NORMAL":159
					},
					"indices":160,
					"material":2
				}
			]
		}
	],
	"accessors":[
		{
			"bufferView":0,
			"componentType":5126,
			"count":622,
			"max":[
				-39.84843444824219,
				21.700000762939453,
				159.44386291503906
			],
			"min":[
				-153.15133666992188,
				0.335999995470047,
				-156.00442504882812
			],
			"type":"VEC3"
		},
		{
			"bufferView":1,
			"componentType":5126,
			"count":622,
			"type":"VEC3"
		},
		{
			"bufferView":2,
			"componentType":5123,
			"count":1212,
			"type":"SCALAR"
		},
		{
			"bufferView":3,
			"componentType":5126,
			"count":622,
			"max":[
				-39.84843444824219,
				21.700000762939453,
				159.44386291503906
			],
			"min":[
				-153.15133666992188,
				0.335999995470047,
				-156.00442504882812
			],
			"type":"VEC3"
		},
		{
			"bufferView":4,
			"componentType":5126,
			"count":622,
			"type":"VEC3"
		},
		{
			"bufferView":5,
			"componentType":5126,
			"count":24,
			"max":[
				60.51526641845703,
				21.191999435424805,
				193.10867309570312
			],
			"min":[
				50.208065032958984,
				0.6179999709129333,
				184.68936157226562
			],
			"type":"VEC3"
		},
		{
			"bufferView":6,
			"componentType":5126,
			"count":24,
			"type":"VEC3"
		},
		{
			"bufferView":7,
			"componentType":5123,
			"count":36,
			"type":"SCALAR"
		},
		{
			"bufferView":8,
			"componentType":5126,
			"count":24,
			"max":[
				60.51526641845703,
				21.191999435424805,
				193.10867309570312
			],
			"min":[
				50.208065032958984,
				0.6179999709129333,
				184.68936157226562
			],
			"type":"VEC3"
		},
		{
			"bufferView":9,
			"componentType":5126,
			"count":24,
			"type":"VEC3"
		},
		{
			"bufferView":10,
			"componentType":5126,
			"count":120,
			"max":[
				-9.479734420776367,
				21.240999221801758,
				126.58456420898438
			],
			"min":[
				-110.23683166503906,
				1.3250000476837158,
				-148.21253967285156
			],
			"type":"VEC3"
		},
		{
			"bufferView":11,
			"componentType":5126,
			"count":120,
			"type":"VEC3"
		},
		{
			"bufferView":12,
			"componentType":5123,
			"count":228,
			"type":"SCALAR"
		},
		{
			"bufferView":13,
			"componentType":5126,
			"count":120,
			"max":[
				-9.479734420776367,
				21.240999221801758,
				126.58456420898438
			],
			"min":[
				-110.23683166503906,
				1.3250000476837158,
				-148.21253967285156
			],
			"type":"VEC3"
		},
		{
			"bufferView":14,
			"componentType":5126,
			"count":120,
			"type":"VEC3"
		},
		{
			"bufferView":15,
			"componentType":5126,
			"count":24,
			"max":[
				-57.93073272705078,
				19.71500015258789,
				35.4112663269043
			],
			"min":[
				-68.09153747558594,
				1.4229999780654907,
				4.520167350769043
			],
			"type":"VEC3"
		},
		{
			"bufferView":16,
			"componentType":5126,
			"count":24,
			"type":"VEC3"
		},
		{
			"bufferView":17,
			"componentType":5123,
			"count":36,
			"type":"SCALAR"
		},
		{
			"bufferView":18,
			"componentType":5126,
			"count":24,
			"max":[
				-57.93073272705078,
				19.71500015258789,
				35.4112663269043
			],
			"min":[
				-68.09153747558594,
				1.4229999780654907,
				4.520167350769043
			],
			"type":"VEC3"
		},
		{
			"bufferView":19,
			"componentType":5126,
			"count":24,
			"type":"VEC3"
		},
		{
			"bufferView":20,
			"componentType":5126,
			"count":36,
			"max":[
				-30.581533432006836,
				19.740999221801758,
				-19.889331817626953
			],
			"min":[
				-50.8293342590332,
				1.5509999990463257,
				-81.52133178710938
			],
			"type":"VEC3"
		},
		{
			"bufferView":21,
			"componentType":5126,
			"count":36,
			"type":"VEC3"
		},
		{
			"bufferView":22,
			"componentType":5123,
			"count":60,
			"type":"SCALAR"
		},
		{
			"bufferView":23,
			"componentType":5126,
			"count":36,
			"max":[
				-30.581533432006836,
				19.740999221801758,
				-19.889331817626953
			],
			"min":[
				-50.8293342590332,
				1.5509999990463257,
				-81.52133178710938
			],
			"type":"VEC3"
		},
		{
			"bufferView":24,
			"componentType":5126,
			"count":36,
			"type":"VEC3"
		},
		{
			"bufferView":25,
			"componentType":5126,
			"count":102,
			"max":[
				-147.79302978515625,
				4.833000183105469,
				-90.47793579101562
			],
			"min":[
				-163.704833984375,
				-12.406000137329102,
				-106.45623016357422
			],
			"type":"VEC3"
		},
		{
			"bufferView":26,
			"componentType":5126,
			"count":102,
			"type":"VEC3"
		},
		{
			"bufferView":27,
			"componentType":5123,
			"count":192,
			"type":"SCALAR"
		},
		{
			"bufferView":28,
			"componentType":5126,
			"count":102,
			"max":[
				-147.79302978515625,
				4.833000183105469,
				-90.47793579101562
			],
			"min":[
				-163.704833984375,
				-12.406000137329102,
				-106.45623016357422
			],
			"type":"VEC3"
		},
		{
			"bufferView":29,
			"componentType":5126,
			"count":102,
			"type":"VEC3"
		},
		{
			"bufferView":30,
			"componentType":5126,
			"count":60,
			"max":[
				170.4856719970703,
				15.836999893188477,
				231.48016357421875
			],
			"min":[
				13.877965927124023,
				-1.1050000190734863,
				-180.36802673339844
			],
			"type":"VEC3"
		},
		{
			"bufferView":31,
			"componentType":5126,
			"count":60,
			"type":"VEC3"
		},
		{
			"bufferView":32,
			"componentType":5123,
			"count":108,
			"type":"SCALAR"
		},
		{
			"bufferView":33,
			"componentType":5126,
			"count":60,
			"max":[
				170.4856719970703,
				15.836999893188477,
				231.48016357421875
			],
			"min":[
				13.877965927124023,
				-1.1050000190734863,
				-180.36802673339844
			],
			"type":"VEC3"
		},
		{
			"bufferView":34,
			"componentType":5126,
			"count":60,
			"type":"VEC3"
		},
		{
			"bufferView":35,
			"componentType":5126,
			"count":136,
			"max":[
				-153.53883361816406,
				4.544000148773193,
				37.83416748046875
			],
			"min":[
				-171.62673950195312,
				-12.376999855041504,
				10.922767639160156
			],
			"type":"VEC3"
		},
		{
			"bufferView":36,
			"componentType":5126,
			"count":136,
			"type":"VEC3"
		},
		{
			"bufferView":37,
			"componentType":5123,
			"count":252,
			"type":"SCALAR"
		},
		{
			"bufferView":38,
			"componentType":5126,
			"count":136,
			"max":[
				-153.53883361816406,
				4.544000148773193,
				37.83416748046875
			],
			"min":[
				-171.62673950195312,
				-12.376999855041504,
				10.922767639160156
			],
			"type":"VEC3"
		},
		{
			"bufferView":39,
			"componentType":5126,
			"count":136,
			"type":"VEC3"
		},
		{
			"bufferView":40,
			"componentType":5126,
			"count":54,
			"max":[
				152.1919708251953,
				15.843000411987305,
				226.7265625
			],
			"min":[
				-0.24663405120372772,
				-1.0579999685287476,
				-186.4249267578125
			],
			"type":"VEC3"
		},
		{
			"bufferView":41,
			"componentType":5126,
			"count":54,
			"type":"VEC3"
		},
		{
			"bufferView":42,
			"componentType":5123,
			"count":96,
			"type":"SCALAR"
		},
		{
			"bufferView":43,
			"componentType":5126,
			"count":54,
			"max":[
				152.1919708251953,
				15.843000411987305,
				226.7265625
			],
			"min":[
				-0.24663405120372772,
				-1.0579999685287476,
				-186.4249267578125
			],
			"type":"VEC3"
		},
		{
			"bufferView":44,
			"componentType":5126,
			"count":54,
			"type":"VEC3"
		},
		{
			"bufferView":45,
			"componentType":5126,
			"count":94,
			"max":[
				69.42916870117188,
				16.540000915527344,
				192.9046630859375
			],
			"min":[
				-42.014835357666016,
				0.22200000286102295,
				-217.03683471679688
			],
			"type":"VEC3"
		},
		{
			"bufferView":46,
			"componentType":5126,
			"count":94,
			"type":"VEC3"
		},
		{
			"bufferView":47,
			"componentType":5123,
			"count":180,
			"type":"SCALAR"
		},
		{
			"bufferView":48,
			"componentType":5126,
			"count":94,
			"max":[
				69.42916870117188,
				16.540000915527344,
				192.9046630859375
			],
			"min":[
				-42.014835357666016,
				0.22200000286102295,
				-217.03683471679688
			],
			"type":"VEC3"
		},
		{
			"bufferView":49,
			"componentType":5126,
			"count":94,
			"type":"VEC3"
		},
		{
			"bufferView":50,
			"componentType":5126,
			"count":24,
			"max":[
				-110.85603332519531,
				17.81100082397461,
				108.55056762695312
			],
			"min":[
				-120.51053619384766,
				1.5180000066757202,
				95.98136901855469
			],
			"type":"VEC3"
		},
		{
			"bufferView":51,
			"componentType":5126,
			"count":24,
			"type":"VEC3"
		},
		{
			"bufferView":52,
			"componentType":5123,
			"count":36,
			"type":"SCALAR"
		},
		{
			"bufferView":53,
			"componentType":5126,
			"count":24,
			"max":[
				-110.85603332519531,
				17.81100082397461,
				108.55056762695312
			],
			"min":[
				-120.51053619384766,
				1.5180000066757202,
				95.98136901855469
			],
			"type":"VEC3"
		},
		{
			"bufferView":54,
			"componentType":5126,
			"count":24,
			"type":"VEC3"
		},
		{
			"bufferView":55,
			"componentType":5126,
			"count":120,
			"max":[
				83.78036499023438,
				16.218000411987305,
				193.75267028808594
			],
			"min":[
				-23.387033462524414,
				0.02800000086426735,
				-212.6016387939453
			],
			"type":"VEC3"
		},
		{
			"bufferView":56,
			"componentType":5126,
			"count":120,
			"type":"VEC3"
		},
		{
			"bufferView":57,
			"componentType":5123,
			"count":228,
			"type":"SCALAR"
		},
		{
			"bufferView":58,
			"componentType":5126,
			"count":120,
			"max":[
				83.78036499023438,
				16.218000411987305,
				193.75267028808594
			],
			"min":[
				-23.387033462524414,
				0.02800000086426735,
				-212.6016387939453
			],
			"type":"VEC3"
		},
		{
			"bufferView":59,
			"componentType":5126,
			"count":120,
			"type":"VEC3"
		},
		{
			"bufferView":60,
			"componentType":5126,
			"count":96,
			"max":[
				99.96586608886719,
				16.06800079345703,
				199.1209716796875
			],
			"min":[
				-3.789734125137329,
				0,
				-199.31503295898438
			],
			"type":"VEC3"
		},
		{
			"bufferView":61,
			"componentType":5126,
			"count":96,
			"type":"VEC3"
		},
		{
			"bufferView":62,
			"componentType":5123,
			"count":180,
			"type":"SCALAR"
		},
		{
			"bufferView":63,
			"componentType":5126,
			"count":96,
			"max":[
				99.96586608886719,
				16.06800079345703,
				199.1209716796875
			],
			"min":[
				-3.789734125137329,
				0,
				-199.31503295898438
			],
			"type":"VEC3"
		},
		{
			"bufferView":64,
			"componentType":5126,
			"count":96,
			"type":"VEC3"
		},
		{
			"bufferView":65,
			"componentType":5126,
			"count":24,
			"max":[
				110.19876861572266,
				16.139999389648438,
				-127.39073181152344
			],
			"min":[
				104.57286834716797,
				0.9200000166893005,
				-136.7443389892578
			],
			"type":"VEC3"
		},
		{
			"bufferView":66,
			"componentType":5126,
			"count":24,
			"type":"VEC3"
		},
		{
			"bufferView":67,
			"componentType":5123,
			"count":36,
			"type":"SCALAR"
		},
		{
			"bufferView":68,
			"componentType":5126,
			"count":24,
			"max":[
				110.19876861572266,
				16.139999389648438,
				-127.39073181152344
			],
			"min":[
				104.57286834716797,
				0.9200000166893005,
				-136.7443389892578
			],
			"type":"VEC3"
		},
		{
			"bufferView":69,
			"componentType":5126,
			"count":24,
			"type":"VEC3"
		},
		{
			"bufferView":70,
			"componentType":5126,
			"count":24,
			"max":[
				107.23816680908203,
				16.114999771118164,
				-118.99182891845703
			],
			"min":[
				102.1192626953125,
				0.9610000252723694,
				-127.08943176269531
			],
			"type":"VEC3"
		},
		{
			"bufferView":71,
			"componentType":5126,
			"count":24,
			"type":"VEC3"
		},
		{
			"bufferView":72,
			"componentType":5123,
			"count":36,
			"type":"SCALAR"
		},
		{
			"bufferView":73,
			"componentType":5126,
			"count":24,
			"max":[
				107.23816680908203,
				16.114999771118164,
				-118.99182891845703
			],
			"min":[
				102.1192626953125,
				0.9610000252723694,
				-127.08943176269531
			],
			"type":"VEC3"
		},
		{
			"bufferView":74,
			"componentType":5126,
			"count":24,
			"type":"VEC3"
		},
		{
			"bufferView":75,
			"componentType":5126,
			"count":24,
			"max":[
				-53.375335693359375,
				14.927000045776367,
				2.0322675704956055
			],
			"min":[
				-61.76243591308594,
				1.4550000429153442,
				-16.845932006835938
			],
			"type":"VEC3"
		},
		{
			"bufferView":76,
			"componentType":5126,
			"count":24,
			"type":"VEC3"
		},
		{
			"bufferView":77,
			"componentType":5126,
			"count":24,
			"max":[
				-53.375335693359375,
				14.927000045776367,
				2.0322675704956055
			],
			"min":[
				-61.76243591308594,
				1.4550000429153442,
				-16.845932006835938
			],
			"type":"VEC3"
		},
		{
			"bufferView":78,
			"componentType":5126,
			"count":24,
			"type":"VEC3"
		},
		{
			"bufferView":79,
			"componentType":5126,
			"count":140,
			"max":[
				48.463565826416016,
				13.354000091552734,
				145.128173828125
			],
			"min":[
				-49.8580322265625,
				1.1690000295639038,
				-174.551025390625
			],
			"type":"VEC3"
		},
		{
			"bufferView":80,
			"componentType":5126,
			"count":140,
			"type":"VEC3"
		},
		{
			"bufferView":81,
			"componentType":5123,
			"count":264,
			"type":"SCALAR"
		},
		{
			"bufferView":82,
			"componentType":5126,
			"count":140,
			"max":[
				48.463565826416016,
				13.354000091552734,
				145.128173828125
			],
			"min":[
				-49.8580322265625,
				1.1690000295639038,
				-174.551025390625
			],
			"type":"VEC3"
		},
		{
			"bufferView":83,
			"componentType":5126,
			"count":140,
			"type":"VEC3"
		},
		{
			"bufferView":84,
			"componentType":5126,
			"count":24,
			"max":[
				-39.12803268432617,
				12.951000213623047,
				163.28756713867188
			],
			"min":[
				-53.470035552978516,
				0.8259999752044678,
				142.53497314453125
			],
			"type":"VEC3"
		},
		{
			"bufferView":85,
			"componentType":5126,
			"count":24,
			"type":"VEC3"
		},
		{
			"bufferView":86,
			"componentType":5126,
			"count":24,
			"max":[
				-39.12803268432617,
				12.951000213623047,
				163.28756713867188
			],
			"min":[
				-53.470035552978516,
				0.8259999752044678,
				142.53497314453125
			],
			"type":"VEC3"
		},
		{
			"bufferView":87,
			"componentType":5126,
			"count":24,
			"type":"VEC3"
		},
		{
			"bufferView":88,
			"componentType":5126,
			"count":54,
			"max":[
				35.43466567993164,
				13.052000045776367,
				140.07566833496094
			],
			"min":[
				-64.77743530273438,
				1.156000018119812,
				-178.20443725585938
			],
			"type":"VEC3"
		},
		{
			"bufferView":89,
			"componentType":5126,
			"count":54,
			"type":"VEC3"
		},
		{
			"bufferView":90,
			"componentType":5123,
			"count":96,
			"type":"SCALAR"
		},
		{
			"bufferView":91,
			"componentType":5126,
			"count":54,
			"max":[
				35.43466567993164,
				13.052000045776367,
				140.07566833496094
			],
			"min":[
				-64.77743530273438,
				1.156000018119812,
				-178.20443725585938
			],
			"type":"VEC3"
		},
		{
			"bufferView":92,
			"componentType":5126,
			"count":54,
			"type":"VEC3"
		},
		{
			"bufferView":93,
			"componentType":5126,
			"count":24,
			"max":[
				120.89796447753906,
				12.538999557495117,
				-119.0207290649414
			],
			"min":[
				110.41546630859375,
				0.8980000019073486,
				-141.658935546875
			],
			"type":"VEC3"
		},
		{
			"bufferView":94,
			"componentType":5126,
			"count":24,
			"type":"VEC3"
		},
		{
			"bufferView":95,
			"componentType":5126,
			"count":24,
			"max":[
				120.89796447753906,
				12.538999557495117,
				-119.0207290649414
			],
			"min":[
				110.41546630859375,
				0.8980000019073486,
				-141.658935546875
			],
			"type":"VEC3"
		},
		{
			"bufferView":96,
			"componentType":5126,
			"count":24,
			"type":"VEC3"
		},
		{
			"bufferView":97,
			"componentType":5126,
			"count":50,
			"max":[
				-19.246234893798828,
				12.432999610900879,
				-144.74502563476562
			],
			"min":[
				-48.70753479003906,
				1.1299999952316284,
				-173.9163360595703
			],
			"type":"VEC3"
		},
		{
			"bufferView":98,
			"componentType":5126,
			"count":50,
			"type":"VEC3"
		},
		{
			"bufferView":99,
			"componentType":5123,
			"count":84,
			"type":"SCALAR"
		},
		{
			"bufferView":100,
			"componentType":5126,
			"count":50,
			"max":[
				-19.246234893798828,
				12.432999610900879,
				-144.74502563476562
			],
			"min":[
				-48.70753479003906,
				1.1299999952316284,
				-173.9163360595703
			],
			"type":"VEC3"
		},
		{
			"bufferView":101,
			"componentType":5126,
			"count":50,
			"type":"VEC3"
		},
		{
			"bufferView":102,
			"componentType":5126,
			"count":72,
			"max":[
				5.686666011810303,
				12.241000175476074,
				-43.13553237915039
			],
			"min":[
				-31.179733276367188,
				1.4179999828338623,
				-122.35363006591797
			],
			"type":"VEC3"
		},
		{
			"bufferView":103,
			"componentType":5126,
			"count":72,
			"type":"VEC3"
		},
		{
			"bufferView":104,
			"componentType":5123,
			"count":132,
			"type":"SCALAR"
		},
		{
			"bufferView":105,
			"componentType":5126,
			"count":72,
			"max":[
				5.686666011810303,
				12.241000175476074,
				-43.13553237915039
			],
			"min":[
				-31.179733276367188,
				1.4179999828338623,
				-122.35363006591797
			],
			"type":"VEC3"
		},
		{
			"bufferView":106,
			"componentType":5126,
			"count":72,
			"type":"VEC3"
		},
		{
			"bufferView":107,
			"componentType":5126,
			"count":72,
			"max":[
				-32.019832611083984,
				11.980999946594238,
				142.20266723632812
			],
			"min":[
				-83.5455322265625,
				1.2430000305175781,
				0.2984674572944641
			],
			"type":"VEC3"
		},
		{
			"bufferView":108,
			"componentType":5126,
			"count":72,
			"type":"VEC3"
		},
		{
			"bufferView":109,
			"componentType":5123,
			"count":132,
			"type":"SCALAR"
		},
		{
			"bufferView":110,
			"componentType":5126,
			"count":72,
			"max":[
				-32.019832611083984,
				11.980999946594238,
				142.20266723632812
			],
			"min":[
				-83.5455322265625,
				1.2430000305175781,
				0.2984674572944641
			],
			"type":"VEC3"
		},
		{
			"bufferView":111,
			"componentType":5126,
			"count":72,
			"type":"VEC3"
		},
		{
			"bufferView":112,
			"componentType":5126,
			"count":24,
			"max":[
				-126.30023193359375,
				8.88700008392334,
				-93.43083190917969
			],
			"min":[
				-139.36692810058594,
				-0.4690000116825104,
				-106.49613189697266
			],
			"type":"VEC3"
		},
		{
			"bufferView":113,
			"componentType":5126,
			"count":24,
			"type":"VEC3"
		},
		{
			"bufferView":114,
			"componentType":5126,
			"count":24,
			"max":[
				-126.30023193359375,
				8.88700008392334,
				-93.43083190917969
			],
			"min":[
				-139.36692810058594,
				-0.4690000116825104,
				-106.49613189697266
			],
			"type":"VEC3"
		},
		{
			"bufferView":115,
			"componentType":5126,
			"count":24,
			"type":"VEC3"
		},
		{
			"bufferView":116,
			"componentType":5126,
			"count":30,
			"max":[
				196.8386688232422,
				7.076000213623047,
				-1.7870324850082397
			],
			"min":[
				184.46426391601562,
				1.1299999952316284,
				-13.697332382202148
			],
			"type":"VEC3"
		},
		{
			"bufferView":117,
			"componentType":5126,
			"count":30,
			"type":"VEC3"
		},
		{
			"bufferView":118,
			"componentType":5123,
			"count":48,
			"type":"SCALAR"
		},
		{
			"bufferView":119,
			"componentType":5126,
			"count":30,
			"max":[
				196.8386688232422,
				7.076000213623047,
				-1.7870324850082397
			],
			"min":[
				184.46426391601562,
				1.1299999952316284,
				-13.697332382202148
			],
			"type":"VEC3"
		},
		{
			"bufferView":120,
			"componentType":5126,
			"count":30,
			"type":"VEC3"
		},
		{
			"bufferView":121,
			"componentType":5126,
			"count":96,
			"max":[
				-129.7769317626953,
				6.138000011444092,
				98.4731674194336
			],
			"min":[
				-172.05783081054688,
				0.5849999785423279,
				39.69856643676758
			],
			"type":"VEC3"
		},
		{
			"bufferView":122,
			"componentType":5126,
			"count":96,
			"type":"VEC3"
		},
		{
			"bufferView":123,
			"componentType":5123,
			"count":180,
			"type":"SCALAR"
		},
		{
			"bufferView":124,
			"componentType":5126,
			"count":96,
			"max":[
				-129.7769317626953,
				6.138000011444092,
				98.4731674194336
			],
			"min":[
				-172.05783081054688,
				0.5849999785423279,
				39.69856643676758
			],
			"type":"VEC3"
		},
		{
			"bufferView":125,
			"componentType":5126,
			"count":96,
			"type":"VEC3"
		},
		{
			"bufferView":126,
			"componentType":5126,
			"count":106,
			"max":[
				-70.95773315429688,
				6.205999851226807,
				-90.86593627929688
			],
			"min":[
				-103.3935317993164,
				0.9419999718666077,
				-149.77633666992188
			],
			"type":"VEC3"
		},
		{
			"bufferView":127,
			"componentType":5126,
			"count":106,
			"type":"VEC3"
		},
		{
			"bufferView":128,
			"componentType":5123,
			"count":192,
			"type":"SCALAR"
		},
		{
			"bufferView":129,
			"componentType":5126,
			"count":106,
			"max":[
				-70.95773315429688,
				6.205999851226807,
				-90.86593627929688
			],
			"min":[
				-103.3935317993164,
				0.9419999718666077,
				-149.77633666992188
			],
			"type":"VEC3"
		},
		{
			"bufferView":130,
			"componentType":5126,
			"count":106,
			"type":"VEC3"
		},
		{
			"bufferView":131,
			"componentType":5126,
			"count":24,
			"max":[
				-141.9072265625,
				4.02400016784668,
				-152.43783569335938
			],
			"min":[
				-157.49603271484375,
				1.0240000486373901,
				-161.20143127441406
			],
			"type":"VEC3"
		},
		{
			"bufferView":132,
			"componentType":5126,
			"count":24,
			"type":"VEC3"
		},
		{
			"bufferView":133,
			"componentType":5126,
			"count":24,
			"max":[
				-141.9072265625,
				4.02400016784668,
				-152.43783569335938
			],
			"min":[
				-157.49603271484375,
				1.0240000486373901,
				-161.20143127441406
			],
			"type":"VEC3"
		},
		{
			"bufferView":134,
			"componentType":5126,
			"count":24,
			"type":"VEC3"
		},
		{
			"bufferView":135,
			"componentType":5126,
			"count":48,
			"max":[
				173.73516845703125,
				4.4029998779296875,
				179.87916564941406
			],
			"min":[
				148.57907104492188,
				1.402999997138977,
				161.3181610107422
			],
			"type":"VEC3"
		},
		{
			"bufferView":136,
			"componentType":5126,
			"count":48,
			"type":"VEC3"
		},
		{
			"bufferView":137,
			"componentType":5123,
			"count":84,
			"type":"SCALAR"
		},
		{
			"bufferView":138,
			"componentType":5126,
			"count":48,
			"max":[
				173.73516845703125,
				4.4029998779296875,
				179.87916564941406
			],
			"min":[
				148.57907104492188,
				1.402999997138977,
				161.3181610107422
			],
			"type":"VEC3"
		},
		{
			"bufferView":139,
			"componentType":5126,
			"count":48,
			"type":"VEC3"
		},
		{
			"bufferView":140,
			"componentType":5126,
			"count":220,
			"max":[
				-147.28709411621094,
				2.3747398853302,
				43.99724197387695
			],
			"min":[
				-180.6051483154297,
				-5.207429885864258,
				22.442092895507812
			],
			"type":"VEC3"
		},
		{
			"bufferView":141,
			"componentType":5126,
			"count":220,
			"type":"VEC3"
		},
		{
			"bufferView":142,
			"componentType":5123,
			"count":396,
			"type":"SCALAR"
		},
		{
			"bufferView":143,
			"componentType":5126,
			"count":220,
			"max":[
				-147.28709411621094,
				2.3747398853302,
				43.99724197387695
			],
			"min":[
				-180.6051483154297,
				-5.207429885864258,
				22.442092895507812
			],
			"type":"VEC3"
		},
		{
			"bufferView":144,
			"componentType":5126,
			"count":220,
			"type":"VEC3"
		},
		{
			"bufferView":145,
			"componentType":5126,
			"count":147,
			"max":[
				228.58827209472656,
				201.7790069580078,
				19.04556655883789
			],
			"min":[
				118.04376220703125,
				0.8650000095367432,
				-94.7601318359375
			],
			"type":"VEC3"
		},
		{
			"bufferView":146,
			"componentType":5126,
			"count":147,
			"type":"VEC3"
		},
		{
			"bufferView":147,
			"componentType":5123,
			"count":276,
			"type":"SCALAR"
		},
		{
			"bufferView":148,
			"componentType":5126,
			"count":147,
			"max":[
				228.58827209472656,
				201.7790069580078,
				19.04556655883789
			],
			"min":[
				118.04376220703125,
				0.8650000095367432,
				-94.7601318359375
			],
			"type":"VEC3"
		},
		{
			"bufferView":149,
			"componentType":5126,
			"count":147,
			"type":"VEC3"
		},
		{
			"bufferView":150,
			"componentType":5126,
			"count":126,
			"max":[
				228.87106323242188,
				178.64300537109375,
				-93.49623107910156
			],
			"min":[
				169.1594696044922,
				1.3049999475479126,
				-189.39083862304688
			],
			"type":"VEC3"
		},
		{
			"bufferView":151,
			"componentType":5126,
			"count":126,
			"type":"VEC3"
		},
		{
			"bufferView":152,
			"componentType":5123,
			"count":240,
			"type":"SCALAR"
		},
		{
			"bufferView":153,
			"componentType":5126,
			"count":126,
			"max":[
				228.87106323242188,
				178.64300537109375,
				-93.49623107910156
			],
			"min":[
				169.1594696044922,
				1.3049999475479126,
				-189.39083862304688
			],
			"type":"VEC3"
		},
		{
			"bufferView":154,
			"componentType":5126,
			"count":126,
			"type":"VEC3"
		},
		{
			"bufferView":155,
			"componentType":5126,
			"count":5180,
			"max":[
				276.8751525878906,
				1.9515000581741333,
				379.60986328125
			],
			"min":[
				-271.26483154296875,
				-6.774166584014893,
				-331.150146484375
			],
			"type":"VEC3"
		},
		{
			"bufferView":156,
			"componentType":5126,
			"count":5180,
			"type":"VEC3"
		},
		{
			"bufferView":157,
			"componentType":5123,
			"count":10368,
			"type":"SCALAR"
		},
		{
			"bufferView":158,
			"componentType":5126,
			"count":6732,
			"max":[
				252,
				2.6394999027252197,
				252
			],
			"min":[
				-252,
				-12.405500411987305,
				-252
			],
			"type":"VEC3"
		},
		{
			"bufferView":159,
			"componentType":5126,
			"count":6732,
			"type":"VEC3"
		},
		{
			"bufferView":160,
			"componentType":5123,
			"count":6732,
			"type":"SCALAR"
		}
	],
	"bufferViews":[
		{
			"buffer":0,
			"byteLength":7464,
			"byteOffset":0,
			"target":34962
		},
		{
			"buffer":0,
			"byteLength":7464,
			"byteOffset":7464,
			"target":34962
		},
		{
			"buffer":0,
			"byteLength":2424,
			"byteOffset":14928,
			"target":34963
		},
		{
			"buffer":0,
			"byteLength":7464,
			"byteOffset":17352,
			"target":34962
		},
		{
			"buffer":0,
			"byteLength":7464,
			"byteOffset":24816,
			"target":34962
		},
		{
			"buffer":0,
			"byteLength":288,
			"byteOffset":32280,
			"target":34962
		},
		{
			"buffer":0,
			"byteLength":288,
			"byteOffset":32568,
			"target":34962
		},
		{
			"buffer":0,
			"byteLength":72,
			"byteOffset":32856,
			"target":34963
		},
		{
			"buffer":0,
			"byteLength":288,
			"byteOffset":32928,
			"target":34962
		},
		{
			"buffer":0,
			"byteLength":288,
			"byteOffset":33216,
			"target":34962
		},
		{
			"buffer":0,
			"byteLength":1440,
			"byteOffset":33504,
			"target":34962
		},
		{
			"buffer":0,
			"byteLength":1440,
			"byteOffset":34944,
			"target":34962
		},
		{
			"buffer":0,
			"byteLength":456,
			"byteOffset":36384,
			"target":34963
		},
		{
			"buffer":0,
			"byteLength":1440,
			"byteOffset":36840,
			"target":34962
		},
		{
			"buffer":0,
			"byteLength":1440,
			"byteOffset":38280,
			"target":34962
		},
		{
			"buffer":0,
			"byteLength":288,
			"byteOffset":39720,
			"target":34962
		},
		{
			"buffer":0,
			"byteLength":288,
			"byteOffset":40008,
			"target":34962
		},
		{
			"buffer":0,
			"byteLength":72,
			"byteOffset":40296,
			"target":34963
		},
		{
			"buffer":0,
			"byteLength":288,
			"byteOffset":40368,
			"target":34962
		},
		{
			"buffer":0,
			"byteLength":288,
			"byteOffset":40656,
			"target":34962
		},
		{
			"buffer":0,
			"byteLength":432,
			"byteOffset":40944,
			"target":34962
		},
		{
			"buffer":0,
			"byteLength":432,
			"byteOffset":41376,
			"target":34962
		},
		{
			"buffer":0,
			"byteLength":120,
			"byteOffset":41808,
			"target":34963
		},
		{
			"buffer":0,
			"byteLength":432,
			"byteOffset":41928,
			"target":34962
		},
		{
			"buffer":0,
			"byteLength":432,
			"byteOffset":42360,
			"target":34962
		},
		{
			"buffer":0,
			"byteLength":1224,
			"byteOffset":42792,
			"target":34962
		},
		{
			"buffer":0,
			"byteLength":1224,
			"byteOffset":44016,
			"target":34962
		},
		{
			"buffer":0,
			"byteLength":384,
			"byteOffset":45240,
			"target":34963
		},
		{
			"buffer":0,
			"byteLength":1224,
			"byteOffset":45624,
			"target":34962
		},
		{
			"buffer":0,
			"byteLength":1224,
			"byteOffset":46848,
			"target":34962
		},
		{
			"buffer":0,
			"byteLength":720,
			"byteOffset":48072,
			"target":34962
		},
		{
			"buffer":0,
			"byteLength":720,
			"byteOffset":48792,
			"target":34962
		},
		{
			"buffer":0,
			"byteLength":216,
			"byteOffset":49512,
			"target":34963
		},
		{
			"buffer":0,
			"byteLength":720,
			"byteOffset":49728,
			"target":34962
		},
		{
			"buffer":0,
			"byteLength":720,
			"byteOffset":50448,
			"target":34962
		},
		{
			"buffer":0,
			"byteLength":1632,
			"byteOffset":51168,
			"target":34962
		},
		{
			"buffer":0,
			"byteLength":1632,
			"byteOffset":52800,
			"target":34962
		},
		{
			"buffer":0,
			"byteLength":504,
			"byteOffset":54432,
			"target":34963
		},
		{
			"buffer":0,
			"byteLength":1632,
			"byteOffset":54936,
			"target":34962
		},
		{
			"buffer":0,
			"byteLength":1632,
			"byteOffset":56568,
			"target":34962
		},
		{
			"buffer":0,
			"byteLength":648,
			"byteOffset":58200,
			"target":34962
		},
		{
			"buffer":0,
			"byteLength":648,
			"byteOffset":58848,
			"target":34962
		},
		{
			"buffer":0,
			"byteLength":192,
			"byteOffset":59496,
			"target":34963
		},
		{
			"buffer":0,
			"byteLength":648,
			"byteOffset":59688,
			"target":34962
		},
		{
			"buffer":0,
			"byteLength":648,
			"byteOffset":60336,
			"target":34962
		},
		{
			"buffer":0,
			"byteLength":1128,
			"byteOffset":60984,
			"target":34962
		},
		{
			"buffer":0,
			"byteLength":1128,
			"byteOffset":62112,
			"target":34962
		},
		{
			"buffer":0,
			"byteLength":360,
			"byteOffset":63240,
			"target":34963
		},
		{
			"buffer":0,
			"byteLength":1128,
			"byteOffset":63600,
			"target":34962
		},
		{
			"buffer":0,
			"byteLength":1128,
			"byteOffset":64728,
			"target":34962
		},
		{
			"buffer":0,
			"byteLength":288,
			"byteOffset":65856,
			"target":34962
		},
		{
			"buffer":0,
			"byteLength":288,
			"byteOffset":66144,
			"target":34962
		},
		{
			"buffer":0,
			"byteLength":72,
			"byteOffset":66432,
			"target":34963
		},
		{
			"buffer":0,
			"byteLength":288,
			"byteOffset":66504,
			"target":34962
		},
		{
			"buffer":0,
			"byteLength":288,
			"byteOffset":66792,
			"target":34962
		},
		{
			"buffer":0,
			"byteLength":1440,
			"byteOffset":67080,
			"target":34962
		},
		{
			"buffer":0,
			"byteLength":1440,
			"byteOffset":68520,
			"target":34962
		},
		{
			"buffer":0,
			"byteLength":456,
			"byteOffset":69960,
			"target":34963
		},
		{
			"buffer":0,
			"byteLength":1440,
			"byteOffset":70416,
			"target":34962
		},
		{
			"buffer":0,
			"byteLength":1440,
			"byteOffset":71856,
			"target":34962
		},
		{
			"buffer":0,
			"byteLength":1152,
			"byteOffset":73296,
			"target":34962
		},
		{
			"buffer":0,
			"byteLength":1152,
			"byteOffset":74448,
			"target":34962
		},
		{
			"buffer":0,
			"byteLength":360,
			"byteOffset":75600,
			"target":34963
		},
		{
			"buffer":0,
			"byteLength":1152,
			"byteOffset":75960,
			"target":34962
		},
		{
			"buffer":0,
			"byteLength":1152,
			"byteOffset":77112,
			"target":34962
		},
		{
			"buffer":0,
			"byteLength":288,
			"byteOffset":78264,
			"target":34962
		},
		{
			"buffer":0,
			"byteLength":288,
			"byteOffset":78552,
			"target":34962
		},
		{
			"buffer":0,
			"byteLength":72,
			"byteOffset":78840,
			"target":34963
		},
		{
			"buffer":0,
			"byteLength":288,
			"byteOffset":78912,
			"target":34962
		},
		{
			"buffer":0,
			"byteLength":288,
			"byteOffset":79200,
			"target":34962
		},
		{
			"buffer":0,
			"byteLength":288,
			"byteOffset":79488,
			"target":34962
		},
		{
			"buffer":0,
			"byteLength":288,
			"byteOffset":79776,
			"target":34962
		},
		{
			"buffer":0,
			"byteLength":72,
			"byteOffset":80064,
			"target":34963
		},
		{
			"buffer":0,
			"byteLength":288,
			"byteOffset":80136,
			"target":34962
		},
		{
			"buffer":0,
			"byteLength":288,
			"byteOffset":80424,
			"target":34962
		},
		{
			"buffer":0,
			"byteLength":288,
			"byteOffset":80712,
			"target":34962
		},
		{
			"buffer":0,
			"byteLength":288,
			"byteOffset":81000,
			"target":34962
		},
		{
			"buffer":0,
			"byteLength":288,
			"byteOffset":81288,
			"target":34962
		},
		{
			"buffer":0,
			"byteLength":288,
			"byteOffset":81576,
			"target":34962
		},
		{
			"buffer":0,
			"byteLength":1680,
			"byteOffset":81864,
			"target":34962
		},
		{
			"buffer":0,
			"byteLength":1680,
			"byteOffset":83544,
			"target":34962
		},
		{
			"buffer":0,
			"byteLength":528,
			"byteOffset":85224,
			"target":34963
		},
		{
			"buffer":0,
			"byteLength":1680,
			"byteOffset":85752,
			"target":34962
		},
		{
			"buffer":0,
			"byteLength":1680,
			"byteOffset":87432,
			"target":34962
		},
		{
			"buffer":0,
			"byteLength":288,
			"byteOffset":89112,
			"target":34962
		},
		{
			"buffer":0,
			"byteLength":288,
			"byteOffset":89400,
			"target":34962
		},
		{
			"buffer":0,
			"byteLength":288,
			"byteOffset":89688,
			"target":34962
		},
		{
			"buffer":0,
			"byteLength":288,
			"byteOffset":89976,
			"target":34962
		},
		{
			"buffer":0,
			"byteLength":648,
			"byteOffset":90264,
			"target":34962
		},
		{
			"buffer":0,
			"byteLength":648,
			"byteOffset":90912,
			"target":34962
		},
		{
			"buffer":0,
			"byteLength":192,
			"byteOffset":91560,
			"target":34963
		},
		{
			"buffer":0,
			"byteLength":648,
			"byteOffset":91752,
			"target":34962
		},
		{
			"buffer":0,
			"byteLength":648,
			"byteOffset":92400,
			"target":34962
		},
		{
			"buffer":0,
			"byteLength":288,
			"byteOffset":93048,
			"target":34962
		},
		{
			"buffer":0,
			"byteLength":288,
			"byteOffset":93336,
			"target":34962
		},
		{
			"buffer":0,
			"byteLength":288,
			"byteOffset":93624,
			"target":34962
		},
		{
			"buffer":0,
			"byteLength":288,
			"byteOffset":93912,
			"target":34962
		},
		{
			"buffer":0,
			"byteLength":600,
			"byteOffset":94200,
			"target":34962
		},
		{
			"buffer":0,
			"byteLength":600,
			"byteOffset":94800,
			"target":34962
		},
		{
			"buffer":0,
			"byteLength":168,
			"byteOffset":95400,
			"target":34963
		},
		{
			"buffer":0,
			"byteLength":600,
			"byteOffset":95568,
			"target":34962
		},
		{
			"buffer":0,
			"byteLength":600,
			"byteOffset":96168,
			"target":34962
		},
		{
			"buffer":0,
			"byteLength":864,
			"byteOffset":96768,
			"target":34962
		},
		{
			"buffer":0,
			"byteLength":864,
			"byteOffset":97632,
			"target":34962
		},
		{
			"buffer":0,
			"byteLength":264,
			"byteOffset":98496,
			"target":34963
		},
		{
			"buffer":0,
			"byteLength":864,
			"byteOffset":98760,
			"target":34962
		},
		{
			"buffer":0,
			"byteLength":864,
			"byteOffset":99624,
			"target":34962
		},
		{
			"buffer":0,
			"byteLength":864,
			"byteOffset":100488,
			"target":34962
		},
		{
			"buffer":0,
			"byteLength":864,
			"byteOffset":101352,
			"target":34962
		},
		{
			"buffer":0,
			"byteLength":264,
			"byteOffset":102216,
			"target":34963
		},
		{
			"buffer":0,
			"byteLength":864,
			"byteOffset":102480,
			"target":34962
		},
		{
			"buffer":0,
			"byteLength":864,
			"byteOffset":103344,
			"target":34962
		},
		{
			"buffer":0,
			"byteLength":288,
			"byteOffset":104208,
			"target":34962
		},
		{
			"buffer":0,
			"byteLength":288,
			"byteOffset":104496,
			"target":34962
		},
		{
			"buffer":0,
			"byteLength":288,
			"byteOffset":104784,
			"target":34962
		},
		{
			"buffer":0,
			"byteLength":288,
			"byteOffset":105072,
			"target":34962
		},
		{
			"buffer":0,
			"byteLength":360,
			"byteOffset":105360,
			"target":34962
		},
		{
			"buffer":0,
			"byteLength":360,
			"byteOffset":105720,
			"target":34962
		},
		{
			"buffer":0,
			"byteLength":96,
			"byteOffset":106080,
			"target":34963
		},
		{
			"buffer":0,
			"byteLength":360,
			"byteOffset":106176,
			"target":34962
		},
		{
			"buffer":0,
			"byteLength":360,
			"byteOffset":106536,
			"target":34962
		},
		{
			"buffer":0,
			"byteLength":1152,
			"byteOffset":106896,
			"target":34962
		},
		{
			"buffer":0,
			"byteLength":1152,
			"byteOffset":108048,
			"target":34962
		},
		{
			"buffer":0,
			"byteLength":360,
			"byteOffset":109200,
			"target":34963
		},
		{
			"buffer":0,
			"byteLength":1152,
			"byteOffset":109560,
			"target":34962
		},
		{
			"buffer":0,
			"byteLength":1152,
			"byteOffset":110712,
			"target":34962
		},
		{
			"buffer":0,
			"byteLength":1272,
			"byteOffset":111864,
			"target":34962
		},
		{
			"buffer":0,
			"byteLength":1272,
			"byteOffset":113136,
			"target":34962
		},
		{
			"buffer":0,
			"byteLength":384,
			"byteOffset":114408,
			"target":34963
		},
		{
			"buffer":0,
			"byteLength":1272,
			"byteOffset":114792,
			"target":34962
		},
		{
			"buffer":0,
			"byteLength":1272,
			"byteOffset":116064,
			"target":34962
		},
		{
			"buffer":0,
			"byteLength":288,
			"byteOffset":117336,
			"target":34962
		},
		{
			"buffer":0,
			"byteLength":288,
			"byteOffset":117624,
			"target":34962
		},
		{
			"buffer":0,
			"byteLength":288,
			"byteOffset":117912,
			"target":34962
		},
		{
			"buffer":0,
			"byteLength":288,
			"byteOffset":118200,
			"target":34962
		},
		{
			"buffer":0,
			"byteLength":576,
			"byteOffset":118488,
			"target":34962
		},
		{
			"buffer":0,
			"byteLength":576,
			"byteOffset":119064,
			"target":34962
		},
		{
			"buffer":0,
			"byteLength":168,
			"byteOffset":119640,
			"target":34963
		},
		{
			"buffer":0,
			"byteLength":576,
			"byteOffset":119808,
			"target":34962
		},
		{
			"buffer":0,
			"byteLength":576,
			"byteOffset":120384,
			"target":34962
		},
		{
			"buffer":0,
			"byteLength":2640,
			"byteOffset":120960,
			"target":34962
		},
		{
			"buffer":0,
			"byteLength":2640,
			"byteOffset":123600,
			"target":34962
		},
		{
			"buffer":0,
			"byteLength":792,
			"byteOffset":126240,
			"target":34963
		},
		{
			"buffer":0,
			"byteLength":2640,
			"byteOffset":127032,
			"target":34962
		},
		{
			"buffer":0,
			"byteLength":2640,
			"byteOffset":129672,
			"target":34962
		},
		{
			"buffer":0,
			"byteLength":1764,
			"byteOffset":132312,
			"target":34962
		},
		{
			"buffer":0,
			"byteLength":1764,
			"byteOffset":134076,
			"target":34962
		},
		{
			"buffer":0,
			"byteLength":552,
			"byteOffset":135840,
			"target":34963
		},
		{
			"buffer":0,
			"byteLength":1764,
			"byteOffset":136392,
			"target":34962
		},
		{
			"buffer":0,
			"byteLength":1764,
			"byteOffset":138156,
			"target":34962
		},
		{
			"buffer":0,
			"byteLength":1512,
			"byteOffset":139920,
			"target":34962
		},
		{
			"buffer":0,
			"byteLength":1512,
			"byteOffset":141432,
			"target":34962
		},
		{
			"buffer":0,
			"byteLength":480,
			"byteOffset":142944,
			"target":34963
		},
		{
			"buffer":0,
			"byteLength":1512,
			"byteOffset":143424,
			"target":34962
		},
		{
			"buffer":0,
			"byteLength":1512,
			"byteOffset":144936,
			"target":34962
		},
		{
			"buffer":0,
			"byteLength":62160,
			"byteOffset":146448,
			"target":34962
		},
		{
			"buffer":0,
			"byteLength":62160,
			"byteOffset":208608,
			"target":34962
		},
		{
			"buffer":0,
			"byteLength":20736,
			"byteOffset":270768,
			"target":34963
		},
		{
			"buffer":0,
			"byteLength":80784,
			"byteOffset":291504,
			"target":34962
		},
		{
			"buffer":0,
			"byteLength":80784,
			"byteOffset":372288,
			"target":34962
		},
		{
			"buffer":0,
			"byteLength":13464,
			"byteOffset":453072,
			"target":34963
		}
	],
	"buffers":[
		{
			"byteLength":466536,
			"uri":"Piece_2_2.bin"
		}
	]
}
