{
	"asset":{
		"generator":"Khronos glTF Blender I/O v5.2.39",
		"version":"2.0"
	},
	"scene":0,
	"scenes":[
		{
			"extras":{
				"vrm_addon_extension":{
					"vrm0_material_gltf_property_names":[
						{
							"name":"_Color",
							"value":"_Color"
						},
						{
							"name":"_MainTex_ST",
							"value":"_MainTex_ST"
						},
						{
							"name":"_MainTex_ST_S",
							"value":"_MainTex_ST_S"
						},
						{
							"name":"_MainTex_ST_T",
							"value":"_MainTex_ST_T"
						},
						{
							"name":"_MetallicGlossMap_ST",
							"value":"_MetallicGlossMap_ST"
						},
						{
							"name":"_MetallicGlossMap_ST_S",
							"value":"_MetallicGlossMap_ST_S"
						},
						{
							"name":"_MetallicGlossMap_ST_T",
							"value":"_MetallicGlossMap_ST_T"
						},
						{
							"name":"_BumpMap_ST",
							"value":"_BumpMap_ST"
						},
						{
							"name":"_BumpMap_ST_S",
							"value":"_BumpMap_ST_S"
						},
						{
							"name":"_BumpMap_ST_T",
							"value":"_BumpMap_ST_T"
						},
						{
							"name":"_ParallaxMap_ST",
							"value":"_ParallaxMap_ST"
						},
						{
							"name":"_ParallaxMap_ST_S",
							"value":"_ParallaxMap_ST_S"
						},
						{
							"name":"_ParallaxMap_ST_T",
							"value":"_ParallaxMap_ST_T"
						},
						{
							"name":"_OcclusionMap_ST",
							"value":"_OcclusionMap_ST"
						},
						{
							"name":"_OcclusionMap_ST_S",
							"value":"_OcclusionMap_ST_S"
						},
						{
							"name":"_OcclusionMap_ST_T",
							"value":"_OcclusionMap_ST_T"
						},
						{
							"name":"_EmissionColor",
							"value":"_EmissionColor"
						},
						{
							"name":"_EmissionMap_ST",
							"value":"_EmissionMap_ST"
						},
						{
							"name":"_EmissionMap_ST_S",
							"value":"_EmissionMap_ST_S"
						},
						{
							"name":"_EmissionMap_ST_T",
							"value":"_EmissionMap_ST_T"
						},
						{
							"name":"_DetailMask_ST",
							"value":"_DetailMask_ST"
						},
						{
							"name":"_DetailMask_ST_S",
							"value":"_DetailMask_ST_S"
						},
						{
							"name":"_DetailMask_ST_T",
							"value":"_DetailMask_ST_T"
						},
						{
							"name":"_DetailAlbedoMap_ST",
							"value":"_DetailAlbedoMap_ST"
						},
						{
							"name":"_DetailAlbedoMap_ST_S",
							"value":"_DetailAlbedoMap_ST_S"
						},
						{
							"name":"_DetailAlbedoMap_ST_T",
							"value":"_DetailAlbedoMap_ST_T"
						},
						{
							"name":"_DetailNormalMap_ST",
							"value":"_DetailNormalMap_ST"
						},
						{
							"name":"_DetailNormalMap_ST_S",
							"value":"_DetailNormalMap_ST_S"
						},
						{
							"name":"_DetailNormalMap_ST_T",
							"value":"_DetailNormalMap_ST_T"
						}
					],
					"vrm0_material_mtoon0_property_names":[
						{
							"name":"_Color",
							"value":"_Color"
						},
						{
							"name":"_ShadeColor",
							"value":"_ShadeColor"
						},
						{
							"name":"_MainTex_ST",
							"value":"_MainTex_ST"
						},
						{
							"name":"_MainTex_ST_S",
							"value":"_MainTex_ST_S"
						},
						{
							"name":"_MainTex_ST_T",
							"value":"_MainTex_ST_T"
						},
						{
							"name":"_ShadeTexture_ST",
							"value":"_ShadeTexture_ST"
						},
						{
							"name":"_ShadeTexture_ST_S",
							"value":"_ShadeTexture_ST_S"
						},
						{
							"name":"_ShadeTexture_ST_T",
							"value":"_ShadeTexture_ST_T"
						},
						{
							"name":"_BumpMap_ST",
							"value":"_BumpMap_ST"
						},
						{
							"name":"_BumpMap_ST_S",
							"value":"_BumpMap_ST_S"
						},
						{
							"name":"_BumpMap_ST_T",
							"value":"_BumpMap_ST_T"
						},
						{
							"name":"_ReceiveShadowTexture_ST",
							"value":"_ReceiveShadowTexture_ST"
						},
						{
							"name":"_ReceiveShadowTexture_ST_S",
							"value":"_ReceiveShadowTexture_ST_S"
						},
						{
							"name":"_ReceiveShadowTexture_ST_T",
							"value":"_ReceiveShadowTexture_ST_T"
						},
						{
							"name":"_ShadingGradeTexture_ST",
							"value":"_ShadingGradeTexture_ST"
						},
						{
							"name":"_ShadingGradeTexture_ST_S",
							"value":"_ShadingGradeTexture_ST_S"
						},
						{
							"name":"_ShadingGradeTexture_ST_T",
							"value":"_ShadingGradeTexture_ST_T"
						},
						{
							"name":"_RimColor",
							"value":"_RimColor"
						},
						{
							"name":"_RimTexture_ST",
							"value":"_RimTexture_ST"
						},
						{
							"name":"_RimTexture_ST_S",
							"value":"_RimTexture_ST_S"
						},
						{
							"name":"_RimTexture_ST_T",
							"value":"_RimTexture_ST_T"
						},
						{
							"name":"_SphereAdd_ST",
							"value":"_SphereAdd_ST"
						},
						{
							"name":"_SphereAdd_ST_S",
							"value":"_SphereAdd_ST_S"
						},
						{
							"name":"_SphereAdd_ST_T",
							"value":"_SphereAdd_ST_T"
						},
						{
							"name":"_EmissionColor",
							"value":"_EmissionColor"
						},
						{
							"name":"_EmissionMap_ST",
							"value":"_EmissionMap_ST"
						},
						{
							"name":"_EmissionMap_ST_S",
							"value":"_EmissionMap_ST_S"
						},
						{
							"name":"_EmissionMap_ST_T",
							"value":"_EmissionMap_ST_T"
						},
						{
							"name":"_OutlineWidthTexture_ST",
							"value":"_OutlineWidthTexture_ST"
						},
						{
							"name":"_OutlineWidthTexture_ST_S",
							"value":"_OutlineWidthTexture_ST_S"
						},
						{
							"name":"_OutlineWidthTexture_ST_T",
							"value":"_OutlineWidthTexture_ST_T"
						},
						{
							"name":"_OutlineColor",
							"value":"_OutlineColor"
						},
						{
							"name":"_UvAnimMaskTexture_ST",
							"value":"_UvAnimMaskTexture_ST"
						},
						{
							"name":"_UvAnimMaskTexture_ST_S",
							"value":"_UvAnimMaskTexture_ST_S"
						},
						{
							"name":"_UvAnimMaskTexture_ST_T",
							"value":"_UvAnimMaskTexture_ST_T"
						}
					]
				},
				"rka":{}
			},
			"name":"Scene",
			"nodes":[
				0,
				1,
				2,
				3,
				4,
				5,
				6,
				7,
				8,
				9,
				10,
				11,
				12,
				13,
				14,
				15,
				16,
				17,
				18,
				19,
				20,
				21,
				22,
				23,
				24,
				25,
				26,
				27,
				28,
				29,
				30,
				31,
				32,
				33,
				34,
				35,
				36,
				37,
				38,
				39,
				40,
				41,
				42,
				43,
				44,
				45
			]
		}
	],
	"nodes":[
		{
			"mesh":0,
			"name":"District_industry_4_2_Bldg_007_h17m"
		},
		{
			"extras":{
				"proxy_for":"District_industry_4_2_Bldg_007_h17m"
			},
			"mesh":1,
			"name":"District_industry_4_2_Bldg_007_h17m-colonly"
		},
		{
			"mesh":2,
			"name":"District_industry_4_2_Bldg_010_h14m"
		},
		{
			"extras":{
				"proxy_for":"District_industry_4_2_Bldg_010_h14m"
			},
			"mesh":3,
			"name":"District_industry_4_2_Bldg_010_h14m-colonly"
		},
		{
			"mesh":4,
			"name":"District_industry_4_2_Bldg_011_h12m"
		},
		{
			"extras":{
				"proxy_for":"District_industry_4_2_Bldg_011_h12m"
			},
			"mesh":5,
			"name":"District_industry_4_2_Bldg_011_h12m-colonly"
		},
		{
			"mesh":6,
			"name":"District_industry_4_2_Bldg_012_h12m"
		},
		{
			"extras":{
				"proxy_for":"District_industry_4_2_Bldg_012_h12m"
			},
			"mesh":7,
			"name":"District_industry_4_2_Bldg_012_h12m-colonly"
		},
		{
			"mesh":8,
			"name":"District_industry_4_2_Bldg_013_h11m"
		},
		{
			"extras":{
				"proxy_for":"District_industry_4_2_Bldg_013_h11m"
			},
			"mesh":9,
			"name":"District_industry_4_2_Bldg_013_h11m-colonly"
		},
		{
			"mesh":10,
			"name":"District_industry_4_2_Bldg_015_h9m"
		},
		{
			"extras":{
				"proxy_for":"District_industry_4_2_Bldg_015_h9m"
			},
			"mesh":11,
			"name":"District_industry_4_2_Bldg_015_h9m-colonly"
		},
		{
			"mesh":12,
			"name":"District_industry_4_2_Bldg_016_h8m"
		},
		{
			"extras":{
				"proxy_for":"District_industry_4_2_Bldg_016_h8m"
			},
			"mesh":13,
			"name":"District_industry_4_2_Bldg_016_h8m-colonly"
		},
		{
			"mesh":14,
			"name":"District_industry_4_2_Bldg_017_h8m"
		},
		{
			"extras":{
				"proxy_for":"District_industry_4_2_Bldg_017_h8m"
			},
			"mesh":15,
			"name":"District_industry_4_2_Bldg_017_h8m-colonly"
		},
		{
			"mesh":16,
			"name":"District_industry_4_2_Bldg_018_h7m"
		},
		{
			"extras":{
				"proxy_for":"District_industry_4_2_Bldg_018_h7m"
			},
			"mesh":17,
			"name":"District_industry_4_2_Bldg_018_h7m-colonly"
		},
		{
			"mesh":18,
			"name":"District_industry_4_2_Bldg_020_h7m"
		},
		{
			"extras":{
				"proxy_for":"District_industry_4_2_Bldg_020_h7m"
			},
			"mesh":19,
			"name":"District_industry_4_2_Bldg_020_h7m-colonly"
		},
		{
			"mesh":20,
			"name":"District_industry_4_2_Bldg_022_h7m"
		},
		{
			"extras":{
				"proxy_for":"District_industry_4_2_Bldg_022_h7m"
			},
			"mesh":21,
			"name":"District_industry_4_2_Bldg_022_h7m-colonly"
		},
		{
			"mesh":22,
			"name":"District_industry_4_2_Bldg_024_h6m"
		},
		{
			"extras":{
				"proxy_for":"District_industry_4_2_Bldg_024_h6m"
			},
			"mesh":23,
			"name":"District_industry_4_2_Bldg_024_h6m-colonly"
		},
		{
			"mesh":24,
			"name":"District_industry_4_2_Bldg_025_h6m"
		},
		{
			"extras":{
				"proxy_for":"District_industry_4_2_Bldg_025_h6m"
			},
			"mesh":25,
			"name":"District_industry_4_2_Bldg_025_h6m-colonly"
		},
		{
			"mesh":26,
			"name":"District_industry_4_2_Bldg_030_h4m"
		},
		{
			"extras":{
				"proxy_for":"District_industry_4_2_Bldg_030_h4m"
			},
			"mesh":27,
			"name":"District_industry_4_2_Bldg_030_h4m-colonly"
		},
		{
			"mesh":28,
			"name":"District_industry_4_2_Road"
		},
		{
			"mesh":29,
			"name":"District_industry_4_2_Terrain-col"
		},
		{
			"extras":{
				"lane_offset":-1.75
			},
			"name":"lane_seam_3_2_4_2_0_entry_hi_0",
			"translation":[
				-252,
				0.6000000238418579,
				0
			]
		},
		{
			"name":"lane_seam_3_2_4_2_0_entry_hi_1",
			"translation":[
				-226.8000030517578,
				0.6000000238418579,
				0
			]
		},
		{
			"extras":{
				"lane_offset":-1.75,
				"end_behavior":"CHAIN",
				"next_routes":"seam_3_2_4_2_0_entry_lo"
			},
			"name":"lane_seam_3_2_4_2_0_exit_hi_0",
			"translation":[
				-226.8000030517578,
				0.6000000238418579,
				0
			]
		},
		{
			"name":"lane_seam_3_2_4_2_0_exit_hi_1",
			"translation":[
				-252,
				0.6000000238418579,
				0
			]
		},
		{
			"extras":{
				"lane_offset":-1.75
			},
			"name":"lane_seam_4_1_4_2_0_entry_hi_0",
			"translation":[
				0,
				0.6000000238418579,
				252
			]
		},
		{
			"name":"lane_seam_4_1_4_2_0_entry_hi_1",
			"translation":[
				0,
				0.6000000238418579,
				226.8000030517578
			]
		},
		{
			"extras":{
				"lane_offset":-1.75,
				"end_behavior":"CHAIN",
				"next_routes":"seam_4_1_4_2_0_entry_lo"
			},
			"name":"lane_seam_4_1_4_2_0_exit_hi_0",
			"translation":[
				0,
				0.6000000238418579,
				226.8000030517578
			]
		},
		{
			"name":"lane_seam_4_1_4_2_0_exit_hi_1",
			"translation":[
				0,
				0.6000000238418579,
				252
			]
		},
		{
			"extras":{
				"lane_offset":-1.75
			},
			"name":"lane_seam_4_2_4_3_0_entry_lo_0",
			"translation":[
				0,
				0.6000000238418579,
				-252
			]
		},
		{
			"name":"lane_seam_4_2_4_3_0_entry_lo_1",
			"translation":[
				0,
				0.6000000238418579,
				-226.8000030517578
			]
		},
		{
			"extras":{
				"lane_offset":-1.75,
				"end_behavior":"CHAIN",
				"next_routes":"seam_4_2_4_3_0_entry_hi"
			},
			"name":"lane_seam_4_2_4_3_0_exit_lo_0",
			"translation":[
				0,
				0.6000000238418579,
				-226.8000030517578
			]
		},
		{
			"name":"lane_seam_4_2_4_3_0_exit_lo_1",
			"translation":[
				0,
				0.6000000238418579,
				-252
			]
		},
		{
			"extras":{
				"lane_offset":-1.75
			},
			"name":"lane_seam_4_2_5_2_0_entry_lo_0",
			"translation":[
				252,
				0.6000000238418579,
				0
			]
		},
		{
			"name":"lane_seam_4_2_5_2_0_entry_lo_1",
			"translation":[
				226.8000030517578,
				0.6000000238418579,
				0
			]
		},
		{
			"extras":{
				"lane_offset":-1.75,
				"end_behavior":"CHAIN",
				"next_routes":"seam_4_2_5_2_0_entry_hi"
			},
			"name":"lane_seam_4_2_5_2_0_exit_lo_0",
			"translation":[
				226.8000030517578,
				0.6000000238418579,
				0
			]
		},
		{
			"name":"lane_seam_4_2_5_2_0_exit_lo_1",
			"translation":[
				252,
				0.6000000238418579,
				0
			]
		}
	],
	"materials":[
		{
			"doubleSided":true,
			"extras":{
				"vrm_addon_extension":{
					"mtoon1":{}
				}
			},
			"name":"M_Collision",
			"pbrMetallicRoughness":{
				"baseColorFactor":[
					0.8999999761581421,
					0.20000000298023224,
					0.550000011920929,
					1
				],
				"metallicFactor":0,
				"roughnessFactor":0.5
			}
		},
		{
			"doubleSided":true,
			"extras":{
				"vrm_addon_extension":{
					"mtoon1":{}
				}
			},
			"name":"M_Asphalt",
			"pbrMetallicRoughness":{
				"baseColorFactor":[
					0.2800000011920929,
					0.30000001192092896,
					0.33000001311302185,
					1
				],
				"metallicFactor":0,
				"roughnessFactor":0.5
			}
		},
		{
			"doubleSided":true,
			"extras":{
				"vrm_addon_extension":{
					"mtoon1":{}
				}
			},
			"name":"M_Dirt",
			"pbrMetallicRoughness":{
				"baseColorFactor":[
					0.4000000059604645,
					0.3400000035762787,
					0.25999999046325684,
					1
				],
				"metallicFactor":0,
				"roughnessFactor":0.5
			}
		}
	],
	"meshes":[
		{
			"name":"District_industry_4_2_Bldg_007_h17m",
			"primitives":[
				{
					"attributes":{
						"POSITION":0,
						"NORMAL":1
					},
					"indices":2
				}
			]
		},
		{
			"name":"District_industry_4_2_Bldg_007_h17m.001",
			"primitives":[
				{
					"attributes":{
						"POSITION":3,
						"NORMAL":4
					},
					"indices":2,
					"material":0
				}
			]
		},
		{
			"name":"District_industry_4_2_Bldg_010_h14m",
			"primitives":[
				{
					"attributes":{
						"POSITION":5,
						"NORMAL":6
					},
					"indices":7
				}
			]
		},
		{
			"name":"District_industry_4_2_Bldg_010_h14m.001",
			"primitives":[
				{
					"attributes":{
						"POSITION":8,
						"NORMAL":9
					},
					"indices":7,
					"material":0
				}
			]
		},
		{
			"name":"District_industry_4_2_Bldg_011_h12m",
			"primitives":[
				{
					"attributes":{
						"POSITION":10,
						"NORMAL":11
					},
					"indices":12
				}
			]
		},
		{
			"name":"District_industry_4_2_Bldg_011_h12m.001",
			"primitives":[
				{
					"attributes":{
						"POSITION":13,
						"NORMAL":14
					},
					"indices":12,
					"material":0
				}
			]
		},
		{
			"name":"District_industry_4_2_Bldg_012_h12m",
			"primitives":[
				{
					"attributes":{
						"POSITION":15,
						"NORMAL":16
					},
					"indices":17
				}
			]
		},
		{
			"name":"District_industry_4_2_Bldg_012_h12m.001",
			"primitives":[
				{
					"attributes":{
						"POSITION":18,
						"NORMAL":19
					},
					"indices":17,
					"material":0
				}
			]
		},
		{
			"name":"District_industry_4_2_Bldg_013_h11m",
			"primitives":[
				{
					"attributes":{
						"POSITION":20,
						"NORMAL":21
					},
					"indices":22
				}
			]
		},
		{
			"name":"District_industry_4_2_Bldg_013_h11m.001",
			"primitives":[
				{
					"attributes":{
						"POSITION":23,
						"NORMAL":24
					},
					"indices":22,
					"material":0
				}
			]
		},
		{
			"name":"District_industry_4_2_Bldg_015_h9m",
			"primitives":[
				{
					"attributes":{
						"POSITION":25,
						"NORMAL":26
					},
					"indices":27
				}
			]
		},
		{
			"name":"District_industry_4_2_Bldg_015_h9m.001",
			"primitives":[
				{
					"attributes":{
						"POSITION":28,
						"NORMAL":29
					},
					"indices":27,
					"material":0
				}
			]
		},
		{
			"name":"District_industry_4_2_Bldg_016_h8m",
			"primitives":[
				{
					"attributes":{
						"POSITION":30,
						"NORMAL":31
					},
					"indices":32
				}
			]
		},
		{
			"name":"District_industry_4_2_Bldg_016_h8m.001",
			"primitives":[
				{
					"attributes":{
						"POSITION":33,
						"NORMAL":34
					},
					"indices":32,
					"material":0
				}
			]
		},
		{
			"name":"District_industry_4_2_Bldg_017_h8m",
			"primitives":[
				{
					"attributes":{
						"POSITION":35,
						"NORMAL":36
					},
					"indices":37
				}
			]
		},
		{
			"name":"District_industry_4_2_Bldg_017_h8m.001",
			"primitives":[
				{
					"attributes":{
						"POSITION":38,
						"NORMAL":39
					},
					"indices":37,
					"material":0
				}
			]
		},
		{
			"name":"District_industry_4_2_Bldg_018_h7m",
			"primitives":[
				{
					"attributes":{
						"POSITION":40,
						"NORMAL":41
					},
					"indices":42
				}
			]
		},
		{
			"name":"District_industry_4_2_Bldg_018_h7m.001",
			"primitives":[
				{
					"attributes":{
						"POSITION":43,
						"NORMAL":44
					},
					"indices":42,
					"material":0
				}
			]
		},
		{
			"name":"District_industry_4_2_Bldg_020_h7m",
			"primitives":[
				{
					"attributes":{
						"POSITION":45,
						"NORMAL":46
					},
					"indices":47
				}
			]
		},
		{
			"name":"District_industry_4_2_Bldg_020_h7m.001",
			"primitives":[
				{
					"attributes":{
						"POSITION":48,
						"NORMAL":49
					},
					"indices":47,
					"material":0
				}
			]
		},
		{
			"name":"District_industry_4_2_Bldg_022_h7m",
			"primitives":[
				{
					"attributes":{
						"POSITION":50,
						"NORMAL":51
					},
					"indices":52
				}
			]
		},
		{
			"name":"District_industry_4_2_Bldg_022_h7m.001",
			"primitives":[
				{
					"attributes":{
						"POSITION":53,
						"NORMAL":54
					},
					"indices":52,
					"material":0
				}
			]
		},
		{
			"name":"District_industry_4_2_Bldg_024_h6m",
			"primitives":[
				{
					"attributes":{
						"POSITION":55,
						"NORMAL":56
					},
					"indices":57
				}
			]
		},
		{
			"name":"District_industry_4_2_Bldg_024_h6m.001",
			"primitives":[
				{
					"attributes":{
						"POSITION":58,
						"NORMAL":59
					},
					"indices":57,
					"material":0
				}
			]
		},
		{
			"name":"District_industry_4_2_Bldg_025_h6m",
			"primitives":[
				{
					"attributes":{
						"POSITION":60,
						"NORMAL":61
					},
					"indices":62
				}
			]
		},
		{
			"name":"District_industry_4_2_Bldg_025_h6m.001",
			"primitives":[
				{
					"attributes":{
						"POSITION":63,
						"NORMAL":64
					},
					"indices":62,
					"material":0
				}
			]
		},
		{
			"name":"District_industry_4_2_Bldg_030_h4m",
			"primitives":[
				{
					"attributes":{
						"POSITION":65,
						"NORMAL":66
					},
					"indices":67
				}
			]
		},
		{
			"name":"District_industry_4_2_Bldg_030_h4m.001",
			"primitives":[
				{
					"attributes":{
						"POSITION":68,
						"NORMAL":69
					},
					"indices":67,
					"material":0
				}
			]
		},
		{
			"name":"District_industry_4_2_Road_000",
			"primitives":[
				{
					"attributes":{
						"POSITION":70,
						"NORMAL":71
					},
					"indices":72,
					"material":1
				}
			]
		},
		{
			"name":"District_industry_4_2_Terrain-col",
			"primitives":[
				{
					"attributes":{
						"POSITION":73,
						"NORMAL":74
					},
					"indices":75,
					"material":2
				}
			]
		}
	],
	"accessors":[
		{
			"bufferView":0,
			"componentType":5126,
			"count":120,
			"max":[
				108.05935668945312,
				19.93670654296875,
				123.663818359375
			],
			"min":[
				72.8120346069336,
				2.7894790172576904,
				89.4617691040039
			],
			"type":"VEC3"
		},
		{
			"bufferView":1,
			"componentType":5126,
			"count":120,
			"type":"VEC3"
		},
		{
			"bufferView":2,
			"componentType":5123,
			"count":156,
			"type":"SCALAR"
		},
		{
			"bufferView":3,
			"componentType":5126,
			"count":120,
			"max":[
				108.05935668945312,
				19.93670654296875,
				123.663818359375
			],
			"min":[
				72.8120346069336,
				2.7894790172576904,
				89.4617691040039
			],
			"type":"VEC3"
		},
		{
			"bufferView":4,
			"componentType":5126,
			"count":120,
			"type":"VEC3"
		},
		{
			"bufferView":5,
			"componentType":5126,
			"count":1062,
			"max":[
				-90.30233764648438,
				13.640531539916992,
				-129.41238403320312
			],
			"min":[
				-173.4733123779297,
				0,
				-195.92491149902344
			],
			"type":"VEC3"
		},
		{
			"bufferView":6,
			"componentType":5126,
			"count":1062,
			"type":"VEC3"
		},
		{
			"bufferView":7,
			"componentType":5123,
			"count":1644,
			"type":"SCALAR"
		},
		{
			"bufferView":8,
			"componentType":5126,
			"count":1062,
			"max":[
				-90.30233764648438,
				13.640531539916992,
				-129.41238403320312
			],
			"min":[
				-173.4733123779297,
				0,
				-195.92491149902344
			],
			"type":"VEC3"
		},
		{
			"bufferView":9,
			"componentType":5126,
			"count":1062,
			"type":"VEC3"
		},
		{
			"bufferView":10,
			"componentType":5126,
			"count":422,
			"max":[
				156.69625854492188,
				15.89145565032959,
				47.682037353515625
			],
			"min":[
				116.8984375,
				3.6379969120025635,
				3.194591760635376
			],
			"type":"VEC3"
		},
		{
			"bufferView":11,
			"componentType":5126,
			"count":422,
			"type":"VEC3"
		},
		{
			"bufferView":12,
			"componentType":5123,
			"count":696,
			"type":"SCALAR"
		},
		{
			"bufferView":13,
			"componentType":5126,
			"count":422,
			"max":[
				156.69625854492188,
				15.89145565032959,
				47.682037353515625
			],
			"min":[
				116.8984375,
				3.6379969120025635,
				3.194591760635376
			],
			"type":"VEC3"
		},
		{
			"bufferView":14,
			"componentType":5126,
			"count":422,
			"type":"VEC3"
		},
		{
			"bufferView":15,
			"componentType":5126,
			"count":916,
			"max":[
				110.26417541503906,
				14.697025299072266,
				161.28147888183594
			],
			"min":[
				82.12675476074219,
				2.891136884689331,
				126.56336975097656
			],
			"type":"VEC3"
		},
		{
			"bufferView":16,
			"componentType":5126,
			"count":916,
			"type":"VEC3"
		},
		{
			"bufferView":17,
			"componentType":5123,
			"count":1662,
			"type":"SCALAR"
		},
		{
			"bufferView":18,
			"componentType":5126,
			"count":916,
			"max":[
				110.26417541503906,
				14.697025299072266,
				161.28147888183594
			],
			"min":[
				82.12675476074219,
				2.891136884689331,
				126.56336975097656
			],
			"type":"VEC3"
		},
		{
			"bufferView":19,
			"componentType":5126,
			"count":916,
			"type":"VEC3"
		},
		{
			"bufferView":20,
			"componentType":5126,
			"count":544,
			"max":[
				46.834781646728516,
				12.919923782348633,
				195.4191131591797
			],
			"min":[
				-17.067947387695312,
				2.119518995285034,
				142.3192138671875
			],
			"type":"VEC3"
		},
		{
			"bufferView":21,
			"componentType":5126,
			"count":544,
			"type":"VEC3"
		},
		{
			"bufferView":22,
			"componentType":5123,
			"count":762,
			"type":"SCALAR"
		},
		{
			"bufferView":23,
			"componentType":5126,
			"count":544,
			"max":[
				46.834781646728516,
				12.919923782348633,
				195.4191131591797
			],
			"min":[
				-17.067947387695312,
				2.119518995285034,
				142.3192138671875
			],
			"type":"VEC3"
		},
		{
			"bufferView":24,
			"componentType":5126,
			"count":544,
			"type":"VEC3"
		},
		{
			"bufferView":25,
			"componentType":5126,
			"count":124,
			"max":[
				-184.5205841064453,
				12.62939453125,
				-155.6223907470703
			],
			"min":[
				-204.8822784423828,
				3.8920650482177734,
				-174.8688201904297
			],
			"type":"VEC3"
		},
		{
			"bufferView":26,
			"componentType":5126,
			"count":124,
			"type":"VEC3"
		},
		{
			"bufferView":27,
			"componentType":5123,
			"count":216,
			"type":"SCALAR"
		},
		{
			"bufferView":28,
			"componentType":5126,
			"count":124,
			"max":[
				-184.5205841064453,
				12.62939453125,
				-155.6223907470703
			],
			"min":[
				-204.8822784423828,
				3.8920650482177734,
				-174.8688201904297
			],
			"type":"VEC3"
		},
		{
			"bufferView":29,
			"componentType":5126,
			"count":124,
			"type":"VEC3"
		},
		{
			"bufferView":30,
			"componentType":5126,
			"count":245,
			"max":[
				-126.18453216552734,
				12.90710735321045,
				-166.68397521972656
			],
			"min":[
				-167.45960998535156,
				4.611319065093994,
				-195.90570068359375
			],
			"type":"VEC3"
		},
		{
			"bufferView":31,
			"componentType":5126,
			"count":245,
			"type":"VEC3"
		},
		{
			"bufferView":32,
			"componentType":5123,
			"count":372,
			"type":"SCALAR"
		},
		{
			"bufferView":33,
			"componentType":5126,
			"count":245,
			"max":[
				-126.18453216552734,
				12.90710735321045,
				-166.68397521972656
			],
			"min":[
				-167.45960998535156,
				4.611319065093994,
				-195.90570068359375
			],
			"type":"VEC3"
		},
		{
			"bufferView":34,
			"componentType":5126,
			"count":245,
			"type":"VEC3"
		},
		{
			"bufferView":35,
			"componentType":5126,
			"count":106,
			"max":[
				-170.6211700439453,
				12.460413932800293,
				-168.1248321533203
			],
			"min":[
				-187.28619384765625,
				4.3695149421691895,
				-185.45394897460938
			],
			"type":"VEC3"
		},
		{
			"bufferView":36,
			"componentType":5126,
			"count":106,
			"type":"VEC3"
		},
		{
			"bufferView":37,
			"componentType":5123,
			"count":168,
			"type":"SCALAR"
		},
		{
			"bufferView":38,
			"componentType":5126,
			"count":106,
			"max":[
				-170.6211700439453,
				12.460413932800293,
				-168.1248321533203
			],
			"min":[
				-187.28619384765625,
				4.3695149421691895,
				-185.45394897460938
			],
			"type":"VEC3"
		},
		{
			"bufferView":39,
			"componentType":5126,
			"count":106,
			"type":"VEC3"
		},
		{
			"bufferView":40,
			"componentType":5126,
			"count":50,
			"max":[
				83.5891342163086,
				10.74988079071045,
				60.72127151489258
			],
			"min":[
				66.36665344238281,
				3.660223960876465,
				45.97482681274414
			],
			"type":"VEC3"
		},
		{
			"bufferView":41,
			"componentType":5126,
			"count":50,
			"type":"VEC3"
		},
		{
			"bufferView":42,
			"componentType":5123,
			"count":84,
			"type":"SCALAR"
		},
		{
			"bufferView":43,
			"componentType":5126,
			"count":50,
			"max":[
				83.5891342163086,
				10.74988079071045,
				60.72127151489258
			],
			"min":[
				66.36665344238281,
				3.660223960876465,
				45.97482681274414
			],
			"type":"VEC3"
		},
		{
			"bufferView":44,
			"componentType":5126,
			"count":50,
			"type":"VEC3"
		},
		{
			"bufferView":45,
			"componentType":5126,
			"count":24,
			"max":[
				77.84608459472656,
				8.846961975097656,
				231.7313690185547
			],
			"min":[
				55.88258361816406,
				1.9892710447311401,
				203.01625061035156
			],
			"type":"VEC3"
		},
		{
			"bufferView":46,
			"componentType":5126,
			"count":24,
			"type":"VEC3"
		},
		{
			"bufferView":47,
			"componentType":5123,
			"count":36,
			"type":"SCALAR"
		},
		{
			"bufferView":48,
			"componentType":5126,
			"count":24,
			"max":[
				77.84608459472656,
				8.846961975097656,
				231.7313690185547
			],
			"min":[
				55.88258361816406,
				1.9892710447311401,
				203.01625061035156
			],
			"type":"VEC3"
		},
		{
			"bufferView":49,
			"componentType":5126,
			"count":24,
			"type":"VEC3"
		},
		{
			"bufferView":50,
			"componentType":5126,
			"count":24,
			"max":[
				127.70469665527344,
				9.44223403930664,
				188.56837463378906
			],
			"min":[
				99.86508178710938,
				2.68996000289917,
				153.97691345214844
			],
			"type":"VEC3"
		},
		{
			"bufferView":51,
			"componentType":5126,
			"count":24,
			"type":"VEC3"
		},
		{
			"bufferView":52,
			"componentType":5123,
			"count":36,
			"type":"SCALAR"
		},
		{
			"bufferView":53,
			"componentType":5126,
			"count":24,
			"max":[
				127.70469665527344,
				9.44223403930664,
				188.56837463378906
			],
			"min":[
				99.86508178710938,
				2.68996000289917,
				153.97691345214844
			],
			"type":"VEC3"
		},
		{
			"bufferView":54,
			"componentType":5126,
			"count":24,
			"type":"VEC3"
		},
		{
			"bufferView":55,
			"componentType":5126,
			"count":126,
			"max":[
				-189.9263153076172,
				10.254373550415039,
				-166.8363037109375
			],
			"min":[
				-210.32608032226562,
				3.937462091445923,
				-191.0738525390625
			],
			"type":"VEC3"
		},
		{
			"bufferView":56,
			"componentType":5126,
			"count":126,
			"type":"VEC3"
		},
		{
			"bufferView":57,
			"componentType":5123,
			"count":216,
			"type":"SCALAR"
		},
		{
			"bufferView":58,
			"componentType":5126,
			"count":126,
			"max":[
				-189.9263153076172,
				10.254373550415039,
				-166.8363037109375
			],
			"min":[
				-210.32608032226562,
				3.937462091445923,
				-191.0738525390625
			],
			"type":"VEC3"
		},
		{
			"bufferView":59,
			"componentType":5126,
			"count":126,
			"type":"VEC3"
		},
		{
			"bufferView":60,
			"componentType":5126,
			"count":82,
			"max":[
				-163.76466369628906,
				7.587862014770508,
				-151.76905822753906
			],
			"min":[
				-191.99977111816406,
				1.2805440425872803,
				-171.7866668701172
			],
			"type":"VEC3"
		},
		{
			"bufferView":61,
			"componentType":5126,
			"count":82,
			"type":"VEC3"
		},
		{
			"bufferView":62,
			"componentType":5123,
			"count":132,
			"type":"SCALAR"
		},
		{
			"bufferView":63,
			"componentType":5126,
			"count":82,
			"max":[
				-163.76466369628906,
				7.587862014770508,
				-151.76905822753906
			],
			"min":[
				-191.99977111816406,
				1.2805440425872803,
				-171.7866668701172
			],
			"type":"VEC3"
		},
		{
			"bufferView":64,
			"componentType":5126,
			"count":82,
			"type":"VEC3"
		},
		{
			"bufferView":65,
			"componentType":5126,
			"count":492,
			"max":[
				9.060453414916992,
				6.525854110717773,
				158.3461151123047
			],
			"min":[
				-28.282949447631836,
				2.188760995864868,
				121.40514373779297
			],
			"type":"VEC3"
		},
		{
			"bufferView":66,
			"componentType":5126,
			"count":492,
			"type":"VEC3"
		},
		{
			"bufferView":67,
			"componentType":5123,
			"count":780,
			"type":"SCALAR"
		},
		{
			"bufferView":68,
			"componentType":5126,
			"count":492,
			"max":[
				9.060453414916992,
				6.525854110717773,
				158.3461151123047
			],
			"min":[
				-28.282949447631836,
				2.188760995864868,
				121.40514373779297
			],
			"type":"VEC3"
		},
		{
			"bufferView":69,
			"componentType":5126,
			"count":492,
			"type":"VEC3"
		},
		{
			"bufferView":70,
			"componentType":5126,
			"count":3624,
			"max":[
				210.45675659179688,
				5.622099876403809,
				427.80975341796875
			],
			"min":[
				-305.0402526855469,
				0.699999988079071,
				-484.2105712890625
			],
			"type":"VEC3"
		},
		{
			"bufferView":71,
			"componentType":5126,
			"count":3624,
			"type":"VEC3"
		},
		{
			"bufferView":72,
			"componentType":5123,
			"count":8568,
			"type":"SCALAR"
		},
		{
			"bufferView":73,
			"componentType":5126,
			"count":12900,
			"max":[
				252,
				8.135433197021484,
				252
			],
			"min":[
				-252,
				-1.9235670566558838,
				-252
			],
			"type":"VEC3"
		},
		{
			"bufferView":74,
			"componentType":5126,
			"count":12900,
			"type":"VEC3"
		},
		{
			"bufferView":75,
			"componentType":5123,
			"count":12900,
			"type":"SCALAR"
		}
	],
	"bufferViews":[
		{
			"buffer":0,
			"byteLength":1440,
			"byteOffset":0,
			"target":34962
		},
		{
			"buffer":0,
			"byteLength":1440,
			"byteOffset":1440,
			"target":34962
		},
		{
			"buffer":0,
			"byteLength":312,
			"byteOffset":2880,
			"target":34963
		},
		{
			"buffer":0,
			"byteLength":1440,
			"byteOffset":3192,
			"target":34962
		},
		{
			"buffer":0,
			"byteLength":1440,
			"byteOffset":4632,
			"target":34962
		},
		{
			"buffer":0,
			"byteLength":12744,
			"byteOffset":6072,
			"target":34962
		},
		{
			"buffer":0,
			"byteLength":12744,
			"byteOffset":18816,
			"target":34962
		},
		{
			"buffer":0,
			"byteLength":3288,
			"byteOffset":31560,
			"target":34963
		},
		{
			"buffer":0,
			"byteLength":12744,
			"byteOffset":34848,
			"target":34962
		},
		{
			"buffer":0,
			"byteLength":12744,
			"byteOffset":47592,
			"target":34962
		},
		{
			"buffer":0,
			"byteLength":5064,
			"byteOffset":60336,
			"target":34962
		},
		{
			"buffer":0,
			"byteLength":5064,
			"byteOffset":65400,
			"target":34962
		},
		{
			"buffer":0,
			"byteLength":1392,
			"byteOffset":70464,
			"target":34963
		},
		{
			"buffer":0,
			"byteLength":5064,
			"byteOffset":71856,
			"target":34962
		},
		{
			"buffer":0,
			"byteLength":5064,
			"byteOffset":76920,
			"target":34962
		},
		{
			"buffer":0,
			"byteLength":10992,
			"byteOffset":81984,
			"target":34962
		},
		{
			"buffer":0,
			"byteLength":10992,
			"byteOffset":92976,
			"target":34962
		},
		{
			"buffer":0,
			"byteLength":3324,
			"byteOffset":103968,
			"target":34963
		},
		{
			"buffer":0,
			"byteLength":10992,
			"byteOffset":107292,
			"target":34962
		},
		{
			"buffer":0,
			"byteLength":10992,
			"byteOffset":118284,
			"target":34962
		},
		{
			"buffer":0,
			"byteLength":6528,
			"byteOffset":129276,
			"target":34962
		},
		{
			"buffer":0,
			"byteLength":6528,
			"byteOffset":135804,
			"target":34962
		},
		{
			"buffer":0,
			"byteLength":1524,
			"byteOffset":142332,
			"target":34963
		},
		{
			"buffer":0,
			"byteLength":6528,
			"byteOffset":143856,
			"target":34962
		},
		{
			"buffer":0,
			"byteLength":6528,
			"byteOffset":150384,
			"target":34962
		},
		{
			"buffer":0,
			"byteLength":1488,
			"byteOffset":156912,
			"target":34962
		},
		{
			"buffer":0,
			"byteLength":1488,
			"byteOffset":158400,
			"target":34962
		},
		{
			"buffer":0,
			"byteLength":432,
			"byteOffset":159888,
			"target":34963
		},
		{
			"buffer":0,
			"byteLength":1488,
			"byteOffset":160320,
			"target":34962
		},
		{
			"buffer":0,
			"byteLength":1488,
			"byteOffset":161808,
			"target":34962
		},
		{
			"buffer":0,
			"byteLength":2940,
			"byteOffset":163296,
			"target":34962
		},
		{
			"buffer":0,
			"byteLength":2940,
			"byteOffset":166236,
			"target":34962
		},
		{
			"buffer":0,
			"byteLength":744,
			"byteOffset":169176,
			"target":34963
		},
		{
			"buffer":0,
			"byteLength":2940,
			"byteOffset":169920,
			"target":34962
		},
		{
			"buffer":0,
			"byteLength":2940,
			"byteOffset":172860,
			"target":34962
		},
		{
			"buffer":0,
			"byteLength":1272,
			"byteOffset":175800,
			"target":34962
		},
		{
			"buffer":0,
			"byteLength":1272,
			"byteOffset":177072,
			"target":34962
		},
		{
			"buffer":0,
			"byteLength":336,
			"byteOffset":178344,
			"target":34963
		},
		{
			"buffer":0,
			"byteLength":1272,
			"byteOffset":178680,
			"target":34962
		},
		{
			"buffer":0,
			"byteLength":1272,
			"byteOffset":179952,
			"target":34962
		},
		{
			"buffer":0,
			"byteLength":600,
			"byteOffset":181224,
			"target":34962
		},
		{
			"buffer":0,
			"byteLength":600,
			"byteOffset":181824,
			"target":34962
		},
		{
			"buffer":0,
			"byteLength":168,
			"byteOffset":182424,
			"target":34963
		},
		{
			"buffer":0,
			"byteLength":600,
			"byteOffset":182592,
			"target":34962
		},
		{
			"buffer":0,
			"byteLength":600,
			"byteOffset":183192,
			"target":34962
		},
		{
			"buffer":0,
			"byteLength":288,
			"byteOffset":183792,
			"target":34962
		},
		{
			"buffer":0,
			"byteLength":288,
			"byteOffset":184080,
			"target":34962
		},
		{
			"buffer":0,
			"byteLength":72,
			"byteOffset":184368,
			"target":34963
		},
		{
			"buffer":0,
			"byteLength":288,
			"byteOffset":184440,
			"target":34962
		},
		{
			"buffer":0,
			"byteLength":288,
			"byteOffset":184728,
			"target":34962
		},
		{
			"buffer":0,
			"byteLength":288,
			"byteOffset":185016,
			"target":34962
		},
		{
			"buffer":0,
			"byteLength":288,
			"byteOffset":185304,
			"target":34962
		},
		{
			"buffer":0,
			"byteLength":72,
			"byteOffset":185592,
			"target":34963
		},
		{
			"buffer":0,
			"byteLength":288,
			"byteOffset":185664,
			"target":34962
		},
		{
			"buffer":0,
			"byteLength":288,
			"byteOffset":185952,
			"target":34962
		},
		{
			"buffer":0,
			"byteLength":1512,
			"byteOffset":186240,
			"target":34962
		},
		{
			"buffer":0,
			"byteLength":1512,
			"byteOffset":187752,
			"target":34962
		},
		{
			"buffer":0,
			"byteLength":432,
			"byteOffset":189264,
			"target":34963
		},
		{
			"buffer":0,
			"byteLength":1512,
			"byteOffset":189696,
			"target":34962
		},
		{
			"buffer":0,
			"byteLength":1512,
			"byteOffset":191208,
			"target":34962
		},
		{
			"buffer":0,
			"byteLength":984,
			"byteOffset":192720,
			"target":34962
		},
		{
			"buffer":0,
			"byteLength":984,
			"byteOffset":193704,
			"target":34962
		},
		{
			"buffer":0,
			"byteLength":264,
			"byteOffset":194688,
			"target":34963
		},
		{
			"buffer":0,
			"byteLength":984,
			"byteOffset":194952,
			"target":34962
		},
		{
			"buffer":0,
			"byteLength":984,
			"byteOffset":195936,
			"target":34962
		},
		{
			"buffer":0,
			"byteLength":5904,
			"byteOffset":196920,
			"target":34962
		},
		{
			"buffer":0,
			"byteLength":5904,
			"byteOffset":202824,
			"target":34962
		},
		{
			"buffer":0,
			"byteLength":1560,
			"byteOffset":208728,
			"target":34963
		},
		{
			"buffer":0,
			"byteLength":5904,
			"byteOffset":210288,
			"target":34962
		},
		{
			"buffer":0,
			"byteLength":5904,
			"byteOffset":216192,
			"target":34962
		},
		{
			"buffer":0,
			"byteLength":43488,
			"byteOffset":222096,
			"target":34962
		},
		{
			"buffer":0,
			"byteLength":43488,
			"byteOffset":265584,
			"target":34962
		},
		{
			"buffer":0,
			"byteLength":17136,
			"byteOffset":309072,
			"target":34963
		},
		{
			"buffer":0,
			"byteLength":154800,
			"byteOffset":326208,
			"target":34962
		},
		{
			"buffer":0,
			"byteLength":154800,
			"byteOffset":481008,
			"target":34962
		},
		{
			"buffer":0,
			"byteLength":25800,
			"byteOffset":635808,
			"target":34963
		}
	],
	"buffers":[
		{
			"byteLength":661608,
			"uri":"Piece_4_2.bin"
		}
	]
}
