{
	"asset":{
		"generator":"Khronos glTF Blender I/O v5.2.39",
		"version":"2.0"
	},
	"scene":0,
	"scenes":[
		{
			"extras":{
				"vrm_addon_extension":{
					"vrm0_material_gltf_property_names":[
						{
							"name":"_Color",
							"value":"_Color"
						},
						{
							"name":"_MainTex_ST",
							"value":"_MainTex_ST"
						},
						{
							"name":"_MainTex_ST_S",
							"value":"_MainTex_ST_S"
						},
						{
							"name":"_MainTex_ST_T",
							"value":"_MainTex_ST_T"
						},
						{
							"name":"_MetallicGlossMap_ST",
							"value":"_MetallicGlossMap_ST"
						},
						{
							"name":"_MetallicGlossMap_ST_S",
							"value":"_MetallicGlossMap_ST_S"
						},
						{
							"name":"_MetallicGlossMap_ST_T",
							"value":"_MetallicGlossMap_ST_T"
						},
						{
							"name":"_BumpMap_ST",
							"value":"_BumpMap_ST"
						},
						{
							"name":"_BumpMap_ST_S",
							"value":"_BumpMap_ST_S"
						},
						{
							"name":"_BumpMap_ST_T",
							"value":"_BumpMap_ST_T"
						},
						{
							"name":"_ParallaxMap_ST",
							"value":"_ParallaxMap_ST"
						},
						{
							"name":"_ParallaxMap_ST_S",
							"value":"_ParallaxMap_ST_S"
						},
						{
							"name":"_ParallaxMap_ST_T",
							"value":"_ParallaxMap_ST_T"
						},
						{
							"name":"_OcclusionMap_ST",
							"value":"_OcclusionMap_ST"
						},
						{
							"name":"_OcclusionMap_ST_S",
							"value":"_OcclusionMap_ST_S"
						},
						{
							"name":"_OcclusionMap_ST_T",
							"value":"_OcclusionMap_ST_T"
						},
						{
							"name":"_EmissionColor",
							"value":"_EmissionColor"
						},
						{
							"name":"_EmissionMap_ST",
							"value":"_EmissionMap_ST"
						},
						{
							"name":"_EmissionMap_ST_S",
							"value":"_EmissionMap_ST_S"
						},
						{
							"name":"_EmissionMap_ST_T",
							"value":"_EmissionMap_ST_T"
						},
						{
							"name":"_DetailMask_ST",
							"value":"_DetailMask_ST"
						},
						{
							"name":"_DetailMask_ST_S",
							"value":"_DetailMask_ST_S"
						},
						{
							"name":"_DetailMask_ST_T",
							"value":"_DetailMask_ST_T"
						},
						{
							"name":"_DetailAlbedoMap_ST",
							"value":"_DetailAlbedoMap_ST"
						},
						{
							"name":"_DetailAlbedoMap_ST_S",
							"value":"_DetailAlbedoMap_ST_S"
						},
						{
							"name":"_DetailAlbedoMap_ST_T",
							"value":"_DetailAlbedoMap_ST_T"
						},
						{
							"name":"_DetailNormalMap_ST",
							"value":"_DetailNormalMap_ST"
						},
						{
							"name":"_DetailNormalMap_ST_S",
							"value":"_DetailNormalMap_ST_S"
						},
						{
							"name":"_DetailNormalMap_ST_T",
							"value":"_DetailNormalMap_ST_T"
						}
					],
					"vrm0_material_mtoon0_property_names":[
						{
							"name":"_Color",
							"value":"_Color"
						},
						{
							"name":"_ShadeColor",
							"value":"_ShadeColor"
						},
						{
							"name":"_MainTex_ST",
							"value":"_MainTex_ST"
						},
						{
							"name":"_MainTex_ST_S",
							"value":"_MainTex_ST_S"
						},
						{
							"name":"_MainTex_ST_T",
							"value":"_MainTex_ST_T"
						},
						{
							"name":"_ShadeTexture_ST",
							"value":"_ShadeTexture_ST"
						},
						{
							"name":"_ShadeTexture_ST_S",
							"value":"_ShadeTexture_ST_S"
						},
						{
							"name":"_ShadeTexture_ST_T",
							"value":"_ShadeTexture_ST_T"
						},
						{
							"name":"_BumpMap_ST",
							"value":"_BumpMap_ST"
						},
						{
							"name":"_BumpMap_ST_S",
							"value":"_BumpMap_ST_S"
						},
						{
							"name":"_BumpMap_ST_T",
							"value":"_BumpMap_ST_T"
						},
						{
							"name":"_ReceiveShadowTexture_ST",
							"value":"_ReceiveShadowTexture_ST"
						},
						{
							"name":"_ReceiveShadowTexture_ST_S",
							"value":"_ReceiveShadowTexture_ST_S"
						},
						{
							"name":"_ReceiveShadowTexture_ST_T",
							"value":"_ReceiveShadowTexture_ST_T"
						},
						{
							"name":"_ShadingGradeTexture_ST",
							"value":"_ShadingGradeTexture_ST"
						},
						{
							"name":"_ShadingGradeTexture_ST_S",
							"value":"_ShadingGradeTexture_ST_S"
						},
						{
							"name":"_ShadingGradeTexture_ST_T",
							"value":"_ShadingGradeTexture_ST_T"
						},
						{
							"name":"_RimColor",
							"value":"_RimColor"
						},
						{
							"name":"_RimTexture_ST",
							"value":"_RimTexture_ST"
						},
						{
							"name":"_RimTexture_ST_S",
							"value":"_RimTexture_ST_S"
						},
						{
							"name":"_RimTexture_ST_T",
							"value":"_RimTexture_ST_T"
						},
						{
							"name":"_SphereAdd_ST",
							"value":"_SphereAdd_ST"
						},
						{
							"name":"_SphereAdd_ST_S",
							"value":"_SphereAdd_ST_S"
						},
						{
							"name":"_SphereAdd_ST_T",
							"value":"_SphereAdd_ST_T"
						},
						{
							"name":"_EmissionColor",
							"value":"_EmissionColor"
						},
						{
							"name":"_EmissionMap_ST",
							"value":"_EmissionMap_ST"
						},
						{
							"name":"_EmissionMap_ST_S",
							"value":"_EmissionMap_ST_S"
						},
						{
							"name":"_EmissionMap_ST_T",
							"value":"_EmissionMap_ST_T"
						},
						{
							"name":"_OutlineWidthTexture_ST",
							"value":"_OutlineWidthTexture_ST"
						},
						{
							"name":"_OutlineWidthTexture_ST_S",
							"value":"_OutlineWidthTexture_ST_S"
						},
						{
							"name":"_OutlineWidthTexture_ST_T",
							"value":"_OutlineWidthTexture_ST_T"
						},
						{
							"name":"_OutlineColor",
							"value":"_OutlineColor"
						},
						{
							"name":"_UvAnimMaskTexture_ST",
							"value":"_UvAnimMaskTexture_ST"
						},
						{
							"name":"_UvAnimMaskTexture_ST_S",
							"value":"_UvAnimMaskTexture_ST_S"
						},
						{
							"name":"_UvAnimMaskTexture_ST_T",
							"value":"_UvAnimMaskTexture_ST_T"
						}
					]
				},
				"rka":{}
			},
			"name":"Scene",
			"nodes":[
				0,
				1,
				2,
				3,
				4,
				5,
				6,
				7,
				8,
				9,
				10,
				11,
				12,
				13,
				14,
				15,
				16,
				17,
				18,
				19,
				20,
				21,
				22,
				23,
				24,
				25,
				26,
				27,
				28,
				29,
				30,
				31,
				32,
				33,
				34,
				35,
				36,
				37,
				38,
				39,
				40,
				41,
				42,
				43,
				44,
				45,
				46,
				47,
				48,
				49,
				50,
				51,
				52,
				53,
				54,
				55,
				56,
				57,
				58,
				59,
				60,
				61,
				62,
				63,
				64,
				65,
				66,
				67,
				68,
				69,
				70,
				71,
				72,
				73,
				74,
				75,
				76,
				77,
				78,
				79,
				80,
				81,
				82,
				83,
				84,
				85,
				86,
				87,
				88,
				89,
				90,
				91,
				92,
				93,
				94
			]
		}
	],
	"nodes":[
		{
			"mesh":0,
			"name":"District_city_2_3_Bldg_003_h12m"
		},
		{
			"extras":{
				"proxy_for":"District_city_2_3_Bldg_003_h12m"
			},
			"mesh":1,
			"name":"District_city_2_3_Bldg_003_h12m-colonly"
		},
		{
			"mesh":2,
			"name":"District_city_2_3_Bldg_004_h11m"
		},
		{
			"extras":{
				"proxy_for":"District_city_2_3_Bldg_004_h11m"
			},
			"mesh":3,
			"name":"District_city_2_3_Bldg_004_h11m-colonly"
		},
		{
			"mesh":4,
			"name":"District_city_2_3_Bldg_005_h11m"
		},
		{
			"extras":{
				"proxy_for":"District_city_2_3_Bldg_005_h11m"
			},
			"mesh":5,
			"name":"District_city_2_3_Bldg_005_h11m-colonly"
		},
		{
			"mesh":6,
			"name":"District_city_2_3_Bldg_006_h11m"
		},
		{
			"extras":{
				"proxy_for":"District_city_2_3_Bldg_006_h11m"
			},
			"mesh":7,
			"name":"District_city_2_3_Bldg_006_h11m-colonly"
		},
		{
			"mesh":8,
			"name":"District_city_2_3_Bldg_007_h8m"
		},
		{
			"extras":{
				"proxy_for":"District_city_2_3_Bldg_007_h8m"
			},
			"mesh":9,
			"name":"District_city_2_3_Bldg_007_h8m-colonly"
		},
		{
			"mesh":10,
			"name":"District_city_2_3_Bldg_008_h8m"
		},
		{
			"extras":{
				"proxy_for":"District_city_2_3_Bldg_008_h8m"
			},
			"mesh":11,
			"name":"District_city_2_3_Bldg_008_h8m-colonly"
		},
		{
			"mesh":12,
			"name":"District_city_2_3_Bldg_009_h7m"
		},
		{
			"extras":{
				"proxy_for":"District_city_2_3_Bldg_009_h7m"
			},
			"mesh":13,
			"name":"District_city_2_3_Bldg_009_h7m-colonly"
		},
		{
			"mesh":14,
			"name":"District_city_2_3_Bldg_010_h7m"
		},
		{
			"extras":{
				"proxy_for":"District_city_2_3_Bldg_010_h7m"
			},
			"mesh":15,
			"name":"District_city_2_3_Bldg_010_h7m-colonly"
		},
		{
			"mesh":16,
			"name":"District_city_2_3_Bldg_011_h7m"
		},
		{
			"extras":{
				"proxy_for":"District_city_2_3_Bldg_011_h7m"
			},
			"mesh":17,
			"name":"District_city_2_3_Bldg_011_h7m-colonly"
		},
		{
			"mesh":18,
			"name":"District_city_2_3_Bldg_012_h6m"
		},
		{
			"extras":{
				"proxy_for":"District_city_2_3_Bldg_012_h6m"
			},
			"mesh":19,
			"name":"District_city_2_3_Bldg_012_h6m-colonly"
		},
		{
			"mesh":20,
			"name":"District_city_2_3_Bldg_013_h6m"
		},
		{
			"extras":{
				"proxy_for":"District_city_2_3_Bldg_013_h6m"
			},
			"mesh":21,
			"name":"District_city_2_3_Bldg_013_h6m-colonly"
		},
		{
			"mesh":22,
			"name":"District_city_2_3_Bldg_014_h5m"
		},
		{
			"extras":{
				"proxy_for":"District_city_2_3_Bldg_014_h5m"
			},
			"mesh":23,
			"name":"District_city_2_3_Bldg_014_h5m-colonly"
		},
		{
			"mesh":24,
			"name":"District_city_2_3_Bldg_015_h5m"
		},
		{
			"extras":{
				"proxy_for":"District_city_2_3_Bldg_015_h5m"
			},
			"mesh":25,
			"name":"District_city_2_3_Bldg_015_h5m-colonly"
		},
		{
			"mesh":26,
			"name":"District_city_2_3_Bldg_016_h5m"
		},
		{
			"extras":{
				"proxy_for":"District_city_2_3_Bldg_016_h5m"
			},
			"mesh":27,
			"name":"District_city_2_3_Bldg_016_h5m-colonly"
		},
		{
			"mesh":28,
			"name":"District_city_2_3_Bldg_017_h5m"
		},
		{
			"extras":{
				"proxy_for":"District_city_2_3_Bldg_017_h5m"
			},
			"mesh":29,
			"name":"District_city_2_3_Bldg_017_h5m-colonly"
		},
		{
			"mesh":30,
			"name":"District_city_2_3_Bldg_018_h5m"
		},
		{
			"extras":{
				"proxy_for":"District_city_2_3_Bldg_018_h5m"
			},
			"mesh":31,
			"name":"District_city_2_3_Bldg_018_h5m-colonly"
		},
		{
			"mesh":32,
			"name":"District_city_2_3_Bldg_019_h4m"
		},
		{
			"extras":{
				"proxy_for":"District_city_2_3_Bldg_019_h4m"
			},
			"mesh":33,
			"name":"District_city_2_3_Bldg_019_h4m-colonly"
		},
		{
			"mesh":34,
			"name":"District_city_2_3_Bldg_020_h4m"
		},
		{
			"extras":{
				"proxy_for":"District_city_2_3_Bldg_020_h4m"
			},
			"mesh":35,
			"name":"District_city_2_3_Bldg_020_h4m-colonly"
		},
		{
			"mesh":36,
			"name":"District_city_2_3_Bldg_021_h4m"
		},
		{
			"extras":{
				"proxy_for":"District_city_2_3_Bldg_021_h4m"
			},
			"mesh":37,
			"name":"District_city_2_3_Bldg_021_h4m-colonly"
		},
		{
			"mesh":38,
			"name":"District_city_2_3_Bldg_022_h4m"
		},
		{
			"extras":{
				"proxy_for":"District_city_2_3_Bldg_022_h4m"
			},
			"mesh":39,
			"name":"District_city_2_3_Bldg_022_h4m-colonly"
		},
		{
			"mesh":40,
			"name":"District_city_2_3_Bldg_023_h4m"
		},
		{
			"extras":{
				"proxy_for":"District_city_2_3_Bldg_023_h4m"
			},
			"mesh":41,
			"name":"District_city_2_3_Bldg_023_h4m-colonly"
		},
		{
			"mesh":42,
			"name":"District_city_2_3_Bldg_024_h4m"
		},
		{
			"extras":{
				"proxy_for":"District_city_2_3_Bldg_024_h4m"
			},
			"mesh":43,
			"name":"District_city_2_3_Bldg_024_h4m-colonly"
		},
		{
			"mesh":44,
			"name":"District_city_2_3_Bldg_025_h4m"
		},
		{
			"extras":{
				"proxy_for":"District_city_2_3_Bldg_025_h4m"
			},
			"mesh":45,
			"name":"District_city_2_3_Bldg_025_h4m-colonly"
		},
		{
			"mesh":46,
			"name":"District_city_2_3_Bldg_026_h4m"
		},
		{
			"extras":{
				"proxy_for":"District_city_2_3_Bldg_026_h4m"
			},
			"mesh":47,
			"name":"District_city_2_3_Bldg_026_h4m-colonly"
		},
		{
			"mesh":48,
			"name":"District_city_2_3_Bldg_027_h4m"
		},
		{
			"extras":{
				"proxy_for":"District_city_2_3_Bldg_027_h4m"
			},
			"mesh":49,
			"name":"District_city_2_3_Bldg_027_h4m-colonly"
		},
		{
			"mesh":50,
			"name":"District_city_2_3_Bldg_028_h4m"
		},
		{
			"extras":{
				"proxy_for":"District_city_2_3_Bldg_028_h4m"
			},
			"mesh":51,
			"name":"District_city_2_3_Bldg_028_h4m-colonly"
		},
		{
			"mesh":52,
			"name":"District_city_2_3_Bldg_029_h4m"
		},
		{
			"extras":{
				"proxy_for":"District_city_2_3_Bldg_029_h4m"
			},
			"mesh":53,
			"name":"District_city_2_3_Bldg_029_h4m-colonly"
		},
		{
			"mesh":54,
			"name":"District_city_2_3_Bldg_030_h3m"
		},
		{
			"extras":{
				"proxy_for":"District_city_2_3_Bldg_030_h3m"
			},
			"mesh":55,
			"name":"District_city_2_3_Bldg_030_h3m-colonly"
		},
		{
			"mesh":56,
			"name":"District_city_2_3_Bldg_031_h3m"
		},
		{
			"extras":{
				"proxy_for":"District_city_2_3_Bldg_031_h3m"
			},
			"mesh":57,
			"name":"District_city_2_3_Bldg_031_h3m-colonly"
		},
		{
			"mesh":58,
			"name":"District_city_2_3_Bldg_032_h3m"
		},
		{
			"extras":{
				"proxy_for":"District_city_2_3_Bldg_032_h3m"
			},
			"mesh":59,
			"name":"District_city_2_3_Bldg_032_h3m-colonly"
		},
		{
			"mesh":60,
			"name":"District_city_2_3_Bldg_033_h3m"
		},
		{
			"extras":{
				"proxy_for":"District_city_2_3_Bldg_033_h3m"
			},
			"mesh":61,
			"name":"District_city_2_3_Bldg_033_h3m-colonly"
		},
		{
			"mesh":62,
			"name":"District_city_2_3_Bldg_034_h3m"
		},
		{
			"extras":{
				"proxy_for":"District_city_2_3_Bldg_034_h3m"
			},
			"mesh":63,
			"name":"District_city_2_3_Bldg_034_h3m-colonly"
		},
		{
			"mesh":64,
			"name":"District_city_2_3_Bldg_035_h3m"
		},
		{
			"extras":{
				"proxy_for":"District_city_2_3_Bldg_035_h3m"
			},
			"mesh":65,
			"name":"District_city_2_3_Bldg_035_h3m-colonly"
		},
		{
			"mesh":66,
			"name":"District_city_2_3_Bldg_036_h3m"
		},
		{
			"extras":{
				"proxy_for":"District_city_2_3_Bldg_036_h3m"
			},
			"mesh":67,
			"name":"District_city_2_3_Bldg_036_h3m-colonly"
		},
		{
			"mesh":68,
			"name":"District_city_2_3_Bldg_037_h2m"
		},
		{
			"extras":{
				"proxy_for":"District_city_2_3_Bldg_037_h2m"
			},
			"mesh":69,
			"name":"District_city_2_3_Bldg_037_h2m-colonly"
		},
		{
			"mesh":70,
			"name":"District_city_2_3_Bldg_038_h2m"
		},
		{
			"extras":{
				"proxy_for":"District_city_2_3_Bldg_038_h2m"
			},
			"mesh":71,
			"name":"District_city_2_3_Bldg_038_h2m-colonly"
		},
		{
			"mesh":72,
			"name":"District_city_2_3_Landmark_000_h18m"
		},
		{
			"extras":{
				"proxy_for":"District_city_2_3_Landmark_000_h18m"
			},
			"mesh":73,
			"name":"District_city_2_3_Landmark_000_h18m-colonly"
		},
		{
			"mesh":74,
			"name":"District_city_2_3_Landmark_001_h17m"
		},
		{
			"extras":{
				"proxy_for":"District_city_2_3_Landmark_001_h17m"
			},
			"mesh":75,
			"name":"District_city_2_3_Landmark_001_h17m-colonly"
		},
		{
			"mesh":76,
			"name":"District_city_2_3_Landmark_002_h14m"
		},
		{
			"extras":{
				"proxy_for":"District_city_2_3_Landmark_002_h14m"
			},
			"mesh":77,
			"name":"District_city_2_3_Landmark_002_h14m-colonly"
		},
		{
			"mesh":78,
			"name":"District_city_2_3_Terrain-col"
		},
		{
			"extras":{
				"lane_offset":-1.75
			},
			"name":"lane_seam_1_3_2_3_0_entry_hi_0",
			"translation":[
				-252,
				2.5999999046325684,
				0
			]
		},
		{
			"name":"lane_seam_1_3_2_3_0_entry_hi_1",
			"translation":[
				-226.8000030517578,
				2.5999999046325684,
				0
			]
		},
		{
			"extras":{
				"lane_offset":-1.75,
				"end_behavior":"CHAIN",
				"next_routes":"seam_1_3_2_3_0_entry_lo"
			},
			"name":"lane_seam_1_3_2_3_0_exit_hi_0",
			"translation":[
				-226.8000030517578,
				2.5999999046325684,
				0
			]
		},
		{
			"name":"lane_seam_1_3_2_3_0_exit_hi_1",
			"translation":[
				-252,
				2.5999999046325684,
				0
			]
		},
		{
			"extras":{
				"lane_offset":-1.75
			},
			"name":"lane_seam_2_2_2_3_0_entry_hi_0",
			"translation":[
				0,
				2.5999999046325684,
				252
			]
		},
		{
			"name":"lane_seam_2_2_2_3_0_entry_hi_1",
			"translation":[
				0,
				2.5999999046325684,
				226.8000030517578
			]
		},
		{
			"extras":{
				"lane_offset":-1.75,
				"end_behavior":"CHAIN",
				"next_routes":"seam_2_2_2_3_0_entry_lo"
			},
			"name":"lane_seam_2_2_2_3_0_exit_hi_0",
			"translation":[
				0,
				2.5999999046325684,
				226.8000030517578
			]
		},
		{
			"name":"lane_seam_2_2_2_3_0_exit_hi_1",
			"translation":[
				0,
				2.5999999046325684,
				252
			]
		},
		{
			"extras":{
				"lane_offset":-1.75
			},
			"name":"lane_seam_2_3_2_4_0_entry_lo_0",
			"translation":[
				0,
				2.5999999046325684,
				-252
			]
		},
		{
			"name":"lane_seam_2_3_2_4_0_entry_lo_1",
			"translation":[
				0,
				2.5999999046325684,
				-226.8000030517578
			]
		},
		{
			"extras":{
				"lane_offset":-1.75,
				"end_behavior":"CHAIN",
				"next_routes":"seam_2_3_2_4_0_entry_hi"
			},
			"name":"lane_seam_2_3_2_4_0_exit_lo_0",
			"translation":[
				0,
				2.5999999046325684,
				-226.8000030517578
			]
		},
		{
			"name":"lane_seam_2_3_2_4_0_exit_lo_1",
			"translation":[
				0,
				2.5999999046325684,
				-252
			]
		},
		{
			"extras":{
				"lane_offset":-1.75
			},
			"name":"lane_seam_2_3_3_3_0_entry_lo_0",
			"translation":[
				252,
				2.5999999046325684,
				0
			]
		},
		{
			"name":"lane_seam_2_3_3_3_0_entry_lo_1",
			"translation":[
				226.8000030517578,
				2.5999999046325684,
				0
			]
		},
		{
			"extras":{
				"lane_offset":-1.75,
				"end_behavior":"CHAIN",
				"next_routes":"seam_2_3_3_3_0_entry_hi"
			},
			"name":"lane_seam_2_3_3_3_0_exit_lo_0",
			"translation":[
				226.8000030517578,
				2.5999999046325684,
				0
			]
		},
		{
			"name":"lane_seam_2_3_3_3_0_exit_lo_1",
			"translation":[
				252,
				2.5999999046325684,
				0
			]
		}
	],
	"materials":[
		{
			"doubleSided":true,
			"extras":{
				"vrm_addon_extension":{
					"mtoon1":{}
				}
			},
			"name":"M_Collision",
			"pbrMetallicRoughness":{
				"baseColorFactor":[
					0.8999999761581421,
					0.20000000298023224,
					0.550000011920929,
					1
				],
				"metallicFactor":0,
				"roughnessFactor":0.5
			}
		},
		{
			"doubleSided":true,
			"extras":{
				"vrm_addon_extension":{
					"mtoon1":{}
				}
			},
			"name":"M_Dirt",
			"pbrMetallicRoughness":{
				"baseColorFactor":[
					0.4000000059604645,
					0.3400000035762787,
					0.25999999046325684,
					1
				],
				"metallicFactor":0,
				"roughnessFactor":0.5
			}
		}
	],
	"meshes":[
		{
			"name":"District_city_2_3_Bldg_003_h12m",
			"primitives":[
				{
					"attributes":{
						"POSITION":0,
						"NORMAL":1
					},
					"indices":2
				}
			]
		},
		{
			"name":"District_city_2_3_Bldg_003_h12m.001",
			"primitives":[
				{
					"attributes":{
						"POSITION":3,
						"NORMAL":4
					},
					"indices":2,
					"material":0
				}
			]
		},
		{
			"name":"District_city_2_3_Bldg_004_h11m",
			"primitives":[
				{
					"attributes":{
						"POSITION":5,
						"NORMAL":6
					},
					"indices":7
				}
			]
		},
		{
			"name":"District_city_2_3_Bldg_004_h11m.001",
			"primitives":[
				{
					"attributes":{
						"POSITION":8,
						"NORMAL":9
					},
					"indices":7,
					"material":0
				}
			]
		},
		{
			"name":"District_city_2_3_Bldg_005_h11m",
			"primitives":[
				{
					"attributes":{
						"POSITION":10,
						"NORMAL":11
					},
					"indices":7
				}
			]
		},
		{
			"name":"District_city_2_3_Bldg_005_h11m.001",
			"primitives":[
				{
					"attributes":{
						"POSITION":12,
						"NORMAL":13
					},
					"indices":7,
					"material":0
				}
			]
		},
		{
			"name":"District_city_2_3_Bldg_006_h11m",
			"primitives":[
				{
					"attributes":{
						"POSITION":14,
						"NORMAL":15
					},
					"indices":2
				}
			]
		},
		{
			"name":"District_city_2_3_Bldg_006_h11m.001",
			"primitives":[
				{
					"attributes":{
						"POSITION":16,
						"NORMAL":17
					},
					"indices":2,
					"material":0
				}
			]
		},
		{
			"name":"District_city_2_3_Bldg_007_h8m",
			"primitives":[
				{
					"attributes":{
						"POSITION":18,
						"NORMAL":19
					},
					"indices":20
				}
			]
		},
		{
			"name":"District_city_2_3_Bldg_007_h8m.001",
			"primitives":[
				{
					"attributes":{
						"POSITION":21,
						"NORMAL":22
					},
					"indices":20,
					"material":0
				}
			]
		},
		{
			"name":"District_city_2_3_Bldg_008_h8m",
			"primitives":[
				{
					"attributes":{
						"POSITION":23,
						"NORMAL":24
					},
					"indices":2
				}
			]
		},
		{
			"name":"District_city_2_3_Bldg_008_h8m.001",
			"primitives":[
				{
					"attributes":{
						"POSITION":25,
						"NORMAL":26
					},
					"indices":2,
					"material":0
				}
			]
		},
		{
			"name":"District_city_2_3_Bldg_009_h7m",
			"primitives":[
				{
					"attributes":{
						"POSITION":27,
						"NORMAL":28
					},
					"indices":2
				}
			]
		},
		{
			"name":"District_city_2_3_Bldg_009_h7m.001",
			"primitives":[
				{
					"attributes":{
						"POSITION":29,
						"NORMAL":30
					},
					"indices":2,
					"material":0
				}
			]
		},
		{
			"name":"District_city_2_3_Bldg_010_h7m",
			"primitives":[
				{
					"attributes":{
						"POSITION":31,
						"NORMAL":32
					},
					"indices":7
				}
			]
		},
		{
			"name":"District_city_2_3_Bldg_010_h7m.001",
			"primitives":[
				{
					"attributes":{
						"POSITION":33,
						"NORMAL":34
					},
					"indices":7,
					"material":0
				}
			]
		},
		{
			"name":"District_city_2_3_Bldg_011_h7m",
			"primitives":[
				{
					"attributes":{
						"POSITION":35,
						"NORMAL":36
					},
					"indices":7
				}
			]
		},
		{
			"name":"District_city_2_3_Bldg_011_h7m.001",
			"primitives":[
				{
					"attributes":{
						"POSITION":37,
						"NORMAL":38
					},
					"indices":7,
					"material":0
				}
			]
		},
		{
			"name":"District_city_2_3_Bldg_012_h6m",
			"primitives":[
				{
					"attributes":{
						"POSITION":39,
						"NORMAL":40
					},
					"indices":41
				}
			]
		},
		{
			"name":"District_city_2_3_Bldg_012_h6m.001",
			"primitives":[
				{
					"attributes":{
						"POSITION":42,
						"NORMAL":43
					},
					"indices":41,
					"material":0
				}
			]
		},
		{
			"name":"District_city_2_3_Bldg_013_h6m",
			"primitives":[
				{
					"attributes":{
						"POSITION":44,
						"NORMAL":45
					},
					"indices":7
				}
			]
		},
		{
			"name":"District_city_2_3_Bldg_013_h6m.001",
			"primitives":[
				{
					"attributes":{
						"POSITION":46,
						"NORMAL":47
					},
					"indices":7,
					"material":0
				}
			]
		},
		{
			"name":"District_city_2_3_Bldg_014_h5m",
			"primitives":[
				{
					"attributes":{
						"POSITION":48,
						"NORMAL":49
					},
					"indices":50
				}
			]
		},
		{
			"name":"District_city_2_3_Bldg_014_h5m.001",
			"primitives":[
				{
					"attributes":{
						"POSITION":51,
						"NORMAL":52
					},
					"indices":50,
					"material":0
				}
			]
		},
		{
			"name":"District_city_2_3_Bldg_015_h5m",
			"primitives":[
				{
					"attributes":{
						"POSITION":53,
						"NORMAL":54
					},
					"indices":55
				}
			]
		},
		{
			"name":"District_city_2_3_Bldg_015_h5m.001",
			"primitives":[
				{
					"attributes":{
						"POSITION":56,
						"NORMAL":57
					},
					"indices":55,
					"material":0
				}
			]
		},
		{
			"name":"District_city_2_3_Bldg_016_h5m",
			"primitives":[
				{
					"attributes":{
						"POSITION":58,
						"NORMAL":59
					},
					"indices":60
				}
			]
		},
		{
			"name":"District_city_2_3_Bldg_016_h5m.001",
			"primitives":[
				{
					"attributes":{
						"POSITION":61,
						"NORMAL":62
					},
					"indices":60,
					"material":0
				}
			]
		},
		{
			"name":"District_city_2_3_Bldg_017_h5m",
			"primitives":[
				{
					"attributes":{
						"POSITION":63,
						"NORMAL":64
					},
					"indices":2
				}
			]
		},
		{
			"name":"District_city_2_3_Bldg_017_h5m.001",
			"primitives":[
				{
					"attributes":{
						"POSITION":65,
						"NORMAL":66
					},
					"indices":2,
					"material":0
				}
			]
		},
		{
			"name":"District_city_2_3_Bldg_018_h5m",
			"primitives":[
				{
					"attributes":{
						"POSITION":67,
						"NORMAL":68
					},
					"indices":2
				}
			]
		},
		{
			"name":"District_city_2_3_Bldg_018_h5m.001",
			"primitives":[
				{
					"attributes":{
						"POSITION":69,
						"NORMAL":70
					},
					"indices":2,
					"material":0
				}
			]
		},
		{
			"name":"District_city_2_3_Bldg_019_h4m",
			"primitives":[
				{
					"attributes":{
						"POSITION":71,
						"NORMAL":72
					},
					"indices":73
				}
			]
		},
		{
			"name":"District_city_2_3_Bldg_019_h4m.001",
			"primitives":[
				{
					"attributes":{
						"POSITION":74,
						"NORMAL":75
					},
					"indices":73,
					"material":0
				}
			]
		},
		{
			"name":"District_city_2_3_Bldg_020_h4m",
			"primitives":[
				{
					"attributes":{
						"POSITION":76,
						"NORMAL":77
					},
					"indices":2
				}
			]
		},
		{
			"name":"District_city_2_3_Bldg_020_h4m.001",
			"primitives":[
				{
					"attributes":{
						"POSITION":78,
						"NORMAL":79
					},
					"indices":2,
					"material":0
				}
			]
		},
		{
			"name":"District_city_2_3_Bldg_021_h4m",
			"primitives":[
				{
					"attributes":{
						"POSITION":80,
						"NORMAL":81
					},
					"indices":2
				}
			]
		},
		{
			"name":"District_city_2_3_Bldg_021_h4m.001",
			"primitives":[
				{
					"attributes":{
						"POSITION":82,
						"NORMAL":83
					},
					"indices":2,
					"material":0
				}
			]
		},
		{
			"name":"District_city_2_3_Bldg_022_h4m",
			"primitives":[
				{
					"attributes":{
						"POSITION":84,
						"NORMAL":85
					},
					"indices":2
				}
			]
		},
		{
			"name":"District_city_2_3_Bldg_022_h4m.001",
			"primitives":[
				{
					"attributes":{
						"POSITION":86,
						"NORMAL":87
					},
					"indices":2,
					"material":0
				}
			]
		},
		{
			"name":"District_city_2_3_Bldg_023_h4m",
			"primitives":[
				{
					"attributes":{
						"POSITION":88,
						"NORMAL":89
					},
					"indices":90
				}
			]
		},
		{
			"name":"District_city_2_3_Bldg_023_h4m.001",
			"primitives":[
				{
					"attributes":{
						"POSITION":91,
						"NORMAL":92
					},
					"indices":90,
					"material":0
				}
			]
		},
		{
			"name":"District_city_2_3_Bldg_024_h4m",
			"primitives":[
				{
					"attributes":{
						"POSITION":93,
						"NORMAL":94
					},
					"indices":2
				}
			]
		},
		{
			"name":"District_city_2_3_Bldg_024_h4m.001",
			"primitives":[
				{
					"attributes":{
						"POSITION":95,
						"NORMAL":96
					},
					"indices":2,
					"material":0
				}
			]
		},
		{
			"name":"District_city_2_3_Bldg_025_h4m",
			"primitives":[
				{
					"attributes":{
						"POSITION":97,
						"NORMAL":98
					},
					"indices":99
				}
			]
		},
		{
			"name":"District_city_2_3_Bldg_025_h4m.001",
			"primitives":[
				{
					"attributes":{
						"POSITION":100,
						"NORMAL":101
					},
					"indices":99,
					"material":0
				}
			]
		},
		{
			"name":"District_city_2_3_Bldg_026_h4m",
			"primitives":[
				{
					"attributes":{
						"POSITION":102,
						"NORMAL":103
					},
					"indices":2
				}
			]
		},
		{
			"name":"District_city_2_3_Bldg_026_h4m.001",
			"primitives":[
				{
					"attributes":{
						"POSITION":104,
						"NORMAL":105
					},
					"indices":2,
					"material":0
				}
			]
		},
		{
			"name":"District_city_2_3_Bldg_027_h4m",
			"primitives":[
				{
					"attributes":{
						"POSITION":106,
						"NORMAL":107
					},
					"indices":2
				}
			]
		},
		{
			"name":"District_city_2_3_Bldg_027_h4m.001",
			"primitives":[
				{
					"attributes":{
						"POSITION":108,
						"NORMAL":109
					},
					"indices":2,
					"material":0
				}
			]
		},
		{
			"name":"District_city_2_3_Bldg_028_h4m",
			"primitives":[
				{
					"attributes":{
						"POSITION":110,
						"NORMAL":111
					},
					"indices":7
				}
			]
		},
		{
			"name":"District_city_2_3_Bldg_028_h4m.001",
			"primitives":[
				{
					"attributes":{
						"POSITION":112,
						"NORMAL":113
					},
					"indices":7,
					"material":0
				}
			]
		},
		{
			"name":"District_city_2_3_Bldg_029_h4m",
			"primitives":[
				{
					"attributes":{
						"POSITION":114,
						"NORMAL":115
					},
					"indices":2
				}
			]
		},
		{
			"name":"District_city_2_3_Bldg_029_h4m.001",
			"primitives":[
				{
					"attributes":{
						"POSITION":116,
						"NORMAL":117
					},
					"indices":2,
					"material":0
				}
			]
		},
		{
			"name":"District_city_2_3_Bldg_030_h3m",
			"primitives":[
				{
					"attributes":{
						"POSITION":118,
						"NORMAL":119
					},
					"indices":2
				}
			]
		},
		{
			"name":"District_city_2_3_Bldg_030_h3m.001",
			"primitives":[
				{
					"attributes":{
						"POSITION":120,
						"NORMAL":121
					},
					"indices":2,
					"material":0
				}
			]
		},
		{
			"name":"District_city_2_3_Bldg_031_h3m",
			"primitives":[
				{
					"attributes":{
						"POSITION":122,
						"NORMAL":123
					},
					"indices":7
				}
			]
		},
		{
			"name":"District_city_2_3_Bldg_031_h3m.001",
			"primitives":[
				{
					"attributes":{
						"POSITION":124,
						"NORMAL":125
					},
					"indices":7,
					"material":0
				}
			]
		},
		{
			"name":"District_city_2_3_Bldg_032_h3m",
			"primitives":[
				{
					"attributes":{
						"POSITION":126,
						"NORMAL":127
					},
					"indices":7
				}
			]
		},
		{
			"name":"District_city_2_3_Bldg_032_h3m.001",
			"primitives":[
				{
					"attributes":{
						"POSITION":128,
						"NORMAL":129
					},
					"indices":7,
					"material":0
				}
			]
		},
		{
			"name":"District_city_2_3_Bldg_033_h3m",
			"primitives":[
				{
					"attributes":{
						"POSITION":130,
						"NORMAL":131
					},
					"indices":99
				}
			]
		},
		{
			"name":"District_city_2_3_Bldg_033_h3m.001",
			"primitives":[
				{
					"attributes":{
						"POSITION":132,
						"NORMAL":133
					},
					"indices":99,
					"material":0
				}
			]
		},
		{
			"name":"District_city_2_3_Bldg_034_h3m",
			"primitives":[
				{
					"attributes":{
						"POSITION":134,
						"NORMAL":135
					},
					"indices":7
				}
			]
		},
		{
			"name":"District_city_2_3_Bldg_034_h3m.001",
			"primitives":[
				{
					"attributes":{
						"POSITION":136,
						"NORMAL":137
					},
					"indices":7,
					"material":0
				}
			]
		},
		{
			"name":"District_city_2_3_Bldg_035_h3m",
			"primitives":[
				{
					"attributes":{
						"POSITION":138,
						"NORMAL":139
					},
					"indices":140
				}
			]
		},
		{
			"name":"District_city_2_3_Bldg_035_h3m.001",
			"primitives":[
				{
					"attributes":{
						"POSITION":141,
						"NORMAL":142
					},
					"indices":140,
					"material":0
				}
			]
		},
		{
			"name":"District_city_2_3_Bldg_036_h3m",
			"primitives":[
				{
					"attributes":{
						"POSITION":143,
						"NORMAL":144
					},
					"indices":2
				}
			]
		},
		{
			"name":"District_city_2_3_Bldg_036_h3m.001",
			"primitives":[
				{
					"attributes":{
						"POSITION":145,
						"NORMAL":146
					},
					"indices":2,
					"material":0
				}
			]
		},
		{
			"name":"District_city_2_3_Bldg_037_h2m",
			"primitives":[
				{
					"attributes":{
						"POSITION":147,
						"NORMAL":148
					},
					"indices":149
				}
			]
		},
		{
			"name":"District_city_2_3_Bldg_037_h2m.001",
			"primitives":[
				{
					"attributes":{
						"POSITION":150,
						"NORMAL":151
					},
					"indices":149,
					"material":0
				}
			]
		},
		{
			"name":"District_city_2_3_Bldg_038_h2m",
			"primitives":[
				{
					"attributes":{
						"POSITION":152,
						"NORMAL":153
					},
					"indices":154
				}
			]
		},
		{
			"name":"District_city_2_3_Bldg_038_h2m.001",
			"primitives":[
				{
					"attributes":{
						"POSITION":155,
						"NORMAL":156
					},
					"indices":154,
					"material":0
				}
			]
		},
		{
			"name":"District_city_2_3_Landmark_000_h18m",
			"primitives":[
				{
					"attributes":{
						"POSITION":157,
						"NORMAL":158
					},
					"indices":159
				}
			]
		},
		{
			"name":"District_city_2_3_Landmark_000_h18m.001",
			"primitives":[
				{
					"attributes":{
						"POSITION":160,
						"NORMAL":161
					},
					"indices":159,
					"material":0
				}
			]
		},
		{
			"name":"District_city_2_3_Landmark_001_h17m",
			"primitives":[
				{
					"attributes":{
						"POSITION":162,
						"NORMAL":163
					},
					"indices":164
				}
			]
		},
		{
			"name":"District_city_2_3_Landmark_001_h17m.001",
			"primitives":[
				{
					"attributes":{
						"POSITION":165,
						"NORMAL":166
					},
					"indices":164,
					"material":0
				}
			]
		},
		{
			"name":"District_city_2_3_Landmark_002_h14m",
			"primitives":[
				{
					"attributes":{
						"POSITION":167,
						"NORMAL":168
					},
					"indices":7
				}
			]
		},
		{
			"name":"District_city_2_3_Landmark_002_h14m.001",
			"primitives":[
				{
					"attributes":{
						"POSITION":169,
						"NORMAL":170
					},
					"indices":7,
					"material":0
				}
			]
		},
		{
			"name":"District_city_2_3_Terrain-col",
			"primitives":[
				{
					"attributes":{
						"POSITION":171,
						"NORMAL":172
					},
					"indices":173,
					"material":1
				}
			]
		}
	],
	"accessors":[
		{
			"bufferView":0,
			"componentType":5126,
			"count":24,
			"max":[
				184.30227661132812,
				20.23200035095215,
				-78.89485168457031
			],
			"min":[
				159.4122772216797,
				8.65999984741211,
				-110.33485412597656
			],
			"type":"VEC3"
		},
		{
			"bufferView":1,
			"componentType":5126,
			"count":24,
			"type":"VEC3"
		},
		{
			"bufferView":2,
			"componentType":5123,
			"count":36,
			"type":"SCALAR"
		},
		{
			"bufferView":3,
			"componentType":5126,
			"count":24,
			"max":[
				184.30227661132812,
				20.23200035095215,
				-78.89485168457031
			],
			"min":[
				159.4122772216797,
				8.65999984741211,
				-110.33485412597656
			],
			"type":"VEC3"
		},
		{
			"bufferView":4,
			"componentType":5126,
			"count":24,
			"type":"VEC3"
		},
		{
			"bufferView":5,
			"componentType":5126,
			"count":24,
			"max":[
				-158.60772705078125,
				22.660999298095703,
				184.03514099121094
			],
			"min":[
				-164.23773193359375,
				11.697999954223633,
				172.2251434326172
			],
			"type":"VEC3"
		},
		{
			"bufferView":6,
			"componentType":5126,
			"count":24,
			"type":"VEC3"
		},
		{
			"bufferView":7,
			"componentType":5123,
			"count":36,
			"type":"SCALAR"
		},
		{
			"bufferView":8,
			"componentType":5126,
			"count":24,
			"max":[
				-158.60772705078125,
				22.660999298095703,
				184.03514099121094
			],
			"min":[
				-164.23773193359375,
				11.697999954223633,
				172.2251434326172
			],
			"type":"VEC3"
		},
		{
			"bufferView":9,
			"componentType":5126,
			"count":24,
			"type":"VEC3"
		},
		{
			"bufferView":10,
			"componentType":5126,
			"count":24,
			"max":[
				-199.18772888183594,
				20.91200065612793,
				32.895145416259766
			],
			"min":[
				-209.50772094726562,
				10.265000343322754,
				17.91514778137207
			],
			"type":"VEC3"
		},
		{
			"bufferView":11,
			"componentType":5126,
			"count":24,
			"type":"VEC3"
		},
		{
			"bufferView":12,
			"componentType":5126,
			"count":24,
			"max":[
				-199.18772888183594,
				20.91200065612793,
				32.895145416259766
			],
			"min":[
				-209.50772094726562,
				10.265000343322754,
				17.91514778137207
			],
			"type":"VEC3"
		},
		{
			"bufferView":13,
			"componentType":5126,
			"count":24,
			"type":"VEC3"
		},
		{
			"bufferView":14,
			"componentType":5126,
			"count":24,
			"max":[
				72.52227783203125,
				10.532999992370605,
				5.085146903991699
			],
			"min":[
				29.19227409362793,
				0,
				-47.004852294921875
			],
			"type":"VEC3"
		},
		{
			"bufferView":15,
			"componentType":5126,
			"count":24,
			"type":"VEC3"
		},
		{
			"bufferView":16,
			"componentType":5126,
			"count":24,
			"max":[
				72.52227783203125,
				10.532999992370605,
				5.085146903991699
			],
			"min":[
				29.19227409362793,
				0,
				-47.004852294921875
			],
			"type":"VEC3"
		},
		{
			"bufferView":17,
			"componentType":5126,
			"count":24,
			"type":"VEC3"
		},
		{
			"bufferView":18,
			"componentType":5126,
			"count":140,
			"max":[
				9.943674087524414,
				20.733999252319336,
				-10.089153289794922
			],
			"min":[
				-64.28662872314453,
				12.730999946594238,
				-36.05845260620117
			],
			"type":"VEC3"
		},
		{
			"bufferView":19,
			"componentType":5126,
			"count":140,
			"type":"VEC3"
		},
		{
			"bufferView":20,
			"componentType":5123,
			"count":276,
			"type":"SCALAR"
		},
		{
			"bufferView":21,
			"componentType":5126,
			"count":140,
			"max":[
				9.943674087524414,
				20.733999252319336,
				-10.089153289794922
			],
			"min":[
				-64.28662872314453,
				12.730999946594238,
				-36.05845260620117
			],
			"type":"VEC3"
		},
		{
			"bufferView":22,
			"componentType":5126,
			"count":140,
			"type":"VEC3"
		},
		{
			"bufferView":23,
			"componentType":5126,
			"count":24,
			"max":[
				54.49187469482422,
				7.439000129699707,
				-80.96365356445312
			],
			"min":[
				44.599876403808594,
				-0.21899999678134918,
				-89.34104919433594
			],
			"type":"VEC3"
		},
		{
			"bufferView":24,
			"componentType":5126,
			"count":24,
			"type":"VEC3"
		},
		{
			"bufferView":25,
			"componentType":5126,
			"count":24,
			"max":[
				54.49187469482422,
				7.439000129699707,
				-80.96365356445312
			],
			"min":[
				44.599876403808594,
				-0.21899999678134918,
				-89.34104919433594
			],
			"type":"VEC3"
		},
		{
			"bufferView":26,
			"componentType":5126,
			"count":24,
			"type":"VEC3"
		},
		{
			"bufferView":27,
			"componentType":5126,
			"count":24,
			"max":[
				41.23227310180664,
				7.258999824523926,
				-38.88485336303711
			],
			"min":[
				22.232275009155273,
				-0.11599999666213989,
				-68.44485473632812
			],
			"type":"VEC3"
		},
		{
			"bufferView":28,
			"componentType":5126,
			"count":24,
			"type":"VEC3"
		},
		{
			"bufferView":29,
			"componentType":5126,
			"count":24,
			"max":[
				41.23227310180664,
				7.258999824523926,
				-38.88485336303711
			],
			"min":[
				22.232275009155273,
				-0.11599999666213989,
				-68.44485473632812
			],
			"type":"VEC3"
		},
		{
			"bufferView":30,
			"componentType":5126,
			"count":24,
			"type":"VEC3"
		},
		{
			"bufferView":31,
			"componentType":5126,
			"count":24,
			"max":[
				95.00227355957031,
				5.114999771118164,
				-42.87485122680664
			],
			"min":[
				56.30227279663086,
				-1.4140000343322754,
				-99.39485168457031
			],
			"type":"VEC3"
		},
		{
			"bufferView":32,
			"componentType":5126,
			"count":24,
			"type":"VEC3"
		},
		{
			"bufferView":33,
			"componentType":5126,
			"count":24,
			"max":[
				95.00227355957031,
				5.114999771118164,
				-42.87485122680664
			],
			"min":[
				56.30227279663086,
				-1.4140000343322754,
				-99.39485168457031
			],
			"type":"VEC3"
		},
		{
			"bufferView":34,
			"componentType":5126,
			"count":24,
			"type":"VEC3"
		},
		{
			"bufferView":35,
			"componentType":5126,
			"count":24,
			"max":[
				74.76227569580078,
				6.929999828338623,
				28.285146713256836
			],
			"min":[
				32.69227600097656,
				0.4230000078678131,
				3.8951470851898193
			],
			"type":"VEC3"
		},
		{
			"bufferView":36,
			"componentType":5126,
			"count":24,
			"type":"VEC3"
		},
		{
			"bufferView":37,
			"componentType":5126,
			"count":24,
			"max":[
				74.76227569580078,
				6.929999828338623,
				28.285146713256836
			],
			"min":[
				32.69227600097656,
				0.4230000078678131,
				3.8951470851898193
			],
			"type":"VEC3"
		},
		{
			"bufferView":38,
			"componentType":5126,
			"count":24,
			"type":"VEC3"
		},
		{
			"bufferView":39,
			"componentType":5126,
			"count":24,
			"max":[
				111.8542709350586,
				4.775000095367432,
				-14.559852600097656
			],
			"min":[
				101.89227294921875,
				-1.2070000171661377,
				-24.56485366821289
			],
			"type":"VEC3"
		},
		{
			"bufferView":40,
			"componentType":5126,
			"count":24,
			"type":"VEC3"
		},
		{
			"bufferView":41,
			"componentType":5123,
			"count":36,
			"type":"SCALAR"
		},
		{
			"bufferView":42,
			"componentType":5126,
			"count":24,
			"max":[
				111.8542709350586,
				4.775000095367432,
				-14.559852600097656
			],
			"min":[
				101.89227294921875,
				-1.2070000171661377,
				-24.56485366821289
			],
			"type":"VEC3"
		},
		{
			"bufferView":43,
			"componentType":5126,
			"count":24,
			"type":"VEC3"
		},
		{
			"bufferView":44,
			"componentType":5126,
			"count":24,
			"max":[
				42.57227325439453,
				5.482999801635742,
				-71.00485229492188
			],
			"min":[
				16.812274932861328,
				-0.21699999272823334,
				-88.61485290527344
			],
			"type":"VEC3"
		},
		{
			"bufferView":45,
			"componentType":5126,
			"count":24,
			"type":"VEC3"
		},
		{
			"bufferView":46,
			"componentType":5126,
			"count":24,
			"max":[
				42.57227325439453,
				5.482999801635742,
				-71.00485229492188
			],
			"min":[
				16.812274932861328,
				-0.21699999272823334,
				-88.61485290527344
			],
			"type":"VEC3"
		},
		{
			"bufferView":47,
			"componentType":5126,
			"count":24,
			"type":"VEC3"
		},
		{
			"bufferView":48,
			"componentType":5126,
			"count":24,
			"max":[
				39.862274169921875,
				5.382999897003174,
				-60.969852447509766
			],
			"min":[
				32.62427520751953,
				-0.10000000149011612,
				-68.77885437011719
			],
			"type":"VEC3"
		},
		{
			"bufferView":49,
			"componentType":5126,
			"count":24,
			"type":"VEC3"
		},
		{
			"bufferView":50,
			"componentType":5123,
			"count":36,
			"type":"SCALAR"
		},
		{
			"bufferView":51,
			"componentType":5126,
			"count":24,
			"max":[
				39.862274169921875,
				5.382999897003174,
				-60.969852447509766
			],
			"min":[
				32.62427520751953,
				-0.10000000149011612,
				-68.77885437011719
			],
			"type":"VEC3"
		},
		{
			"bufferView":52,
			"componentType":5126,
			"count":24,
			"type":"VEC3"
		},
		{
			"bufferView":53,
			"componentType":5126,
			"count":76,
			"max":[
				-130.26773071289062,
				9.946999549865723,
				-204.44485473632812
			],
			"min":[
				-155.9677276611328,
				5.034999847412109,
				-226.73484802246094
			],
			"type":"VEC3"
		},
		{
			"bufferView":54,
			"componentType":5126,
			"count":76,
			"type":"VEC3"
		},
		{
			"bufferView":55,
			"componentType":5123,
			"count":144,
			"type":"SCALAR"
		},
		{
			"bufferView":56,
			"componentType":5126,
			"count":76,
			"max":[
				-130.26773071289062,
				9.946999549865723,
				-204.44485473632812
			],
			"min":[
				-155.9677276611328,
				5.034999847412109,
				-226.73484802246094
			],
			"type":"VEC3"
		},
		{
			"bufferView":57,
			"componentType":5126,
			"count":76,
			"type":"VEC3"
		},
		{
			"bufferView":58,
			"componentType":5126,
			"count":26,
			"max":[
				-160.60772705078125,
				16.37700080871582,
				122.90514373779297
			],
			"min":[
				-172.01773071289062,
				11.631999969482422,
				116.35514831542969
			],
			"type":"VEC3"
		},
		{
			"bufferView":59,
			"componentType":5126,
			"count":26,
			"type":"VEC3"
		},
		{
			"bufferView":60,
			"componentType":5123,
			"count":36,
			"type":"SCALAR"
		},
		{
			"bufferView":61,
			"componentType":5126,
			"count":26,
			"max":[
				-160.60772705078125,
				16.37700080871582,
				122.90514373779297
			],
			"min":[
				-172.01773071289062,
				11.631999969482422,
				116.35514831542969
			],
			"type":"VEC3"
		},
		{
			"bufferView":62,
			"componentType":5126,
			"count":26,
			"type":"VEC3"
		},
		{
			"bufferView":63,
			"componentType":5126,
			"count":24,
			"max":[
				-146.51773071289062,
				16.665000915527344,
				165.83514404296875
			],
			"min":[
				-156.4677276611328,
				11.968000411987305,
				145.61514282226562
			],
			"type":"VEC3"
		},
		{
			"bufferView":64,
			"componentType":5126,
			"count":24,
			"type":"VEC3"
		},
		{
			"bufferView":65,
			"componentType":5126,
			"count":24,
			"max":[
				-146.51773071289062,
				16.665000915527344,
				165.83514404296875
			],
			"min":[
				-156.4677276611328,
				11.968000411987305,
				145.61514282226562
			],
			"type":"VEC3"
		},
		{
			"bufferView":66,
			"componentType":5126,
			"count":24,
			"type":"VEC3"
		},
		{
			"bufferView":67,
			"componentType":5126,
			"count":24,
			"max":[
				-180.48773193359375,
				17.57900047302246,
				92.8751449584961
			],
			"min":[
				-195.31771850585938,
				13.010000228881836,
				73.33514404296875
			],
			"type":"VEC3"
		},
		{
			"bufferView":68,
			"componentType":5126,
			"count":24,
			"type":"VEC3"
		},
		{
			"bufferView":69,
			"componentType":5126,
			"count":24,
			"max":[
				-180.48773193359375,
				17.57900047302246,
				92.8751449584961
			],
			"min":[
				-195.31771850585938,
				13.010000228881836,
				73.33514404296875
			],
			"type":"VEC3"
		},
		{
			"bufferView":70,
			"componentType":5126,
			"count":24,
			"type":"VEC3"
		},
		{
			"bufferView":71,
			"componentType":5126,
			"count":50,
			"max":[
				-182.7977294921875,
				16.66900062561035,
				71.6251449584961
			],
			"min":[
				-193.26773071289062,
				12.192000389099121,
				60.10514831542969
			],
			"type":"VEC3"
		},
		{
			"bufferView":72,
			"componentType":5126,
			"count":50,
			"type":"VEC3"
		},
		{
			"bufferView":73,
			"componentType":5123,
			"count":84,
			"type":"SCALAR"
		},
		{
			"bufferView":74,
			"componentType":5126,
			"count":50,
			"max":[
				-182.7977294921875,
				16.66900062561035,
				71.6251449584961
			],
			"min":[
				-193.26773071289062,
				12.192000389099121,
				60.10514831542969
			],
			"type":"VEC3"
		},
		{
			"bufferView":75,
			"componentType":5126,
			"count":50,
			"type":"VEC3"
		},
		{
			"bufferView":76,
			"componentType":5126,
			"count":24,
			"max":[
				-198.14772033691406,
				17.41699981689453,
				79.29515075683594
			],
			"min":[
				-208.47772216796875,
				13.012999534606934,
				41.07514572143555
			],
			"type":"VEC3"
		},
		{
			"bufferView":77,
			"componentType":5126,
			"count":24,
			"type":"VEC3"
		},
		{
			"bufferView":78,
			"componentType":5126,
			"count":24,
			"max":[
				-198.14772033691406,
				17.41699981689453,
				79.29515075683594
			],
			"min":[
				-208.47772216796875,
				13.012999534606934,
				41.07514572143555
			],
			"type":"VEC3"
		},
		{
			"bufferView":79,
			"componentType":5126,
			"count":24,
			"type":"VEC3"
		},
		{
			"bufferView":80,
			"componentType":5126,
			"count":24,
			"max":[
				-181.0977325439453,
				17.332000732421875,
				109.525146484375
			],
			"min":[
				-202.9677276611328,
				13.107999801635742,
				100.41514587402344
			],
			"type":"VEC3"
		},
		{
			"bufferView":81,
			"componentType":5126,
			"count":24,
			"type":"VEC3"
		},
		{
			"bufferView":82,
			"componentType":5126,
			"count":24,
			"max":[
				-181.0977325439453,
				17.332000732421875,
				109.525146484375
			],
			"min":[
				-202.9677276611328,
				13.107999801635742,
				100.41514587402344
			],
			"type":"VEC3"
		},
		{
			"bufferView":83,
			"componentType":5126,
			"count":24,
			"type":"VEC3"
		},
		{
			"bufferView":84,
			"componentType":5126,
			"count":24,
			"max":[
				48.952274322509766,
				9.670000076293945,
				203.51515197753906
			],
			"min":[
				42.07227325439453,
				5.59499979019165,
				198.63514709472656
			],
			"type":"VEC3"
		},
		{
			"bufferView":85,
			"componentType":5126,
			"count":24,
			"type":"VEC3"
		},
		{
			"bufferView":86,
			"componentType":5126,
			"count":24,
			"max":[
				48.952274322509766,
				9.670000076293945,
				203.51515197753906
			],
			"min":[
				42.07227325439453,
				5.59499979019165,
				198.63514709472656
			],
			"type":"VEC3"
		},
		{
			"bufferView":87,
			"componentType":5126,
			"count":24,
			"type":"VEC3"
		},
		{
			"bufferView":88,
			"componentType":5126,
			"count":36,
			"max":[
				155.1622772216797,
				4.103000164031982,
				87.525146484375
			],
			"min":[
				122.6022720336914,
				0.11900000274181366,
				58.085147857666016
			],
			"type":"VEC3"
		},
		{
			"bufferView":89,
			"componentType":5126,
			"count":36,
			"type":"VEC3"
		},
		{
			"bufferView":90,
			"componentType":5123,
			"count":60,
			"type":"SCALAR"
		},
		{
			"bufferView":91,
			"componentType":5126,
			"count":36,
			"max":[
				155.1622772216797,
				4.103000164031982,
				87.525146484375
			],
			"min":[
				122.6022720336914,
				0.11900000274181366,
				58.085147857666016
			],
			"type":"VEC3"
		},
		{
			"bufferView":92,
			"componentType":5126,
			"count":36,
			"type":"VEC3"
		},
		{
			"bufferView":93,
			"componentType":5126,
			"count":24,
			"max":[
				195.64227294921875,
				2.506999969482422,
				63.07514572143555
			],
			"min":[
				182.34226989746094,
				-1.4559999704360962,
				47.12514877319336
			],
			"type":"VEC3"
		},
		{
			"bufferView":94,
			"componentType":5126,
			"count":24,
			"type":"VEC3"
		},
		{
			"bufferView":95,
			"componentType":5126,
			"count":24,
			"max":[
				195.64227294921875,
				2.506999969482422,
				63.07514572143555
			],
			"min":[
				182.34226989746094,
				-1.4559999704360962,
				47.12514877319336
			],
			"type":"VEC3"
		},
		{
			"bufferView":96,
			"componentType":5126,
			"count":24,
			"type":"VEC3"
		},
		{
			"bufferView":97,
			"componentType":5126,
			"count":36,
			"max":[
				43.96227264404297,
				4.4770002365112305,
				13.42514705657959
			],
			"min":[
				26.44227409362793,
				0.6890000104904175,
				-0.8148528933525085
			],
			"type":"VEC3"
		},
		{
			"bufferView":98,
			"componentType":5126,
			"count":36,
			"type":"VEC3"
		},
		{
			"bufferView":99,
			"componentType":5123,
			"count":60,
			"type":"SCALAR"
		},
		{
			"bufferView":100,
			"componentType":5126,
			"count":36,
			"max":[
				43.96227264404297,
				4.4770002365112305,
				13.42514705657959
			],
			"min":[
				26.44227409362793,
				0.6890000104904175,
				-0.8148528933525085
			],
			"type":"VEC3"
		},
		{
			"bufferView":101,
			"componentType":5126,
			"count":36,
			"type":"VEC3"
		},
		{
			"bufferView":102,
			"componentType":5126,
			"count":24,
			"max":[
				-167.92771911621094,
				16.235000610351562,
				114.1251449584961
			],
			"min":[
				-175.7077178955078,
				12.454999923706055,
				96.275146484375
			],
			"type":"VEC3"
		},
		{
			"bufferView":103,
			"componentType":5126,
			"count":24,
			"type":"VEC3"
		},
		{
			"bufferView":104,
			"componentType":5126,
			"count":24,
			"max":[
				-167.92771911621094,
				16.235000610351562,
				114.1251449584961
			],
			"min":[
				-175.7077178955078,
				12.454999923706055,
				96.275146484375
			],
			"type":"VEC3"
		},
		{
			"bufferView":105,
			"componentType":5126,
			"count":24,
			"type":"VEC3"
		},
		{
			"bufferView":106,
			"componentType":5126,
			"count":24,
			"max":[
				-4.677725315093994,
				19.31599998474121,
				-30.964853286743164
			],
			"min":[
				-17.117725372314453,
				15.541999816894531,
				-47.54485321044922
			],
			"type":"VEC3"
		},
		{
			"bufferView":107,
			"componentType":5126,
			"count":24,
			"type":"VEC3"
		},
		{
			"bufferView":108,
			"componentType":5126,
			"count":24,
			"max":[
				-4.677725315093994,
				19.31599998474121,
				-30.964853286743164
			],
			"min":[
				-17.117725372314453,
				15.541999816894531,
				-47.54485321044922
			],
			"type":"VEC3"
		},
		{
			"bufferView":109,
			"componentType":5126,
			"count":24,
			"type":"VEC3"
		},
		{
			"bufferView":110,
			"componentType":5126,
			"count":24,
			"max":[
				-153.25772094726562,
				16.511999130249023,
				172.00514221191406
			],
			"min":[
				-165.0877227783203,
				12.840999603271484,
				163.8551483154297
			],
			"type":"VEC3"
		},
		{
			"bufferView":111,
			"componentType":5126,
			"count":24,
			"type":"VEC3"
		},
		{
			"bufferView":112,
			"componentType":5126,
			"count":24,
			"max":[
				-153.25772094726562,
				16.511999130249023,
				172.00514221191406
			],
			"min":[
				-165.0877227783203,
				12.840999603271484,
				163.8551483154297
			],
			"type":"VEC3"
		},
		{
			"bufferView":113,
			"componentType":5126,
			"count":24,
			"type":"VEC3"
		},
		{
			"bufferView":114,
			"componentType":5126,
			"count":24,
			"max":[
				-198.73773193359375,
				16.540000915527344,
				39.61514663696289
			],
			"min":[
				-206.7877197265625,
				12.935999870300293,
				33.7651481628418
			],
			"type":"VEC3"
		},
		{
			"bufferView":115,
			"componentType":5126,
			"count":24,
			"type":"VEC3"
		},
		{
			"bufferView":116,
			"componentType":5126,
			"count":24,
			"max":[
				-198.73773193359375,
				16.540000915527344,
				39.61514663696289
			],
			"min":[
				-206.7877197265625,
				12.935999870300293,
				33.7651481628418
			],
			"type":"VEC3"
		},
		{
			"bufferView":117,
			"componentType":5126,
			"count":24,
			"type":"VEC3"
		},
		{
			"bufferView":118,
			"componentType":5126,
			"count":24,
			"max":[
				-153.57772827148438,
				16.2450008392334,
				138.79515075683594
			],
			"min":[
				-169.3777313232422,
				12.770000457763672,
				131.4551544189453
			],
			"type":"VEC3"
		},
		{
			"bufferView":119,
			"componentType":5126,
			"count":24,
			"type":"VEC3"
		},
		{
			"bufferView":120,
			"componentType":5126,
			"count":24,
			"max":[
				-153.57772827148438,
				16.2450008392334,
				138.79515075683594
			],
			"min":[
				-169.3777313232422,
				12.770000457763672,
				131.4551544189453
			],
			"type":"VEC3"
		},
		{
			"bufferView":121,
			"componentType":5126,
			"count":24,
			"type":"VEC3"
		},
		{
			"bufferView":122,
			"componentType":5126,
			"count":24,
			"max":[
				-151.30772399902344,
				16.191999435424805,
				146.8951416015625
			],
			"min":[
				-168.06771850585938,
				12.836999893188477,
				139.30514526367188
			],
			"type":"VEC3"
		},
		{
			"bufferView":123,
			"componentType":5126,
			"count":24,
			"type":"VEC3"
		},
		{
			"bufferView":124,
			"componentType":5126,
			"count":24,
			"max":[
				-151.30772399902344,
				16.191999435424805,
				146.8951416015625
			],
			"min":[
				-168.06771850585938,
				12.836999893188477,
				139.30514526367188
			],
			"type":"VEC3"
		},
		{
			"bufferView":125,
			"componentType":5126,
			"count":24,
			"type":"VEC3"
		},
		{
			"bufferView":126,
			"componentType":5126,
			"count":24,
			"max":[
				-158.7177276611328,
				16.266000747680664,
				130.775146484375
			],
			"min":[
				-170.69772338867188,
				13.012999534606934,
				124.13514709472656
			],
			"type":"VEC3"
		},
		{
			"bufferView":127,
			"componentType":5126,
			"count":24,
			"type":"VEC3"
		},
		{
			"bufferView":128,
			"componentType":5126,
			"count":24,
			"max":[
				-158.7177276611328,
				16.266000747680664,
				130.775146484375
			],
			"min":[
				-170.69772338867188,
				13.012999534606934,
				124.13514709472656
			],
			"type":"VEC3"
		},
		{
			"bufferView":129,
			"componentType":5126,
			"count":24,
			"type":"VEC3"
		},
		{
			"bufferView":130,
			"componentType":5126,
			"count":36,
			"max":[
				-180.52772521972656,
				16.211999893188477,
				121.1251449584961
			],
			"min":[
				-202.55772399902344,
				12.994999885559082,
				109.4251480102539
			],
			"type":"VEC3"
		},
		{
			"bufferView":131,
			"componentType":5126,
			"count":36,
			"type":"VEC3"
		},
		{
			"bufferView":132,
			"componentType":5126,
			"count":36,
			"max":[
				-180.52772521972656,
				16.211999893188477,
				121.1251449584961
			],
			"min":[
				-202.55772399902344,
				12.994999885559082,
				109.4251480102539
			],
			"type":"VEC3"
		},
		{
			"bufferView":133,
			"componentType":5126,
			"count":36,
			"type":"VEC3"
		},
		{
			"bufferView":134,
			"componentType":5126,
			"count":24,
			"max":[
				30.202274322509766,
				2.9760000705718994,
				-155.08485412597656
			],
			"min":[
				26.572275161743164,
				-0.20900000631809235,
				-158.83485412597656
			],
			"type":"VEC3"
		},
		{
			"bufferView":135,
			"componentType":5126,
			"count":24,
			"type":"VEC3"
		},
		{
			"bufferView":136,
			"componentType":5126,
			"count":24,
			"max":[
				30.202274322509766,
				2.9760000705718994,
				-155.08485412597656
			],
			"min":[
				26.572275161743164,
				-0.20900000631809235,
				-158.83485412597656
			],
			"type":"VEC3"
		},
		{
			"bufferView":137,
			"componentType":5126,
			"count":24,
			"type":"VEC3"
		},
		{
			"bufferView":138,
			"componentType":5126,
			"count":36,
			"max":[
				78.73377227783203,
				3.509999990463257,
				10.86104679107666
			],
			"min":[
				50.56367492675781,
				0.3930000066757202,
				-2.7589528560638428
			],
			"type":"VEC3"
		},
		{
			"bufferView":139,
			"componentType":5126,
			"count":36,
			"type":"VEC3"
		},
		{
			"bufferView":140,
			"componentType":5123,
			"count":60,
			"type":"SCALAR"
		},
		{
			"bufferView":141,
			"componentType":5126,
			"count":36,
			"max":[
				78.73377227783203,
				3.509999990463257,
				10.86104679107666
			],
			"min":[
				50.56367492675781,
				0.3930000066757202,
				-2.7589528560638428
			],
			"type":"VEC3"
		},
		{
			"bufferView":142,
			"componentType":5126,
			"count":36,
			"type":"VEC3"
		},
		{
			"bufferView":143,
			"componentType":5126,
			"count":24,
			"max":[
				60.542274475097656,
				8.190999984741211,
				200.76515197753906
			],
			"min":[
				48.82227325439453,
				5.3470001220703125,
				191.63514709472656
			],
			"type":"VEC3"
		},
		{
			"bufferView":144,
			"componentType":5126,
			"count":24,
			"type":"VEC3"
		},
		{
			"bufferView":145,
			"componentType":5126,
			"count":24,
			"max":[
				60.542274475097656,
				8.190999984741211,
				200.76515197753906
			],
			"min":[
				48.82227325439453,
				5.3470001220703125,
				191.63514709472656
			],
			"type":"VEC3"
		},
		{
			"bufferView":146,
			"componentType":5126,
			"count":24,
			"type":"VEC3"
		},
		{
			"bufferView":147,
			"componentType":5126,
			"count":28,
			"max":[
				-76.74772644042969,
				18.6299991607666,
				14.935147285461426
			],
			"min":[
				-82.62772369384766,
				16.4689998626709,
				9.5851469039917
			],
			"type":"VEC3"
		},
		{
			"bufferView":148,
			"componentType":5126,
			"count":28,
			"type":"VEC3"
		},
		{
			"bufferView":149,
			"componentType":5123,
			"count":36,
			"type":"SCALAR"
		},
		{
			"bufferView":150,
			"componentType":5126,
			"count":28,
			"max":[
				-76.74772644042969,
				18.6299991607666,
				14.935147285461426
			],
			"min":[
				-82.62772369384766,
				16.4689998626709,
				9.5851469039917
			],
			"type":"VEC3"
		},
		{
			"bufferView":151,
			"componentType":5126,
			"count":28,
			"type":"VEC3"
		},
		{
			"bufferView":152,
			"componentType":5126,
			"count":28,
			"max":[
				161.6622772216797,
				0.5870000123977661,
				5.5051469802856445
			],
			"min":[
				159.082275390625,
				-1.5460000038146973,
				2.495147228240967
			],
			"type":"VEC3"
		},
		{
			"bufferView":153,
			"componentType":5126,
			"count":28,
			"type":"VEC3"
		},
		{
			"bufferView":154,
			"componentType":5123,
			"count":36,
			"type":"SCALAR"
		},
		{
			"bufferView":155,
			"componentType":5126,
			"count":28,
			"max":[
				161.6622772216797,
				0.5870000123977661,
				5.5051469802856445
			],
			"min":[
				159.082275390625,
				-1.5460000038146973,
				2.495147228240967
			],
			"type":"VEC3"
		},
		{
			"bufferView":156,
			"componentType":5126,
			"count":28,
			"type":"VEC3"
		},
		{
			"bufferView":157,
			"componentType":5126,
			"count":366,
			"max":[
				180.9832763671875,
				16.152999877929688,
				219.39085388183594
			],
			"min":[
				38.622276306152344,
				-1.3539999723434448,
				112.2811508178711
			],
			"type":"VEC3"
		},
		{
			"bufferView":158,
			"componentType":5126,
			"count":366,
			"type":"VEC3"
		},
		{
			"bufferView":159,
			"componentType":5123,
			"count":720,
			"type":"SCALAR"
		},
		{
			"bufferView":160,
			"componentType":5126,
			"count":366,
			"max":[
				180.9832763671875,
				16.152999877929688,
				219.39085388183594
			],
			"min":[
				38.622276306152344,
				-1.3539999723434448,
				112.2811508178711
			],
			"type":"VEC3"
		},
		{
			"bufferView":161,
			"componentType":5126,
			"count":366,
			"type":"VEC3"
		},
		{
			"bufferView":162,
			"componentType":5126,
			"count":36,
			"max":[
				-23.94692611694336,
				32.78099822998047,
				-29.7121524810791
			],
			"min":[
				-37.886924743652344,
				15.423999786376953,
				-38.81215286254883
			],
			"type":"VEC3"
		},
		{
			"bufferView":163,
			"componentType":5126,
			"count":36,
			"type":"VEC3"
		},
		{
			"bufferView":164,
			"componentType":5123,
			"count":60,
			"type":"SCALAR"
		},
		{
			"bufferView":165,
			"componentType":5126,
			"count":36,
			"max":[
				-23.94692611694336,
				32.78099822998047,
				-29.7121524810791
			],
			"min":[
				-37.886924743652344,
				15.423999786376953,
				-38.81215286254883
			],
			"type":"VEC3"
		},
		{
			"bufferView":166,
			"componentType":5126,
			"count":36,
			"type":"VEC3"
		},
		{
			"bufferView":167,
			"componentType":5126,
			"count":24,
			"max":[
				-2.7377254962921143,
				29.20800018310547,
				61.985145568847656
			],
			"min":[
				-7.477725505828857,
				15.079000473022461,
				56.32514572143555
			],
			"type":"VEC3"
		},
		{
			"bufferView":168,
			"componentType":5126,
			"count":24,
			"type":"VEC3"
		},
		{
			"bufferView":169,
			"componentType":5126,
			"count":24,
			"max":[
				-2.7377254962921143,
				29.20800018310547,
				61.985145568847656
			],
			"min":[
				-7.477725505828857,
				15.079000473022461,
				56.32514572143555
			],
			"type":"VEC3"
		},
		{
			"bufferView":170,
			"componentType":5126,
			"count":24,
			"type":"VEC3"
		},
		{
			"bufferView":171,
			"componentType":5126,
			"count":42948,
			"max":[
				252,
				19.331859588623047,
				252
			],
			"min":[
				-252,
				-7.751136779785156,
				-252
			],
			"type":"VEC3"
		},
		{
			"bufferView":172,
			"componentType":5126,
			"count":42948,
			"type":"VEC3"
		},
		{
			"bufferView":173,
			"componentType":5123,
			"count":42948,
			"type":"SCALAR"
		}
	],
	"bufferViews":[
		{
			"buffer":0,
			"byteLength":288,
			"byteOffset":0,
			"target":34962
		},
		{
			"buffer":0,
			"byteLength":288,
			"byteOffset":288,
			"target":34962
		},
		{
			"buffer":0,
			"byteLength":72,
			"byteOffset":576,
			"target":34963
		},
		{
			"buffer":0,
			"byteLength":288,
			"byteOffset":648,
			"target":34962
		},
		{
			"buffer":0,
			"byteLength":288,
			"byteOffset":936,
			"target":34962
		},
		{
			"buffer":0,
			"byteLength":288,
			"byteOffset":1224,
			"target":34962
		},
		{
			"buffer":0,
			"byteLength":288,
			"byteOffset":1512,
			"target":34962
		},
		{
			"buffer":0,
			"byteLength":72,
			"byteOffset":1800,
			"target":34963
		},
		{
			"buffer":0,
			"byteLength":288,
			"byteOffset":1872,
			"target":34962
		},
		{
			"buffer":0,
			"byteLength":288,
			"byteOffset":2160,
			"target":34962
		},
		{
			"buffer":0,
			"byteLength":288,
			"byteOffset":2448,
			"target":34962
		},
		{
			"buffer":0,
			"byteLength":288,
			"byteOffset":2736,
			"target":34962
		},
		{
			"buffer":0,
			"byteLength":288,
			"byteOffset":3024,
			"target":34962
		},
		{
			"buffer":0,
			"byteLength":288,
			"byteOffset":3312,
			"target":34962
		},
		{
			"buffer":0,
			"byteLength":288,
			"byteOffset":3600,
			"target":34962
		},
		{
			"buffer":0,
			"byteLength":288,
			"byteOffset":3888,
			"target":34962
		},
		{
			"buffer":0,
			"byteLength":288,
			"byteOffset":4176,
			"target":34962
		},
		{
			"buffer":0,
			"byteLength":288,
			"byteOffset":4464,
			"target":34962
		},
		{
			"buffer":0,
			"byteLength":1680,
			"byteOffset":4752,
			"target":34962
		},
		{
			"buffer":0,
			"byteLength":1680,
			"byteOffset":6432,
			"target":34962
		},
		{
			"buffer":0,
			"byteLength":552,
			"byteOffset":8112,
			"target":34963
		},
		{
			"buffer":0,
			"byteLength":1680,
			"byteOffset":8664,
			"target":34962
		},
		{
			"buffer":0,
			"byteLength":1680,
			"byteOffset":10344,
			"target":34962
		},
		{
			"buffer":0,
			"byteLength":288,
			"byteOffset":12024,
			"target":34962
		},
		{
			"buffer":0,
			"byteLength":288,
			"byteOffset":12312,
			"target":34962
		},
		{
			"buffer":0,
			"byteLength":288,
			"byteOffset":12600,
			"target":34962
		},
		{
			"buffer":0,
			"byteLength":288,
			"byteOffset":12888,
			"target":34962
		},
		{
			"buffer":0,
			"byteLength":288,
			"byteOffset":13176,
			"target":34962
		},
		{
			"buffer":0,
			"byteLength":288,
			"byteOffset":13464,
			"target":34962
		},
		{
			"buffer":0,
			"byteLength":288,
			"byteOffset":13752,
			"target":34962
		},
		{
			"buffer":0,
			"byteLength":288,
			"byteOffset":14040,
			"target":34962
		},
		{
			"buffer":0,
			"byteLength":288,
			"byteOffset":14328,
			"target":34962
		},
		{
			"buffer":0,
			"byteLength":288,
			"byteOffset":14616,
			"target":34962
		},
		{
			"buffer":0,
			"byteLength":288,
			"byteOffset":14904,
			"target":34962
		},
		{
			"buffer":0,
			"byteLength":288,
			"byteOffset":15192,
			"target":34962
		},
		{
			"buffer":0,
			"byteLength":288,
			"byteOffset":15480,
			"target":34962
		},
		{
			"buffer":0,
			"byteLength":288,
			"byteOffset":15768,
			"target":34962
		},
		{
			"buffer":0,
			"byteLength":288,
			"byteOffset":16056,
			"target":34962
		},
		{
			"buffer":0,
			"byteLength":288,
			"byteOffset":16344,
			"target":34962
		},
		{
			"buffer":0,
			"byteLength":288,
			"byteOffset":16632,
			"target":34962
		},
		{
			"buffer":0,
			"byteLength":288,
			"byteOffset":16920,
			"target":34962
		},
		{
			"buffer":0,
			"byteLength":72,
			"byteOffset":17208,
			"target":34963
		},
		{
			"buffer":0,
			"byteLength":288,
			"byteOffset":17280,
			"target":34962
		},
		{
			"buffer":0,
			"byteLength":288,
			"byteOffset":17568,
			"target":34962
		},
		{
			"buffer":0,
			"byteLength":288,
			"byteOffset":17856,
			"target":34962
		},
		{
			"buffer":0,
			"byteLength":288,
			"byteOffset":18144,
			"target":34962
		},
		{
			"buffer":0,
			"byteLength":288,
			"byteOffset":18432,
			"target":34962
		},
		{
			"buffer":0,
			"byteLength":288,
			"byteOffset":18720,
			"target":34962
		},
		{
			"buffer":0,
			"byteLength":288,
			"byteOffset":19008,
			"target":34962
		},
		{
			"buffer":0,
			"byteLength":288,
			"byteOffset":19296,
			"target":34962
		},
		{
			"buffer":0,
			"byteLength":72,
			"byteOffset":19584,
			"target":34963
		},
		{
			"buffer":0,
			"byteLength":288,
			"byteOffset":19656,
			"target":34962
		},
		{
			"buffer":0,
			"byteLength":288,
			"byteOffset":19944,
			"target":34962
		},
		{
			"buffer":0,
			"byteLength":912,
			"byteOffset":20232,
			"target":34962
		},
		{
			"buffer":0,
			"byteLength":912,
			"byteOffset":21144,
			"target":34962
		},
		{
			"buffer":0,
			"byteLength":288,
			"byteOffset":22056,
			"target":34963
		},
		{
			"buffer":0,
			"byteLength":912,
			"byteOffset":22344,
			"target":34962
		},
		{
			"buffer":0,
			"byteLength":912,
			"byteOffset":23256,
			"target":34962
		},
		{
			"buffer":0,
			"byteLength":312,
			"byteOffset":24168,
			"target":34962
		},
		{
			"buffer":0,
			"byteLength":312,
			"byteOffset":24480,
			"target":34962
		},
		{
			"buffer":0,
			"byteLength":72,
			"byteOffset":24792,
			"target":34963
		},
		{
			"buffer":0,
			"byteLength":312,
			"byteOffset":24864,
			"target":34962
		},
		{
			"buffer":0,
			"byteLength":312,
			"byteOffset":25176,
			"target":34962
		},
		{
			"buffer":0,
			"byteLength":288,
			"byteOffset":25488,
			"target":34962
		},
		{
			"buffer":0,
			"byteLength":288,
			"byteOffset":25776,
			"target":34962
		},
		{
			"buffer":0,
			"byteLength":288,
			"byteOffset":26064,
			"target":34962
		},
		{
			"buffer":0,
			"byteLength":288,
			"byteOffset":26352,
			"target":34962
		},
		{
			"buffer":0,
			"byteLength":288,
			"byteOffset":26640,
			"target":34962
		},
		{
			"buffer":0,
			"byteLength":288,
			"byteOffset":26928,
			"target":34962
		},
		{
			"buffer":0,
			"byteLength":288,
			"byteOffset":27216,
			"target":34962
		},
		{
			"buffer":0,
			"byteLength":288,
			"byteOffset":27504,
			"target":34962
		},
		{
			"buffer":0,
			"byteLength":600,
			"byteOffset":27792,
			"target":34962
		},
		{
			"buffer":0,
			"byteLength":600,
			"byteOffset":28392,
			"target":34962
		},
		{
			"buffer":0,
			"byteLength":168,
			"byteOffset":28992,
			"target":34963
		},
		{
			"buffer":0,
			"byteLength":600,
			"byteOffset":29160,
			"target":34962
		},
		{
			"buffer":0,
			"byteLength":600,
			"byteOffset":29760,
			"target":34962
		},
		{
			"buffer":0,
			"byteLength":288,
			"byteOffset":30360,
			"target":34962
		},
		{
			"buffer":0,
			"byteLength":288,
			"byteOffset":30648,
			"target":34962
		},
		{
			"buffer":0,
			"byteLength":288,
			"byteOffset":30936,
			"target":34962
		},
		{
			"buffer":0,
			"byteLength":288,
			"byteOffset":31224,
			"target":34962
		},
		{
			"buffer":0,
			"byteLength":288,
			"byteOffset":31512,
			"target":34962
		},
		{
			"buffer":0,
			"byteLength":288,
			"byteOffset":31800,
			"target":34962
		},
		{
			"buffer":0,
			"byteLength":288,
			"byteOffset":32088,
			"target":34962
		},
		{
			"buffer":0,
			"byteLength":288,
			"byteOffset":32376,
			"target":34962
		},
		{
			"buffer":0,
			"byteLength":288,
			"byteOffset":32664,
			"target":34962
		},
		{
			"buffer":0,
			"byteLength":288,
			"byteOffset":32952,
			"target":34962
		},
		{
			"buffer":0,
			"byteLength":288,
			"byteOffset":33240,
			"target":34962
		},
		{
			"buffer":0,
			"byteLength":288,
			"byteOffset":33528,
			"target":34962
		},
		{
			"buffer":0,
			"byteLength":432,
			"byteOffset":33816,
			"target":34962
		},
		{
			"buffer":0,
			"byteLength":432,
			"byteOffset":34248,
			"target":34962
		},
		{
			"buffer":0,
			"byteLength":120,
			"byteOffset":34680,
			"target":34963
		},
		{
			"buffer":0,
			"byteLength":432,
			"byteOffset":34800,
			"target":34962
		},
		{
			"buffer":0,
			"byteLength":432,
			"byteOffset":35232,
			"target":34962
		},
		{
			"buffer":0,
			"byteLength":288,
			"byteOffset":35664,
			"target":34962
		},
		{
			"buffer":0,
			"byteLength":288,
			"byteOffset":35952,
			"target":34962
		},
		{
			"buffer":0,
			"byteLength":288,
			"byteOffset":36240,
			"target":34962
		},
		{
			"buffer":0,
			"byteLength":288,
			"byteOffset":36528,
			"target":34962
		},
		{
			"buffer":0,
			"byteLength":432,
			"byteOffset":36816,
			"target":34962
		},
		{
			"buffer":0,
			"byteLength":432,
			"byteOffset":37248,
			"target":34962
		},
		{
			"buffer":0,
			"byteLength":120,
			"byteOffset":37680,
			"target":34963
		},
		{
			"buffer":0,
			"byteLength":432,
			"byteOffset":37800,
			"target":34962
		},
		{
			"buffer":0,
			"byteLength":432,
			"byteOffset":38232,
			"target":34962
		},
		{
			"buffer":0,
			"byteLength":288,
			"byteOffset":38664,
			"target":34962
		},
		{
			"buffer":0,
			"byteLength":288,
			"byteOffset":38952,
			"target":34962
		},
		{
			"buffer":0,
			"byteLength":288,
			"byteOffset":39240,
			"target":34962
		},
		{
			"buffer":0,
			"byteLength":288,
			"byteOffset":39528,
			"target":34962
		},
		{
			"buffer":0,
			"byteLength":288,
			"byteOffset":39816,
			"target":34962
		},
		{
			"buffer":0,
			"byteLength":288,
			"byteOffset":40104,
			"target":34962
		},
		{
			"buffer":0,
			"byteLength":288,
			"byteOffset":40392,
			"target":34962
		},
		{
			"buffer":0,
			"byteLength":288,
			"byteOffset":40680,
			"target":34962
		},
		{
			"buffer":0,
			"byteLength":288,
			"byteOffset":40968,
			"target":34962
		},
		{
			"buffer":0,
			"byteLength":288,
			"byteOffset":41256,
			"target":34962
		},
		{
			"buffer":0,
			"byteLength":288,
			"byteOffset":41544,
			"target":34962
		},
		{
			"buffer":0,
			"byteLength":288,
			"byteOffset":41832,
			"target":34962
		},
		{
			"buffer":0,
			"byteLength":288,
			"byteOffset":42120,
			"target":34962
		},
		{
			"buffer":0,
			"byteLength":288,
			"byteOffset":42408,
			"target":34962
		},
		{
			"buffer":0,
			"byteLength":288,
			"byteOffset":42696,
			"target":34962
		},
		{
			"buffer":0,
			"byteLength":288,
			"byteOffset":42984,
			"target":34962
		},
		{
			"buffer":0,
			"byteLength":288,
			"byteOffset":43272,
			"target":34962
		},
		{
			"buffer":0,
			"byteLength":288,
			"byteOffset":43560,
			"target":34962
		},
		{
			"buffer":0,
			"byteLength":288,
			"byteOffset":43848,
			"target":34962
		},
		{
			"buffer":0,
			"byteLength":288,
			"byteOffset":44136,
			"target":34962
		},
		{
			"buffer":0,
			"byteLength":288,
			"byteOffset":44424,
			"target":34962
		},
		{
			"buffer":0,
			"byteLength":288,
			"byteOffset":44712,
			"target":34962
		},
		{
			"buffer":0,
			"byteLength":288,
			"byteOffset":45000,
			"target":34962
		},
		{
			"buffer":0,
			"byteLength":288,
			"byteOffset":45288,
			"target":34962
		},
		{
			"buffer":0,
			"byteLength":288,
			"byteOffset":45576,
			"target":34962
		},
		{
			"buffer":0,
			"byteLength":288,
			"byteOffset":45864,
			"target":34962
		},
		{
			"buffer":0,
			"byteLength":288,
			"byteOffset":46152,
			"target":34962
		},
		{
			"buffer":0,
			"byteLength":288,
			"byteOffset":46440,
			"target":34962
		},
		{
			"buffer":0,
			"byteLength":432,
			"byteOffset":46728,
			"target":34962
		},
		{
			"buffer":0,
			"byteLength":432,
			"byteOffset":47160,
			"target":34962
		},
		{
			"buffer":0,
			"byteLength":432,
			"byteOffset":47592,
			"target":34962
		},
		{
			"buffer":0,
			"byteLength":432,
			"byteOffset":48024,
			"target":34962
		},
		{
			"buffer":0,
			"byteLength":288,
			"byteOffset":48456,
			"target":34962
		},
		{
			"buffer":0,
			"byteLength":288,
			"byteOffset":48744,
			"target":34962
		},
		{
			"buffer":0,
			"byteLength":288,
			"byteOffset":49032,
			"target":34962
		},
		{
			"buffer":0,
			"byteLength":288,
			"byteOffset":49320,
			"target":34962
		},
		{
			"buffer":0,
			"byteLength":432,
			"byteOffset":49608,
			"target":34962
		},
		{
			"buffer":0,
			"byteLength":432,
			"byteOffset":50040,
			"target":34962
		},
		{
			"buffer":0,
			"byteLength":120,
			"byteOffset":50472,
			"target":34963
		},
		{
			"buffer":0,
			"byteLength":432,
			"byteOffset":50592,
			"target":34962
		},
		{
			"buffer":0,
			"byteLength":432,
			"byteOffset":51024,
			"target":34962
		},
		{
			"buffer":0,
			"byteLength":288,
			"byteOffset":51456,
			"target":34962
		},
		{
			"buffer":0,
			"byteLength":288,
			"byteOffset":51744,
			"target":34962
		},
		{
			"buffer":0,
			"byteLength":288,
			"byteOffset":52032,
			"target":34962
		},
		{
			"buffer":0,
			"byteLength":288,
			"byteOffset":52320,
			"target":34962
		},
		{
			"buffer":0,
			"byteLength":336,
			"byteOffset":52608,
			"target":34962
		},
		{
			"buffer":0,
			"byteLength":336,
			"byteOffset":52944,
			"target":34962
		},
		{
			"buffer":0,
			"byteLength":72,
			"byteOffset":53280,
			"target":34963
		},
		{
			"buffer":0,
			"byteLength":336,
			"byteOffset":53352,
			"target":34962
		},
		{
			"buffer":0,
			"byteLength":336,
			"byteOffset":53688,
			"target":34962
		},
		{
			"buffer":0,
			"byteLength":336,
			"byteOffset":54024,
			"target":34962
		},
		{
			"buffer":0,
			"byteLength":336,
			"byteOffset":54360,
			"target":34962
		},
		{
			"buffer":0,
			"byteLength":72,
			"byteOffset":54696,
			"target":34963
		},
		{
			"buffer":0,
			"byteLength":336,
			"byteOffset":54768,
			"target":34962
		},
		{
			"buffer":0,
			"byteLength":336,
			"byteOffset":55104,
			"target":34962
		},
		{
			"buffer":0,
			"byteLength":4392,
			"byteOffset":55440,
			"target":34962
		},
		{
			"buffer":0,
			"byteLength":4392,
			"byteOffset":59832,
			"target":34962
		},
		{
			"buffer":0,
			"byteLength":1440,
			"byteOffset":64224,
			"target":34963
		},
		{
			"buffer":0,
			"byteLength":4392,
			"byteOffset":65664,
			"target":34962
		},
		{
			"buffer":0,
			"byteLength":4392,
			"byteOffset":70056,
			"target":34962
		},
		{
			"buffer":0,
			"byteLength":432,
			"byteOffset":74448,
			"target":34962
		},
		{
			"buffer":0,
			"byteLength":432,
			"byteOffset":74880,
			"target":34962
		},
		{
			"buffer":0,
			"byteLength":120,
			"byteOffset":75312,
			"target":34963
		},
		{
			"buffer":0,
			"byteLength":432,
			"byteOffset":75432,
			"target":34962
		},
		{
			"buffer":0,
			"byteLength":432,
			"byteOffset":75864,
			"target":34962
		},
		{
			"buffer":0,
			"byteLength":288,
			"byteOffset":76296,
			"target":34962
		},
		{
			"buffer":0,
			"byteLength":288,
			"byteOffset":76584,
			"target":34962
		},
		{
			"buffer":0,
			"byteLength":288,
			"byteOffset":76872,
			"target":34962
		},
		{
			"buffer":0,
			"byteLength":288,
			"byteOffset":77160,
			"target":34962
		},
		{
			"buffer":0,
			"byteLength":515376,
			"byteOffset":77448,
			"target":34962
		},
		{
			"buffer":0,
			"byteLength":515376,
			"byteOffset":592824,
			"target":34962
		},
		{
			"buffer":0,
			"byteLength":85896,
			"byteOffset":1108200,
			"target":34963
		}
	],
	"buffers":[
		{
			"byteLength":1194096,
			"uri":"Piece_2_3.bin"
		}
	]
}
