{
	"asset":{
		"generator":"Khronos glTF Blender I/O v5.2.39",
		"version":"2.0"
	},
	"scene":0,
	"scenes":[
		{
			"extras":{
				"vrm_addon_extension":{
					"vrm0_material_gltf_property_names":[
						{
							"name":"_Color",
							"value":"_Color"
						},
						{
							"name":"_MainTex_ST",
							"value":"_MainTex_ST"
						},
						{
							"name":"_MainTex_ST_S",
							"value":"_MainTex_ST_S"
						},
						{
							"name":"_MainTex_ST_T",
							"value":"_MainTex_ST_T"
						},
						{
							"name":"_MetallicGlossMap_ST",
							"value":"_MetallicGlossMap_ST"
						},
						{
							"name":"_MetallicGlossMap_ST_S",
							"value":"_MetallicGlossMap_ST_S"
						},
						{
							"name":"_MetallicGlossMap_ST_T",
							"value":"_MetallicGlossMap_ST_T"
						},
						{
							"name":"_BumpMap_ST",
							"value":"_BumpMap_ST"
						},
						{
							"name":"_BumpMap_ST_S",
							"value":"_BumpMap_ST_S"
						},
						{
							"name":"_BumpMap_ST_T",
							"value":"_BumpMap_ST_T"
						},
						{
							"name":"_ParallaxMap_ST",
							"value":"_ParallaxMap_ST"
						},
						{
							"name":"_ParallaxMap_ST_S",
							"value":"_ParallaxMap_ST_S"
						},
						{
							"name":"_ParallaxMap_ST_T",
							"value":"_ParallaxMap_ST_T"
						},
						{
							"name":"_OcclusionMap_ST",
							"value":"_OcclusionMap_ST"
						},
						{
							"name":"_OcclusionMap_ST_S",
							"value":"_OcclusionMap_ST_S"
						},
						{
							"name":"_OcclusionMap_ST_T",
							"value":"_OcclusionMap_ST_T"
						},
						{
							"name":"_EmissionColor",
							"value":"_EmissionColor"
						},
						{
							"name":"_EmissionMap_ST",
							"value":"_EmissionMap_ST"
						},
						{
							"name":"_EmissionMap_ST_S",
							"value":"_EmissionMap_ST_S"
						},
						{
							"name":"_EmissionMap_ST_T",
							"value":"_EmissionMap_ST_T"
						},
						{
							"name":"_DetailMask_ST",
							"value":"_DetailMask_ST"
						},
						{
							"name":"_DetailMask_ST_S",
							"value":"_DetailMask_ST_S"
						},
						{
							"name":"_DetailMask_ST_T",
							"value":"_DetailMask_ST_T"
						},
						{
							"name":"_DetailAlbedoMap_ST",
							"value":"_DetailAlbedoMap_ST"
						},
						{
							"name":"_DetailAlbedoMap_ST_S",
							"value":"_DetailAlbedoMap_ST_S"
						},
						{
							"name":"_DetailAlbedoMap_ST_T",
							"value":"_DetailAlbedoMap_ST_T"
						},
						{
							"name":"_DetailNormalMap_ST",
							"value":"_DetailNormalMap_ST"
						},
						{
							"name":"_DetailNormalMap_ST_S",
							"value":"_DetailNormalMap_ST_S"
						},
						{
							"name":"_DetailNormalMap_ST_T",
							"value":"_DetailNormalMap_ST_T"
						}
					],
					"vrm0_material_mtoon0_property_names":[
						{
							"name":"_Color",
							"value":"_Color"
						},
						{
							"name":"_ShadeColor",
							"value":"_ShadeColor"
						},
						{
							"name":"_MainTex_ST",
							"value":"_MainTex_ST"
						},
						{
							"name":"_MainTex_ST_S",
							"value":"_MainTex_ST_S"
						},
						{
							"name":"_MainTex_ST_T",
							"value":"_MainTex_ST_T"
						},
						{
							"name":"_ShadeTexture_ST",
							"value":"_ShadeTexture_ST"
						},
						{
							"name":"_ShadeTexture_ST_S",
							"value":"_ShadeTexture_ST_S"
						},
						{
							"name":"_ShadeTexture_ST_T",
							"value":"_ShadeTexture_ST_T"
						},
						{
							"name":"_BumpMap_ST",
							"value":"_BumpMap_ST"
						},
						{
							"name":"_BumpMap_ST_S",
							"value":"_BumpMap_ST_S"
						},
						{
							"name":"_BumpMap_ST_T",
							"value":"_BumpMap_ST_T"
						},
						{
							"name":"_ReceiveShadowTexture_ST",
							"value":"_ReceiveShadowTexture_ST"
						},
						{
							"name":"_ReceiveShadowTexture_ST_S",
							"value":"_ReceiveShadowTexture_ST_S"
						},
						{
							"name":"_ReceiveShadowTexture_ST_T",
							"value":"_ReceiveShadowTexture_ST_T"
						},
						{
							"name":"_ShadingGradeTexture_ST",
							"value":"_ShadingGradeTexture_ST"
						},
						{
							"name":"_ShadingGradeTexture_ST_S",
							"value":"_ShadingGradeTexture_ST_S"
						},
						{
							"name":"_ShadingGradeTexture_ST_T",
							"value":"_ShadingGradeTexture_ST_T"
						},
						{
							"name":"_RimColor",
							"value":"_RimColor"
						},
						{
							"name":"_RimTexture_ST",
							"value":"_RimTexture_ST"
						},
						{
							"name":"_RimTexture_ST_S",
							"value":"_RimTexture_ST_S"
						},
						{
							"name":"_RimTexture_ST_T",
							"value":"_RimTexture_ST_T"
						},
						{
							"name":"_SphereAdd_ST",
							"value":"_SphereAdd_ST"
						},
						{
							"name":"_SphereAdd_ST_S",
							"value":"_SphereAdd_ST_S"
						},
						{
							"name":"_SphereAdd_ST_T",
							"value":"_SphereAdd_ST_T"
						},
						{
							"name":"_EmissionColor",
							"value":"_EmissionColor"
						},
						{
							"name":"_EmissionMap_ST",
							"value":"_EmissionMap_ST"
						},
						{
							"name":"_EmissionMap_ST_S",
							"value":"_EmissionMap_ST_S"
						},
						{
							"name":"_EmissionMap_ST_T",
							"value":"_EmissionMap_ST_T"
						},
						{
							"name":"_OutlineWidthTexture_ST",
							"value":"_OutlineWidthTexture_ST"
						},
						{
							"name":"_OutlineWidthTexture_ST_S",
							"value":"_OutlineWidthTexture_ST_S"
						},
						{
							"name":"_OutlineWidthTexture_ST_T",
							"value":"_OutlineWidthTexture_ST_T"
						},
						{
							"name":"_OutlineColor",
							"value":"_OutlineColor"
						},
						{
							"name":"_UvAnimMaskTexture_ST",
							"value":"_UvAnimMaskTexture_ST"
						},
						{
							"name":"_UvAnimMaskTexture_ST_S",
							"value":"_UvAnimMaskTexture_ST_S"
						},
						{
							"name":"_UvAnimMaskTexture_ST_T",
							"value":"_UvAnimMaskTexture_ST_T"
						}
					]
				},
				"rka":{}
			},
			"name":"Scene",
			"nodes":[
				0,
				1,
				2,
				3,
				4,
				5,
				6,
				7,
				8
			]
		}
	],
	"nodes":[
		{
			"mesh":0,
			"name":"Overlay_RainbowBridge_Span",
			"translation":[
				189,
				0,
				2700
			]
		},
		{
			"mesh":1,
			"name":"Overlay_RB_Deck-colonly"
		},
		{
			"mesh":2,
			"name":"Overlay_RB_Pier_0",
			"translation":[
				189,
				0,
				2590
			]
		},
		{
			"mesh":3,
			"name":"Overlay_RB_Pier_1",
			"translation":[
				189,
				0,
				2630
			]
		},
		{
			"mesh":4,
			"name":"Overlay_RB_Pier_2",
			"translation":[
				189,
				0,
				2670
			]
		},
		{
			"mesh":5,
			"name":"Overlay_RB_Pier_3",
			"translation":[
				189,
				0,
				2710
			]
		},
		{
			"mesh":6,
			"name":"Overlay_RB_Pier_4",
			"translation":[
				189,
				0,
				2750
			]
		},
		{
			"mesh":7,
			"name":"Overlay_RB_Pier_5",
			"translation":[
				189,
				0,
				2790
			]
		},
		{
			"mesh":8,
			"name":"Overlay_RB_Rail-colonly"
		}
	],
	"materials":[
		{
			"doubleSided":true,
			"extras":{
				"vrm_addon_extension":{
					"mtoon1":{
						"pbr_metallic_roughness":{
							"base_color_texture":{}
						},
						"normal_texture":{},
						"emissive_texture":{},
						"extensions":{
							"vrmc_materials_mtoon":{
								"shade_multiply_texture":{},
								"shading_shift_texture":{},
								"matcap_texture":{},
								"rim_multiply_texture":{},
								"outline_width_multiply_texture":{},
								"uv_animation_mask_texture":{}
							}
						}
					}
				}
			},
			"name":"M_Collision",
			"pbrMetallicRoughness":{
				"baseColorFactor":[
					0.8999999761581421,
					0.20000000298023224,
					0.550000011920929,
					1
				],
				"metallicFactor":0,
				"roughnessFactor":0.5
			}
		},
		{
			"doubleSided":true,
			"extras":{
				"vrm_addon_extension":{
					"mtoon1":{}
				}
			},
			"name":"M_Metal",
			"pbrMetallicRoughness":{
				"baseColorFactor":[
					0.550000011920929,
					0.6000000238418579,
					0.6399999856948853,
					1
				],
				"metallicFactor":0,
				"roughnessFactor":0.5
			}
		}
	],
	"meshes":[
		{
			"name":"RainbowBridge_Real_000_h2m",
			"primitives":[
				{
					"attributes":{
						"POSITION":0,
						"NORMAL":1
					},
					"indices":2
				},
				{
					"attributes":{
						"POSITION":3,
						"NORMAL":4
					},
					"indices":5,
					"material":0
				}
			]
		},
		{
			"name":"Overlay_RB_Deck-colonly",
			"primitives":[
				{
					"attributes":{
						"POSITION":6,
						"NORMAL":7
					},
					"indices":8,
					"material":0
				}
			]
		},
		{
			"name":"Overlay_RB_Pier_0",
			"primitives":[
				{
					"attributes":{
						"POSITION":9,
						"NORMAL":10
					},
					"indices":11,
					"material":1
				}
			]
		},
		{
			"name":"Overlay_RB_Pier_1",
			"primitives":[
				{
					"attributes":{
						"POSITION":12,
						"NORMAL":13
					},
					"indices":11,
					"material":1
				}
			]
		},
		{
			"name":"Overlay_RB_Pier_2",
			"primitives":[
				{
					"attributes":{
						"POSITION":14,
						"NORMAL":15
					},
					"indices":11,
					"material":1
				}
			]
		},
		{
			"name":"Overlay_RB_Pier_3",
			"primitives":[
				{
					"attributes":{
						"POSITION":16,
						"NORMAL":17
					},
					"indices":11,
					"material":1
				}
			]
		},
		{
			"name":"Overlay_RB_Pier_4",
			"primitives":[
				{
					"attributes":{
						"POSITION":18,
						"NORMAL":19
					},
					"indices":11,
					"material":1
				}
			]
		},
		{
			"name":"Overlay_RB_Pier_5",
			"primitives":[
				{
					"attributes":{
						"POSITION":20,
						"NORMAL":21
					},
					"indices":11,
					"material":1
				}
			]
		},
		{
			"name":"Overlay_RB_Rail-colonly",
			"primitives":[
				{
					"attributes":{
						"POSITION":22,
						"NORMAL":23
					},
					"indices":8,
					"material":0
				}
			]
		}
	],
	"accessors":[
		{
			"bufferView":0,
			"componentType":5126,
			"count":38453,
			"max":[
				227.87066650390625,
				127.8697509765625,
				769.2471923828125
			],
			"min":[
				-872.1358032226562,
				-0.08602400124073029,
				-930.1786499023438
			],
			"type":"VEC3"
		},
		{
			"bufferView":1,
			"componentType":5126,
			"count":38453,
			"type":"VEC3"
		},
		{
			"bufferView":2,
			"componentType":5123,
			"count":50208,
			"type":"SCALAR"
		},
		{
			"bufferView":3,
			"componentType":5126,
			"count":4776,
			"max":[
				198.6235809326172,
				121.14299011230469,
				727.1724853515625
			],
			"min":[
				-872.1358032226562,
				-0.08602400124073029,
				-892.2254638671875
			],
			"type":"VEC3"
		},
		{
			"bufferView":4,
			"componentType":5126,
			"count":4776,
			"type":"VEC3"
		},
		{
			"bufferView":5,
			"componentType":5123,
			"count":7164,
			"type":"SCALAR"
		},
		{
			"bufferView":6,
			"componentType":5126,
			"count":24,
			"max":[
				204,
				11,
				2830
			],
			"min":[
				174,
				10.399999618530273,
				2570
			],
			"type":"VEC3"
		},
		{
			"bufferView":7,
			"componentType":5126,
			"count":24,
			"type":"VEC3"
		},
		{
			"bufferView":8,
			"componentType":5123,
			"count":36,
			"type":"SCALAR"
		},
		{
			"bufferView":9,
			"componentType":5126,
			"count":96,
			"max":[
				4,
				10.399999618530273,
				4
			],
			"min":[
				-4,
				-2,
				-4
			],
			"type":"VEC3"
		},
		{
			"bufferView":10,
			"componentType":5126,
			"count":96,
			"type":"VEC3"
		},
		{
			"bufferView":11,
			"componentType":5123,
			"count":180,
			"type":"SCALAR"
		},
		{
			"bufferView":12,
			"componentType":5126,
			"count":96,
			"max":[
				4,
				10.399999618530273,
				4
			],
			"min":[
				-4,
				-2,
				-4
			],
			"type":"VEC3"
		},
		{
			"bufferView":13,
			"componentType":5126,
			"count":96,
			"type":"VEC3"
		},
		{
			"bufferView":14,
			"componentType":5126,
			"count":96,
			"max":[
				4,
				10.399999618530273,
				4
			],
			"min":[
				-4,
				-2,
				-4
			],
			"type":"VEC3"
		},
		{
			"bufferView":15,
			"componentType":5126,
			"count":96,
			"type":"VEC3"
		},
		{
			"bufferView":16,
			"componentType":5126,
			"count":96,
			"max":[
				4,
				10.399999618530273,
				4
			],
			"min":[
				-4,
				-2,
				-4
			],
			"type":"VEC3"
		},
		{
			"bufferView":17,
			"componentType":5126,
			"count":96,
			"type":"VEC3"
		},
		{
			"bufferView":18,
			"componentType":5126,
			"count":96,
			"max":[
				4,
				10.399999618530273,
				4
			],
			"min":[
				-4,
				-2,
				-4
			],
			"type":"VEC3"
		},
		{
			"bufferView":19,
			"componentType":5126,
			"count":96,
			"type":"VEC3"
		},
		{
			"bufferView":20,
			"componentType":5126,
			"count":96,
			"max":[
				4,
				10.399999618530273,
				4
			],
			"min":[
				-4,
				-2,
				-4
			],
			"type":"VEC3"
		},
		{
			"bufferView":21,
			"componentType":5126,
			"count":96,
			"type":"VEC3"
		},
		{
			"bufferView":22,
			"componentType":5126,
			"count":24,
			"max":[
				195,
				8,
				2830
			],
			"min":[
				183,
				7.599999904632568,
				2570
			],
			"type":"VEC3"
		},
		{
			"bufferView":23,
			"componentType":5126,
			"count":24,
			"type":"VEC3"
		}
	],
	"bufferViews":[
		{
			"buffer":0,
			"byteLength":461436,
			"byteOffset":0,
			"target":34962
		},
		{
			"buffer":0,
			"byteLength":461436,
			"byteOffset":461436,
			"target":34962
		},
		{
			"buffer":0,
			"byteLength":100416,
			"byteOffset":922872,
			"target":34963
		},
		{
			"buffer":0,
			"byteLength":57312,
			"byteOffset":1023288,
			"target":34962
		},
		{
			"buffer":0,
			"byteLength":57312,
			"byteOffset":1080600,
			"target":34962
		},
		{
			"buffer":0,
			"byteLength":14328,
			"byteOffset":1137912,
			"target":34963
		},
		{
			"buffer":0,
			"byteLength":288,
			"byteOffset":1152240,
			"target":34962
		},
		{
			"buffer":0,
			"byteLength":288,
			"byteOffset":1152528,
			"target":34962
		},
		{
			"buffer":0,
			"byteLength":72,
			"byteOffset":1152816,
			"target":34963
		},
		{
			"buffer":0,
			"byteLength":1152,
			"byteOffset":1152888,
			"target":34962
		},
		{
			"buffer":0,
			"byteLength":1152,
			"byteOffset":1154040,
			"target":34962
		},
		{
			"buffer":0,
			"byteLength":360,
			"byteOffset":1155192,
			"target":34963
		},
		{
			"buffer":0,
			"byteLength":1152,
			"byteOffset":1155552,
			"target":34962
		},
		{
			"buffer":0,
			"byteLength":1152,
			"byteOffset":1156704,
			"target":34962
		},
		{
			"buffer":0,
			"byteLength":1152,
			"byteOffset":1157856,
			"target":34962
		},
		{
			"buffer":0,
			"byteLength":1152,
			"byteOffset":1159008,
			"target":34962
		},
		{
			"buffer":0,
			"byteLength":1152,
			"byteOffset":1160160,
			"target":34962
		},
		{
			"buffer":0,
			"byteLength":1152,
			"byteOffset":1161312,
			"target":34962
		},
		{
			"buffer":0,
			"byteLength":1152,
			"byteOffset":1162464,
			"target":34962
		},
		{
			"buffer":0,
			"byteLength":1152,
			"byteOffset":1163616,
			"target":34962
		},
		{
			"buffer":0,
			"byteLength":1152,
			"byteOffset":1164768,
			"target":34962
		},
		{
			"buffer":0,
			"byteLength":1152,
			"byteOffset":1165920,
			"target":34962
		},
		{
			"buffer":0,
			"byteLength":288,
			"byteOffset":1167072,
			"target":34962
		},
		{
			"buffer":0,
			"byteLength":288,
			"byteOffset":1167360,
			"target":34962
		}
	],
	"buffers":[
		{
			"byteLength":1167648,
			"uri":"Piece_2_3_b.bin"
		}
	]
}
